<?xml version="1.0" encoding="utf-8"?>
<!-- Generator: Adobe Illustrator 27.5.0, SVG Export Plug-In . SVG Version: 6.00 Build 0)  -->
<svg version="1.1" id="Слой_1" xmlns="http://www.w3.org/2000/svg" xmlns:xlink="http://www.w3.org/1999/xlink" x="0px" y="0px"
	 viewBox="0 0 630.7 682.6" style="enable-background:new 0 0 630.7 682.6;" xml:space="preserve">
<style type="text/css">
	.st0{fill:#FDC500;stroke:#BF9808;stroke-width:4;}
</style>
<g>
	<path class="st0" d="M371.3,453.6c-17.7-0.4-33.2,0.4-46.2,1.7c-27.8,2.7-48.8,7.7-70.9,13.1c-7.6,1.8-19.9,5.3-44.3,12.2
		c-2,0.6-12.1,3.4-24.8,8.2c-6.8,2.5-11.5,4.5-16.7,7.4c-8.9,4.8-13.1,8.8-15.1,10.8c-3.8,3.8-6.5,6.6-7.6,11.2
		c-1.4,5.9,0.7,10.9,1.3,12.2c2.9,6.5,8.6,9.7,13.7,12.5c15.7,8.5,23.6,12.8,29,14.5c90,28.7,181.4,23.2,181.4,23.2
		c10-0.6,32-2.2,59.7-6.9c17.4-2.9,29.7-6,54.1-12c15.6-3.8,32.1-8.2,49.4-17.6c4.1-2.2,11-6.2,18-13.4c6.7-6.9,12.6-13,13-20.4
		c0.8-15.7-23.9-28.5-37.1-35.3c-14-7.2-25.7-10.3-38.8-13.5c-6.9-1.7-22.3-5.3-48.4-7.7c-32.8-3-62.1-2.3-62.2-1.1
		c-0.1,1.5,41.7-0.7,92.9,14.3c23.4,6.8,73.6,21.5,74,41.8c0.4,22.4-60.2,41-75.5,45.7c-17.6,5.4-30.7,7.2-56.9,10.8
		c-54.1,7.4-92.7,6.2-103.7,5.8c-27.4-1.1-45.7-4-51.7-5c-9.7-1.6-18.8-3.8-37-8c-27.4-6.4-33.3-8.8-38.6-11.5
		c-10-5.1-27.1-13.8-26.9-24.7c0.3-11.4,19.4-19.8,34.7-26.6c5.8-2.6,13-4.8,27.5-9.4c17.1-5.3,30.3-8.9,35-10.2
		c7.5-2,23.8-6.4,43.2-10.4C314.6,461.2,340.1,456.7,371.3,453.6z"/>
	<path class="st0" d="M200.1,485.5c-2.5,0.4-3.5,1.3-3.9,2.1c-0.4,0.6-0.3,1.1-0.6,2.8c-0.2,1.3-0.6,2.6-0.9,3.8
		c-4,18.3-9.8,26-9.8,26c-1.6,2.1-3.5,4.6-6.9,6.6c-3.3,1.9-6.4,2.4-9.5,2.9c-2.7,0.4-5.1,0.5-9.9,0.5c-4.5,0-6.8,0-9.8-0.2
		c-0.7-0.1-3.1-0.3-6.3-0.2c-2.6,0.1-3.9,0.2-5.2,1c-0.8,0.4-2.6,1.4-2.8,3.1c-0.1,0.6,0,1.8,3.5,5.1c2.1,1.9,3.7,3,6.4,4.9
		c3.3,2.3,5,3.5,6.5,4.7c0.8,0.6,3.5,2.8,6.7,6.1c3.1,3.2,4.7,4.8,5.9,7.1c0.3,0.6,1.7,3.3,2.3,7c0.4,2.6,0.3,4.6,0.1,7.4
		c-0.1,1.7-0.2,1.9-2,11.8c-0.4,2.1-0.6,3.6-1.2,5.8c-0.7,2.6-1,3.1-1.5,4.7c-0.2,0.8-2.4,8.6,0,10.3c1.6,1.1,4.5-0.8,7.2-2.4
		c2.6-1.6,2.9-2.4,6.2-4.9c1.8-1.4,3.6-2.5,7.1-4.7c4.5-2.8,6.8-4.3,8.3-4.9c1.8-0.8,5.8-2.5,11.2-2.5c5.4-0.1,9.4,1.5,10.7,2
		c2.8,1.2,4.8,2.8,8.7,5.9c6,4.9,9.1,8.3,14.8,10.7c1.7,0.7,4,1.5,5.2,0.5c1-0.8,1-2.5,1-3.4c0-2.2-0.8-3.9-1-4.3
		c-1.7-3.3-2.4-7-3.8-10.5c-1.1-2.8-2.8-7.3-3.6-12.9c-0.6-4-1.1-7.9,0.1-12.6c1.4-4.9,4-8.1,7-11.5c1.4-1.7,4.6-5.4,9.9-8.9
		c4.6-3.1,8.2-4.3,12.5-9c1.6-1.7,2.6-3.2,2.2-4.6c-0.2-0.6-0.8-1.6-5.3-2.5c-4.8-1-8.6-0.7-8.6-0.7c0,0-6,0.5-14.9-0.1
		c-3.6-0.2-11.4-0.7-17.5-5.7c0,0-7.7-6.2-12.4-25.6c-0.4-1.6-1-3.1-1.4-4.7c-0.7-2.8-0.8-4-1.9-5
		C202.2,485.7,201,485.5,200.1,485.5z"/>
	<path class="st0" d="M435.9,424.6c-1.3,0.2-1.8,0.7-2,1.1c-0.2,0.3-0.2,0.6-0.3,1.5c-0.1,0.7-0.3,1.4-0.4,2
		c-2.1,9.7-5.2,13.8-5.2,13.8c-0.8,1.1-1.9,2.4-3.6,3.5c-1.7,1-3.4,1.3-5,1.5c-1.4,0.2-2.7,0.2-5.2,0.3c-2.4,0-3.6,0-5.1-0.1
		c-0.4,0-1.6-0.1-3.3-0.1c-1.4,0-2.1,0.1-2.7,0.5c-0.4,0.2-1.4,0.8-1.5,1.6c0,0.3,0,1,1.8,2.7c1.1,1,1.9,1.6,3.4,2.6
		c1.7,1.2,2.6,1.8,3.4,2.5c0.4,0.3,1.8,1.5,3.5,3.2c1.7,1.7,2.5,2.5,3.1,3.8c0.2,0.3,0.9,1.7,1.2,3.7c0.2,1.4,0.2,2.4,0,3.9
		c-0.1,0.9-0.1,1-1,6.3c-0.2,1.1-0.3,1.9-0.6,3.1c-0.4,1.4-0.6,1.6-0.8,2.5c-0.1,0.4-1.3,4.6,0,5.4c0.8,0.6,2.4-0.4,3.8-1.3
		c1.3-0.8,1.5-1.3,3.2-2.6c1-0.8,1.9-1.3,3.7-2.5c2.4-1.5,3.6-2.3,4.4-2.6c1-0.4,3.1-1.3,5.9-1.3c2.8,0,4.9,0.8,5.6,1.1
		c1.5,0.6,2.6,1.5,4.6,3.1c3.2,2.6,4.8,4.4,7.8,5.7c0.9,0.4,2.1,0.8,2.7,0.3c0.5-0.4,0.5-1.3,0.5-1.8c0-1.2-0.4-2-0.6-2.3
		c-0.9-1.7-1.3-3.7-2-5.5c-0.6-1.5-1.5-3.9-1.9-6.8c-0.3-2.1-0.6-4.2,0.1-6.7c0.7-2.6,2.1-4.3,3.7-6.1c0.7-0.9,2.4-2.9,5.2-4.7
		c2.4-1.6,4.3-2.3,6.6-4.8c0.8-0.9,1.4-1.7,1.2-2.4c-0.1-0.3-0.4-0.9-2.8-1.3c-2.5-0.5-4.5-0.4-4.5-0.4c0,0-3.2,0.3-7.8-0.1
		c-1.9-0.1-6-0.4-9.2-3c0,0-4-3.3-6.5-13.6c-0.2-0.8-0.5-1.7-0.7-2.5c-0.4-1.5-0.4-2.1-1-2.7C437,424.7,436.3,424.6,435.9,424.6z"/>
</g>
<g>
	<path class="st0" d="M358.8,242.8c-17.7-0.4-33.2,0.4-46.2,1.7c-27.8,2.7-48.8,7.7-70.9,13.1c-7.6,1.8-19.9,5.3-44.3,12.2
		c-2,0.6-12.1,3.4-24.8,8.2c-6.8,2.5-11.5,4.5-16.7,7.4c-8.9,4.8-13.1,8.8-15.1,10.8c-3.8,3.8-6.5,6.6-7.6,11.2
		c-1.4,5.9,0.7,10.9,1.3,12.2c2.9,6.5,8.6,9.7,13.7,12.5c15.7,8.5,23.6,12.8,29,14.5c90,28.7,181.4,23.2,181.4,23.2
		c10-0.6,32-2.2,59.7-6.9c17.4-2.9,29.7-6,54.1-12c15.6-3.8,32.1-8.2,49.4-17.6c4.1-2.2,11-6.2,18-13.4c6.7-6.9,12.6-13,13-20.4
		c0.8-15.7-23.9-28.5-37.1-35.3c-14-7.2-25.7-10.3-38.8-13.5c-6.9-1.7-22.3-5.3-48.4-7.7c-32.8-3-62.1-2.3-62.2-1.1
		c-0.1,1.5,41.7-0.7,92.9,14.3c23.4,6.8,73.6,21.5,74,41.8c0.4,22.4-60.2,41-75.5,45.7c-17.6,5.4-30.7,7.2-56.9,10.8
		c-54.1,7.4-92.7,6.2-103.7,5.8c-27.4-1.1-45.7-4-51.7-5c-9.7-1.6-18.8-3.8-37-8c-27.4-6.4-33.3-8.8-38.6-11.5
		c-10-5.1-27.1-13.8-26.9-24.7c0.3-11.4,19.4-19.8,34.7-26.6c5.8-2.6,13-4.8,27.5-9.4c17.1-5.3,30.3-8.9,35-10.2
		c7.5-2,23.8-6.4,43.2-10.4C302.1,250.4,327.5,245.9,358.8,242.8z"/>
	<path class="st0" d="M363.8,263.4c-3.2,0.5-4.4,1.6-4.9,2.6c-0.5,0.8-0.4,1.4-0.8,3.4c-0.3,1.6-0.7,3.2-1.1,4.8
		c-5,22.6-12.4,32.2-12.4,32.2c-2,2.6-4.5,5.7-8.8,8.2c-4.2,2.4-8.1,3-12,3.6c-3.5,0.5-6.5,0.6-12.5,0.6c-5.7,0-8.6,0.1-12.4-0.2
		c-0.9-0.1-3.9-0.3-7.9-0.2c-3.3,0.1-4.9,0.3-6.6,1.2c-1,0.5-3.3,1.8-3.6,3.8c-0.1,0.7-0.1,2.3,4.4,6.4c2.6,2.4,4.6,3.7,8.2,6.1
		c4.2,2.9,6.3,4.3,8.3,5.9c1,0.8,4.4,3.5,8.5,7.6c4,3.9,5.9,5.9,7.5,8.8c0.4,0.8,2.1,4,2.9,8.7c0.5,3.3,0.4,5.7,0.1,9.1
		c-0.2,2.2-0.3,2.3-2.5,14.6c-0.5,2.6-0.8,4.5-1.6,7.2c-0.9,3.2-1.3,3.8-1.9,5.9c-0.3,1-3.1,10.7,0,12.7c2,1.3,5.8-1,9.1-3
		c3.2-2,3.7-3,7.8-6.1c2.3-1.8,4.6-3.1,9-5.9c5.7-3.5,8.6-5.3,10.6-6.1c2.3-1,7.3-3,14.2-3.1c6.8-0.1,11.8,1.8,13.5,2.5
		c3.6,1.5,6.1,3.4,11,7.3c7.6,6,11.5,10.2,18.7,13.3c2.2,0.9,5,1.9,6.6,0.6c1.3-1,1.3-3.2,1.3-4.2c0-2.7-1.1-4.8-1.3-5.3
		c-2.2-4.1-3.1-8.7-4.8-13c-1.4-3.5-3.5-9.1-4.6-16c-0.7-5-1.4-9.8,0.2-15.6c1.7-6.1,5.1-10,8.8-14.3c1.8-2,5.9-6.7,12.5-11
		c5.8-3.8,10.4-5.4,15.8-11.2c2-2.1,3.4-4,2.8-5.6c-0.2-0.7-1.1-2-6.7-3.1c-6.1-1.2-10.9-0.8-10.9-0.8c0,0-7.6,0.6-18.8-0.1
		c-4.5-0.3-14.4-0.9-22.2-7.1c0,0-9.7-7.7-15.7-31.8c-0.5-2-1.2-3.9-1.7-5.9c-0.9-3.4-1-5-2.4-6.2
		C366.5,263.6,364.9,263.4,363.8,263.4z"/>
	<path class="st0" d="M277.8,221.9c-1.5,0.2-2,0.8-2.3,1.2c-0.2,0.4-0.2,0.6-0.4,1.6c-0.1,0.8-0.3,1.5-0.5,2.3
		c-2.3,10.8-5.8,15.4-5.8,15.4c-0.9,1.3-2.1,2.7-4.1,3.9c-2,1.1-3.8,1.4-5.6,1.7c-1.6,0.3-3,0.3-5.8,0.3c-2.7,0-4,0-5.8-0.1
		c-0.4,0-1.8-0.2-3.7-0.1c-1.6,0-2.3,0.1-3.1,0.6c-0.5,0.3-1.5,0.9-1.7,1.8c0,0.3,0,1.1,2.1,3c1.2,1.2,2.2,1.8,3.8,2.9
		c2,1.4,2.9,2.1,3.9,2.8c0.5,0.4,2.1,1.7,4,3.6c1.9,1.9,2.8,2.8,3.5,4.2c0.2,0.4,1,1.9,1.4,4.2c0.3,1.6,0.2,2.7,0.1,4.4
		c-0.1,1-0.1,1.1-1.2,7c-0.2,1.2-0.4,2.2-0.7,3.4c-0.4,1.5-0.6,1.8-0.9,2.8c-0.1,0.5-1.4,5.1,0,6.1c0.9,0.6,2.7-0.5,4.3-1.4
		c1.5-0.9,1.7-1.4,3.6-2.9c1.1-0.9,2.1-1.5,4.2-2.8c2.7-1.7,4-2.5,4.9-2.9c1.1-0.5,3.4-1.5,6.6-1.5c3.2,0,5.5,0.9,6.3,1.2
		c1.7,0.7,2.9,1.7,5.2,3.5c3.6,2.9,5.4,4.9,8.8,6.4c1,0.4,2.3,0.9,3.1,0.3c0.6-0.5,0.6-1.5,0.6-2c0-1.3-0.5-2.3-0.6-2.5
		c-1-2-1.4-4.2-2.2-6.2c-0.6-1.7-1.7-4.3-2.1-7.6c-0.3-2.4-0.7-4.7,0.1-7.5c0.8-2.9,2.4-4.8,4.1-6.9c0.8-1,2.7-3.2,5.8-5.3
		c2.7-1.8,4.9-2.6,7.4-5.3c0.9-1,1.6-1.9,1.3-2.7c-0.1-0.3-0.5-1-3.1-1.5c-2.8-0.6-5.1-0.4-5.1-0.4c0,0-3.6,0.3-8.8-0.1
		c-2.1-0.1-6.7-0.4-10.4-3.4c0,0-4.5-3.7-7.3-15.2c-0.2-0.9-0.6-1.9-0.8-2.8c-0.4-1.6-0.5-2.4-1.1-3
		C279,222,278.3,221.9,277.8,221.9z"/>
</g>
<g>
	<path class="st0" d="M386.6,81.9c-17.7-0.4-33.2,0.4-46.2,1.7c-27.8,2.7-48.8,7.7-70.9,13.1c-7.6,1.8-19.9,5.3-44.3,12.2
		c-2,0.6-12.1,3.4-24.8,8.2c-6.8,2.5-11.5,4.5-16.7,7.4c-8.9,4.8-13.1,8.8-15.1,10.8c-3.8,3.8-6.5,6.6-7.6,11.2
		c-1.4,5.9,0.7,10.9,1.3,12.2c2.9,6.5,8.6,9.7,13.7,12.5c15.7,8.5,23.6,12.8,29,14.5c90,28.7,181.4,23.2,181.4,23.2
		c10-0.6,32-2.2,59.7-6.9c17.4-2.9,29.7-6,54.1-12c15.6-3.8,32.1-8.2,49.4-17.6c4.1-2.2,11-6.2,18-13.4c6.7-6.9,12.6-13,13-20.4
		c0.8-15.7-23.9-28.5-37.1-35.3c-14-7.2-25.7-10.3-38.8-13.5c-6.9-1.7-22.3-5.3-48.4-7.7c-32.8-3-62.1-2.3-62.2-1.1
		c-0.1,1.5,41.7-0.7,92.9,14.3c23.4,6.8,73.6,21.5,74,41.8c0.4,22.4-60.2,41-75.5,45.7c-17.6,5.4-30.7,7.2-56.9,10.8
		c-54.1,7.4-92.7,6.2-103.7,5.8c-27.4-1.1-45.7-4-51.7-5c-9.7-1.6-18.8-3.8-37-8c-27.4-6.4-33.3-8.8-38.6-11.5
		c-10-5.1-27.1-13.8-26.9-24.7c0.3-11.4,19.4-19.8,34.7-26.6c5.8-2.6,13-4.8,27.5-9.4c17.1-5.3,30.3-8.9,35-10.2
		c7.5-2,23.8-6.4,43.2-10.4C329.9,89.5,355.4,85,386.6,81.9z"/>
	<path class="st0" d="M511.3,121.4c-2.1,0.3-2.9,1.1-3.2,1.7c-0.3,0.5-0.3,0.9-0.5,2.3c-0.2,1.1-0.5,2.1-0.7,3.2
		c-3.3,15-8.1,21.3-8.1,21.3c-1.3,1.7-2.9,3.8-5.8,5.4c-2.8,1.6-5.3,2-7.9,2.4c-2.3,0.4-4.3,0.4-8.2,0.4c-3.8,0-5.6,0-8.1-0.2
		c-0.6,0-2.6-0.2-5.2-0.2c-2.2,0-3.3,0.2-4.3,0.8c-0.6,0.3-2.2,1.2-2.4,2.5c-0.1,0.5,0,1.5,2.9,4.2c1.7,1.6,3,2.4,5.4,4.1
		c2.7,1.9,4.1,2.9,5.4,3.9c0.6,0.5,2.9,2.3,5.6,5c2.6,2.6,3.9,3.9,4.9,5.8c0.3,0.5,1.4,2.7,1.9,5.8c0.4,2.2,0.3,3.7,0.1,6
		c-0.1,1.4-0.2,1.5-1.7,9.7c-0.3,1.7-0.5,3-1,4.8c-0.6,2.1-0.9,2.5-1.3,3.9c-0.2,0.7-2,7.1,0,8.4c1.3,0.9,3.8-0.6,6-2
		c2.1-1.3,2.4-2,5.1-4.1c1.5-1.2,3-2.1,5.9-3.9c3.8-2.3,5.6-3.5,6.9-4.1c1.5-0.6,4.8-2,9.4-2.1c4.5,0,7.8,1.2,8.9,1.7
		c2.4,1,4,2.3,7.3,4.8c5,4,7.6,6.8,12.3,8.8c1.4,0.6,3.3,1.3,4.3,0.4c0.8-0.7,0.8-2.1,0.9-2.8c0-1.8-0.7-3.2-0.9-3.5
		c-1.4-2.7-2-5.8-3.1-8.6c-0.9-2.3-2.3-6-3-10.6c-0.5-3.3-0.9-6.5,0.1-10.3c1.1-4,3.4-6.6,5.8-9.5c1.2-1.4,3.9-4.4,8.2-7.3
		c3.8-2.5,6.8-3.5,10.4-7.4c1.3-1.4,2.2-2.7,1.9-3.7c-0.2-0.5-0.7-1.3-4.4-2.1c-4-0.8-7.1-0.6-7.2-0.6c0,0-5,0.4-12.4-0.1
		c-3-0.2-9.5-0.6-14.6-4.7c0,0-6.4-5.1-10.3-21c-0.3-1.3-0.8-2.6-1.1-3.9c-0.6-2.3-0.7-3.3-1.6-4.1
		C513.1,121.5,512.1,121.4,511.3,121.4z"/>
	<path class="st0" d="M160.6,123.7c-1,0.1-1.4,0.5-1.5,0.8c-0.1,0.2-0.1,0.4-0.3,1.1c-0.1,0.5-0.2,1-0.3,1.5c-1.5,7-3.8,10-3.8,10
		c-0.6,0.8-1.4,1.8-2.7,2.5c-1.3,0.7-2.5,0.9-3.7,1.1c-1.1,0.2-2,0.2-3.9,0.2c-1.8,0-2.6,0-3.8-0.1c-0.3,0-1.2-0.1-2.4-0.1
		c-1,0-1.5,0.1-2,0.4c-0.3,0.2-1,0.6-1.1,1.2c0,0.2,0,0.7,1.4,2c0.8,0.7,1.4,1.1,2.5,1.9c1.3,0.9,1.9,1.3,2.6,1.8
		c0.3,0.2,1.4,1.1,2.6,2.3c1.2,1.2,1.8,1.8,2.3,2.7c0.1,0.2,0.7,1.3,0.9,2.7c0.2,1,0.1,1.8,0,2.8c-0.1,0.7-0.1,0.7-0.8,4.5
		c-0.1,0.8-0.3,1.4-0.5,2.2c-0.3,1-0.4,1.2-0.6,1.8c-0.1,0.3-1,3.3,0,3.9c0.6,0.4,1.8-0.3,2.8-0.9c1-0.6,1.1-0.9,2.4-1.9
		c0.7-0.6,1.4-1,2.8-1.8c1.8-1.1,2.6-1.6,3.3-1.9c0.7-0.3,2.3-0.9,4.4-1c2.1,0,3.7,0.6,4.2,0.8c1.1,0.5,1.9,1.1,3.4,2.3
		c2.4,1.9,3.5,3.2,5.8,4.1c0.7,0.3,1.5,0.6,2,0.2c0.4-0.3,0.4-1,0.4-1.3c0-0.8-0.3-1.5-0.4-1.6c-0.7-1.3-1-2.7-1.5-4
		c-0.4-1.1-1.1-2.8-1.4-5c-0.2-1.6-0.4-3,0.1-4.8c0.5-1.9,1.6-3.1,2.7-4.4c0.5-0.6,1.8-2.1,3.9-3.4c1.8-1.2,3.2-1.7,4.9-3.5
		c0.6-0.7,1-1.2,0.9-1.8c-0.1-0.2-0.3-0.6-2.1-1c-1.9-0.4-3.4-0.3-3.4-0.3c0,0-2.4,0.2-5.8,0c-1.4-0.1-4.5-0.3-6.9-2.2
		c0,0-3-2.4-4.9-9.9c-0.2-0.6-0.4-1.2-0.5-1.8c-0.3-1.1-0.3-1.6-0.8-1.9C161.5,123.8,161,123.7,160.6,123.7z"/>
</g>
</svg>
