<svg width="1559" height="1559" viewBox="0 0 1559 1559" fill="none" xmlns="http://www.w3.org/2000/svg">
<path d="M694.585 1458.2C664.404 1458.2 649.873 1426.06 646.38 1410C604.063 1170.47 529.489 595.236 569.73 210.551L754.981 210.551L805.582 210.551L990.833 210.551C1031.07 595.236 956.5 1170.47 914.183 1410C904.841 1449.52 866.847 1459.6 852.974 1460.9L694.585 1458.2Z" fill="#FF1000"/>
<path d="M646.38 1410C649.873 1426.06 664.404 1458.2 694.585 1458.2L852.974 1460.9C866.847 1459.6 904.841 1449.52 914.183 1410M646.38 1410L914.183 1410M646.38 1410C604.063 1170.47 529.489 595.236 569.73 210.551L754.981 210.551L990.833 210.551M914.183 1410C956.5 1170.47 1031.07 595.236 990.833 210.551M990.833 210.551L805.582 210.551" stroke="black" stroke-width="4.23433"/>
<path opacity="0.23" d="M647.235 1407.17H911.231C943.297 1315.2 956.959 1096.66 982.365 865.889C903.848 773.581 705.401 648.981 580.274 888.474C599.185 1099.92 626.925 1292.21 647.235 1407.17Z" fill="white"/>
<path d="M694.586 1458.2C664.406 1458.2 649.874 1426.06 646.381 1410L913.346 1410C904.005 1449.52 866.848 1459.6 852.975 1460.9L694.586 1458.2Z" fill="#C60C00" stroke="black" stroke-width="4.23433"/>
<path d="M648.764 439.38L663.111 452.159C665.283 454.093 668.089 455.161 670.997 455.161H888.928C891.836 455.161 894.642 454.093 896.814 452.159L911.161 439.38C916.252 434.846 916.48 426.963 911.66 422.143L896.915 407.398C894.692 405.175 891.676 403.926 888.532 403.926H671.393C668.249 403.926 665.233 405.175 663.01 407.398L648.265 422.143C643.445 426.963 643.673 434.846 648.764 439.38Z" fill="#C60C00"/>
<path d="M646.38 1410C649.873 1426.06 664.404 1458.2 694.585 1458.2L852.974 1460.9C866.847 1459.6 904.841 1449.52 914.183 1410M646.38 1410L914.183 1410M646.38 1410C604.063 1170.47 529.489 595.236 569.73 210.551L754.981 210.551L990.833 210.551M914.183 1410C956.5 1170.47 1031.07 595.236 990.833 210.551M990.833 210.551L805.582 210.551" stroke="black" stroke-width="4.23433"/>
<rect x="730.844" y="826.512" width="99.0833" height="275.231" rx="49.5416" fill="#C60C00"/>
<rect x="752.018" y="916.281" width="56.74" height="158.364" rx="28.37" fill="#333333"/>
<path d="M568.246 211.684H990.408L998.453 308.226H561.471L568.246 211.684Z" fill="#3E3E3E"/>
<path d="M561.471 88.8945H592.805V348.882H558L561.471 218.888V88.8945Z" fill="#4D4D4D"/>
<rect x="619.057" y="88.8945" width="32.1809" height="259.988" fill="#4D4D4D"/>
<rect x="677.494" y="88.8945" width="31.334" height="259.988" fill="#4D4D4D"/>
<rect x="735.08" y="88.8945" width="31.334" height="259.988" fill="#4D4D4D"/>
<rect x="793.512" y="88.8945" width="31.334" height="259.988" fill="#4D4D4D"/>
<rect x="851.1" y="88.8945" width="31.334" height="259.988" fill="#4D4D4D"/>
<rect x="908.688" y="88.8945" width="32.1809" height="259.988" fill="#4D4D4D"/>
<path d="M967.119 88.8945H998.453V218.888L1002.5 348.882H967.119V88.8945Z" fill="#4D4D4D"/>
</svg>
