<svg width="293" height="153" viewBox="0 0 293 153" fill="none" xmlns="http://www.w3.org/2000/svg">
<path d="M200.656 14.3259C163.217 19.0222 138.208 19.2196 121.876 17.2446C102.113 14.8547 82.3343 0.0517404 62.4273 0.19069C15.9618 0.515018 -41.5883 25.6348 46.263 105.387C123.637 175.628 213.602 153.755 263.029 126.806C276.111 119.673 286.856 108.225 290.672 93.8215C299.709 59.715 280.952 36.4686 260.033 22.8363C242.756 11.5776 221.117 11.7593 200.656 14.3259Z" fill="#FF7D7B"/>
<path d="M269.381 86.022C197.027 149.49 93.902 117.999 34.0572 76.6262C11.6891 61.1621 -0.515063 27.9644 23.8162 15.821C31.7425 11.865 41.0294 9.59646 50.2551 8.58438C72.7521 6.11639 95.8672 22.986 118.362 25.4714C146.34 28.5625 187.349 25.5652 218.838 21.7673C231.397 20.2526 244.514 21.7286 254.823 29.0598C279.253 46.4326 280.964 64.6855 277.077 75.8254C275.657 79.8976 272.623 83.178 269.381 86.022Z" fill="#FEA595"/>
<circle cx="231.542" cy="109.96" r="6.25648" fill="#FF7D7B"/>
<circle cx="256.282" cy="97.4479" r="6.25648" fill="#FF7D7B"/>
<circle cx="197.698" cy="94.3173" r="3.9814" fill="#FF7D7B"/>
<circle cx="235.522" cy="91.1884" r="3.9814" fill="#FF7D7B"/>
<circle cx="272.491" cy="83.2275" r="3.9814" fill="#FF7D7B"/>
<circle cx="185.186" cy="112.234" r="2.84386" fill="#FF7D7B"/>
<circle cx="161.014" cy="122.188" r="2.84386" fill="#FF7D7B"/>
<circle cx="80.8165" cy="67.8712" r="2.84386" fill="#FF7D7B"/>
<circle cx="242.348" cy="38.5782" r="2.84386" fill="#FF7D7B"/>
<circle cx="250.025" cy="55.3595" r="2.84386" fill="#FF7D7B"/>
<circle cx="182.342" cy="26.6368" r="2.84386" fill="#FF7D7B"/>
<circle cx="143.096" cy="49.672" r="2.84386" fill="#FF7D7B"/>
<circle cx="75.1271" cy="43.9845" r="2.84386" fill="#FF7D7B"/>
<circle cx="116.363" cy="82.09" r="2.84386" fill="#FF7D7B"/>
<circle cx="42.7091" cy="82.09" r="2.84386" fill="#FF7D7B"/>
<circle cx="21.9493" cy="65.0275" r="2.84386" fill="#FF7D7B"/>
<circle cx="61.1935" cy="10.711" r="2.84386" fill="#FF7D7B"/>
<circle cx="100.44" cy="23.7892" r="2.84386" fill="#FF7D7B"/>
</svg>
