<svg width="598" height="398" viewBox="0 0 598 398" fill="none" xmlns="http://www.w3.org/2000/svg">
<path d="M9.49414 388.573V269.051H50.6317H82.276H113.92H145.565H176.681H208.326H239.97H271.614H303.259H334.376H366.02H397.137H428.254H459.898H491.542H523.714H552.721H593.331V388.573C593.331 391.887 590.645 394.573 587.331 394.573H558.523C555.319 394.573 552.721 391.976 552.721 388.772C552.721 385.568 550.124 382.97 546.92 382.97H523.714H491.542H459.898H428.254H397.137H366.02H334.376H303.259H271.614H239.97H208.326H176.681H145.565H113.92H82.276H56.4332C53.2291 382.97 50.6317 385.568 50.6317 388.772C50.6317 391.976 48.0343 394.573 44.8303 394.573H15.4941C12.1804 394.573 9.49414 391.887 9.49414 388.573Z" fill="#DC8647"/>
<path d="M552.721 269.051H593.331V388.573C593.331 391.887 590.645 394.573 587.331 394.573H558.523C555.319 394.573 552.721 391.976 552.721 388.772V388.772C552.721 385.568 550.124 382.97 546.92 382.97H82.276M552.721 269.051H82.276M552.721 269.051V387M50.6317 269.051H9.49414V388.573C9.49414 391.887 12.1804 394.573 15.4941 394.573H44.8303C48.0343 394.573 50.6317 391.976 50.6317 388.772V388.772C50.6317 385.568 53.2291 382.97 56.4332 382.97H82.276M50.6317 269.051H82.276M50.6317 269.051V388.772M82.276 269.051V382.97M113.92 269.051V382.97M145.565 269.051V382.97M176.681 269.051V382.97M208.326 269.051V382.97M239.97 269.051V382.97M271.614 269.051V382.97M303.259 269.051V382.97M334.376 269.051V382.97M366.02 269.051V382.97M397.137 269.051V382.97M428.254 269.051V382.97M459.898 269.051V382.97M491.542 269.051V382.97M523.714 269.051V382.97" stroke="#984E19" stroke-width="5"/>
<path d="M9.49414 269.051V388.573C9.49414 391.887 12.1804 394.573 15.4941 394.573H44.6317C47.9454 394.573 50.6317 391.887 50.6317 388.573V382.97V269.051H9.49414Z" fill="#B96B31" stroke="#984E19" stroke-width="5"/>
<path d="M552 269.051V388.573C552 391.887 554.686 394.573 558 394.573H587.138C590.451 394.573 593.138 391.887 593.138 388.573V382.97V269.051H552Z" fill="#B96B31" stroke="#984E19" stroke-width="5"/>
<path d="M60.5 232.66L11.6279 266.172C10.8175 266.727 11.2108 267.996 12.1935 267.996H590.063C591.05 267.996 591.441 266.72 590.623 266.168L541 232.66H60.5Z" fill="#BA6D34" stroke="#984E19" stroke-width="5"/>
<rect x="8.33008" y="267.051" width="199.578" height="20.2606" transform="rotate(-90 8.33008 267.051)" fill="#BA6D34" stroke="#984E19" stroke-width="4"/>
<rect x="61" y="231.187" width="199.578" height="20.2606" transform="rotate(-90 61 231.187)" fill="#DC8647" stroke="#984E19" stroke-width="4"/>
<rect x="520" y="231.187" width="199.578" height="20.2606" transform="rotate(-90 520 231.187)" fill="#DC8647" stroke="#984E19" stroke-width="4"/>
<rect x="573.709" y="268.105" width="199.578" height="20.2606" transform="rotate(-90 573.709 268.105)" fill="#BA6D34" stroke="#984E19" stroke-width="4"/>
<path d="M74.551 3.02233L20.1734 45.7347C17.1858 48.0814 18.8451 52.8803 22.6442 52.8803H580.881C584.554 52.8803 586.285 48.3458 583.547 45.8982L535.767 3.18582C535.034 2.53033 534.085 2.16797 533.101 2.16797H77.0218C76.1257 2.16797 75.2556 2.46883 74.551 3.02233Z" fill="#0892D6" stroke="#0892D6" stroke-width="4"/>
<path d="M70.1457 93.9347C85.0009 93.9347 97.0433 84.7257 97.0433 73.3659L98.6256 52.7971H70.1457L47.9947 50.6875L43.248 54.9067V73.3659C43.248 84.7257 55.2905 93.9347 70.1457 93.9347Z" fill="#0892D6"/>
<path d="M160.457 94C173.963 94 184.913 84.8538 184.913 73.5714L186 52.0952L160.457 53.1429L139.804 50L136 55.2381V73.5714C136 84.8538 146.95 94 160.457 94Z" fill="#0892D6"/>
<path d="M253.5 94C267.031 94 278 84.756 278 73.3529V52.7059H253.5L231.178 49L229 54.2941V73.3529C229 84.756 239.969 94 253.5 94Z" fill="#0892D6"/>
<path d="M351.5 94C365.031 94 376 85.2696 376 74.5V54.5L351 54L327 55V74.5C327 85.2696 337.969 94 351.5 94Z" fill="#0892D6"/>
<path d="M444.075 93.9345C456.891 93.9345 467.281 84.7255 467.281 73.3657V54.9065L455.678 52.7969H444.075H419.814L420.869 73.3657C420.869 84.7255 431.259 93.9345 444.075 93.9345Z" fill="#0892D6"/>
<path d="M532.773 94C546.956 94 559 84.8218 559 73.5V55.1026L556.268 53H532.773H506L507.093 55.1026V73.5C507.093 84.8218 518.59 94 532.773 94Z" fill="#0892D6"/>
<path d="M512.5 0L552.991 48.2112C556.622 52.5347 558.613 58.0001 558.613 63.6463V74.2444C558.613 84.9253 567.271 93.5838 577.952 93.5838C588.633 93.5838 597.292 84.9253 597.292 74.2444L596.916 63.9281C596.682 57.4824 593.863 51.4024 589.095 47.0587L542.017 4.1721C539.071 1.4878 535.228 0 531.242 0H512.5Z" fill="white"/>
<path d="M474 0L504.866 49.0453C507.275 52.8736 508.553 57.305 508.553 61.8284V74.4189C508.553 85.1962 499.108 93.9329 487.457 93.9329C475.806 93.9329 466.361 85.1962 466.361 74.4189L466.373 62.2305C466.378 57.4555 464.958 52.7876 462.296 48.8239L429.5 0H474Z" fill="white"/>
<path d="M393.36 0.199152L418.09 51.0111C419.343 53.5862 420.126 56.3648 420.4 59.2155L420.924 64.6619V74.4189C420.924 85.1962 410.534 93.9329 397.718 93.9329C384.902 93.9329 374.512 85.1962 374.512 74.4189V58.8062C374.512 56.2223 374.095 53.6553 373.277 51.2045L356.244 0.199152H393.36Z" fill="white"/>
<path d="M320.868 0.199152L327.046 54.9049L328.101 74.4189C328.101 85.1962 316.766 93.9329 302.785 93.9329C288.804 93.9329 277.47 85.1962 277.47 74.4189V54.9049L283.751 0.199152H320.868Z" fill="white"/>
<path d="M250.115 0.199152L231.477 50.8955C230.502 53.5476 230.003 56.3511 230.003 59.1767V74.4189C230.003 85.1962 219.85 93.9329 207.325 93.9329C194.8 93.9329 184.646 85.1962 184.646 74.4189V59.994C184.646 56.6386 185.35 53.3204 186.712 50.2538L208.939 0.199152H250.115Z" fill="white"/>
<path d="M174.722 0.199152L141.423 48.7725C138.684 52.768 137.218 57.4987 137.218 62.3429V74.4189C137.218 85.1962 128.009 93.9329 116.65 93.9329C105.29 93.9329 96.0807 85.1962 96.0807 74.4189L96.0584 63.0142C96.048 57.7541 97.7661 52.6363 100.948 48.4479L137.606 0.199152H174.722Z" fill="white"/>
<path d="M103.389 0.199152L51.0978 47.7651C46.0976 52.3134 43.2472 58.7595 43.2472 65.5189V74.4202C43.2472 85.1975 33.566 93.9342 21.6236 93.9342C9.68122 93.9342 0 85.1975 0 74.4202V66.7029C0 59.2635 3.44994 52.2447 9.34021 47.7006L66.594 3.53089C69.3941 1.37077 72.8308 0.199152 76.3672 0.199152H103.389Z" fill="white"/>
</svg>
