<svg width="755" height="535" viewBox="0 0 755 535" fill="none" xmlns="http://www.w3.org/2000/svg">
<mask id="path-1-outside-1_77_4400" maskUnits="userSpaceOnUse" x="76.8945" y="66" width="49" height="39" fill="black">
<rect fill="white" x="76.8945" y="66" width="49" height="39"/>
<path fill-rule="evenodd" clip-rule="evenodd" d="M94.6734 73.3877C87.7107 77.7029 82.0041 85.6459 81.0898 99.1321L80.9998 100.459L82.2738 100.84C88.826 102.802 104.528 103.296 115.668 89.836C121.031 83.3552 122.614 78.4635 121.611 74.8415C120.585 71.1324 117.129 69.6251 114.619 69.2692M94.6734 73.3877C101.54 69.1322 109.422 68.5298 114.618 69.2691Z"/>
</mask>
<path fill-rule="evenodd" clip-rule="evenodd" d="M94.6734 73.3877C87.7107 77.7029 82.0041 85.6459 81.0898 99.1321L80.9998 100.459L82.2738 100.84C88.826 102.802 104.528 103.296 115.668 89.836C121.031 83.3552 122.614 78.4635 121.611 74.8415C120.585 71.1324 117.129 69.6251 114.619 69.2692M94.6734 73.3877C101.54 69.1322 109.422 68.5298 114.618 69.2691Z" fill="#FFFBF0"/>
<path d="M81.0898 99.1321L78.0966 98.9292L78.0966 98.9291L81.0898 99.1321ZM94.6734 73.3877L93.093 70.8377L93.093 70.8377L94.6734 73.3877ZM80.9998 100.459L80.1393 103.333L77.8447 102.646L78.0067 100.256L80.9998 100.459ZM82.2738 100.84L81.4133 103.714L81.4133 103.714L82.2738 100.84ZM115.668 89.836L113.357 87.9233L113.357 87.9233L115.668 89.836ZM121.611 74.8415L118.72 75.6418L118.72 75.6418L121.611 74.8415ZM78.0966 98.9291C79.0696 84.5785 85.2273 75.7126 93.093 70.8377L96.2538 75.9377C90.194 79.6933 84.9386 86.7133 84.0829 99.335L78.0966 98.9291ZM78.0067 100.256L78.0966 98.9292L84.0829 99.335L83.9929 100.662L78.0067 100.256ZM81.4133 103.714L80.1393 103.333L81.8603 97.5849L83.1343 97.9664L81.4133 103.714ZM117.979 91.7487C105.833 106.426 88.7129 105.9 81.4133 103.714L83.1343 97.9664C88.939 99.7044 103.224 100.167 113.357 87.9233L117.979 91.7487ZM124.502 74.0413C125.921 79.1675 123.472 85.1119 117.979 91.7487L113.357 87.9233C118.591 81.5986 119.306 77.7594 118.72 75.6418L124.502 74.0413ZM115.041 66.2989C118.084 66.7304 123.013 68.6611 124.502 74.0413L118.72 75.6418C118.156 73.6036 116.174 72.5197 114.198 72.2395L115.041 66.2989ZM93.093 70.8377C100.69 66.1296 109.32 65.485 115.041 66.299L114.196 72.2392C109.524 71.5745 102.39 72.1347 96.2538 75.9377L93.093 70.8377Z" fill="#AFA589" mask="url(#path-1-outside-1_77_4400)"/>
<path d="M114.035 73.3922L114.034 73.392C109.567 72.7562 102.723 73.2996 96.8693 76.9272C91.4942 80.2584 86.6774 86.3577 85.4366 97.311C91.787 98.461 103.728 97.7309 112.46 87.179C117.641 80.9183 118.023 77.487 117.598 75.9514C117.209 74.5476 115.782 73.6397 114.035 73.3922Z" fill="#D56A83" stroke="#FFFBF0" stroke-width="5"/>
<mask id="path-4-outside-2_77_4400" maskUnits="userSpaceOnUse" x="151" y="66" width="49" height="39" fill="black">
<rect fill="white" x="151" y="66" width="49" height="39"/>
<path fill-rule="evenodd" clip-rule="evenodd" d="M182.221 73.3877C189.184 77.7029 194.89 85.6459 195.805 99.1321L195.895 100.459L194.621 100.84C188.069 102.802 172.366 103.296 161.227 89.836C155.863 83.3552 154.281 78.4635 155.283 74.8415C156.31 71.1324 159.766 69.6251 162.275 69.2692M182.221 73.3877C175.355 69.1322 167.472 68.5298 162.276 69.2691Z"/>
</mask>
<path fill-rule="evenodd" clip-rule="evenodd" d="M182.221 73.3877C189.184 77.7029 194.89 85.6459 195.805 99.1321L195.895 100.459L194.621 100.84C188.069 102.802 172.366 103.296 161.227 89.836C155.863 83.3552 154.281 78.4635 155.283 74.8415C156.31 71.1324 159.766 69.6251 162.275 69.2692M182.221 73.3877C175.355 69.1322 167.472 68.5298 162.276 69.2691Z" fill="#FFFBF0"/>
<path d="M195.805 99.1321L198.798 98.9292L198.798 98.9291L195.805 99.1321ZM182.221 73.3877L183.801 70.8377L183.801 70.8377L182.221 73.3877ZM195.895 100.459L196.755 103.333L199.05 102.646L198.888 100.256L195.895 100.459ZM194.621 100.84L195.481 103.714L195.481 103.714L194.621 100.84ZM161.227 89.836L163.538 87.9233L163.538 87.9233L161.227 89.836ZM155.283 74.8415L158.175 75.6418L158.175 75.6418L155.283 74.8415ZM198.798 98.9291C197.825 84.5785 191.667 75.7126 183.801 70.8377L180.641 75.9377C186.701 79.6933 191.956 86.7133 192.812 99.335L198.798 98.9291ZM198.888 100.256L198.798 98.9292L192.812 99.335L192.902 100.662L198.888 100.256ZM195.481 103.714L196.755 103.333L195.034 97.5849L193.76 97.9664L195.481 103.714ZM158.916 91.7487C171.062 106.426 188.182 105.9 195.481 103.714L193.76 97.9664C187.955 99.7044 173.67 100.167 163.538 87.9233L158.916 91.7487ZM152.392 74.0413C150.973 79.1675 153.423 85.1119 158.916 91.7487L163.538 87.9233C158.304 81.5986 157.589 77.7594 158.175 75.6418L152.392 74.0413ZM161.854 66.2989C158.811 66.7304 153.881 68.6611 152.392 74.0413L158.175 75.6418C158.739 73.6036 160.721 72.5197 162.696 72.2395L161.854 66.2989ZM183.801 70.8377C176.205 66.1296 167.575 65.485 161.854 66.299L162.699 72.2392C167.37 71.5745 174.504 72.1347 180.641 75.9377L183.801 70.8377Z" fill="#AFA589" mask="url(#path-4-outside-2_77_4400)"/>
<path d="M162.859 73.3922L162.861 73.392C167.328 72.7562 174.172 73.2996 180.025 76.9272C185.4 80.2584 190.217 86.3577 191.458 97.311C185.107 98.461 173.167 97.7309 164.434 87.179C159.253 80.9183 158.872 77.487 159.297 75.9514C159.685 74.5476 161.113 73.6397 162.859 73.3922Z" fill="#D56A83" stroke="#FFFBF0" stroke-width="5"/>
<path d="M341.163 484.878C290.763 483.278 303.829 435.878 316.663 412.378C318.602 406.866 321.017 397.301 320.851 389.061C320.689 381.066 319.351 371.09 325.54 366.025C335.586 357.803 349.201 355.75 362.223 365.574C369.086 370.751 368.36 381.826 368.469 390.422C368.57 398.333 370.828 407.166 372.662 412.378C383.162 437.212 391.563 486.478 341.163 484.878Z" fill="#FFFBF0" stroke="#AFA589" stroke-width="3"/>
<path d="M321 452.379C341.8 476.379 343.5 462.879 343.5 452.379C343.5 462.379 347.2 476.679 366 453.879" stroke="#3D3D3E" stroke-width="3"/>
<path d="M328.612 443.725C330.761 449.243 338.051 451.456 342 451.879H343H344C347.949 451.456 355.239 449.243 357.388 443.725C358.074 441.965 356.512 440.379 354.623 440.379C353.096 440.379 351.602 439.312 350.31 438.497C348.939 437.632 346.637 436.879 343 436.879C339.363 436.879 337.061 437.632 335.69 438.497C334.398 439.312 332.904 440.379 331.377 440.379C329.488 440.379 327.926 441.965 328.612 443.725Z" fill="#EC0B45" stroke="#B8002F" stroke-width="3"/>
<ellipse cx="322.5" cy="430.879" rx="6.5" ry="4.5" fill="#FEACAC"/>
<ellipse cx="364.5" cy="430.879" rx="6.5" ry="4.5" fill="#FEACAC"/>
<path d="M592.315 437.891C595.336 430.384 600.286 439.868 605.322 439.867L608.678 439.897C613.714 439.898 618.664 430.415 621.685 437.922C625.461 447.305 621.266 472 607 472C592.734 472 588.539 447.275 592.315 437.891Z" fill="#EF788B" stroke="#CD465C" stroke-width="2"/>
<g clip-path="url(#clip0_77_4400)">
<path d="M518.163 490.878C467.763 489.278 480.829 441.878 493.663 418.378C495.602 412.866 498.017 403.301 497.851 395.061C497.689 387.066 496.351 377.09 502.54 372.025C512.586 363.803 526.201 361.75 539.223 371.574C546.086 376.751 545.36 387.826 545.469 396.422C545.57 404.333 547.828 413.166 549.662 418.378C560.162 443.212 568.563 492.478 518.163 490.878Z" fill="#FFFBF0" stroke="#AFA589" stroke-width="3"/>
<path d="M498 458.379C518.8 482.379 520.5 468.879 520.5 458.379C520.5 468.379 524.2 482.679 543 459.879" stroke="#3D3D3E" stroke-width="3"/>
<path d="M505.612 449.725C507.761 455.243 515.051 457.456 519 457.879H520H521C524.949 457.456 532.239 455.243 534.388 449.725C535.074 447.965 533.512 446.379 531.623 446.379C530.096 446.379 528.602 445.312 527.31 444.497C525.939 443.632 523.637 442.879 520 442.879C516.363 442.879 514.061 443.632 512.69 444.497C511.398 445.312 509.904 446.379 508.377 446.379C506.488 446.379 504.926 447.965 505.612 449.725Z" fill="#EC0B45" stroke="#B8002F" stroke-width="3"/>
<ellipse cx="499.5" cy="436.879" rx="6.5" ry="4.5" fill="#FEACAC"/>
<ellipse cx="541.5" cy="436.879" rx="6.5" ry="4.5" fill="#FEACAC"/>
</g>
<g clip-path="url(#clip1_77_4400)">
<path d="M518.163 509.878C467.763 508.278 480.829 460.878 493.663 437.378C495.602 431.866 498.017 422.301 497.851 414.061C497.689 406.066 496.351 396.09 502.54 391.025C512.586 382.803 526.201 380.75 539.223 390.574C546.086 395.751 545.36 406.826 545.469 415.422C545.57 423.333 547.828 432.166 549.662 437.378C560.162 462.212 568.563 511.478 518.163 509.878Z" fill="#FFFBF0" stroke="#AFA589" stroke-width="3"/>
<path d="M498 477.379C518.8 501.379 520.5 487.879 520.5 477.379C520.5 487.379 524.2 501.679 543 478.879" stroke="#3D3D3E" stroke-width="3"/>
</g>
<g clip-path="url(#clip2_77_4400)">
<path d="M327.414 91.8654C298.027 74.3536 279.972 94.964 274.618 107.458C252.428 112.828 262.709 131.647 270.623 140.386C257.936 159.558 279.698 169.277 292.165 171.74C281.704 193.884 306.21 198.182 319.772 197.563C319.011 220.111 342.656 222.236 354.573 220.48C367.228 246.943 395.152 239.362 407.832 232.037C431.46 248.369 453.71 235.545 461.881 227.092C491.163 236.425 510.027 216.306 515.8 205.08C548.439 194.915 542.909 165.236 536.064 151.668C543.172 125.43 522.98 117.237 511.995 116.42C495.833 89.062 456.284 98.3625 438.53 106.432C419.219 91.3391 390.328 100.827 378.297 107.458C366.319 83.5298 339.384 87.0928 327.414 91.8654Z" fill="#FFFBF0"/>
<path d="M515.799 205.163C520.009 202.639 526.001 199.996 529.36 197.536C441.345 214.561 319.468 166.622 270.622 140.469C257.935 159.641 279.697 169.36 292.164 171.823C281.703 193.967 306.21 198.265 319.771 197.646C319.01 220.194 342.655 222.319 354.572 220.563C367.227 247.025 395.151 239.445 407.831 232.119C431.459 248.452 453.709 235.628 461.88 227.175C491.162 236.507 510.026 216.389 515.799 205.163Z" fill="#F7F0DD"/>
<path d="M353.617 218.345C353.925 219.08 354.244 219.791 354.573 220.48M354.573 220.48C367.228 246.943 395.152 239.362 407.832 232.037C431.46 248.369 453.71 235.545 461.881 227.092C491.163 236.425 510.027 216.306 515.8 205.08C548.439 194.915 542.909 165.236 536.064 151.668C543.172 125.43 522.98 117.237 511.995 116.42C495.833 89.062 456.284 98.3625 438.53 106.432C419.219 91.3391 390.328 100.827 378.297 107.458C366.319 83.5298 339.384 87.0928 327.414 91.8654C298.027 74.3536 279.972 94.964 274.618 107.458C252.428 112.828 262.709 131.647 270.623 140.386C257.936 159.558 279.698 169.277 292.165 171.74C281.704 193.884 306.21 198.182 319.772 197.563C319.011 220.111 342.656 222.236 354.573 220.48Z" stroke="#AFA589" stroke-width="1.83663"/>
</g>
<g clip-path="url(#clip3_77_4400)">
<path d="M310.623 121.779C281.236 104.268 263.181 124.878 257.827 137.372C235.637 142.742 245.918 161.561 253.832 170.3C241.145 189.472 262.907 199.191 275.374 201.654C264.913 223.798 289.419 228.096 302.981 227.477C302.22 250.025 325.865 252.15 337.782 250.394C350.437 276.857 378.36 269.276 391.041 261.951C414.669 278.283 436.919 265.459 445.09 257.006C474.372 266.339 493.236 246.22 499.009 234.994C531.648 224.829 526.118 195.15 519.273 181.582C526.381 155.345 506.189 147.151 495.204 146.335C479.042 118.976 439.493 128.277 421.739 136.347C402.428 121.253 373.537 130.741 361.506 137.372C349.528 113.444 322.593 117.007 310.623 121.779Z" fill="#FFFBF0"/>
<path d="M499.008 235.077C503.218 232.553 509.21 229.91 512.569 227.45C424.554 244.475 302.677 196.536 253.831 170.383C241.144 189.555 262.906 199.274 275.373 201.737C264.912 223.881 289.418 228.179 302.98 227.56C302.219 250.108 325.864 252.233 337.781 250.477C350.436 276.94 378.36 269.359 391.04 262.034C414.668 278.366 436.918 265.542 445.089 257.089C474.371 266.422 493.235 246.303 499.008 235.077Z" fill="#F7F0DD"/>
<path d="M336.826 248.259C337.134 248.994 337.453 249.705 337.782 250.394M337.782 250.394C350.437 276.857 378.36 269.276 391.041 261.951C414.669 278.283 436.919 265.459 445.09 257.006C474.372 266.339 493.236 246.22 499.009 234.994C531.648 224.829 526.118 195.15 519.273 181.582C526.381 155.345 506.189 147.151 495.204 146.335C479.042 118.976 439.493 128.277 421.739 136.347C402.428 121.253 373.537 130.741 361.506 137.372C349.528 113.444 322.593 117.007 310.623 121.779C281.236 104.268 263.181 124.878 257.827 137.372C235.637 142.742 245.918 161.561 253.832 170.3C241.145 189.472 262.907 199.191 275.374 201.654C264.913 223.798 289.419 228.096 302.981 227.477C302.22 250.025 325.865 252.15 337.782 250.394Z" stroke="#AFA589" stroke-width="1.83663"/>
</g>
<g clip-path="url(#clip4_77_4400)">
<path d="M339.484 121.779C310.098 104.268 292.043 124.878 286.689 137.372C264.498 142.742 274.779 161.561 282.694 170.3C270.006 189.472 291.769 199.191 304.236 201.654C293.774 223.798 318.281 228.096 331.842 227.477C331.081 250.025 354.726 252.15 366.644 250.394C379.298 276.857 407.222 269.276 419.902 261.951C443.53 278.283 465.78 265.459 473.952 257.006C503.233 266.339 522.098 246.22 527.87 234.994C560.51 224.829 554.979 195.15 548.134 181.582C555.243 155.345 535.05 147.151 524.066 146.335C507.903 118.976 468.354 128.277 450.6 136.347C431.289 121.253 402.399 130.741 390.367 137.372C378.389 113.444 351.454 117.007 339.484 121.779Z" fill="#FFFBF0"/>
<path d="M527.871 235.077C532.082 232.553 538.074 229.91 541.433 227.45C453.418 244.475 331.54 196.536 282.695 170.383C270.007 189.555 291.77 199.274 304.237 201.737C293.775 223.881 318.282 228.179 331.843 227.56C331.082 250.108 354.727 252.233 366.645 250.477C379.299 276.94 407.223 269.359 419.903 262.034C443.531 278.366 465.781 265.542 473.953 257.089C503.234 266.422 522.099 246.303 527.871 235.077Z" fill="#F7F0DD"/>
<path d="M365.688 248.259C365.996 248.994 366.314 249.705 366.644 250.394M366.644 250.394C379.298 276.857 407.222 269.276 419.902 261.951C443.53 278.283 465.78 265.459 473.952 257.006C503.233 266.339 522.098 246.22 527.87 234.994C560.51 224.829 554.979 195.15 548.134 181.582C555.243 155.345 535.05 147.151 524.066 146.335C507.903 118.976 468.354 128.277 450.6 136.347C431.289 121.253 402.399 130.741 390.367 137.372C378.389 113.444 351.454 117.007 339.484 121.779C310.098 104.268 292.043 124.878 286.689 137.372C264.498 142.742 274.779 161.561 282.694 170.3C270.006 189.472 291.769 199.191 304.236 201.654C293.774 223.798 318.281 228.096 331.842 227.477C331.081 250.025 354.726 252.15 366.644 250.394Z" stroke="#AFA589" stroke-width="1.83663"/>
</g>
<g clip-path="url(#clip5_77_4400)">
<path d="M349.978 90.8146C320.592 73.3028 302.537 93.9132 297.183 106.407C274.992 111.777 285.273 130.596 293.188 139.335C280.5 158.507 302.263 168.226 314.73 170.689C304.268 192.834 328.775 197.131 342.336 196.512C341.575 219.06 365.22 221.185 377.138 219.429C389.792 245.892 417.716 238.311 430.396 230.986C454.024 247.318 476.274 234.494 484.446 226.041C513.727 235.374 532.592 215.255 538.364 204.029C571.004 193.864 565.474 164.186 558.629 150.617C565.737 124.38 545.544 116.187 534.56 115.37C518.397 88.0112 478.848 97.3117 461.094 105.382C441.783 90.2883 412.893 99.7766 400.861 106.407C388.883 82.479 361.948 86.0421 349.978 90.8146Z" fill="#FFFBF0"/>
<path d="M538.363 204.112C542.574 201.588 548.566 198.945 551.925 196.485C463.91 213.51 342.032 165.571 293.187 139.418C280.499 158.59 302.262 168.309 314.729 170.772C304.267 192.916 328.774 197.214 342.335 196.595C341.574 219.143 365.219 221.268 377.137 219.512C389.791 245.975 417.715 238.394 430.395 231.069C454.023 247.401 476.273 234.577 484.445 226.124C513.726 235.457 532.591 215.338 538.363 204.112Z" fill="#F7F0DD"/>
<circle cx="540.824" cy="167.412" r="3.67327" fill="#FFFBF0"/>
<path d="M376.182 217.294C376.49 218.029 376.809 218.74 377.138 219.429M377.138 219.429C389.792 245.892 417.716 238.311 430.396 230.986C454.024 247.318 476.274 234.494 484.446 226.041C513.727 235.374 532.592 215.255 538.364 204.029C571.004 193.864 565.474 164.186 558.629 150.617C565.737 124.38 545.544 116.187 534.56 115.37C518.397 88.0112 478.848 97.3117 461.094 105.382C441.783 90.2883 412.893 99.7766 400.861 106.407C388.883 82.479 361.948 86.0421 349.978 90.8146C320.592 73.3028 302.537 93.9132 297.183 106.407C274.992 111.777 285.273 130.596 293.188 139.335C280.5 158.507 302.263 168.226 314.73 170.689C304.268 192.834 328.775 197.131 342.336 196.512C341.575 219.06 365.22 221.185 377.138 219.429Z" stroke="#AFA589" stroke-width="1.83663"/>
</g>
<path d="M678.77 186.369C681.957 163.383 651.248 163.278 637.488 173.529C635.628 176.805 632.164 185.735 633.184 195.246C634.459 207.135 673.377 225.254 678.77 186.369Z" fill="#FFFBF0" stroke="#AFA589" stroke-width="3"/>
<path d="M97.7138 402.138C86.1028 385.944 89.4384 368.655 92.5575 362.034C88.2847 350.34 85.8291 341.339 84.5492 334.535C83.3503 328.16 83.1832 323.713 83.5205 320.785C83.8016 318.345 84.4331 316.959 85.1097 316.393L124.64 291.566C126.465 293.999 124.579 314.559 122.174 334.535C120.954 344.665 119.6 354.645 118.529 362.034C125.404 371.506 119.866 392.717 116.238 402.138C113.817 411.727 118.431 421.68 122.956 430.734C127.712 440.252 132.37 448.778 128.651 454.846C121.394 466.686 85.1097 471.269 80.9084 454.846C78.8739 446.892 86.1548 439.029 92.5575 430.734C99.3762 421.9 105.199 412.578 97.7138 402.138Z" fill="#FFFBF0"/>
<path d="M92.5575 430.734C99.3762 421.9 105.199 412.578 97.7138 402.138C86.1028 385.944 89.4384 368.655 92.5575 362.034C88.2847 350.34 85.8291 341.339 84.5492 334.535C83.3503 328.16 83.1832 323.713 83.5205 320.785C83.8016 318.345 84.4331 316.959 85.1097 316.393L124.64 291.566C126.465 293.999 124.579 314.559 122.174 334.535C120.954 344.665 119.6 354.645 118.529 362.034C125.404 371.506 119.866 392.717 116.238 402.138C113.817 411.727 118.431 421.68 122.956 430.734M92.5575 430.734C86.1548 439.029 78.8739 446.892 80.9084 454.846C85.1097 471.269 121.394 466.686 128.651 454.846C132.37 448.778 127.712 440.252 122.956 430.734M92.5575 430.734C97.2273 434.728 109.845 440.319 122.956 430.734" stroke="#AFA589" stroke-width="1.14582"/>
<path d="M85.1097 316.393L124.64 291.566C126.465 293.999 124.579 314.559 122.174 334.535L116.238 326.705V334.535L108.06 323.267L97.7138 334.535L95.0743 320.785L84.5493 334.535C83.3503 328.16 83.1832 323.713 83.5205 320.785C83.8017 318.345 84.4331 316.959 85.1097 316.393Z" fill="#FF7D7B" stroke="#FF7D7B" stroke-width="1.14582"/>
<path d="M80.9084 454.846C78.8739 446.893 86.1548 439.029 92.5575 430.734C97.2273 434.728 109.845 440.32 122.956 430.734C127.712 440.253 132.37 448.778 128.651 454.846C124.678 461.327 112.008 465.634 100.664 465.511C100.635 465.512 100.606 465.512 100.577 465.51C98.265 465.481 96.009 465.267 93.8941 464.849C87.4613 463.578 82.3351 460.423 80.9084 454.846Z" fill="#342C2A"/>
<path d="M93.8941 464.849C87.4613 463.578 82.3351 460.423 80.9084 454.846C78.8739 446.893 86.1548 439.029 92.5575 430.734C97.2273 434.728 109.845 440.32 122.956 430.734C127.712 440.253 132.37 448.778 128.651 454.846C124.678 461.327 112.008 465.634 100.664 465.511M93.8941 464.849C93.8305 460.751 94.849 451.867 99.4323 449.117C98.662 454.615 97.8301 465.592 100.664 465.511M93.8941 464.849C96.0354 465.272 98.3215 465.486 100.664 465.511" stroke="#000010" stroke-width="1.14582"/>
<path d="M93.9324 464.849C93.8688 460.751 94.8873 451.867 99.4706 449.117C98.7083 454.559 97.8856 465.366 100.616 465.511C100.644 465.511 100.673 465.511 100.702 465.512C100.673 465.513 100.644 465.512 100.616 465.511C98.3033 465.481 96.0473 465.267 93.9324 464.849Z" fill="#000010"/>
<path d="M93.9324 464.849C93.8688 460.751 94.8873 451.867 99.4706 449.117C98.7004 454.616 97.8684 465.593 100.702 465.512C98.3598 465.486 96.0737 465.272 93.9324 464.849Z" stroke="#000010" stroke-width="1.14582"/>
<defs>
<clipPath id="clip0_77_4400">
<rect width="93" height="107" fill="white" transform="translate(474 359)"/>
</clipPath>
<clipPath id="clip1_77_4400">
<rect width="93" height="32" fill="white" transform="translate(474 485)"/>
</clipPath>
<clipPath id="clip2_77_4400">
<rect width="192.322" height="82.3861" fill="white" transform="translate(225.793 82.4805)"/>
</clipPath>
<clipPath id="clip3_77_4400">
<rect width="192.322" height="75.5644" fill="white" transform="translate(209 202.125)"/>
</clipPath>
<clipPath id="clip4_77_4400">
<rect width="192.322" height="75.5644" fill="white" transform="translate(430.184 202.125)"/>
</clipPath>
<clipPath id="clip5_77_4400">
<rect width="192.322" height="87.1089" fill="white" transform="translate(440.678 84.0547)"/>
</clipPath>
</defs>
</svg>
