<svg width="270" height="261" viewBox="0 0 270 261" fill="none" xmlns="http://www.w3.org/2000/svg">
<path d="M176.669 62.4968C241.332 84.8623 246.071 125.532 225.57 142.672C224.29 143.742 224.594 145.93 226.158 146.509C282.984 167.55 267.716 185.861 222.257 193.077C222.257 250.855 191.607 246.397 175.749 226.042C174.984 225.059 173.519 224.935 172.614 225.791C144.245 252.648 98.9874 255.009 82.7877 217.2C82.2073 215.846 80.3481 215.525 79.3023 216.563C21.3053 274.147 8.60579 197.226 34.0145 176.285C35.0462 175.435 35.0915 173.789 34.054 172.946C0.991767 146.084 17.5406 134.296 34.2384 125.327C35.2816 124.766 35.5553 123.361 34.8688 122.396C-12.2622 56.1505 45.7079 44.731 79.7695 53.889C80.7977 54.1655 81.8716 53.5438 82.2101 52.5343C105.353 -16.4904 196.089 19.0685 175.532 59.54C174.968 60.6509 175.492 62.0895 176.669 62.4968Z" fill="#FFFBF0" stroke="#AFA589" stroke-width="3"/>
<path d="M98.0663 76.1763C98.0652 38.9657 169.341 19.4408 153.658 81.4804C152.497 86.0715 156.568 91.0129 161.293 91.3171C190.116 93.1726 230.659 119.685 177.421 143.004" stroke="#AFA589" stroke-width="3"/>
<path d="M58.5854 161C57.3722 174.273 55.877 196.418 83.7735 183.861C85.9821 182.867 88.643 183.879 89.7165 186.05C97.0764 200.935 115.563 217.394 128.834 191.151C129.853 189.135 132.279 188.17 134.442 188.822C142.761 191.33 156.787 192.243 167.421 181.848" stroke="#AFA589" stroke-width="2"/>
</svg>
