<svg width="254" height="202" viewBox="0 0 254 202" fill="none" xmlns="http://www.w3.org/2000/svg">
<path d="M51.8268 63.102C-24.9521 79.2753 3.77493 121.639 31.5721 144.033C34.0933 146.064 35.8013 149.013 36.3332 152.207C47.9629 222.035 93.5748 201.077 123.046 174.9C128.896 169.704 138.175 170.605 143.148 176.646C182.538 224.499 216.368 182.743 229.068 153.625C285.546 49.1799 223.434 23.9187 181.748 24.0267C179.039 24.0337 176.327 23.2069 174.096 21.6693C107.527 -24.2116 73.008 20.0699 61.7427 54.0755C60.2405 58.6103 56.5013 62.1174 51.8268 63.102Z" fill="#FFFBF0" stroke="#AFA589" stroke-width="3"/>
<path d="M86.0692 72.5012C94.2359 54.5012 119.569 25.2012 155.569 52.0012M47.0692 129.5C34.9025 114.167 22.0692 83.9 68.0692 85.5" stroke="#AFA589" stroke-width="3"/>
</svg>
