<svg width="4096" height="2276" viewBox="0 0 4096 2276" fill="none" xmlns="http://www.w3.org/2000/svg">
<g clip-path="url(#clip0_93_755)">
<path d="M553.5 1701L0 2275.5V143V-8L553.5 381.5V532.5V1701Z" fill="#FCE7C6"/>
<path d="M0 143V-8L553.5 381.5V532.5M0 143V2275.5L553.5 1701V532.5M0 143L553.5 532.5" stroke="#6F3809" stroke-width="6"/>
<path d="M553.5 1442L0 2016.5V2275.5L553.5 1701V1442Z" fill="#804221" stroke="#6F3809" stroke-width="6"/>
<path d="M0 2275.49V142.852L67 190V201.982V2205.95L0 2275.49Z" fill="#7C3C1D" stroke="#6F3809" stroke-width="6"/>
<path d="M524 511.868V1472.25L449.161 1550L339.5 1663.92L194 1815.07L67 1947V190L194 279.447L339.5 381.924L449.161 459.158L524 511.868Z" fill="#B16423"/>
<path d="M194 279.447L67 190V1947L194 1815.07M194 279.447V1815.07M194 279.447L339.5 381.924M194 1815.07L339.5 1663.92M339.5 381.924V1663.92M339.5 381.924L449.161 459.158M339.5 1663.92L449.161 1550M449.161 1550L524 1472.25V511.868L449.161 459.158M449.161 1550V459.158" stroke="#6F3809" stroke-width="6"/>
<path d="M3543 1701L4096.5 2275.5V143V-8L3543 381.5V532.5V1701Z" fill="#FCE7C6"/>
<path d="M4096.5 143V-8L3543 381.5V532.5M4096.5 143V2275.5L3543 1701V532.5M4096.5 143L3543 532.5" stroke="#6F3809" stroke-width="6"/>
<path d="M3543 1442L4096.5 2016.5V2275.5L3543 1701V1442Z" fill="#804221" stroke="#6F3809" stroke-width="6"/>
<path d="M4096.5 2275.49V142.852L4029.5 190V201.982V2205.95L4096.5 2275.49Z" fill="#7C3C1D" stroke="#6F3809" stroke-width="6"/>
<path d="M3572.5 511.868V1472.25L3647.34 1550L3757 1663.92L3902.5 1815.07L4029.5 1947V190L3902.5 279.447L3757 381.924L3647.34 459.158L3572.5 511.868Z" fill="#B16423"/>
<path d="M3902.5 279.447L4029.5 190V1947L3902.5 1815.07M3902.5 279.447V1815.07M3902.5 279.447L3757 381.924M3902.5 1815.07L3757 1663.92M3757 381.924V1663.92M3757 381.924L3647.34 459.158M3757 1663.92L3647.34 1550M3647.34 1550L3572.5 1472.25V511.868L3647.34 459.158M3647.34 1550V459.158" stroke="#6F3809" stroke-width="6"/>
<mask id="mask0_93_755" style="mask-type:alpha" maskUnits="userSpaceOnUse" x="-2" y="1700" width="4125" height="576">
<path d="M553.5 1701L0 2275.5H4121L3567.5 1701H553.5Z" fill="#F9A432" stroke="black"/>
</mask>
<g mask="url(#mask0_93_755)">
<path d="M260.5 1947H762.5L686.5 2023L587.5 2122L501 2208.5L417 2292.5H-85L-1 2208.5L85.5 2122L184.5 2023L260.5 1947Z" fill="#F9A432"/>
<path d="M686.5 2023L762.5 1947H260.5L184.5 2023M686.5 2023H184.5M686.5 2023L587.5 2122M184.5 2023L85.5 2122M587.5 2122H85.5M587.5 2122L501 2208.5M85.5 2122L-1 2208.5M501 2208.5H-1M501 2208.5L417 2292.5H-85L-1 2208.5" stroke="#D58D2C" stroke-width="7"/>
<path d="M605.5 1601H1107.5L1031.5 1677L932.5 1776L846 1862.5L762 1946.5H260L344 1862.5L430.5 1776L529.5 1677L605.5 1601Z" fill="#F9A432"/>
<path d="M1031.5 1677L1107.5 1601H605.5L529.5 1677M1031.5 1677H529.5M1031.5 1677L932.5 1776M529.5 1677L430.5 1776M932.5 1776H430.5M932.5 1776L846 1862.5M430.5 1776L344 1862.5M846 1862.5H344M846 1862.5L762 1946.5H260L344 1862.5" stroke="#D58D2C" stroke-width="7"/>
<path d="M1765.5 1947H2267.5L2191.5 2023L2092.5 2122L2006 2208.5L1922 2292.5H1420L1504 2208.5L1590.5 2122L1689.5 2023L1765.5 1947Z" fill="#F9A432"/>
<path d="M2191.5 2023L2267.5 1947H1765.5L1689.5 2023M2191.5 2023H1689.5M2191.5 2023L2092.5 2122M1689.5 2023L1590.5 2122M2092.5 2122H1590.5M2092.5 2122L2006 2208.5M1590.5 2122L1504 2208.5M2006 2208.5H1504M2006 2208.5L1922 2292.5H1420L1504 2208.5" stroke="#D58D2C" stroke-width="7"/>
<path d="M2110.5 1601H2612.5L2536.5 1677L2437.5 1776L2351 1862.5L2267 1946.5H1765L1849 1862.5L1935.5 1776L2034.5 1677L2110.5 1601Z" fill="#F9A432"/>
<path d="M2536.5 1677L2612.5 1601H2110.5L2034.5 1677M2536.5 1677H2034.5M2536.5 1677L2437.5 1776M2034.5 1677L1935.5 1776M2437.5 1776H1935.5M2437.5 1776L2351 1862.5M1935.5 1776L1849 1862.5M2351 1862.5H1849M2351 1862.5L2267 1946.5H1765L1849 1862.5" stroke="#D58D2C" stroke-width="7"/>
<path d="M763.5 1947H1265.5L1189.5 2023L1090.5 2122L1004 2208.5L920 2292.5H418L502 2208.5L588.5 2122L687.5 2023L763.5 1947Z" fill="#F9A432"/>
<path d="M1189.5 2023L1265.5 1947H763.5L687.5 2023M1189.5 2023H687.5M1189.5 2023L1090.5 2122M687.5 2023L588.5 2122M1090.5 2122H588.5M1090.5 2122L1004 2208.5M588.5 2122L502 2208.5M1004 2208.5H502M1004 2208.5L920 2292.5H418L502 2208.5" stroke="#D58D2C" stroke-width="7"/>
<path d="M1108.5 1601H1610.5L1534.5 1677L1435.5 1776L1349 1862.5L1265 1946.5H763L847 1862.5L933.5 1776L1032.5 1677L1108.5 1601Z" fill="#F9A432"/>
<path d="M1534.5 1677L1610.5 1601H1108.5L1032.5 1677M1534.5 1677H1032.5M1534.5 1677L1435.5 1776M1032.5 1677L933.5 1776M1435.5 1776H933.5M1435.5 1776L1349 1862.5M933.5 1776L847 1862.5M1349 1862.5H847M1349 1862.5L1265 1946.5H763L847 1862.5" stroke="#D58D2C" stroke-width="7"/>
<path d="M2268.5 1947H2770.5L2694.5 2023L2595.5 2122L2509 2208.5L2425 2292.5H1923L2007 2208.5L2093.5 2122L2192.5 2023L2268.5 1947Z" fill="#F9A432"/>
<path d="M2694.5 2023L2770.5 1947H2268.5L2192.5 2023M2694.5 2023H2192.5M2694.5 2023L2595.5 2122M2192.5 2023L2093.5 2122M2595.5 2122H2093.5M2595.5 2122L2509 2208.5M2093.5 2122L2007 2208.5M2509 2208.5H2007M2509 2208.5L2425 2292.5H1923L2007 2208.5" stroke="#D58D2C" stroke-width="7"/>
<path d="M2613.5 1601H3115.5L3039.5 1677L2940.5 1776L2854 1862.5L2770 1946.5H2268L2352 1862.5L2438.5 1776L2537.5 1677L2613.5 1601Z" fill="#F9A432"/>
<path d="M3039.5 1677L3115.5 1601H2613.5L2537.5 1677M3039.5 1677H2537.5M3039.5 1677L2940.5 1776M2537.5 1677L2438.5 1776M2940.5 1776H2438.5M2940.5 1776L2854 1862.5M2438.5 1776L2352 1862.5M2854 1862.5H2352M2854 1862.5L2770 1946.5H2268L2352 1862.5" stroke="#D58D2C" stroke-width="7"/>
<path d="M3273.5 1947H3775.5L3699.5 2023L3600.5 2122L3514 2208.5L3430 2292.5H2928L3012 2208.5L3098.5 2122L3197.5 2023L3273.5 1947Z" fill="#F9A432"/>
<path d="M3699.5 2023L3775.5 1947H3273.5L3197.5 2023M3699.5 2023H3197.5M3699.5 2023L3600.5 2122M3197.5 2023L3098.5 2122M3600.5 2122H3098.5M3600.5 2122L3514 2208.5M3098.5 2122L3012 2208.5M3514 2208.5H3012M3514 2208.5L3430 2292.5H2928L3012 2208.5" stroke="#D58D2C" stroke-width="7"/>
<path d="M3618.5 1601H4120.5L4044.5 1677L3945.5 1776L3859 1862.5L3775 1946.5H3273L3357 1862.5L3443.5 1776L3542.5 1677L3618.5 1601Z" fill="#F9A432"/>
<path d="M4044.5 1677L4120.5 1601H3618.5L3542.5 1677M4044.5 1677H3542.5M4044.5 1677L3945.5 1776M3542.5 1677L3443.5 1776M3945.5 1776H3443.5M3945.5 1776L3859 1862.5M3443.5 1776L3357 1862.5M3859 1862.5H3357M3859 1862.5L3775 1946.5H3273L3357 1862.5" stroke="#D58D2C" stroke-width="7"/>
<path d="M1263.5 1947H1765.5L1689.5 2023L1590.5 2122L1504 2208.5L1420 2292.5H918L1002 2208.5L1088.5 2122L1187.5 2023L1263.5 1947Z" fill="#F9A432"/>
<path d="M1689.5 2023L1765.5 1947H1263.5L1187.5 2023M1689.5 2023H1187.5M1689.5 2023L1590.5 2122M1187.5 2023L1088.5 2122M1590.5 2122H1088.5M1590.5 2122L1504 2208.5M1088.5 2122L1002 2208.5M1504 2208.5H1002M1504 2208.5L1420 2292.5H918L1002 2208.5" stroke="#D58D2C" stroke-width="7"/>
<path d="M1608.5 1601H2110.5L2034.5 1677L1935.5 1776L1849 1862.5L1765 1946.5H1263L1347 1862.5L1433.5 1776L1532.5 1677L1608.5 1601Z" fill="#F9A432"/>
<path d="M2034.5 1677L2110.5 1601H1608.5L1532.5 1677M2034.5 1677H1532.5M2034.5 1677L1935.5 1776M1532.5 1677L1433.5 1776M1935.5 1776H1433.5M1935.5 1776L1849 1862.5M1433.5 1776L1347 1862.5M1849 1862.5H1347M1849 1862.5L1765 1946.5H1263L1347 1862.5" stroke="#D58D2C" stroke-width="7"/>
<path d="M2768.5 1947H3270.5L3194.5 2023L3095.5 2122L3009 2208.5L2925 2292.5H2423L2507 2208.5L2593.5 2122L2692.5 2023L2768.5 1947Z" fill="#F9A432"/>
<path d="M3194.5 2023L3270.5 1947H2768.5L2692.5 2023M3194.5 2023H2692.5M3194.5 2023L3095.5 2122M2692.5 2023L2593.5 2122M3095.5 2122H2593.5M3095.5 2122L3009 2208.5M2593.5 2122L2507 2208.5M3009 2208.5H2507M3009 2208.5L2925 2292.5H2423L2507 2208.5" stroke="#D58D2C" stroke-width="7"/>
<path d="M3113.5 1601H3615.5L3539.5 1677L3440.5 1776L3354 1862.5L3270 1946.5H2768L2852 1862.5L2938.5 1776L3037.5 1677L3113.5 1601Z" fill="#F9A432"/>
<path d="M3539.5 1677L3615.5 1601H3113.5L3037.5 1677M3539.5 1677H3037.5M3539.5 1677L3440.5 1776M3037.5 1677L2938.5 1776M3440.5 1776H2938.5M3440.5 1776L3354 1862.5M2938.5 1776L2852 1862.5M3354 1862.5H2852M3354 1862.5L3270 1946.5H2768L2852 1862.5" stroke="#D58D2C" stroke-width="7"/>
<path d="M3773.5 1947H4275.5L4199.5 2023L4100.5 2122L4014 2208.5L3930 2292.5H3428L3512 2208.5L3598.5 2122L3697.5 2023L3773.5 1947Z" fill="#F9A432"/>
<path d="M4199.5 2023L4275.5 1947H3773.5L3697.5 2023M4199.5 2023H3697.5M4199.5 2023L4100.5 2122M3697.5 2023L3598.5 2122M4100.5 2122H3598.5M4100.5 2122L4014 2208.5M3598.5 2122L3512 2208.5M4014 2208.5H3512M4014 2208.5L3930 2292.5H3428L3512 2208.5" stroke="#D58D2C" stroke-width="7"/>
<path d="M4118.5 1601H4620.5L4544.5 1677L4445.5 1776L4359 1862.5L4275 1946.5H3773L3857 1862.5L3943.5 1776L4042.5 1677L4118.5 1601Z" fill="#F9A432"/>
<path d="M4544.5 1677L4620.5 1601H4118.5L4042.5 1677M4544.5 1677H4042.5M4544.5 1677L4445.5 1776M4042.5 1677L3943.5 1776M4445.5 1776H3943.5M4445.5 1776L4359 1862.5M3943.5 1776L3857 1862.5M4359 1862.5H3857M4359 1862.5L4275 1946.5H3773L3857 1862.5" stroke="#D58D2C" stroke-width="7"/>
<path d="M4278.5 1947H4780.5L4704.5 2023L4605.5 2122L4519 2208.5L4435 2292.5H3933L4017 2208.5L4103.5 2122L4202.5 2023L4278.5 1947Z" fill="#F9A432"/>
<path d="M4704.5 2023L4780.5 1947H4278.5L4202.5 2023M4704.5 2023H4202.5M4704.5 2023L4605.5 2122M4202.5 2023L4103.5 2122M4605.5 2122H4103.5M4605.5 2122L4519 2208.5M4103.5 2122L4017 2208.5M4519 2208.5H4017M4519 2208.5L4435 2292.5H3933L4017 2208.5" stroke="#D58D2C" stroke-width="7"/>
</g>
<mask id="mask1_93_755" style="mask-type:alpha" maskUnits="userSpaceOnUse" x="553" y="88" width="2990" height="1613">
<path fill-rule="evenodd" clip-rule="evenodd" d="M553 381V1700.5H3543V381L2921.49 142.5L2048 88L1174.51 142.5L553 381ZM1114.49 448C1114.49 431.431 1127.92 418 1144.49 418H1722.37C1738.94 418 1752.37 431.431 1752.37 448V973C1752.37 989.569 1738.94 1003 1722.37 1003H1144.49C1127.92 1003 1114.49 989.569 1114.49 973V448ZM2371.64 418C2355.08 418 2341.64 431.431 2341.64 448V973C2341.64 989.569 2355.08 1003 2371.64 1003H2949.52C2966.09 1003 2979.52 989.569 2979.52 973V448C2979.52 431.431 2966.09 418 2949.52 418H2371.64Z" fill="#D9D9D9"/>
</mask>
<g mask="url(#mask1_93_755)">
<rect x="1862.13" y="89.5" width="183.875" height="1610" fill="#B16423" stroke="#6F3809" stroke-width="3"/>
<rect x="1114.63" y="89.5" width="183.875" height="1610" fill="#B16423" stroke="#6F3809" stroke-width="3"/>
<rect x="2609.63" y="89.5" width="183.875" height="1610" fill="#B16423" stroke="#6F3809" stroke-width="3"/>
<rect x="740.879" y="89.5" width="183.875" height="1610" fill="#B16423" stroke="#6F3809" stroke-width="3"/>
<rect x="2235.88" y="89.5" width="183.875" height="1610" fill="#B16423" stroke="#6F3809" stroke-width="3"/>
<rect x="1488.38" y="89.5" width="183.875" height="1610" fill="#B16423" stroke="#6F3809" stroke-width="3"/>
<rect x="2983.38" y="89.5" width="183.875" height="1610" fill="#B16423" stroke="#6F3809" stroke-width="3"/>
<rect x="554.004" y="89.5" width="183.875" height="1610" fill="#B16423" stroke="#6F3809" stroke-width="3"/>
<rect x="2049" y="89.5" width="183.875" height="1610" fill="#B16423" stroke="#6F3809" stroke-width="3"/>
<rect x="1301.5" y="89.5" width="183.875" height="1610" fill="#B16423" stroke="#6F3809" stroke-width="3"/>
<rect x="2796.5" y="89.5" width="183.875" height="1610" fill="#B16423" stroke="#6F3809" stroke-width="3"/>
<rect x="927.754" y="89.5" width="183.875" height="1610" fill="#B16423" stroke="#6F3809" stroke-width="3"/>
<rect x="2422.75" y="89.5" width="183.875" height="1610" fill="#B16423" stroke="#6F3809" stroke-width="3"/>
<rect x="1675.25" y="89.5" width="183.875" height="1610" fill="#B16423" stroke="#6F3809" stroke-width="3"/>
<rect x="3170.25" y="89.5" width="183.875" height="1610" fill="#B16423" stroke="#6F3809" stroke-width="3"/>
<rect x="3357.13" y="89.5" width="183.875" height="1610" fill="#B16423" stroke="#6F3809" stroke-width="3"/>
</g>
<path d="M550.149 379.497L0 -10.602L330.487 -66.3276L658.241 -121.592L985.994 -176.857L1009.35 -178.906L1239.09 -199.054L2048.03 -270L2856.96 -199.054L3086.7 -178.906L3110.06 -176.857L4104 -10.602L3545.9 384L2923.19 140.63L2775.1 131.393L2546.49 117.135L2048.03 86.0463L1549.56 117.135L1320.95 131.393L1172.86 140.63L1076.94 177.423L813.048 278.65L550.149 379.497Z" fill="#F7C86C"/>
<path d="M3545.9 384L4104 -10.602M3545.9 384L2923.19 140.63M3545.9 384L3283 278.65M4104 -10.602L3110.06 -176.857M4104 -10.602L3765.56 -66.3276M2923.19 140.63L2048.03 86.0463L1549.56 117.135M2923.19 140.63L3019.11 177.423M2923.19 140.63L2775.1 131.393M3110.06 -176.857L2048.03 -270L1009.35 -178.906M3110.06 -176.857L3437.81 -121.592M3110.06 -176.857L3086.7 -178.906L2775.1 131.393M330.487 -66.3276L0 -10.602L550.149 379.497L813.048 278.65M330.487 -66.3276L813.048 278.65M330.487 -66.3276L658.241 -121.592M813.048 278.65L1076.94 177.423M1076.94 177.423L1172.86 140.63L1320.95 131.393M1076.94 177.423L658.241 -121.592M658.241 -121.592L985.994 -176.857L1009.35 -178.906M1320.95 131.393L1009.35 -178.906M1320.95 131.393L1549.56 117.135M1549.56 117.135L1220.57 -217.92M3765.56 -66.3276L3283 278.65M3765.56 -66.3276L3437.81 -121.592M3283 278.65L3019.11 177.423M3019.11 177.423L3437.81 -121.592M2775.1 131.393L2546.49 117.135L2875.49 -217.92" stroke="#CC9730" stroke-width="6"/>
<mask id="path-67-inside-1_93_755" fill="white">
<path fill-rule="evenodd" clip-rule="evenodd" d="M1739 418H1161L1160 418L1157 418C1140.43 418 1127 431.431 1127 448V974C1127 990.016 1139.98 1003 1156 1003V1003H1161L1426 1003H1471H1736L1745 1003V1003C1758.81 1003 1770 991.807 1770 978V448C1770 431.431 1756.57 418 1740 418L1739 418ZM1706 970C1722.57 970 1736 956.569 1736 940V758C1736 741.432 1722.57 728 1706 728H1501C1484.43 728 1471 741.432 1471 758V940C1471 956.569 1484.43 970 1501 970H1706ZM1706 694C1722.57 694 1736 680.569 1736 664V482C1736 465.432 1722.57 452 1706 452L1501 452C1484.43 452 1471 465.431 1471 482V664C1471 680.569 1484.43 694 1501 694H1706ZM1426 940C1426 956.569 1412.57 970 1396 970H1191C1174.43 970 1161 956.569 1161 940V758C1161 741.432 1174.43 728 1191 728H1396C1412.57 728 1426 741.432 1426 758V940ZM1426 482C1426 465.431 1412.57 452 1396 452L1191 452C1174.43 452 1161 465.431 1161 482V664C1161 680.569 1174.43 694 1191 694H1396C1412.57 694 1426 680.569 1426 664V482Z"/>
</mask>
<path fill-rule="evenodd" clip-rule="evenodd" d="M1739 418H1161L1160 418L1157 418C1140.43 418 1127 431.431 1127 448V974C1127 990.016 1139.98 1003 1156 1003V1003H1161L1426 1003H1471H1736L1745 1003V1003C1758.81 1003 1770 991.807 1770 978V448C1770 431.431 1756.57 418 1740 418L1739 418ZM1706 970C1722.57 970 1736 956.569 1736 940V758C1736 741.432 1722.57 728 1706 728H1501C1484.43 728 1471 741.432 1471 758V940C1471 956.569 1484.43 970 1501 970H1706ZM1706 694C1722.57 694 1736 680.569 1736 664V482C1736 465.432 1722.57 452 1706 452L1501 452C1484.43 452 1471 465.431 1471 482V664C1471 680.569 1484.43 694 1501 694H1706ZM1426 940C1426 956.569 1412.57 970 1396 970H1191C1174.43 970 1161 956.569 1161 940V758C1161 741.432 1174.43 728 1191 728H1396C1412.57 728 1426 741.432 1426 758V940ZM1426 482C1426 465.431 1412.57 452 1396 452L1191 452C1174.43 452 1161 465.431 1161 482V664C1161 680.569 1174.43 694 1191 694H1396C1412.57 694 1426 680.569 1426 664V482Z" fill="#845535"/>
<path d="M1161 418L1161 419H1161V418ZM1739 418L1739 417H1739V418ZM1160 418L1160 417L1160 417L1160 418ZM1161 1003L1161 1002H1161V1003ZM1426 1003L1426 1004H1426V1003ZM1736 1003L1736 1004L1736 1004L1736 1003ZM1706 452L1706 451L1706 452ZM1396 452L1396 451L1396 452ZM1157 418L1157 417L1157 418ZM1161 419H1739V417H1161V419ZM1160 419L1161 419L1161 417L1160 417L1160 419ZM1157 419L1160 419L1160 417L1157 417L1157 419ZM1128 974V448H1126V974H1128ZM1161 1002H1156V1004H1161V1002ZM1426 1002L1161 1002L1161 1004L1426 1004L1426 1002ZM1471 1002H1426V1004H1471V1002ZM1736 1002H1471V1004H1736V1002ZM1745 1002L1736 1002L1736 1004L1745 1004L1745 1002ZM1769 448V978H1771V448H1769ZM1739 419L1740 419L1740 417L1739 417L1739 419ZM1737 940V758H1735V940H1737ZM1706 727H1501V729H1706V727ZM1470 758V940H1472V758H1470ZM1501 971H1706V969H1501V971ZM1737 664V482H1735V664H1737ZM1706 451L1501 451L1501 453L1706 453L1706 451ZM1470 482V664H1472V482H1470ZM1501 695H1706V693H1501V695ZM1191 971H1396V969H1191V971ZM1160 758V940H1162V758H1160ZM1396 727H1191V729H1396V727ZM1427 940V758H1425V940H1427ZM1191 453L1396 453L1396 451L1191 451L1191 453ZM1162 664V482H1160V664H1162ZM1396 693H1191V695H1396V693ZM1425 482V664H1427V482H1425ZM1396 695C1413.12 695 1427 681.121 1427 664H1425C1425 680.016 1412.02 693 1396 693V695ZM1191 451C1173.88 451 1160 464.879 1160 482H1162C1162 465.984 1174.98 453 1191 453L1191 451ZM1396 729C1412.02 729 1425 741.984 1425 758H1427C1427 740.879 1413.12 727 1396 727V729ZM1162 758C1162 741.984 1174.98 729 1191 729V727C1173.88 727 1160 740.879 1160 758H1162ZM1396 971C1413.12 971 1427 957.121 1427 940H1425C1425 956.016 1412.02 969 1396 969V971ZM1191 969C1174.98 969 1162 956.016 1162 940H1160C1160 957.121 1173.88 971 1191 971V969ZM1470 664C1470 681.121 1483.88 695 1501 695V693C1484.98 693 1472 680.016 1472 664H1470ZM1501 451C1483.88 451 1470 464.879 1470 482H1472C1472 465.984 1484.98 453 1501 453L1501 451ZM1737 482C1737 464.879 1723.12 451 1706 451L1706 453C1722.02 453 1735 465.984 1735 482H1737ZM1735 664C1735 680.016 1722.02 693 1706 693V695C1723.12 695 1737 681.121 1737 664H1735ZM1470 940C1470 957.121 1483.88 971 1501 971V969C1484.98 969 1472 956.016 1472 940H1470ZM1771 448C1771 430.879 1757.12 417 1740 417L1740 419C1756.02 419 1769 431.984 1769 448H1771ZM1745 1004C1759.36 1004 1771 992.359 1771 978H1769C1769 991.255 1758.25 1002 1745 1002L1745 1004ZM1501 727C1483.88 727 1470 740.879 1470 758H1472C1472 741.984 1484.98 729 1501 729V727ZM1160 664C1160 681.121 1173.88 695 1191 695V693C1174.98 693 1162 680.016 1162 664H1160ZM1126 974C1126 990.569 1139.43 1004 1156 1004V1002C1140.54 1002 1128 989.464 1128 974H1126ZM1735 940C1735 956.016 1722.02 969 1706 969V971C1723.12 971 1737 957.121 1737 940H1735ZM1737 758C1737 740.879 1723.12 727 1706 727V729C1722.02 729 1735 741.984 1735 758H1737ZM1396 453C1412.02 453 1425 465.984 1425 482H1427C1427 464.879 1413.12 451 1396 451L1396 453ZM1157 417C1139.88 417 1126 430.879 1126 448H1128C1128 431.984 1140.98 419 1157 419L1157 417Z" fill="black" mask="url(#path-67-inside-1_93_755)"/>
<mask id="path-69-inside-2_93_755" fill="white">
<path fill-rule="evenodd" clip-rule="evenodd" d="M1068 353C1044.25 353 1025 372.252 1025 396V1026C1025 1049.75 1044.25 1069 1068 1069H1828C1851.75 1069 1871 1049.75 1871 1026V396C1871 372.252 1851.75 353 1828 353H1068ZM1157 418C1140.43 418 1127 431.431 1127 448V973C1127 989.569 1140.43 1003 1157 1003H1740C1756.57 1003 1770 989.569 1770 973V448C1770 431.431 1756.57 418 1740 418H1157Z"/>
</mask>
<path fill-rule="evenodd" clip-rule="evenodd" d="M1068 353C1044.25 353 1025 372.252 1025 396V1026C1025 1049.75 1044.25 1069 1068 1069H1828C1851.75 1069 1871 1049.75 1871 1026V396C1871 372.252 1851.75 353 1828 353H1068ZM1157 418C1140.43 418 1127 431.431 1127 448V973C1127 989.569 1140.43 1003 1157 1003H1740C1756.57 1003 1770 989.569 1770 973V448C1770 431.431 1756.57 418 1740 418H1157Z" fill="#FDECD2"/>
<path d="M1026 396C1026 372.804 1044.8 354 1068 354V352C1043.7 352 1024 371.699 1024 396H1026ZM1026 1026V396H1024V1026H1026ZM1068 1068C1044.8 1068 1026 1049.2 1026 1026H1024C1024 1050.3 1043.7 1070 1068 1070V1068ZM1828 1068H1068V1070H1828V1068ZM1870 1026C1870 1049.2 1851.2 1068 1828 1068V1070C1852.3 1070 1872 1050.3 1872 1026H1870ZM1870 396V1026H1872V396H1870ZM1828 354C1851.2 354 1870 372.804 1870 396H1872C1872 371.699 1852.3 352 1828 352V354ZM1068 354H1828V352H1068V354ZM1128 448C1128 431.984 1140.98 419 1157 419V417C1139.88 417 1126 430.879 1126 448H1128ZM1128 973V448H1126V973H1128ZM1157 1002C1140.98 1002 1128 989.016 1128 973H1126C1126 990.121 1139.88 1004 1157 1004V1002ZM1740 1002H1157V1004H1740V1002ZM1769 973C1769 989.016 1756.02 1002 1740 1002V1004C1757.12 1004 1771 990.121 1771 973H1769ZM1769 448V973H1771V448H1769ZM1740 419C1756.02 419 1769 431.984 1769 448H1771C1771 430.879 1757.12 417 1740 417V419ZM1157 419H1740V417H1157V419Z" fill="black" mask="url(#path-69-inside-2_93_755)"/>
<mask id="path-71-inside-3_93_755" fill="white">
<path fill-rule="evenodd" clip-rule="evenodd" d="M2963 418H2385L2384 418L2381 418C2364.43 418 2351 431.431 2351 448V974C2351 990.016 2363.98 1003 2380 1003V1003H2385L2650 1003H2695H2960L2969 1003V1003C2982.81 1003 2994 991.807 2994 978V448C2994 431.431 2980.57 418 2964 418L2963 418ZM2930 970C2946.57 970 2960 956.569 2960 940V758C2960 741.432 2946.57 728 2930 728H2725C2708.43 728 2695 741.432 2695 758V940C2695 956.569 2708.43 970 2725 970H2930ZM2930 694C2946.57 694 2960 680.569 2960 664V482C2960 465.432 2946.57 452 2930 452L2725 452C2708.43 452 2695 465.431 2695 482V664C2695 680.569 2708.43 694 2725 694H2930ZM2650 940C2650 956.569 2636.57 970 2620 970H2415C2398.43 970 2385 956.569 2385 940V758C2385 741.432 2398.43 728 2415 728H2620C2636.57 728 2650 741.432 2650 758V940ZM2650 482C2650 465.431 2636.57 452 2620 452L2415 452C2398.43 452 2385 465.431 2385 482V664C2385 680.569 2398.43 694 2415 694H2620C2636.57 694 2650 680.569 2650 664V482Z"/>
</mask>
<path fill-rule="evenodd" clip-rule="evenodd" d="M2963 418H2385L2384 418L2381 418C2364.43 418 2351 431.431 2351 448V974C2351 990.016 2363.98 1003 2380 1003V1003H2385L2650 1003H2695H2960L2969 1003V1003C2982.81 1003 2994 991.807 2994 978V448C2994 431.431 2980.57 418 2964 418L2963 418ZM2930 970C2946.57 970 2960 956.569 2960 940V758C2960 741.432 2946.57 728 2930 728H2725C2708.43 728 2695 741.432 2695 758V940C2695 956.569 2708.43 970 2725 970H2930ZM2930 694C2946.57 694 2960 680.569 2960 664V482C2960 465.432 2946.57 452 2930 452L2725 452C2708.43 452 2695 465.431 2695 482V664C2695 680.569 2708.43 694 2725 694H2930ZM2650 940C2650 956.569 2636.57 970 2620 970H2415C2398.43 970 2385 956.569 2385 940V758C2385 741.432 2398.43 728 2415 728H2620C2636.57 728 2650 741.432 2650 758V940ZM2650 482C2650 465.431 2636.57 452 2620 452L2415 452C2398.43 452 2385 465.431 2385 482V664C2385 680.569 2398.43 694 2415 694H2620C2636.57 694 2650 680.569 2650 664V482Z" fill="#845535"/>
<path d="M2385 418L2385 419H2385V418ZM2963 418L2963 417H2963V418ZM2384 418L2384 417L2384 417L2384 418ZM2385 1003L2385 1002H2385V1003ZM2650 1003L2650 1004H2650V1003ZM2960 1003L2960 1004L2960 1004L2960 1003ZM2930 452L2930 451L2930 452ZM2620 452L2620 451L2620 452ZM2381 418L2381 417L2381 418ZM2385 419H2963V417H2385V419ZM2384 419L2385 419L2385 417L2384 417L2384 419ZM2381 419L2384 419L2384 417L2381 417L2381 419ZM2352 974V448H2350V974H2352ZM2385 1002H2380V1004H2385V1002ZM2650 1002L2385 1002L2385 1004L2650 1004L2650 1002ZM2695 1002H2650V1004H2695V1002ZM2960 1002H2695V1004H2960V1002ZM2969 1002L2960 1002L2960 1004L2969 1004L2969 1002ZM2993 448V978H2995V448H2993ZM2963 419L2964 419L2964 417L2963 417L2963 419ZM2961 940V758H2959V940H2961ZM2930 727H2725V729H2930V727ZM2694 758V940H2696V758H2694ZM2725 971H2930V969H2725V971ZM2961 664V482H2959V664H2961ZM2930 451L2725 451L2725 453L2930 453L2930 451ZM2694 482V664H2696V482H2694ZM2725 695H2930V693H2725V695ZM2415 971H2620V969H2415V971ZM2384 758V940H2386V758H2384ZM2620 727H2415V729H2620V727ZM2651 940V758H2649V940H2651ZM2415 453L2620 453L2620 451L2415 451L2415 453ZM2386 664V482H2384V664H2386ZM2620 693H2415V695H2620V693ZM2649 482V664H2651V482H2649ZM2620 695C2637.12 695 2651 681.121 2651 664H2649C2649 680.016 2636.02 693 2620 693V695ZM2415 451C2397.88 451 2384 464.879 2384 482H2386C2386 465.984 2398.98 453 2415 453L2415 451ZM2620 729C2636.02 729 2649 741.984 2649 758H2651C2651 740.879 2637.12 727 2620 727V729ZM2386 758C2386 741.984 2398.98 729 2415 729V727C2397.88 727 2384 740.879 2384 758H2386ZM2620 971C2637.12 971 2651 957.121 2651 940H2649C2649 956.016 2636.02 969 2620 969V971ZM2415 969C2398.98 969 2386 956.016 2386 940H2384C2384 957.121 2397.88 971 2415 971V969ZM2694 664C2694 681.121 2707.88 695 2725 695V693C2708.98 693 2696 680.016 2696 664H2694ZM2725 451C2707.88 451 2694 464.879 2694 482H2696C2696 465.984 2708.98 453 2725 453L2725 451ZM2961 482C2961 464.879 2947.12 451 2930 451L2930 453C2946.02 453 2959 465.984 2959 482H2961ZM2959 664C2959 680.016 2946.02 693 2930 693V695C2947.12 695 2961 681.121 2961 664H2959ZM2694 940C2694 957.121 2707.88 971 2725 971V969C2708.98 969 2696 956.016 2696 940H2694ZM2995 448C2995 430.879 2981.12 417 2964 417L2964 419C2980.02 419 2993 431.984 2993 448H2995ZM2969 1004C2983.36 1004 2995 992.359 2995 978H2993C2993 991.255 2982.25 1002 2969 1002L2969 1004ZM2725 727C2707.88 727 2694 740.879 2694 758H2696C2696 741.984 2708.98 729 2725 729V727ZM2384 664C2384 681.121 2397.88 695 2415 695V693C2398.98 693 2386 680.016 2386 664H2384ZM2350 974C2350 990.569 2363.43 1004 2380 1004V1002C2364.54 1002 2352 989.464 2352 974H2350ZM2959 940C2959 956.016 2946.02 969 2930 969V971C2947.12 971 2961 957.121 2961 940H2959ZM2961 758C2961 740.879 2947.12 727 2930 727V729C2946.02 729 2959 741.984 2959 758H2961ZM2620 453C2636.02 453 2649 465.984 2649 482H2651C2651 464.879 2637.12 451 2620 451L2620 453ZM2381 417C2363.88 417 2350 430.879 2350 448H2352C2352 431.984 2364.98 419 2381 419L2381 417Z" fill="black" mask="url(#path-71-inside-3_93_755)"/>
<mask id="path-73-inside-4_93_755" fill="white">
<path fill-rule="evenodd" clip-rule="evenodd" d="M2292 353C2268.25 353 2249 372.252 2249 396V1026C2249 1049.75 2268.25 1069 2292 1069H3052C3075.75 1069 3095 1049.75 3095 1026V396C3095 372.252 3075.75 353 3052 353H2292ZM2381 418C2364.43 418 2351 431.431 2351 448V973C2351 989.569 2364.43 1003 2381 1003H2964C2980.57 1003 2994 989.569 2994 973V448C2994 431.431 2980.57 418 2964 418H2381Z"/>
</mask>
<path fill-rule="evenodd" clip-rule="evenodd" d="M2292 353C2268.25 353 2249 372.252 2249 396V1026C2249 1049.75 2268.25 1069 2292 1069H3052C3075.75 1069 3095 1049.75 3095 1026V396C3095 372.252 3075.75 353 3052 353H2292ZM2381 418C2364.43 418 2351 431.431 2351 448V973C2351 989.569 2364.43 1003 2381 1003H2964C2980.57 1003 2994 989.569 2994 973V448C2994 431.431 2980.57 418 2964 418H2381Z" fill="#FDECD2"/>
<path d="M2250 396C2250 372.804 2268.8 354 2292 354V352C2267.7 352 2248 371.699 2248 396H2250ZM2250 1026V396H2248V1026H2250ZM2292 1068C2268.8 1068 2250 1049.2 2250 1026H2248C2248 1050.3 2267.7 1070 2292 1070V1068ZM3052 1068H2292V1070H3052V1068ZM3094 1026C3094 1049.2 3075.2 1068 3052 1068V1070C3076.3 1070 3096 1050.3 3096 1026H3094ZM3094 396V1026H3096V396H3094ZM3052 354C3075.2 354 3094 372.804 3094 396H3096C3096 371.699 3076.3 352 3052 352V354ZM2292 354H3052V352H2292V354ZM2352 448C2352 431.984 2364.98 419 2381 419V417C2363.88 417 2350 430.879 2350 448H2352ZM2352 973V448H2350V973H2352ZM2381 1002C2364.98 1002 2352 989.016 2352 973H2350C2350 990.121 2363.88 1004 2381 1004V1002ZM2964 1002H2381V1004H2964V1002ZM2993 973C2993 989.016 2980.02 1002 2964 1002V1004C2981.12 1004 2995 990.121 2995 973H2993ZM2993 448V973H2995V448H2993ZM2964 419C2980.02 419 2993 431.984 2993 448H2995C2995 430.879 2981.12 417 2964 417V419ZM2381 419H2964V417H2381V419Z" fill="black" mask="url(#path-73-inside-4_93_755)"/>
<path d="M547.784 1791.72C511.95 1817.13 518.029 1798.95 528.456 1781.75C529.527 1779.98 526.978 1777.19 524.919 1777.36C521 1777.68 518.994 1775.34 518.123 1772.67C517.647 1771.21 515.825 1770.3 514.557 1771.17C487.941 1789.34 482.54 1781.14 483.252 1773.08C483.352 1771.94 482.555 1770.87 481.425 1770.72C457.374 1767.49 460.873 1744.78 466.489 1731.67C466.982 1730.52 466.28 1729.18 465.171 1728.6C460.019 1725.9 458.785 1718.04 458.863 1712.43C458.882 1711.07 457.565 1710.03 456.242 1710.32C444.521 1712.91 447.534 1704.26 453.045 1695.86C454.19 1694.11 451.967 1691.48 450.054 1692.31C433.843 1699.36 431.504 1693.77 433.698 1686.29C435.71 1679.43 441.021 1674.15 446.605 1669.68C452.657 1664.84 458.66 1660.29 464.612 1656.02C486.797 1640.1 513.029 1631.27 539.869 1626.27L542.372 1625.8C557.545 1622.98 572.387 1618.59 586.663 1612.72C611.799 1602.39 638.784 1595.55 665.671 1599.51C705.548 1605.38 734.394 1620.06 747.961 1627.43C765.126 1636.75 766.769 1641 763.484 1642.66C761.702 1643.56 760.726 1646.66 762.392 1647.76C779.754 1659.25 780.09 1665.63 776.58 1668.45C775.412 1669.39 774.918 1671.28 776.001 1672.32C787.926 1683.7 792.358 1690.05 792.579 1693.24C792.705 1695.07 782.402 1704.71 780.631 1705.18C779.196 1705.55 779.331 1707.64 780.561 1708.47C793.442 1717.13 790.568 1722.05 786.957 1723.62C786.771 1723.7 786.571 1723.74 786.369 1723.75C766.637 1724.69 748.365 1726.15 731.378 1728.1L645.452 1729.4L633.115 1738.72C615.596 1751.96 596.242 1762.49 577.072 1773.2C566.709 1778.98 557.023 1785.17 547.784 1791.72Z" fill="#E2CE1A" stroke="#DEA71B" stroke-width="3.77693"/>
<path d="M491.543 1672.37C566.326 1602.12 677.557 1629.25 723.824 1651.59L703.995 1658.2L734.211 1680.86H707.772L729.49 1694.08C673.591 1681.24 584.078 1727.76 546.308 1752.63L562.36 1727.13L531.201 1724.3L540.643 1697.86L511.372 1701.64L515.149 1675.2L491.543 1672.37Z" fill="#F1DD1E"/>
<path d="M562.359 1758.46C568.025 1752.17 581.244 1739.58 588.798 1739.58M615.236 1728.25C641.675 1707.79 702.672 1670.65 735.154 1685.76M673.779 1713.14C685.739 1706.85 713.814 1696.15 730.433 1703.7M520.813 1766.02C540.327 1749.97 582.943 1717.86 597.296 1717.86M538.753 1742.41C558.897 1720.7 614.103 1676.51 673.779 1673.48M632.232 1669.71C647.025 1659.01 690.208 1641.57 744.596 1657.43M529.311 1717.86C540.642 1705.27 573.69 1680.09 615.236 1680.09M554.805 1685.76C575.264 1666.87 646.396 1629.1 735.154 1642.32M495.319 1758.46C504.761 1748.39 524.779 1728.25 529.311 1728.25M488.709 1742.41C493.43 1734.23 505.516 1717.86 516.092 1717.86M511.371 1687.65C532.773 1668.45 585.398 1631.94 624.679 1639.49M480.211 1691.42C499.096 1673.17 543.852 1636.66 571.802 1636.66" stroke="#DEA71B" stroke-width="3.77693"/>
<path d="M396.876 1929.86C383.557 1971.72 377.462 1953.53 375.437 1933.53C375.229 1931.47 371.51 1930.77 369.967 1932.15C367.033 1934.76 364.024 1934.1 361.723 1932.5C360.464 1931.62 358.459 1931.99 357.967 1933.44C347.651 1963.97 338.406 1960.68 334.12 1953.81C333.517 1952.84 332.236 1952.47 331.242 1953.03C310.094 1964.93 299.215 1944.69 295.807 1930.84C295.508 1929.62 294.145 1928.98 292.911 1929.18C287.171 1930.13 281.452 1924.59 278.135 1920.06C277.335 1918.97 275.655 1918.93 274.775 1919.96C266.977 1929.09 264.174 1920.36 263.517 1910.34C263.38 1908.25 260.017 1907.48 258.99 1909.3C250.293 1924.69 245.061 1921.64 242.31 1914.34C239.785 1907.65 240.846 1900.24 242.615 1893.31C244.532 1885.8 246.587 1878.55 248.769 1871.56C256.904 1845.5 272.536 1822.65 290.957 1802.5L292.675 1800.62C303.088 1789.23 312.301 1776.8 320.168 1763.52C334.019 1740.13 351.45 1718.43 375.302 1705.4C410.677 1686.08 442.552 1680.45 457.819 1678.16C477.135 1675.27 481.005 1677.67 479.383 1680.98C478.503 1682.77 479.59 1685.83 481.583 1685.71C502.363 1684.43 506.47 1689.32 505.366 1693.69C504.999 1695.14 505.745 1696.95 507.233 1697.13C523.608 1699.04 530.969 1701.44 533.064 1703.86C534.265 1705.24 531.845 1719.14 530.708 1720.58C529.788 1721.74 531.153 1723.33 532.633 1723.25C548.135 1722.41 548.802 1728.07 546.865 1731.5C546.766 1731.68 546.63 1731.83 546.474 1731.96C531.278 1744.58 517.567 1756.75 505.177 1768.53L437.351 1821.3L433.11 1836.17C427.087 1857.28 417.974 1877.34 409.109 1897.43C404.316 1908.29 400.309 1919.06 396.876 1929.86Z" fill="#E2CE1A" stroke="#DEA71B" stroke-width="3.77693"/>
<path d="M280.115 1868.4C297.542 1767.29 402.694 1722 453.092 1711.99L441.237 1729.2L479.006 1729.11L457.894 1745.02L483.194 1742.51C430.827 1765.9 387.352 1856.93 372.161 1899.52L369.632 1869.5L343.045 1886L334.67 1859.2L313.57 1879.84L300.67 1856.45L280.115 1868.4Z" fill="#F1DD1E"/>
<path d="M388.493 1894.52C389.227 1886.09 392.205 1868.08 398.236 1863.53M412.527 1838.56C421.324 1806.31 447.674 1739.94 482.706 1732.45M450.181 1791.26C455.942 1779.03 471.919 1753.59 489.736 1749.62M359.865 1925.56C365.784 1901 380.489 1849.71 391.95 1841.07M359.981 1895.92C362.993 1866.45 380.475 1797.93 426.308 1759.59M390.859 1781.59C396.229 1764.14 420.215 1724.22 473.194 1704.15M337.662 1882C339.131 1865.12 350.364 1825.12 383.539 1800.11M338.694 1841.01C343.663 1813.62 377.727 1740.64 456.56 1697.77M334.96 1934.88C336.437 1921.15 340.295 1893.02 343.914 1890.29M320.019 1926.04C318.863 1916.66 318.662 1896.32 327.106 1889.95M305.147 1868.67C310.68 1840.45 330.725 1779.62 366.638 1762.01M282.539 1890.44C286.63 1864.5 300.391 1808.4 322.709 1791.57" stroke="#DEA71B" stroke-width="3.77693"/>
<path d="M3690.15 1925.86C3703.47 1967.72 3709.56 1949.53 3711.59 1929.53C3711.79 1927.47 3715.51 1926.77 3717.06 1928.15C3719.99 1930.76 3723 1930.1 3725.3 1928.5C3726.56 1927.62 3728.56 1927.99 3729.06 1929.44C3739.37 1959.97 3748.62 1956.68 3752.9 1949.81C3753.51 1948.84 3754.79 1948.47 3755.78 1949.03C3776.93 1960.93 3787.81 1940.69 3791.22 1926.84C3791.52 1925.62 3792.88 1924.98 3794.11 1925.18C3799.85 1926.13 3805.57 1920.59 3808.89 1916.06C3809.69 1914.97 3811.37 1914.93 3812.25 1915.96C3820.05 1925.09 3822.85 1916.36 3823.51 1906.34C3823.64 1904.25 3827.01 1903.48 3828.03 1905.3C3836.73 1920.69 3841.96 1917.64 3844.71 1910.34C3847.24 1903.65 3846.18 1896.24 3844.41 1889.31C3842.49 1881.8 3840.44 1874.55 3838.25 1867.56C3830.12 1841.5 3814.49 1818.65 3796.07 1798.5L3794.35 1796.62C3783.94 1785.23 3774.72 1772.8 3766.86 1759.52C3753 1736.13 3735.57 1714.43 3711.72 1701.4C3676.35 1682.08 3644.47 1676.45 3629.2 1674.16C3609.89 1671.27 3606.02 1673.67 3607.64 1676.98C3608.52 1678.77 3607.43 1681.83 3605.44 1681.71C3584.66 1680.43 3580.55 1685.32 3581.66 1689.69C3582.02 1691.14 3581.28 1692.95 3579.79 1693.13C3563.42 1695.04 3556.05 1697.44 3553.96 1699.86C3552.76 1701.24 3555.18 1715.14 3556.32 1716.58C3557.24 1717.74 3555.87 1719.33 3554.39 1719.25C3538.89 1718.41 3538.22 1724.07 3540.16 1727.5C3540.26 1727.68 3540.39 1727.83 3540.55 1727.96C3555.75 1740.58 3569.46 1752.75 3581.85 1764.53L3649.67 1817.3L3653.91 1832.17C3659.94 1853.28 3669.05 1873.34 3677.91 1893.43C3682.71 1904.29 3686.71 1915.06 3690.15 1925.86Z" fill="#E2CE1A" stroke="#DEA71B" stroke-width="3.77693"/>
<path d="M3806.91 1864.4C3789.48 1763.29 3684.33 1718 3633.93 1707.99L3645.79 1725.2L3608.02 1725.11L3629.13 1741.02L3603.83 1738.51C3656.2 1761.9 3699.67 1852.93 3714.86 1895.52L3717.39 1865.5L3743.98 1882L3752.35 1855.2L3773.45 1875.84L3786.35 1852.45L3806.91 1864.4Z" fill="#F1DD1E"/>
<path d="M3698.53 1890.52C3697.8 1882.09 3694.82 1864.08 3688.79 1859.53M3674.5 1834.56C3665.7 1802.31 3639.35 1735.94 3604.32 1728.45M3636.84 1787.26C3631.08 1775.03 3615.1 1749.59 3597.29 1745.62M3727.16 1921.56C3721.24 1897 3706.53 1845.71 3695.07 1837.07M3727.04 1891.92C3724.03 1862.45 3706.55 1793.93 3660.72 1755.59M3696.16 1777.59C3690.79 1760.14 3666.81 1720.22 3613.83 1700.15M3749.36 1878C3747.89 1861.12 3736.66 1821.12 3703.48 1796.11M3748.33 1837.01C3743.36 1809.62 3709.3 1736.64 3630.46 1693.77M3752.06 1930.88C3750.59 1917.15 3746.73 1889.02 3743.11 1886.29M3767 1922.04C3768.16 1912.66 3768.36 1892.32 3759.92 1885.95M3781.88 1864.67C3776.34 1836.45 3756.3 1775.62 3720.39 1758.01M3804.48 1886.44C3800.39 1860.5 3786.63 1804.4 3764.31 1787.57" stroke="#DEA71B" stroke-width="3.77693"/>
<path d="M772.857 1684.46C729.137 1688.74 743.44 1675.96 761.026 1666.21C762.833 1665.21 762.009 1661.51 760.137 1660.64C756.575 1658.97 755.992 1655.95 756.56 1653.2C756.871 1651.7 755.743 1650 754.212 1650.12C722.089 1652.69 721.467 1642.89 726.086 1636.24C726.736 1635.31 726.575 1633.98 725.669 1633.29C706.392 1618.55 720.701 1600.57 732.084 1591.97C733.082 1591.22 733.134 1589.72 732.46 1588.66C729.326 1583.76 732.158 1576.32 735.011 1571.49C735.699 1570.32 735.074 1568.76 733.781 1568.36C722.318 1564.79 729.228 1558.78 738.182 1554.22C740.042 1553.27 739.422 1549.87 737.347 1549.65C719.772 1547.73 720.515 1541.72 726.131 1536.31C731.285 1531.35 738.517 1529.4 745.583 1528.29C753.241 1527.09 760.71 1526.12 767.996 1525.37C795.154 1522.56 822.31 1527.91 848.095 1536.89L850.499 1537.73C865.076 1542.8 880.136 1546.36 895.442 1548.35C922.392 1551.85 949.214 1559.31 970.593 1576.09C1002.3 1600.97 1020.06 1628.04 1028.18 1641.16C1038.46 1657.77 1037.77 1662.28 1034.1 1662.09C1032.1 1661.99 1029.72 1664.19 1030.62 1665.98C1039.99 1684.57 1037.11 1690.27 1032.67 1690.98C1031.19 1691.22 1029.82 1692.62 1030.25 1694.05C1034.95 1709.85 1035.64 1717.56 1034.25 1720.44C1033.46 1722.09 1019.73 1725.35 1017.96 1724.87C1016.53 1724.49 1015.61 1726.37 1016.27 1727.7C1023.15 1741.61 1018.21 1744.46 1014.29 1744.03C1014.09 1744.01 1013.9 1743.94 1013.72 1743.85C996.127 1734.87 979.54 1727.07 963.823 1720.33L888.577 1678.82L873.241 1680.79C851.464 1683.59 829.433 1683.13 807.478 1682.91C795.61 1682.79 784.128 1683.36 772.857 1684.46Z" fill="#E2CE1A" stroke="#DEA71B" stroke-width="3.77693"/>
<path d="M783.263 1552.93C883.051 1529.05 966.154 1607.8 995.232 1650.16L974.736 1646.06L989.722 1680.73L966.769 1667.61L979.063 1689.87C936.907 1650.98 836.108 1646.94 790.978 1649.78L817.566 1635.62L791.92 1617.69L813.238 1599.43L785.951 1588.18L802.351 1567.1L783.263 1552.93Z" fill="#F1DD1E"/>
<path d="M802.017 1662.82C810.059 1660.16 827.784 1655.79 834.342 1659.54M862.918 1662.83C896.024 1658.18 967.411 1656.21 988.113 1685.45M921.24 1678.76C934.747 1679.23 964.432 1683.88 975.111 1698.68M762.199 1648.76C787.106 1644.51 840.037 1637.78 852.497 1644.91M789.489 1637.17C817.754 1628.31 887.613 1617.34 940.921 1644.33M906.726 1620.44C924.88 1618.49 971.023 1624.78 1010.37 1665.54M793.475 1611.17C809.56 1605.86 850.747 1600.4 886.816 1621.02M831.54 1595.95C858.674 1589.7 939.172 1592.21 1009.67 1647.74M743.814 1629.55C757.01 1625.49 784.386 1617.93 788.32 1620.18M746.042 1612.33C754.202 1607.57 772.817 1599.36 781.998 1604.61M792.894 1576.03C821.004 1569.98 884.81 1564.4 915.163 1590.45M763.968 1563.85C789.423 1557.37 846.398 1547.88 870.663 1561.75" stroke="#DEA71B" stroke-width="3.77693"/>
<path d="M3314.17 1680.46C3357.89 1684.74 3343.58 1671.96 3326 1662.21C3324.19 1661.21 3325.01 1657.51 3326.89 1656.64C3330.45 1654.97 3331.03 1651.95 3330.46 1649.2C3330.15 1647.7 3331.28 1646 3332.81 1646.12C3364.93 1648.69 3365.56 1638.89 3360.94 1632.24C3360.29 1631.31 3360.45 1629.98 3361.35 1629.29C3380.63 1614.55 3366.32 1596.57 3354.94 1587.97C3353.94 1587.22 3353.89 1585.72 3354.56 1584.66C3357.7 1579.76 3354.87 1572.32 3352.01 1567.49C3351.32 1566.32 3351.95 1564.76 3353.24 1564.36C3364.71 1560.79 3357.8 1554.78 3348.84 1550.22C3346.98 1549.27 3347.6 1545.87 3349.68 1545.65C3367.25 1543.73 3366.51 1537.72 3360.89 1532.31C3355.74 1527.35 3348.51 1525.4 3341.44 1524.29C3333.78 1523.09 3326.31 1522.12 3319.03 1521.37C3291.87 1518.56 3264.71 1523.91 3238.93 1532.89L3236.52 1533.73C3221.95 1538.8 3206.89 1542.36 3191.58 1544.35C3164.63 1547.85 3137.81 1555.31 3116.43 1572.09C3084.72 1596.97 3066.97 1624.04 3058.84 1637.16C3048.57 1653.77 3049.25 1658.28 3052.93 1658.09C3054.92 1657.99 3057.31 1660.19 3056.41 1661.98C3047.04 1680.57 3049.91 1686.27 3054.36 1686.98C3055.84 1687.22 3057.21 1688.62 3056.78 1690.05C3052.07 1705.85 3051.38 1713.56 3052.77 1716.44C3053.57 1718.09 3067.3 1721.35 3069.07 1720.87C3070.5 1720.49 3071.42 1722.37 3070.76 1723.7C3063.88 1737.61 3068.81 1740.46 3072.73 1740.03C3072.93 1740.01 3073.12 1739.94 3073.3 1739.85C3090.9 1730.87 3107.48 1723.07 3123.2 1716.33L3198.45 1674.82L3213.78 1676.79C3235.56 1679.59 3257.59 1679.13 3279.55 1678.91C3291.41 1678.79 3302.9 1679.36 3314.17 1680.46Z" fill="#E2CE1A" stroke="#DEA71B" stroke-width="3.77693"/>
<path d="M3303.76 1548.93C3203.97 1525.05 3120.87 1603.8 3091.79 1646.16L3112.29 1642.06L3097.3 1676.73L3120.25 1663.61L3107.96 1685.87C3150.12 1646.98 3250.92 1642.94 3296.05 1645.78L3269.46 1631.62L3295.1 1613.69L3273.79 1595.43L3301.07 1584.18L3284.67 1563.1L3303.76 1548.93Z" fill="#F1DD1E"/>
<path d="M3285.01 1658.82C3276.96 1656.16 3259.24 1651.79 3252.68 1655.54M3224.11 1658.83C3191 1654.18 3119.61 1652.21 3098.91 1681.45M3165.78 1674.76C3152.28 1675.23 3122.59 1679.88 3111.91 1694.68M3324.82 1644.76C3299.92 1640.51 3246.99 1633.78 3234.53 1640.91M3297.53 1633.17C3269.27 1624.31 3199.41 1613.34 3146.1 1640.33M3180.3 1616.44C3162.14 1614.49 3116 1620.78 3076.65 1661.54M3293.55 1607.17C3277.46 1601.86 3236.28 1596.4 3200.21 1617.02M3255.48 1591.95C3228.35 1585.7 3147.85 1588.21 3077.35 1643.74M3343.21 1625.55C3330.01 1621.49 3302.64 1613.93 3298.7 1616.18M3340.98 1608.33C3332.82 1603.57 3314.21 1595.36 3305.03 1600.61M3294.13 1572.03C3266.02 1565.98 3202.21 1560.4 3171.86 1586.45M3323.06 1559.85C3297.6 1553.37 3240.63 1543.88 3216.36 1557.75" stroke="#DEA71B" stroke-width="3.77693"/>
<path d="M396.584 1757.79C363.937 1787.18 367.866 1768.41 376.229 1750.12C377.088 1748.25 374.233 1745.76 372.207 1746.17C368.352 1746.94 366.088 1744.86 364.915 1742.31C364.272 1740.91 362.356 1740.22 361.197 1741.22C336.867 1762.35 330.553 1754.84 330.325 1746.75C330.293 1745.61 329.377 1744.64 328.237 1744.62C303.974 1744.2 304.816 1721.24 308.875 1707.56C309.231 1706.36 308.379 1705.12 307.211 1704.67C301.779 1702.59 299.643 1694.92 299.069 1689.34C298.931 1687.99 297.502 1687.1 296.222 1687.55C284.881 1691.48 286.871 1682.54 291.37 1673.55C292.305 1671.69 289.791 1669.32 287.987 1670.37C272.704 1679.26 269.733 1673.98 271.044 1666.3C272.248 1659.25 276.911 1653.38 281.939 1648.3C287.388 1642.79 292.824 1637.57 298.24 1632.64C318.43 1614.26 343.462 1602.45 369.542 1594.37L371.974 1593.62C386.717 1589.05 400.951 1582.97 414.449 1575.49C438.218 1562.31 464.228 1552.39 491.393 1553.2C531.681 1554.41 562.035 1565.65 576.365 1571.4C594.494 1578.66 596.619 1582.69 593.549 1584.73C591.883 1585.83 591.274 1589.02 593.056 1589.92C611.632 1599.32 612.705 1605.62 609.546 1608.82C608.496 1609.89 608.224 1611.83 609.42 1612.73C622.584 1622.66 627.722 1628.45 628.311 1631.59C628.648 1633.39 619.533 1644.17 617.827 1644.83C616.446 1645.37 616.822 1647.43 618.139 1648.11C631.938 1655.22 629.654 1660.44 626.249 1662.42C626.074 1662.53 625.88 1662.59 625.681 1662.62C606.189 1665.83 588.21 1669.4 571.563 1673.31L486.369 1684.57L475.195 1695.26C459.329 1710.43 441.326 1723.14 423.526 1735.99C413.903 1742.94 405 1750.21 396.584 1757.79Z" fill="#E2CE1A" stroke="#DEA71B" stroke-width="3.77693"/>
<path d="M326.885 1645.76C393.02 1567.31 506.646 1581.36 555.192 1598.2L536.263 1607.06L568.902 1626.07L542.641 1629.13L565.745 1639.74C508.734 1633.47 425.217 1690.05 390.585 1719.13L403.573 1691.94L372.295 1692.74L378.609 1665.39L349.973 1672.53L350.66 1645.83L326.885 1645.76Z" fill="#F1DD1E"/>
<path d="M407.205 1723.07C412.102 1716.16 423.773 1702.12 431.276 1701.24M456.223 1686.92C480.111 1663.54 536.392 1619.58 570.406 1630.82M512.619 1665.13C523.769 1657.49 550.415 1643.61 567.797 1649.19M366.815 1735.39C384.336 1717.18 422.944 1680.35 437.199 1678.69M381.898 1709.86C399.388 1685.95 449.099 1635.66 508.022 1625.74M466.318 1626.81C479.771 1614.46 520.641 1592.14 576.501 1601.59M369.673 1686.57C379.468 1672.75 409.374 1643.91 450.64 1639.09M391.274 1651.73C409.405 1630.6 475.679 1584.84 565.371 1587.68M340.616 1730.84C348.828 1719.74 366.375 1697.41 370.877 1696.88M332.191 1715.66C335.931 1706.98 346.039 1689.33 356.543 1688.1M348.351 1658.64C367.383 1637.09 415.421 1594.72 455.312 1597.67M317.839 1666C334.48 1645.68 374.702 1604.23 402.463 1600.99" stroke="#DEA71B" stroke-width="3.77693"/>
<path d="M3690.44 1753.79C3723.09 1783.18 3719.16 1764.41 3710.79 1746.12C3709.93 1744.25 3712.79 1741.76 3714.82 1742.17C3718.67 1742.94 3720.94 1740.86 3722.11 1738.31C3722.75 1736.91 3724.67 1736.22 3725.83 1737.22C3750.16 1758.35 3756.47 1750.84 3756.7 1742.75C3756.73 1741.61 3757.65 1740.64 3758.79 1740.62C3783.05 1740.2 3782.21 1717.24 3778.15 1703.56C3777.79 1702.36 3778.64 1701.12 3779.81 1700.67C3785.24 1698.59 3787.38 1690.92 3787.95 1685.34C3788.09 1683.99 3789.52 1683.1 3790.8 1683.55C3802.14 1687.48 3800.15 1678.54 3795.65 1669.55C3794.72 1667.69 3797.23 1665.32 3799.04 1666.37C3814.32 1675.26 3817.29 1669.98 3815.98 1662.3C3814.78 1655.25 3810.11 1649.38 3805.08 1644.3C3799.64 1638.79 3794.2 1633.57 3788.78 1628.64C3768.59 1610.26 3743.56 1598.45 3717.48 1590.37L3715.05 1589.62C3700.31 1585.05 3686.07 1578.97 3672.57 1571.49C3648.81 1558.31 3622.8 1548.39 3595.63 1549.2C3555.34 1550.41 3524.99 1561.65 3510.66 1567.4C3492.53 1574.66 3490.4 1578.69 3493.47 1580.73C3495.14 1581.83 3495.75 1585.02 3493.97 1585.92C3475.39 1595.32 3474.32 1601.62 3477.48 1604.82C3478.53 1605.89 3478.8 1607.83 3477.6 1608.73C3464.44 1618.66 3459.3 1624.45 3458.71 1627.59C3458.37 1629.39 3467.49 1640.17 3469.2 1640.83C3470.58 1641.37 3470.2 1643.43 3468.88 1644.11C3455.09 1651.22 3457.37 1656.44 3460.77 1658.42C3460.95 1658.53 3461.14 1658.59 3461.34 1658.62C3480.83 1661.83 3498.81 1665.4 3515.46 1669.31L3600.65 1680.57L3611.83 1691.26C3627.69 1706.43 3645.7 1719.14 3663.5 1731.99C3673.12 1738.94 3682.02 1746.21 3690.44 1753.79Z" fill="#E2CE1A" stroke="#DEA71B" stroke-width="3.77693"/>
<path d="M3760.14 1641.76C3694 1563.31 3580.38 1577.36 3531.83 1594.2L3550.76 1603.06L3518.12 1622.07L3544.38 1625.13L3521.28 1635.74C3578.29 1629.47 3661.81 1686.05 3696.44 1715.13L3683.45 1687.94L3714.73 1688.74L3708.41 1661.39L3737.05 1668.53L3736.36 1641.83L3760.14 1641.76Z" fill="#F1DD1E"/>
<path d="M3679.82 1719.07C3674.92 1712.16 3663.25 1698.12 3655.75 1697.24M3630.8 1682.92C3606.91 1659.54 3550.63 1615.58 3516.62 1626.82M3574.4 1661.13C3563.25 1653.49 3536.61 1639.61 3519.23 1645.19M3720.21 1731.39C3702.69 1713.18 3664.08 1676.35 3649.82 1674.69M3705.13 1705.86C3687.64 1681.95 3637.92 1631.66 3579 1621.74M3620.71 1622.81C3607.25 1610.46 3566.38 1588.14 3510.52 1597.59M3717.35 1682.57C3707.56 1668.75 3677.65 1639.91 3636.38 1635.09M3695.75 1647.73C3677.62 1626.6 3611.34 1580.84 3521.65 1583.68M3746.41 1726.84C3738.2 1715.74 3720.65 1693.41 3716.15 1692.88M3754.83 1711.66C3751.09 1702.98 3740.98 1685.33 3730.48 1684.1M3738.67 1654.64C3719.64 1633.09 3671.6 1590.72 3631.71 1593.67M3769.18 1662C3752.54 1641.68 3712.32 1600.23 3684.56 1596.99" stroke="#DEA71B" stroke-width="3.77693"/>
<path d="M639.127 1646.61C599.207 1664.95 608.549 1648.2 621.98 1633.23C623.36 1631.69 621.373 1628.47 619.318 1628.26C615.408 1627.85 613.868 1625.18 613.507 1622.4C613.309 1620.88 611.688 1619.64 610.281 1620.26C580.761 1633.18 576.972 1624.13 579.164 1616.34C579.473 1615.24 578.887 1614.04 577.805 1613.68C554.769 1606.06 562.413 1584.38 570.36 1572.54C571.057 1571.5 570.614 1570.06 569.632 1569.28C565.069 1565.68 565.312 1557.72 566.429 1552.22C566.698 1550.89 565.597 1549.62 564.243 1549.66C552.245 1550.04 556.808 1542.1 563.78 1534.86C565.227 1533.36 563.532 1530.35 561.498 1530.82C544.26 1534.75 542.997 1528.82 546.538 1521.88C549.787 1515.51 555.984 1511.3 562.299 1507.94C569.143 1504.3 575.885 1500.94 582.524 1497.85C607.273 1486.32 634.686 1482.5 661.989 1482.55L664.535 1482.56C679.97 1482.59 695.366 1481.03 710.482 1477.91C737.097 1472.41 764.881 1470.68 790.571 1479.55C828.671 1492.7 854.298 1512.48 866.267 1522.23C881.409 1534.56 882.237 1539.05 878.701 1540.07C876.782 1540.63 875.25 1543.49 876.683 1544.88C891.617 1559.39 890.766 1565.72 886.794 1567.84C885.473 1568.55 884.636 1570.32 885.509 1571.54C895.12 1584.93 898.299 1591.99 897.925 1595.17C897.711 1596.98 885.8 1604.56 883.974 1604.68C882.495 1604.78 882.24 1606.86 883.296 1607.9C894.349 1618.8 890.614 1623.11 886.774 1623.98C886.577 1624.03 886.373 1624.03 886.173 1624C866.609 1621.26 848.383 1619.31 831.327 1618.09L746.647 1603.46L732.797 1610.33C713.13 1620.09 692.16 1626.86 671.339 1633.83C660.084 1637.6 649.418 1641.89 639.127 1646.61Z" fill="#E2CE1A" stroke="#DEA71B" stroke-width="3.77693"/>
<path d="M605.961 1518.91C692.46 1463.72 796.743 1510.98 838.071 1541.51L817.361 1544.33L842.857 1572.2L816.876 1567.3L835.77 1584.31C783.216 1561.34 686.636 1590.48 644.916 1607.92L665.411 1585.84L635.315 1577.28L649.49 1553.05L620.026 1551.34L628.634 1526.06L605.961 1518.91Z" fill="#F1DD1E"/>
<path d="M659.61 1616.63C666.343 1611.49 681.665 1601.57 689.088 1602.97M717.168 1596.73C746.938 1581.52 813.758 1556.32 842.88 1577.18M777.495 1592.72C790.414 1588.75 819.986 1583.43 834.918 1593.93M617.383 1616.36C639.532 1604.2 687.357 1580.54 701.461 1583.2M639.385 1596.48C663.202 1578.87 725.637 1545.67 784.839 1553.75M744.711 1542.34C761.23 1534.57 806.895 1525.43 857.405 1551.09M634.652 1570.61C648.118 1560.33 685.258 1541.71 726.086 1549.4M665.651 1543.78C689.253 1529.01 766.149 1505.07 850.923 1534.49M593.729 1604.21C604.873 1596.06 628.275 1579.97 632.729 1580.81M590.206 1587.21C596.361 1580.05 611.269 1566.2 621.662 1568.16M622.618 1537.59C647.206 1522.69 705.682 1496.55 742.884 1511.25M591.298 1535.53C613.236 1521.09 663.98 1493.5 691.446 1498.68" stroke="#DEA71B" stroke-width="3.77693"/>
<path d="M3447.9 1642.61C3487.82 1660.95 3478.47 1644.2 3465.04 1629.23C3463.66 1627.69 3465.65 1624.47 3467.71 1624.26C3471.62 1623.85 3473.16 1621.18 3473.52 1618.4C3473.71 1616.88 3475.34 1615.64 3476.74 1616.26C3506.26 1629.18 3510.05 1620.13 3507.86 1612.34C3507.55 1611.24 3508.14 1610.04 3509.22 1609.68C3532.25 1602.06 3524.61 1580.38 3516.66 1568.54C3515.97 1567.5 3516.41 1566.06 3517.39 1565.28C3521.95 1561.68 3521.71 1553.72 3520.59 1548.22C3520.33 1546.89 3521.43 1545.62 3522.78 1545.66C3534.78 1546.04 3530.22 1538.1 3523.24 1530.86C3521.8 1529.36 3523.49 1526.35 3525.53 1526.82C3542.76 1530.75 3544.03 1524.82 3540.49 1517.88C3537.24 1511.51 3531.04 1507.3 3524.72 1503.94C3517.88 1500.3 3511.14 1496.94 3504.5 1493.85C3479.75 1482.32 3452.34 1478.5 3425.03 1478.55L3422.49 1478.56C3407.05 1478.59 3391.66 1477.03 3376.54 1473.91C3349.93 1468.41 3322.14 1466.68 3296.45 1475.55C3258.35 1488.7 3232.73 1508.48 3220.76 1518.23C3205.61 1530.56 3204.79 1535.05 3208.32 1536.07C3210.24 1536.63 3211.77 1539.49 3210.34 1540.88C3195.41 1555.39 3196.26 1561.72 3200.23 1563.84C3201.55 1564.55 3202.39 1566.32 3201.51 1567.54C3191.9 1580.93 3188.72 1587.99 3189.1 1591.17C3189.31 1592.98 3201.22 1600.56 3203.05 1600.68C3204.53 1600.78 3204.78 1602.86 3203.73 1603.9C3192.67 1614.8 3196.41 1619.11 3200.25 1619.98C3200.45 1620.03 3200.65 1620.03 3200.85 1620C3220.41 1617.26 3238.64 1615.31 3255.7 1614.09L3340.38 1599.46L3354.23 1606.33C3373.89 1616.09 3394.86 1622.86 3415.68 1629.83C3426.94 1633.6 3437.6 1637.89 3447.9 1642.61Z" fill="#E2CE1A" stroke="#DEA71B" stroke-width="3.77693"/>
<path d="M3481.06 1514.91C3394.56 1459.72 3290.28 1506.98 3248.95 1537.51L3269.66 1540.33L3244.17 1568.2L3270.15 1563.3L3251.25 1580.31C3303.81 1557.34 3400.39 1586.48 3442.11 1603.92L3421.61 1581.84L3451.71 1573.28L3437.53 1549.05L3467 1547.34L3458.39 1522.06L3481.06 1514.91Z" fill="#F1DD1E"/>
<path d="M3427.41 1612.63C3420.68 1607.49 3405.36 1597.57 3397.94 1598.97M3369.86 1592.73C3340.09 1577.52 3273.27 1552.32 3244.14 1573.18M3309.53 1588.72C3296.61 1584.75 3267.04 1579.43 3252.11 1589.93M3469.64 1612.36C3447.49 1600.2 3399.67 1576.54 3385.56 1579.2M3447.64 1592.48C3423.82 1574.87 3361.39 1541.67 3302.18 1549.75M3342.31 1538.34C3325.79 1530.57 3280.13 1521.43 3229.62 1547.09M3452.37 1566.61C3438.9 1556.33 3401.77 1537.71 3360.94 1545.4M3421.37 1539.78C3397.77 1525.01 3320.87 1501.07 3236.1 1530.49M3493.29 1600.21C3482.15 1592.06 3458.75 1575.97 3454.29 1576.81M3496.82 1583.21C3490.66 1576.05 3475.75 1562.2 3465.36 1564.16M3464.41 1533.59C3439.82 1518.69 3381.34 1492.55 3344.14 1507.25M3495.73 1531.53C3473.79 1517.09 3423.04 1489.5 3395.58 1494.68" stroke="#DEA71B" stroke-width="3.77693"/>
<path d="M672.127 1792.61C632.207 1810.95 641.549 1794.2 654.98 1779.23C656.36 1777.69 654.373 1774.47 652.318 1774.26C648.408 1773.85 646.868 1771.18 646.507 1768.4C646.309 1766.88 644.688 1765.64 643.281 1766.26C613.761 1779.18 609.972 1770.13 612.164 1762.34C612.473 1761.24 611.887 1760.04 610.805 1759.68C587.769 1752.06 595.413 1730.38 603.36 1718.54C604.057 1717.5 603.614 1716.06 602.632 1715.28C598.069 1711.68 598.312 1703.72 599.429 1698.22C599.698 1696.89 598.597 1695.62 597.243 1695.66C585.245 1696.04 589.808 1688.1 596.78 1680.86C598.227 1679.36 596.532 1676.35 594.498 1676.82C577.26 1680.75 575.997 1674.82 579.538 1667.88C582.787 1661.51 588.984 1657.3 595.299 1653.94C602.143 1650.3 608.885 1646.94 615.524 1643.85C640.273 1632.32 667.686 1628.5 694.989 1628.55L697.535 1628.56C712.97 1628.59 728.366 1627.03 743.482 1623.91C770.097 1618.41 797.881 1616.68 823.571 1625.55C861.671 1638.7 887.298 1658.48 899.267 1668.23C914.409 1680.56 915.237 1685.05 911.701 1686.07C909.782 1686.63 908.25 1689.49 909.683 1690.88C924.617 1705.39 923.766 1711.72 919.794 1713.84C918.473 1714.55 917.636 1716.32 918.509 1717.54C928.12 1730.93 931.299 1737.99 930.925 1741.17C930.711 1742.98 918.8 1750.56 916.974 1750.68C915.495 1750.78 915.24 1752.86 916.296 1753.9C927.349 1764.8 923.614 1769.11 919.774 1769.98C919.577 1770.03 919.373 1770.03 919.173 1770C899.609 1767.26 881.383 1765.31 864.327 1764.09L779.647 1749.46L765.797 1756.33C746.13 1766.09 725.16 1772.86 704.339 1779.83C693.084 1783.6 682.418 1787.89 672.127 1792.61Z" fill="#E2CE1A" stroke="#DEA71B" stroke-width="3.77693"/>
<path d="M638.961 1664.91C725.46 1609.72 829.743 1656.98 871.071 1687.51L850.361 1690.33L875.857 1718.2L849.876 1713.3L868.77 1730.31C816.216 1707.34 719.636 1736.48 677.916 1753.92L698.411 1731.84L668.315 1723.28L682.49 1699.05L653.026 1697.34L661.634 1672.06L638.961 1664.91Z" fill="#F1DD1E"/>
<path d="M692.61 1762.63C699.343 1757.49 714.665 1747.57 722.088 1748.97M750.168 1742.73C779.938 1727.52 846.758 1702.32 875.88 1723.18M810.495 1738.72C823.414 1734.75 852.986 1729.43 867.918 1739.93M650.383 1762.36C672.532 1750.2 720.357 1726.54 734.461 1729.2M672.385 1742.48C696.202 1724.87 758.637 1691.67 817.839 1699.75M777.711 1688.34C794.23 1680.57 839.895 1671.43 890.405 1697.09M667.652 1716.61C681.118 1706.33 718.258 1687.71 759.086 1695.4M698.651 1689.78C722.253 1675.01 799.149 1651.07 883.923 1680.49M626.729 1750.21C637.873 1742.06 661.275 1725.97 665.729 1726.81M623.206 1733.21C629.361 1726.05 644.269 1712.2 654.662 1714.16M655.618 1683.59C680.206 1668.69 738.682 1642.55 775.884 1657.25M624.298 1681.53C646.236 1667.09 696.98 1639.5 724.446 1644.68" stroke="#DEA71B" stroke-width="3.77693"/>
<path d="M3424.63 1773.61C3464.55 1791.95 3455.21 1775.2 3441.78 1760.23C3440.4 1758.69 3442.38 1755.47 3444.44 1755.26C3448.35 1754.85 3449.89 1752.18 3450.25 1749.4C3450.45 1747.88 3452.07 1746.64 3453.48 1747.26C3483 1760.18 3486.79 1751.13 3484.59 1743.34C3484.28 1742.24 3484.87 1741.04 3485.95 1740.68C3508.99 1733.06 3501.34 1711.38 3493.4 1699.54C3492.7 1698.5 3493.14 1697.06 3494.12 1696.28C3498.69 1692.68 3498.44 1684.72 3497.33 1679.22C3497.06 1677.89 3498.16 1676.62 3499.51 1676.66C3511.51 1677.04 3506.95 1669.1 3499.98 1661.86C3498.53 1660.36 3500.22 1657.35 3502.26 1657.82C3519.5 1661.75 3520.76 1655.82 3517.22 1648.88C3513.97 1642.51 3507.77 1638.3 3501.46 1634.94C3494.61 1631.3 3487.87 1627.94 3481.23 1624.85C3456.48 1613.32 3429.07 1609.5 3401.77 1609.55L3399.22 1609.56C3383.79 1609.59 3368.39 1608.03 3353.28 1604.91C3326.66 1599.41 3298.88 1597.68 3273.19 1606.55C3235.09 1619.7 3209.46 1639.48 3197.49 1649.23C3182.35 1661.56 3181.52 1666.05 3185.06 1667.07C3186.97 1667.63 3188.51 1670.49 3187.07 1671.88C3172.14 1686.39 3172.99 1692.72 3176.96 1694.84C3178.28 1695.55 3179.12 1697.32 3178.25 1698.54C3168.64 1711.93 3165.46 1718.99 3165.83 1722.17C3166.05 1723.98 3177.96 1731.56 3179.78 1731.68C3181.26 1731.78 3181.52 1733.86 3180.46 1734.9C3169.41 1745.8 3173.14 1750.11 3176.98 1750.98C3177.18 1751.03 3177.38 1751.03 3177.58 1751C3197.15 1748.26 3215.37 1746.31 3232.43 1745.09L3317.11 1730.46L3330.96 1737.33C3350.63 1747.09 3371.6 1753.86 3392.42 1760.83C3403.67 1764.6 3414.34 1768.89 3424.63 1773.61Z" fill="#E2CE1A" stroke="#DEA71B" stroke-width="3.77693"/>
<path d="M3457.8 1645.91C3371.3 1590.72 3267.01 1637.98 3225.68 1668.51L3246.39 1671.33L3220.9 1699.2L3246.88 1694.3L3227.99 1711.31C3280.54 1688.34 3377.12 1717.48 3418.84 1734.92L3398.34 1712.84L3428.44 1704.28L3414.27 1680.05L3443.73 1678.34L3435.12 1653.06L3457.8 1645.91Z" fill="#F1DD1E"/>
<path d="M3404.15 1743.63C3397.41 1738.49 3382.09 1728.57 3374.67 1729.97M3346.59 1723.73C3316.82 1708.52 3250 1683.32 3220.88 1704.18M3286.26 1719.72C3273.34 1715.75 3243.77 1710.43 3228.84 1720.93M3446.37 1743.36C3424.22 1731.2 3376.4 1707.54 3362.3 1710.2M3424.37 1723.48C3400.56 1705.87 3338.12 1672.67 3278.92 1680.75M3319.05 1669.34C3302.53 1661.57 3256.86 1652.43 3206.35 1678.09M3429.1 1697.61C3415.64 1687.33 3378.5 1668.71 3337.67 1676.4M3398.11 1670.78C3374.5 1656.01 3297.61 1632.07 3212.83 1661.49M3470.03 1731.21C3458.88 1723.06 3435.48 1706.97 3431.03 1707.81M3473.55 1714.21C3467.4 1707.05 3452.49 1693.2 3442.1 1695.16M3441.14 1664.59C3416.55 1649.69 3358.07 1623.55 3320.87 1638.25M3472.46 1662.53C3450.52 1648.09 3399.78 1620.5 3372.31 1625.68" stroke="#DEA71B" stroke-width="3.77693"/>
<path d="M482.606 1884.56C451.324 1915.4 454.398 1896.47 461.924 1877.82C462.698 1875.91 459.732 1873.56 457.727 1874.05C453.911 1875 451.555 1873.02 450.267 1870.53C449.562 1869.16 447.617 1868.55 446.504 1869.61C423.157 1891.82 416.509 1884.6 415.914 1876.53C415.831 1875.4 414.872 1874.47 413.732 1874.5C389.475 1875.18 389.276 1852.2 392.71 1838.36C393.012 1837.14 392.104 1835.94 390.917 1835.54C385.397 1833.71 382.915 1826.15 382.089 1820.59C381.89 1819.25 380.422 1818.43 379.164 1818.94C368.013 1823.38 369.595 1814.36 373.683 1805.18C374.532 1803.27 371.914 1801.02 370.159 1802.15C355.294 1811.72 352.087 1806.58 353.049 1798.85C353.932 1791.75 358.324 1785.68 363.116 1780.37C368.31 1774.62 373.504 1769.16 378.691 1763.99C398.028 1744.72 422.499 1731.78 448.185 1722.53L450.581 1721.67C465.102 1716.44 479.045 1709.72 492.191 1701.64C515.338 1687.39 540.872 1676.3 568.046 1675.89C608.348 1675.27 639.18 1685.12 653.755 1690.21C672.195 1696.64 674.5 1700.58 671.525 1702.75C669.911 1703.92 669.447 1707.14 671.268 1707.96C690.251 1716.5 691.609 1722.74 688.598 1726.09C687.597 1727.21 687.414 1729.16 688.649 1730.01C702.25 1739.32 707.645 1744.88 708.376 1747.99C708.794 1749.77 700.177 1760.95 698.503 1761.69C697.147 1762.29 697.616 1764.33 698.963 1764.95C713.069 1771.43 711.024 1776.75 707.713 1778.88C707.543 1778.99 707.352 1779.06 707.154 1779.1C687.828 1783.2 670.029 1787.58 653.577 1792.24L568.98 1807.34L558.302 1818.53C543.14 1834.41 525.732 1847.91 508.532 1861.56C499.234 1868.94 490.67 1876.61 482.606 1884.56Z" fill="#E2CE1A" stroke="#DEA71B" stroke-width="3.77693"/>
<path d="M407.902 1775.8C470.414 1694.44 584.56 1703.33 633.819 1717.94L615.311 1727.65L648.778 1745.16L622.683 1749.41L646.244 1758.97C589.008 1755.28 508.141 1815.59 474.862 1846.21L486.605 1818.46L455.395 1820.68L460.463 1793.07L432.18 1801.5L431.656 1774.8L407.902 1775.8Z" fill="#F1DD1E"/>
<path d="M491.642 1849.39C496.222 1842.26 507.244 1827.71 514.7 1826.5M538.972 1811.06C561.776 1786.62 616.007 1740.15 650.495 1749.84M594.323 1786.74C605.115 1778.6 631.104 1763.52 648.721 1768.31M451.852 1863.52C468.53 1844.54 505.429 1806 519.595 1803.7M465.762 1837.34C482.151 1812.67 529.532 1760.17 587.945 1747.59M546.332 1750.55C559.212 1737.61 599.028 1713.45 655.259 1720.36M452.495 1814.63C461.653 1800.38 490.222 1770.21 531.228 1763.53M472.494 1778.84C489.649 1756.91 553.782 1708.2 643.51 1706.97M425.474 1860.17C433.174 1848.71 449.692 1825.61 454.165 1824.88M416.369 1845.39C419.713 1836.55 429.01 1818.46 439.448 1816.75M429.929 1787.69C447.965 1765.3 494.034 1720.8 534.017 1721.94M399.782 1796.43C415.485 1775.38 453.788 1732.14 481.373 1727.65" stroke="#DEA71B" stroke-width="3.77693"/>
<path d="M3603.64 1865.56C3634.92 1896.4 3631.85 1877.47 3624.32 1858.82C3623.55 1856.91 3626.51 1854.56 3628.52 1855.05C3632.33 1856 3634.69 1854.02 3635.98 1851.53C3636.68 1850.16 3638.63 1849.55 3639.74 1850.61C3663.09 1872.82 3669.74 1865.6 3670.33 1857.53C3670.41 1856.4 3671.37 1855.47 3672.51 1855.5C3696.77 1856.18 3696.97 1833.2 3693.53 1819.36C3693.23 1818.14 3694.14 1816.94 3695.33 1816.54C3700.85 1814.71 3703.33 1807.15 3704.16 1801.59C3704.35 1800.25 3705.82 1799.43 3707.08 1799.94C3718.23 1804.38 3716.65 1795.36 3712.56 1786.18C3711.71 1784.27 3714.33 1782.02 3716.08 1783.15C3730.95 1792.72 3734.16 1787.58 3733.2 1779.85C3732.31 1772.75 3727.92 1766.68 3723.13 1761.37C3717.93 1755.62 3712.74 1750.16 3707.55 1744.99C3688.22 1725.72 3663.75 1712.78 3638.06 1703.53L3635.66 1702.67C3621.14 1697.44 3607.2 1690.72 3594.05 1682.64C3570.91 1668.39 3545.37 1657.3 3518.2 1656.89C3477.9 1656.27 3447.06 1666.12 3432.49 1671.21C3414.05 1677.64 3411.74 1681.58 3414.72 1683.75C3416.33 1684.92 3416.8 1688.14 3414.98 1688.96C3395.99 1697.5 3394.64 1703.74 3397.65 1707.09C3398.65 1708.21 3398.83 1710.16 3397.59 1711.01C3383.99 1720.32 3378.6 1725.88 3377.87 1728.99C3377.45 1730.77 3386.07 1741.95 3387.74 1742.69C3389.1 1743.29 3388.63 1745.33 3387.28 1745.95C3373.17 1752.43 3375.22 1757.75 3378.53 1759.88C3378.7 1759.99 3378.89 1760.06 3379.09 1760.1C3398.42 1764.2 3416.21 1768.58 3432.67 1773.24L3517.26 1788.34L3527.94 1799.53C3543.1 1815.41 3560.51 1828.91 3577.71 1842.56C3587.01 1849.94 3595.57 1857.61 3603.64 1865.56Z" fill="#E2CE1A" stroke="#DEA71B" stroke-width="3.77693"/>
<path d="M3678.34 1756.8C3615.83 1675.44 3501.69 1684.33 3452.43 1698.94L3470.93 1708.65L3437.47 1726.16L3463.56 1730.41L3440 1739.97C3497.24 1736.28 3578.1 1796.59 3611.38 1827.21L3599.64 1799.46L3630.85 1801.68L3625.78 1774.07L3654.07 1782.5L3654.59 1755.8L3678.34 1756.8Z" fill="#F1DD1E"/>
<path d="M3594.6 1830.39C3590.02 1823.26 3579 1808.71 3571.54 1807.5M3547.27 1792.06C3524.47 1767.62 3470.24 1721.15 3435.75 1730.84M3491.92 1767.74C3481.13 1759.6 3455.14 1744.52 3437.52 1749.31M3634.39 1844.52C3617.71 1825.54 3580.81 1787 3566.65 1784.7M3620.48 1818.34C3604.09 1793.67 3556.71 1741.17 3498.3 1728.59M3539.91 1731.55C3527.03 1718.61 3487.22 1694.45 3430.98 1701.36M3633.75 1795.63C3624.59 1781.38 3596.02 1751.21 3555.02 1744.53M3613.75 1759.84C3596.59 1737.91 3532.46 1689.2 3442.73 1687.97M3660.77 1841.17C3653.07 1829.71 3636.55 1806.61 3632.08 1805.88M3669.87 1826.39C3666.53 1817.55 3657.23 1799.46 3646.8 1797.75M3656.32 1768.69C3638.28 1746.3 3592.21 1701.8 3552.23 1702.94M3686.46 1777.43C3670.76 1756.38 3632.46 1713.14 3604.87 1708.65" stroke="#DEA71B" stroke-width="3.77693"/>
<path d="M479.127 1606.61C439.207 1624.95 448.549 1608.2 461.98 1593.23C463.36 1591.69 461.373 1588.47 459.318 1588.26C455.408 1587.85 453.868 1585.18 453.507 1582.4C453.309 1580.88 451.688 1579.64 450.281 1580.26C420.761 1593.18 416.972 1584.13 419.164 1576.34C419.473 1575.24 418.887 1574.04 417.805 1573.68C394.769 1566.06 402.413 1544.38 410.36 1532.54C411.057 1531.5 410.614 1530.06 409.632 1529.28C405.069 1525.68 405.312 1517.72 406.429 1512.22C406.698 1510.89 405.597 1509.62 404.243 1509.66C392.245 1510.04 396.808 1502.1 403.78 1494.86C405.227 1493.36 403.532 1490.35 401.498 1490.82C384.26 1494.75 382.997 1488.82 386.538 1481.88C389.787 1475.51 395.984 1471.3 402.299 1467.94C409.143 1464.3 415.885 1460.94 422.524 1457.85C447.273 1446.32 474.686 1442.5 501.989 1442.55L504.535 1442.56C519.97 1442.59 535.366 1441.03 550.482 1437.91C577.097 1432.41 604.881 1430.68 630.571 1439.55C668.671 1452.7 694.298 1472.48 706.267 1482.23C721.409 1494.56 722.237 1499.05 718.701 1500.07C716.782 1500.63 715.25 1503.49 716.683 1504.88C731.617 1519.39 730.766 1525.72 726.794 1527.84C725.473 1528.55 724.636 1530.32 725.509 1531.54C735.12 1544.93 738.299 1551.99 737.925 1555.17C737.711 1556.98 725.8 1564.56 723.974 1564.68C722.495 1564.78 722.24 1566.86 723.296 1567.9C734.349 1578.8 730.614 1583.11 726.774 1583.98C726.577 1584.03 726.373 1584.03 726.173 1584C706.609 1581.26 688.383 1579.31 671.327 1578.09L586.647 1563.46L572.797 1570.33C553.13 1580.09 532.16 1586.86 511.339 1593.83C500.084 1597.6 489.418 1601.89 479.127 1606.61Z" fill="#E2CE1A" stroke="#DEA71B" stroke-width="3.77693"/>
<path d="M445.961 1478.91C532.46 1423.72 636.743 1470.98 678.071 1501.51L657.361 1504.33L682.857 1532.2L656.876 1527.3L675.77 1544.31C623.216 1521.34 526.636 1550.48 484.916 1567.92L505.411 1545.84L475.315 1537.28L489.49 1513.05L460.026 1511.34L468.634 1486.06L445.961 1478.91Z" fill="#F1DD1E"/>
<path d="M499.61 1576.63C506.343 1571.49 521.665 1561.57 529.088 1562.97M557.168 1556.73C586.938 1541.52 653.758 1516.32 682.88 1537.18M617.495 1552.72C630.414 1548.75 659.986 1543.43 674.918 1553.93M457.383 1576.36C479.532 1564.2 527.357 1540.54 541.461 1543.2M479.385 1556.48C503.202 1538.87 565.637 1505.67 624.839 1513.75M584.711 1502.34C601.23 1494.57 646.895 1485.43 697.405 1511.09M474.652 1530.61C488.118 1520.33 525.258 1501.71 566.086 1509.4M505.651 1503.78C529.253 1489.01 606.149 1465.07 690.923 1494.49M433.729 1564.21C444.873 1556.06 468.275 1539.97 472.729 1540.81M430.206 1547.21C436.361 1540.05 451.269 1526.2 461.662 1528.16M462.618 1497.59C487.206 1482.69 545.682 1456.55 582.884 1471.25M431.298 1495.53C453.236 1481.09 503.98 1453.5 531.446 1458.68" stroke="#DEA71B" stroke-width="3.77693"/>
<path d="M1689.13 1801.61C1649.21 1819.95 1658.55 1803.2 1671.98 1788.23C1673.36 1786.69 1671.37 1783.47 1669.32 1783.26C1665.41 1782.85 1663.87 1780.18 1663.51 1777.4C1663.31 1775.88 1661.69 1774.64 1660.28 1775.26C1630.76 1788.18 1626.97 1779.13 1629.16 1771.34C1629.47 1770.24 1628.89 1769.04 1627.8 1768.68C1604.77 1761.06 1612.41 1739.38 1620.36 1727.54C1621.06 1726.5 1620.61 1725.06 1619.63 1724.28C1615.07 1720.68 1615.31 1712.72 1616.43 1707.22C1616.7 1705.89 1615.6 1704.62 1614.24 1704.66C1602.24 1705.04 1606.81 1697.1 1613.78 1689.86C1615.23 1688.36 1613.53 1685.35 1611.5 1685.82C1594.26 1689.75 1593 1683.82 1596.54 1676.88C1599.79 1670.51 1605.98 1666.3 1612.3 1662.94C1619.14 1659.3 1625.89 1655.94 1632.52 1652.85C1657.27 1641.32 1684.69 1637.5 1711.99 1637.55L1714.54 1637.56C1729.97 1637.59 1745.37 1636.03 1760.48 1632.91C1787.1 1627.41 1814.88 1625.68 1840.57 1634.55C1878.67 1647.7 1904.3 1667.48 1916.27 1677.23C1931.41 1689.56 1932.24 1694.05 1928.7 1695.07C1926.78 1695.63 1925.25 1698.49 1926.68 1699.88C1941.62 1714.39 1940.77 1720.72 1936.79 1722.84C1935.47 1723.55 1934.64 1725.32 1935.51 1726.54C1945.12 1739.93 1948.3 1746.99 1947.93 1750.17C1947.71 1751.98 1935.8 1759.56 1933.97 1759.68C1932.49 1759.78 1932.24 1761.86 1933.3 1762.9C1944.35 1773.8 1940.61 1778.11 1936.77 1778.98C1936.58 1779.03 1936.37 1779.03 1936.17 1779C1916.61 1776.26 1898.38 1774.31 1881.33 1773.09L1796.65 1758.46L1782.8 1765.33C1763.13 1775.09 1742.16 1781.86 1721.34 1788.83C1710.08 1792.6 1699.42 1796.89 1689.13 1801.61Z" fill="#E2CE1A" stroke="#DEA71B" stroke-width="3.77693"/>
<path d="M1655.96 1673.91C1742.46 1618.72 1846.74 1665.98 1888.07 1696.51L1867.36 1699.33L1892.86 1727.2L1866.88 1722.3L1885.77 1739.31C1833.22 1716.34 1736.64 1745.48 1694.92 1762.92L1715.41 1740.84L1685.32 1732.28L1699.49 1708.05L1670.03 1706.34L1678.63 1681.06L1655.96 1673.91Z" fill="#F1DD1E"/>
<path d="M1709.61 1771.63C1716.34 1766.49 1731.66 1756.57 1739.09 1757.97M1767.17 1751.73C1796.94 1736.52 1863.76 1711.32 1892.88 1732.18M1827.5 1747.72C1840.41 1743.75 1869.99 1738.43 1884.92 1748.93M1667.38 1771.36C1689.53 1759.2 1737.36 1735.54 1751.46 1738.2M1689.38 1751.48C1713.2 1733.87 1775.64 1700.67 1834.84 1708.75M1794.71 1697.34C1811.23 1689.57 1856.9 1680.43 1907.4 1706.09M1684.65 1725.61C1698.12 1715.33 1735.26 1696.71 1776.09 1704.4M1715.65 1698.78C1739.25 1684.01 1816.15 1660.07 1900.92 1689.49M1643.73 1759.21C1654.87 1751.06 1678.27 1734.97 1682.73 1735.81M1640.21 1742.21C1646.36 1735.05 1661.27 1721.2 1671.66 1723.16M1672.62 1692.59C1697.21 1677.69 1755.68 1651.55 1792.88 1666.25M1641.3 1690.53C1663.24 1676.09 1713.98 1648.5 1741.45 1653.68" stroke="#DEA71B" stroke-width="3.77693"/>
<path d="M3628.63 1610.61C3668.55 1628.95 3659.21 1612.2 3645.78 1597.23C3644.4 1595.69 3646.38 1592.47 3648.44 1592.26C3652.35 1591.85 3653.89 1589.18 3654.25 1586.4C3654.45 1584.88 3656.07 1583.64 3657.48 1584.26C3687 1597.18 3690.79 1588.13 3688.59 1580.34C3688.28 1579.24 3688.87 1578.04 3689.95 1577.68C3712.99 1570.06 3705.34 1548.38 3697.4 1536.54C3696.7 1535.5 3697.14 1534.06 3698.12 1533.28C3702.69 1529.68 3702.44 1521.72 3701.33 1516.22C3701.06 1514.89 3702.16 1513.62 3703.51 1513.66C3715.51 1514.04 3710.95 1506.1 3703.98 1498.86C3702.53 1497.36 3704.22 1494.35 3706.26 1494.82C3723.5 1498.75 3724.76 1492.82 3721.22 1485.88C3717.97 1479.51 3711.77 1475.3 3705.46 1471.94C3698.61 1468.3 3691.87 1464.94 3685.23 1461.85C3660.48 1450.32 3633.07 1446.5 3605.77 1446.55L3603.22 1446.56C3587.79 1446.59 3572.39 1445.03 3557.28 1441.91C3530.66 1436.41 3502.88 1434.68 3477.19 1443.55C3439.09 1456.7 3413.46 1476.48 3401.49 1486.23C3386.35 1498.56 3385.52 1503.05 3389.06 1504.07C3390.97 1504.63 3392.51 1507.49 3391.07 1508.88C3376.14 1523.39 3376.99 1529.72 3380.96 1531.84C3382.28 1532.55 3383.12 1534.32 3382.25 1535.54C3372.64 1548.93 3369.46 1555.99 3369.83 1559.17C3370.05 1560.98 3381.96 1568.56 3383.78 1568.68C3385.26 1568.78 3385.52 1570.86 3384.46 1571.9C3373.41 1582.8 3377.14 1587.11 3380.98 1587.98C3381.18 1588.03 3381.38 1588.03 3381.58 1588C3401.15 1585.26 3419.37 1583.31 3436.43 1582.09L3521.11 1567.46L3534.96 1574.33C3554.63 1584.09 3575.6 1590.86 3596.42 1597.83C3607.67 1601.6 3618.34 1605.89 3628.63 1610.61Z" fill="#E2CE1A" stroke="#DEA71B" stroke-width="3.77693"/>
<path d="M3661.8 1482.91C3575.3 1427.72 3471.01 1474.98 3429.68 1505.51L3450.39 1508.33L3424.9 1536.2L3450.88 1531.3L3431.99 1548.31C3484.54 1525.34 3581.12 1554.48 3622.84 1571.92L3602.34 1549.84L3632.44 1541.28L3618.27 1517.05L3647.73 1515.34L3639.12 1490.06L3661.8 1482.91Z" fill="#F1DD1E"/>
<path d="M3608.15 1580.63C3601.41 1575.49 3586.09 1565.57 3578.67 1566.97M3550.59 1560.73C3520.82 1545.52 3454 1520.32 3424.88 1541.18M3490.26 1556.72C3477.34 1552.75 3447.77 1547.43 3432.84 1557.93M3650.37 1580.36C3628.22 1568.2 3580.4 1544.54 3566.3 1547.2M3628.37 1560.48C3604.56 1542.87 3542.12 1509.67 3482.92 1517.75M3523.05 1506.34C3506.53 1498.57 3460.86 1489.43 3410.35 1515.09M3633.1 1534.61C3619.64 1524.33 3582.5 1505.71 3541.67 1513.4M3602.11 1507.78C3578.5 1493.01 3501.61 1469.07 3416.83 1498.49M3674.03 1568.21C3662.88 1560.06 3639.48 1543.97 3635.03 1544.81M3677.55 1551.21C3671.4 1544.05 3656.49 1530.2 3646.1 1532.16M3645.14 1501.59C3620.55 1486.69 3562.07 1460.55 3524.87 1475.25M3676.46 1499.53C3654.52 1485.09 3603.78 1457.5 3576.31 1462.68" stroke="#DEA71B" stroke-width="3.77693"/>
<path d="M4097 1611.85V1464.98C4097 1462.07 4095.42 1459.4 4092.88 1457.98L3583.88 1175.59C3578.55 1172.63 3572 1176.49 3572 1182.59V1305.75C3572 1308.55 3573.47 1311.15 3575.88 1312.6L4084.88 1618.71C4090.21 1621.92 4097 1618.08 4097 1611.85Z" fill="#FCE7C6"/>
<path d="M0 1611.85V1464.98C0 1462.07 1.5769 1459.4 4.1189 1457.98L513.119 1175.59C518.451 1172.63 525 1176.49 525 1182.59V1305.75C525 1308.55 523.529 1311.15 521.123 1312.6L12.123 1618.71C6.79102 1621.92 0 1618.08 0 1611.85Z" fill="#FCE7C6"/>
<path d="M553.5 1177V1302.27C553.5 1306.69 557.082 1310.27 561.5 1310.27H3534.5C3538.92 1310.27 3542.5 1306.69 3542.5 1302.27V1177C3542.5 1172.58 3538.92 1169 3534.5 1169H561.5C557.082 1169 553.5 1172.58 553.5 1177Z" fill="#FCE7C6"/>
<path d="M4097 1611.85V1464.98C4097 1462.07 4095.42 1459.4 4092.88 1457.98L3583.88 1175.59C3578.55 1172.63 3572 1176.49 3572 1182.59V1305.75C3572 1308.55 3573.47 1311.15 3575.88 1312.6L4084.88 1618.71C4090.21 1621.92 4097 1618.08 4097 1611.85Z" stroke="#6F3809" stroke-width="7"/>
<path d="M0 1611.85V1464.98C0 1462.07 1.5769 1459.4 4.1189 1457.98L513.119 1175.59C518.451 1172.63 525 1176.49 525 1182.59V1305.75C525 1308.55 523.529 1311.15 521.123 1312.6L12.123 1618.71C6.79102 1621.92 0 1618.08 0 1611.85Z" stroke="#6F3809" stroke-width="7"/>
<path d="M553.5 1177V1302.27C553.5 1306.69 557.082 1310.27 561.5 1310.27H3534.5C3538.92 1310.27 3542.5 1306.69 3542.5 1302.27V1177C3542.5 1172.58 3538.92 1169 3534.5 1169H561.5C557.082 1169 553.5 1172.58 553.5 1177Z" stroke="#6F3809" stroke-width="7"/>
<rect x="2252" y="356" width="840" height="710" rx="40" stroke="#6F3809" stroke-width="6"/>
<rect x="1028" y="356" width="840" height="710" rx="40" stroke="#6F3809" stroke-width="6"/>
</g>
<defs>
<clipPath id="clip0_93_755">
<rect width="4096" height="2276" fill="white"/>
</clipPath>
</defs>
</svg>
