<svg width="2048" height="2048" viewBox="0 0 2048 2048" fill="none" xmlns="http://www.w3.org/2000/svg">
<path d="M512.809 1877.68C549.834 1795.7 483.058 1702.48 450 1666.12L463.223 1600C576.941 1703.14 574.517 1833.61 555.784 1890.91L512.809 1877.68Z" fill="#FEFAEE"/>
<path d="M450 1666.12C483.058 1702.48 549.834 1795.7 512.809 1877.68L555.784 1890.91C574.517 1833.61 576.941 1703.14 463.223 1600" stroke="#AFA589" stroke-width="6.61152"/>
<path d="M504.78 2000C470.844 1963.94 482.836 1919.8 499.147 1891.8C506.159 1879.77 518.612 1872.21 531.955 1868.21C539.498 1865.95 547.973 1868.22 552.072 1874.95C582.584 1925.01 534.639 1978.38 504.78 2000Z" fill="#31302E"/>
<path d="M1307.44 1728.22C934.954 1716.58 849.108 1563.32 852.746 1488.14V1142.58C852.746 993.441 1307.44 833.383 1645.73 873.396C1984.03 913.408 2034.95 1266.25 1984.02 1477.23C1933.1 1688.2 1773.04 1742.77 1307.44 1728.22Z" fill="#FEFAEE"/>
<path d="M860.019 1483.45V1137.89C860.019 1057.72 991.401 974.398 1165.46 920.691C1214.21 1176.09 1238.29 1656.3 967.138 1621.52C941.881 1618.28 918.154 1605.86 901.584 1586.52C869.329 1548.88 858.689 1510.94 860.019 1483.45Z" fill="#EEE8D5"/>
<mask id="mask0_130_28816" style="mask-type:alpha" maskUnits="userSpaceOnUse" x="852" y="862" width="1149" height="864">
<path d="M1307.44 1723.54C934.954 1711.9 849.108 1558.64 852.746 1483.46V1137.9C852.746 988.765 1307.44 828.707 1645.73 868.72C1984.03 908.733 2034.95 1261.57 1984.02 1472.55C1933.1 1683.53 1773.04 1738.09 1307.44 1723.54Z" fill="#FEFAEE"/>
</mask>
<g mask="url(#mask0_130_28816)">
<path d="M824.508 1371.02C1012.45 1317.67 1352.68 1173.86 1210.09 1025.45C1031.85 839.939 649.906 1010.9 824.508 1371.02Z" fill="#2F2F2D"/>
<path d="M1991.2 1066.19C1896.62 1169.25 1764.22 1397.21 1991.2 1484.51C2218.18 1571.81 2085.78 1242 1991.2 1066.19Z" fill="#2F2F2D"/>
<path d="M1616.53 1066.19C1549.6 1066.19 1588.64 908.563 1616.53 829.75C1734.14 829.75 1965.72 858.123 1951.17 971.614C1932.98 1113.48 1711.09 1160.77 1703.82 1128.03C1696.54 1095.29 1700.19 1066.19 1616.53 1066.19Z" fill="#2F2F2D"/>
<path d="M1325.51 866.125C1331.58 931.601 1353.89 1055.28 1394.63 1026.18C1445.55 989.802 1496.48 789.737 1325.51 866.125Z" fill="#2F2F2D"/>
<path d="M1114.54 1484.51C1065.96 1484.51 1052.09 1467.23 1055.6 1444.38C1066.29 1374.89 1148.65 1342.21 1218.44 1333.68C1289.68 1324.97 1366.53 1331.96 1394.63 1386.29C1449.19 1491.78 1249.13 1484.51 1114.54 1484.51Z" fill="#2F2F2D"/>
<path d="M1496.48 1229.88C1496.48 1364.47 1674.72 1411.76 1703.82 1357.19C1732.92 1302.63 1514.67 1033.45 1496.48 1229.88Z" fill="#2F2F2D"/>
<path d="M1336.43 1208.05C1312.41 1209.55 1306.07 1198.86 1307.73 1185.16C1311.09 1157.31 1341.91 1133.5 1367.9 1144.08C1397.62 1156.17 1380.72 1205.29 1336.43 1208.05Z" fill="#2F2F2D"/>
</g>
<path d="M855.743 1487.63L855.747 1487.54V1487.45V1139.4C855.747 1103.67 882.907 1066.38 930.628 1030.92C978.154 995.607 1045.21 962.781 1123 935.832C1278.59 881.932 1476.32 851.815 1644.86 871.888C1812.54 891.86 1908.85 989.757 1957.09 1109.16C2005.42 1228.77 2005.45 1369.95 1980.12 1475.61C1967.48 1528.35 1948.12 1571.06 1919.14 1605.32C1890.17 1639.56 1851.4 1665.57 1799.57 1684.63C1695.7 1722.83 1539.9 1732.95 1307.02 1725.62C935.033 1713.92 852.259 1560.12 855.743 1487.63Z" stroke="#AFA589" stroke-width="7.27507"/>
<path d="M301.61 1697.5L269.773 1566.61L380.141 1559V1706.81C380.141 1709.75 380.495 1712.68 381.116 1715.55C389.092 1752.41 385.913 1779.42 381.224 1794.82L381.104 1795.21C378.746 1802.96 376.335 1810.87 376.335 1818.96C376.335 1834.71 385.468 1849.73 391.753 1864.18C395.631 1873.09 398.285 1883.67 400.035 1894.06C403.418 1914.14 389.729 1932.58 369.673 1936.13C336.452 1942.02 297.645 1942.66 288.802 1920.55C280.105 1898.81 290.301 1875.77 301.924 1859.75C309.581 1849.2 315.443 1837 315.443 1823.97C315.443 1812.64 310.674 1801.94 305.97 1791.63C295.207 1768.05 297.423 1737.26 301.572 1717.33C302.937 1710.78 303.192 1704 301.61 1697.5Z" fill="#FEFAEE"/>
<path d="M269.773 1566.61L301.61 1697.5C303.192 1704 302.937 1710.78 301.572 1717.33C297.423 1737.26 295.207 1768.05 305.97 1791.63C310.674 1801.94 315.443 1812.64 315.443 1823.97V1823.97C315.443 1837 309.581 1849.2 301.924 1859.75C290.301 1875.77 280.105 1898.81 288.802 1920.55C297.645 1942.66 336.452 1942.02 369.673 1936.13C389.729 1932.58 403.418 1914.14 400.035 1894.06C398.285 1883.67 395.631 1873.09 391.753 1864.18C385.468 1849.73 376.335 1834.71 376.335 1818.96V1818.96C376.335 1810.74 378.828 1802.69 381.224 1794.82C385.913 1779.42 389.092 1752.41 381.116 1715.55C380.495 1712.68 380.141 1709.75 380.141 1706.81V1559" stroke="#AFA589" stroke-width="7.61157"/>
<path d="M258.356 1977.63C251.152 1951.53 262.365 1921.14 285.038 1893.91C301.574 1907.02 352.744 1921.57 399.172 1890.1C416.015 1921.35 427.565 1965.33 414.395 1985.25C400.329 2006.52 358.354 2008.48 318.182 2008.07C318.064 2008.08 317.947 2008.07 317.831 2008.07C309.659 2007.97 301.685 2007.27 294.209 2005.9C271.43 2001.73 263.408 1995.94 258.356 1977.63Z" fill="#2F2F2D"/>
<path d="M294.209 2005.9C271.43 2001.73 263.408 1995.94 258.356 1977.63C251.152 1951.53 262.365 1921.14 285.038 1893.91C301.574 1907.02 352.744 1921.57 399.172 1890.1C416.015 1921.35 427.565 1965.33 414.395 1985.25C400.329 2006.52 358.354 2008.48 318.182 2008.07M294.209 2005.9C293.984 1992.44 295.409 1967.63 311.639 1958.61C308.912 1976.66 308.147 2008.34 318.182 2008.07M294.209 2005.9C301.792 2007.29 309.887 2007.99 318.182 2008.07" stroke="#1C1C1C" stroke-width="7.61157"/>
<path d="M292.614 2005.67C292.408 1992.41 299.688 1963.69 314.507 1954.8C312.042 1972.39 305.477 2007.34 314.224 2007.8C314.316 2007.81 314.409 2007.81 314.502 2007.81C314.408 2007.81 314.315 2007.81 314.224 2007.8C306.747 2007.71 299.452 2007.02 292.614 2005.67Z" fill="#1C1C1C"/>
<g opacity="0.1">
<path d="M294.022 2001.11C271.243 1996.94 263.221 1991.15 258.169 1972.85C256.176 1965.62 255.592 1958.07 256.271 1950.35C268.118 1939.84 293.23 1928.81 298.906 1968.81C294.397 1979.54 293.879 1992.6 294.022 2001.11Z" fill="white" fill-opacity="0.78"/>
<path d="M361.5 2001.94C347.735 2003.26 332.744 2003.43 317.995 2003.28C310.523 2003.48 309.038 1985.97 309.893 1969.56C334.576 1941.47 380.7 1908.03 361.5 2001.94Z" fill="white" fill-opacity="0.78"/>
</g>
<path d="M294.022 2005.8C271.243 2001.62 263.221 1995.84 258.169 1977.53C250.964 1951.42 262.178 1921.04 284.85 1893.81C301.387 1906.92 352.557 1921.47 398.985 1890C415.828 1921.25 427.377 1965.22 414.208 1985.14C400.141 2006.42 358.166 2008.37 317.995 2007.97M294.022 2005.8C293.796 1992.34 295.222 1967.53 311.451 1958.5C308.724 1976.55 307.96 2008.24 317.995 2007.97M294.022 2005.8C301.604 2007.18 309.7 2007.89 317.995 2007.97" stroke="#1C1C1C" stroke-width="7.61157"/>
<path d="M163.457 1303C136.269 1404.96 84.1572 1349.26 61.5 1308.66L89.8215 1303C112.479 1355.11 129.472 1324.71 135.136 1303H163.457Z" fill="#FDA335" stroke="#E79127" stroke-width="11.3286"/>
<path d="M275.207 870.305C295.599 1348.37 77.0119 1244.15 62.8437 1227.16C45.1258 1213 -44.7706 1337.61 156.257 1309.29C397.505 1275.3 343.179 938.277 323.354 895.795C307.494 861.809 284.648 864.641 275.207 870.305Z" fill="#B88534" stroke="#775237" stroke-width="11.3286"/>
<path d="M273.911 869.676C294.303 1347.74 78.5003 1243.52 64.332 1226.53C75.3513 1224.69 83.802 1224.3 94.9461 1225.08C110.76 1226.19 129.101 1222.82 146.941 1215.44C241.148 1176.51 232.314 1044.42 255.53 945.163C262.984 913.296 269.808 885.714 273.911 869.676Z" fill="#9E722C" stroke="#775237" stroke-width="11.3286"/>
<path d="M672.804 1922.73C634.821 1909.51 665.739 1836.4 685.946 1801.5L730.427 1826.65C727.046 1864.18 710.787 1935.94 672.804 1922.73Z" fill="#FF8585" stroke="#E36A6A" stroke-width="7.17629"/>
<path d="M640.315 1763.9C662.545 1710.54 766.679 1627.43 1005.38 1721.86C994.875 1865.52 785.895 2028.94 640.315 1763.9Z" fill="#FF9999" stroke="#E36A6A" stroke-width="7.17629"/>
<path d="M911.278 1985.88C859.231 1992.44 852.989 1888.82 856.373 1836.19L922.934 1839.85C940.735 1885.8 963.325 1979.32 911.278 1985.88Z" fill="#FF9999"/>
<path d="M752.555 1973.54C804.873 1977.37 805.688 1873.56 799.556 1821.19L733.278 1828.32C717.904 1875.14 700.236 1969.72 752.555 1973.54Z" fill="#FF9999"/>
<path d="M856.561 1833.63C853.176 1886.26 859.418 1989.87 911.465 1983.32C963.512 1976.76 940.922 1883.23 923.121 1837.29" stroke="#E36A6A" stroke-width="7.17629"/>
<path d="M799.728 1818.63C805.86 1871.01 805.045 1974.81 752.727 1970.98C700.408 1967.16 718.076 1872.58 733.45 1825.77" stroke="#E36A6A" stroke-width="7.17629"/>
<path d="M741.41 1947.8C750.192 1953.03 759.308 1953.7 768.757 1949.8" stroke="#E36A6A" stroke-width="7.17629"/>
<path d="M892.363 1956.82C900.278 1963.28 909.195 1965.29 919.115 1962.83" stroke="#E36A6A" stroke-width="7.17629"/>
<rect x="1305.27" y="1953.59" width="36.7376" height="32.8268" rx="16.4134" fill="#FBA53E" stroke="#E79127" stroke-width="6.28094"/>
<rect x="1313.09" y="1754.14" width="21.0945" height="32.8268" rx="10.5472" fill="#FBA53E" stroke="#E79127" stroke-width="6.28094"/>
<path d="M1263.02 1833.13C1263.02 1818.52 1269.14 1807.38 1277.81 1799.07C1302.29 1775.62 1344.99 1775.62 1369.47 1799.07C1378.14 1807.38 1384.26 1818.52 1384.26 1833.13C1384.26 1880.06 1401.85 1930.9 1413.59 1942.63H1323.64H1233.69C1245.42 1930.9 1263.02 1880.06 1263.02 1833.13Z" fill="#FBA53E" stroke="#E79127" stroke-width="6.28094"/>
<rect x="1223.14" y="1941.86" width="200.99" height="21.0945" rx="10.5472" fill="#FBA53E" stroke="#E79127" stroke-width="6.28094"/>
<path d="M1345.14 1795.97C1352.96 1797.93 1369 1809.27 1370.56 1838.99C1372.12 1868.71 1377.73 1889.18 1380.34 1895.7" stroke="#FFBD6F" stroke-width="6.28094"/>
<path d="M326.983 1428.56C360.482 1476.72 457.627 1551.04 578.221 1463.11M562.519 1444.26C566.706 1452.64 579.477 1468.76 597.064 1466.25M305 1416C310.234 1424.37 325.099 1436.73 342.686 1419.14" stroke="#E36A6A" stroke-width="12.5619"/>
<circle cx="32.2089" cy="32.2089" r="32.2089" transform="matrix(0.992832 -0.119518 -0.119518 -0.992832 161.043 1504.77)" fill="black"/>
<circle cx="8.05223" cy="8.05223" r="8.05223" transform="matrix(1 0 0 -1 183.758 1473.41)" fill="white"/>
<circle cx="24.1567" cy="24.1567" r="24.1567" transform="matrix(0.992832 -0.119518 -0.119518 -0.992832 53.7734 1495.75)" fill="black"/>
<circle cx="8.05223" cy="8.05223" r="8.05223" transform="matrix(1 0 0 -1 67.7969 1475.12)" fill="white"/>
<path d="M814.24 1224.68C696.346 1287.38 576.27 1097.98 590.03 997.978L654.376 1032.49C844.855 1153.73 848.433 1196.14 814.24 1224.68Z" fill="#F77F6E" stroke="#E36A6A" stroke-width="6.28094"/>
<path d="M836.931 1210.64C834.923 1075.99 660.738 1008.09 587.656 994.203C600.482 1040.06 617.709 1085.08 645.206 1123.95C738.315 1255.58 810.245 1239.5 836.931 1210.64Z" fill="#FFFAEE" stroke="#AFA589" stroke-width="6.28094"/>
<path d="M398.366 1020.68C516.259 1083.38 636.336 893.977 622.576 793.978L558.23 828.487C367.751 949.731 364.172 992.142 398.366 1020.68Z" fill="#F77F6E" stroke="#E36A6A" stroke-width="6.28094"/>
<path d="M375.675 1006.64C377.683 871.991 551.867 804.094 624.949 790.203C612.123 836.057 594.896 881.081 567.4 919.954C474.29 1051.58 402.36 1035.5 375.675 1006.64Z" fill="#F4EBCF" stroke="#AFA589" stroke-width="6.28094"/>
<path d="M665.471 1496.3C617.549 1485.37 612.51 1540.11 613.578 1567.12C617.839 1594.51 629.781 1647.49 662.682 1654.03C703.808 1662.21 719.596 1628.27 723.041 1599.65C726.486 1571.03 725.373 1509.97 665.471 1496.3Z" fill="white" stroke="#AFA589" stroke-width="7.15765"/>
<path d="M801.622 1362.1C837.734 1377.64 814.195 1416.75 800.298 1434.36C784.162 1450.7 750.582 1480.54 726.26 1469.23C695.857 1455.09 702.323 1424.79 714.109 1403.95C725.896 1383.11 756.482 1342.68 801.622 1362.1Z" fill="white" stroke="#AFA589" stroke-width="7.15765"/>
<path d="M483.32 144.337C356.124 129.026 241.345 256.836 196.008 339.325C96.0966 472.656 134.862 607.479 230.846 669.49C313.283 707.968 489.534 774.111 573.323 715.668C627.587 677.818 652.436 568.719 660.919 468.024C668.962 372.556 665.258 264.928 598.885 195.838C573.709 169.632 538.067 150.927 483.32 144.337Z" fill="#FFFAEE" stroke="#AFA589" stroke-width="6.80385"/>
<path d="M502.761 457.075C296.711 241.705 97.0278 351.166 46.6424 487.488C31.9211 527.318 28.1171 571.111 31.9092 613.405C38.3335 685.056 77.7059 770.898 201.443 785.794C245.637 791.114 291.385 792.68 334.818 789.216C449.217 780.09 592.881 747.453 629.397 638.655C655.042 562.248 598.771 517.326 543.037 522.038C534.624 497.731 520.542 475.661 502.761 457.075Z" fill="#F77F6E" stroke="#E36A6A" stroke-width="6.80385"/>
<path d="M207.001 896.354C234.667 906.922 212.713 944.873 200.189 962.282C185.974 978.759 156.724 1009.25 138.158 1001.36C114.951 991.497 122.537 963.27 133.629 943.128C144.721 922.986 172.419 883.143 207.001 896.354Z" fill="#E77160" stroke="#E36A6A" stroke-width="6.28094"/>
<path d="M49.4651 1045.44C8.05489 1056.05 30.1772 1108.54 43.7809 1132.91C59.9812 1156.25 94.108 1199.8 122.083 1191.63C157.051 1181.42 152.908 1143.41 141.955 1115.62C131.002 1087.83 101.228 1032.17 49.4651 1045.44Z" fill="#E77160" stroke="#E36A6A" stroke-width="6.28094"/>
<path d="M648.144 288.874C528.712 284.777 542.435 196.449 589.59 174.714C632.443 169.593 710.271 173.478 692.335 231.625C688.431 264.049 661.795 289.343 648.144 288.874Z" fill="#FFFAEE" stroke="#AFA589" stroke-width="6.80385"/>
<path d="M304.571 207.229C393.01 220.843 411.69 169.128 385.588 140.019C357.543 123.843 302.711 103.729 297.897 149.841C291.005 173.764 294.453 205.672 304.571 207.229Z" fill="#FFFAEE" stroke="#AFA589" stroke-width="6.80385"/>
<path d="M656.73 83.2105C650.807 117.763 618.985 148.236 592.467 167.973C578.927 178.05 569.159 193.906 573.368 210.252C590.226 275.721 663.717 271.563 685.342 252.042C688.086 249.565 689.663 246.105 690.847 242.604C715.924 168.388 692.186 108.324 668.942 78.6991C665.161 73.8803 657.765 77.1736 656.73 83.2105Z" fill="#2F2F2D" stroke="#1C1C1C" stroke-width="6.80385"/>
<path d="M334.244 46.9228C336.153 71.9703 353.007 97.3437 369.116 115.513C380.211 128.026 387.737 144.99 381.16 160.366C364.677 198.903 330.001 196.651 304.741 184.461C294.441 179.49 288.071 169.076 286.941 157.695C281.707 104.961 303.41 62.5695 322.773 41.2761C326.903 36.735 333.777 40.8026 334.244 46.9228Z" fill="#2F2F2D" stroke="#1C1C1C" stroke-width="6.80385"/>
<path opacity="0.1" d="M313.824 58.4985C318.037 51.7984 322.455 46.0222 326.759 41.2878C330.887 36.7459 337.776 40.8004 338.242 46.9205C339.346 61.3974 345.441 75.9831 353.5 89.2237C358.167 104.284 364.7 134.404 353.5 134.404C342.3 134.404 322.383 83.8002 313.824 58.4985Z" fill="white"/>
<path opacity="0.56" d="M289.943 155.908C287.248 128.781 291.682 104.391 299.259 84.2004C306.076 119.021 326.868 188.517 355.503 187.932C339.977 193.409 322.296 189.684 307.741 182.66C297.441 177.689 291.074 167.289 289.943 155.908Z" fill="#1C1C1C" stroke="#1C1C1C" stroke-width="6.80385"/>
<path d="M334.244 46.9228C336.153 71.9703 353.007 97.3437 369.116 115.513C380.211 128.026 387.737 144.99 381.16 160.366C364.677 198.903 330.001 196.651 304.741 184.461C294.441 179.49 288.071 169.076 286.941 157.695C281.707 104.961 303.41 62.5695 322.773 41.2761C326.903 36.735 333.777 40.8026 334.244 46.9228Z" stroke="#1C1C1C" stroke-width="6.80385"/>
<path opacity="0.1" d="M335.149 394.829C332.793 405.397 295.169 412.961 262.161 405.602C229.152 398.243 204.303 383.71 206.66 373.142C209.016 362.573 251.142 353.444 284.15 360.803C317.159 368.162 337.505 384.26 335.149 394.829Z" fill="white"/>
<path d="M602.336 1152L362 1172.27C392.795 1201.14 425.544 1229.91 466.008 1241.93C559.436 1269.67 595.817 1198.45 602.336 1152Z" fill="#E34949" stroke="#C53232" stroke-width="5.79123"/>
<path d="M311.395 1351.81C296.321 1331.71 311.395 1301.56 320.816 1289L650.574 1326.69C651.621 1331.92 643.037 1349.93 600.327 1380.07C546.939 1417.76 493.551 1370.65 455.865 1367.51C418.18 1364.37 330.238 1376.93 311.395 1351.81Z" fill="#F77F6E" stroke="#C85545" stroke-width="6.28094"/>
<path d="M1042.49 793.219V771.137H1128.2V793.219C1128.2 793.219 1128.04 805.666 1085.47 805.666C1042.89 805.666 1042.49 793.219 1042.49 793.219Z" fill="#0172C2"/>
<path d="M1085.38 785.887C1109.03 785.887 1128.2 780.085 1128.2 772.928C1128.2 765.771 1109.03 759.969 1085.38 759.969C1061.74 759.969 1042.57 765.771 1042.57 772.928C1042.57 780.085 1061.74 785.887 1085.38 785.887Z" fill="#248ED9"/>
<path opacity="0.48" d="M1128.2 771.564C1128.2 777.958 1109.03 783.159 1085.38 783.159C1061.73 783.159 1042.57 777.958 1042.57 771.564C1042.49 765.169 1061.65 759.969 1085.38 759.969C1109.03 759.969 1128.2 765.169 1128.2 771.564Z" fill="url(#paint0_linear_130_28816)"/>
<path d="M1132.26 587.608C1132.14 581.719 1130.84 576.899 1128.98 572.988C1122.94 560.276 1104.77 560.356 1097.38 572.338C1094.82 576.485 1092.96 581.597 1092.81 587.754C1092.8 588.214 1092.53 588.636 1092.1 588.809L1020.51 617.78C1010.31 621.908 1001.72 629.216 996.002 638.619C993.384 642.928 991.578 648.099 993.791 652.629C1003.6 672.703 1052.48 687.961 1111.31 687.961C1152.55 687.961 1188.89 680.465 1210.33 669.069C1238.63 662.706 1235.82 648.226 1230.41 640.934C1222.03 629.931 1210.89 621.332 1198.12 616.003L1133.11 588.872C1132.6 588.661 1132.28 588.155 1132.26 587.608Z" fill="white" stroke="#DCE7FF" stroke-width="7.46708"/>
<path d="M1132.25 587.24C1132.09 581.517 1130.8 576.817 1128.98 572.988C1122.94 560.276 1104.76 560.356 1097.38 572.338C1094.86 576.417 1093.02 581.427 1092.82 587.448C1092.8 588.119 1093.12 588.767 1093.67 589.147C1106.22 597.759 1123.11 593.06 1131.15 589.103C1131.85 588.757 1132.28 588.023 1132.25 587.24Z" fill="#DCE7FF" stroke="#DCE7FF" stroke-width="5.96561"/>
<path d="M1653.89 2003.38C1592.5 2046.91 1611.38 2006.94 1630.1 1978.95C1630.55 1978.28 1629.71 1977.41 1629 1977.8C1613.05 1986.66 1608.19 1977.29 1607.64 1970.08C1607.59 1969.49 1606.88 1969.16 1606.39 1969.5C1559.83 2002.39 1552.9 1985.66 1555.33 1972.37C1555.41 1971.93 1555.08 1971.51 1554.64 1971.47C1513.39 1967.59 1521.08 1928.68 1530.49 1908.75C1530.69 1908.31 1530.42 1907.8 1529.95 1907.68C1518.58 1904.73 1517.05 1887.85 1517.78 1878.61C1517.82 1878.08 1517.28 1877.68 1516.77 1877.83C1490.08 1885.54 1503.45 1862.36 1515.42 1847.24C1515.92 1846.61 1515.13 1845.7 1514.4 1846.08C1472.08 1868.24 1474.57 1848.7 1483.04 1832.21C1484.9 1828.59 1487.63 1825.52 1490.77 1822.93C1510.4 1806.74 1529.71 1792.58 1548.64 1780.24C1568.76 1767.12 1591.69 1759.18 1615.31 1754.78L1658.28 1746.77C1673.09 1744.01 1687.58 1739.73 1701.52 1734L1734.6 1720.4C1759.14 1710.32 1785.38 1704.04 1811.82 1706.23C1884.69 1712.28 1937.34 1738.99 1960.62 1751.63C1997.89 1771.86 1987.4 1776.5 1975.35 1776.36C1974.57 1776.35 1974.26 1777.45 1974.93 1777.86C2015.05 1802.13 2009.75 1813.31 2000.98 1816.35C2000.43 1816.54 2000.28 1817.29 2000.71 1817.69C2043.2 1857.52 2029.69 1859.86 2012.59 1854.58C2011.73 1854.31 2010.79 1856.11 2011.49 1856.69C2023.59 1866.63 2014.84 1870.56 2006.5 1871.51C2005.77 1871.6 2005.55 1872.61 2006.17 1872.99C2031.35 1888.29 2026.11 1896.76 2020.05 1899.16C2019.98 1899.19 2019.9 1899.21 2019.82 1899.21C1989.45 1900.64 1961.34 1902.88 1935.21 1905.88L1803.54 1907.89L1754.51 1944.93C1747.68 1950.09 1740.21 1954.35 1732.43 1957.91C1703.23 1971.3 1677.59 1986.57 1653.89 2003.38Z" fill="#85CC1B" stroke="#637F17" stroke-width="2.20989"/>
<path d="M1567.7 1820.49C1682.29 1712.84 1852.73 1754.41 1923.63 1788.66L1893.25 1798.78L1939.55 1833.51H1899.03L1932.31 1853.76C1846.66 1834.09 1709.5 1905.37 1651.62 1943.47L1676.22 1904.41L1628.47 1900.06L1642.94 1859.55L1598.09 1865.34L1603.87 1824.83L1567.7 1820.49Z" fill="#AAE82E"/>
<path d="M1676.22 1952.41C1684.9 1942.76 1705.15 1923.47 1716.73 1923.47M1757.24 1906.11C1797.75 1874.76 1891.22 1817.85 1940.99 1841M1846.95 1882.96C1865.27 1873.32 1908.29 1856.92 1933.76 1868.49M1612.55 1963.99C1642.46 1939.39 1707.76 1890.2 1729.75 1890.2M1640.05 1927.81C1670.91 1894.54 1755.5 1826.82 1846.95 1822.19M1783.28 1816.41C1805.95 1800.01 1872.12 1773.29 1955.46 1797.6M1625.58 1890.2C1642.94 1870.9 1693.58 1832.32 1757.24 1832.32M1664.64 1841C1695.99 1812.07 1804.99 1754.19 1940.99 1774.45M1573.49 1952.41C1587.96 1936.98 1618.63 1906.11 1625.58 1906.11M1563.36 1927.81C1570.6 1915.28 1589.12 1890.2 1605.32 1890.2M1598.09 1843.9C1630.88 1814.48 1711.52 1758.53 1771.71 1770.11M1550.34 1849.68C1579.28 1821.71 1647.86 1765.77 1690.69 1765.77" stroke="#637F17" stroke-width="2.20989"/>
<path d="M1806.44 1910.46C1826.11 1879.2 1737.95 1799.05 1680.56 1739.73L1668.98 1744.07C1768.53 1837.82 1791.97 1900.33 1790.52 1919.14L1806.44 1910.46Z" fill="#FCC534" stroke="#AF830D" stroke-width="0.736631"/>
<g clip-path="url(#clip0_130_28816)">
<path fill-rule="evenodd" clip-rule="evenodd" d="M1738.69 1811.5C1738.69 1811.5 1738.64 1806.06 1741.13 1803.5C1743.57 1800.94 1749.92 1800.8 1749.92 1800.8C1749.92 1800.8 1758.62 1787 1767.71 1777.76C1776.75 1768.45 1795.38 1755.09 1807.75 1757.04C1820.12 1758.94 1823.84 1764.73 1827.28 1772.1C1830.71 1779.42 1830.36 1787.72 1829.25 1792.38C1828.12 1797 1826.42 1802.67 1820.18 1805.49C1813.95 1808.37 1810.62 1809.44 1801.29 1812.87C1791.96 1816.26 1762.09 1820.83 1762.09 1820.83L1760.11 1811.02L1776.91 1802.52C1776.91 1802.52 1779.74 1802.78 1785.52 1801.51C1791.3 1800.27 1810.18 1794.29 1814.17 1791.02C1818.16 1787.75 1819.62 1781.34 1819.62 1781.34C1819.62 1781.34 1815.49 1779.7 1807.97 1783.55C1800.45 1787.41 1792.71 1790.07 1787.91 1794.08C1783.07 1798.04 1760.11 1811.02 1760.11 1811.02C1760.11 1811.02 1762.97 1819.17 1761.25 1823.05C1759.54 1826.93 1757.24 1828.46 1754.81 1829.4C1752.43 1830.33 1751.05 1825.05 1751.05 1825.05C1751.05 1825.05 1747.36 1826 1741.65 1827.44C1735.94 1828.88 1723.6 1832.25 1719.74 1832.1C1715.88 1831.95 1698.05 1834.59 1694.46 1836.75C1690.87 1838.91 1681.39 1847.34 1680.01 1850.91C1678.64 1854.47 1675.94 1856.46 1678.57 1857.41C1681.2 1858.36 1697.5 1856.08 1704.38 1853.98C1711.29 1851.88 1720.09 1848.09 1724.76 1845.29C1729.43 1842.48 1733.01 1839.62 1734.95 1836.66C1736.9 1833.71 1738.47 1828.28 1738.47 1828.28L1751.01 1825.05C1751.01 1825.05 1753.63 1825.39 1752.3 1828.08C1750.97 1830.77 1746.59 1839.51 1741.42 1845.31C1736.25 1851.12 1729.9 1854.4 1726.24 1856.96C1722.57 1859.49 1705.88 1869.54 1690.7 1869.72C1675.47 1869.96 1674.48 1866.58 1670.8 1862.78C1667.12 1858.98 1663.24 1854.43 1663.1 1848.35C1663 1842.26 1664.84 1832.39 1675.99 1824.05C1687.14 1815.68 1696.85 1814.76 1706.23 1813.63C1715.69 1812.49 1738.69 1811.5 1738.69 1811.5Z" fill="#FCC534"/>
<path fill-rule="evenodd" clip-rule="evenodd" d="M1732.25 1914.51C1730.76 1915.31 1730.57 1916.95 1726.84 1914.2C1723.1 1911.46 1720.47 1908.2 1717.1 1907.84C1713.73 1907.49 1708.19 1906.85 1705.43 1905.97C1702.68 1905.08 1700.67 1903.9 1703.77 1901.34C1706.87 1898.81 1719.55 1885.63 1722.42 1880.17C1725.28 1874.68 1732.91 1860.96 1734.55 1857.17C1736.15 1853.35 1736.64 1849.75 1736.64 1849.75C1736.64 1849.75 1742.35 1845.43 1745.1 1840.3C1747.84 1835.17 1752.34 1828.07 1752.34 1828.07C1752.34 1828.07 1750.76 1835.12 1751.4 1840.77C1752.05 1846.43 1749.97 1853.07 1749.76 1861.65C1749.5 1870.23 1747.65 1874.4 1746.29 1881.76C1744.97 1889.11 1743.23 1893.65 1740.33 1900.94C1737.4 1908.27 1733.74 1913.72 1732.25 1914.51Z" fill="#FCC534"/>
<path fill-rule="evenodd" clip-rule="evenodd" d="M1762.68 1820.43C1762.68 1820.43 1772.12 1819.42 1777.82 1818.2C1783.53 1817.03 1798.54 1813.68 1798.54 1813.68C1798.54 1813.68 1805.05 1815.83 1812.07 1814.1C1819.05 1812.38 1827.25 1809.03 1829.74 1807.6C1832.22 1806.18 1834.94 1801.14 1837.77 1803.37C1840.64 1805.59 1844.32 1812.83 1843.93 1817.99C1843.5 1823.16 1843.76 1825.17 1836.85 1828.14C1829.93 1831.12 1823.23 1832.89 1814.7 1833.84C1806.17 1834.84 1799.42 1835.7 1789.58 1834.11C1779.75 1832.51 1771.87 1830.06 1769.49 1828.46C1767.11 1826.86 1761.07 1822.46 1761.07 1822.46L1762.68 1820.43Z" fill="#FCC534"/>
<path fill-rule="evenodd" clip-rule="evenodd" d="M1738.86 1811.17C1739.18 1811.82 1739.83 1812.37 1740.56 1812.91C1741.39 1813.48 1742.43 1814.02 1742.96 1814.64C1747.31 1819.38 1749.59 1822.91 1751.46 1829.16C1751.63 1829.7 1752.2 1829.97 1752.7 1829.85C1753.24 1829.68 1753.51 1829.11 1753.38 1828.61C1751.38 1822.03 1749.02 1818.33 1744.46 1813.32C1743.89 1812.71 1743.02 1812.14 1742.15 1811.58C1741.52 1811.19 1740.9 1810.81 1740.64 1810.28C1740.39 1809.8 1739.79 1809.58 1739.31 1809.83C1738.78 1810.09 1738.61 1810.68 1738.86 1811.17Z" fill="#AF830D"/>
<path fill-rule="evenodd" clip-rule="evenodd" d="M1740.1 1808.97C1739.77 1806.54 1741.36 1804.42 1743.51 1803.09C1745.71 1801.75 1748.45 1801.16 1750.48 1802.16C1754.77 1804.25 1759.45 1810.9 1760.52 1817.1C1761.21 1821.01 1760.48 1824.78 1757.01 1826.92C1756.49 1827.22 1756 1827.69 1755.45 1828.08C1755.09 1828.35 1754.7 1828.63 1754.28 1828.69C1753.72 1828.78 1753.36 1829.27 1753.45 1829.82C1753.53 1830.38 1754.02 1830.74 1754.57 1830.65C1755.17 1830.56 1755.74 1830.3 1756.29 1829.91C1756.93 1829.51 1757.5 1828.94 1758.05 1828.6C1762.23 1825.99 1763.33 1821.47 1762.47 1816.72C1761.26 1809.92 1756.05 1802.66 1751.33 1800.32C1748.74 1799.06 1745.21 1799.6 1742.42 1801.34C1739.59 1803.08 1737.59 1806 1738.08 1809.2C1738.17 1809.75 1738.66 1810.11 1739.21 1810.03C1739.82 1810.02 1740.18 1809.53 1740.1 1808.97Z" fill="#AF830D"/>
<path fill-rule="evenodd" clip-rule="evenodd" d="M1750.24 1800.93C1761.04 1785.11 1775.5 1767.94 1793.75 1760.66C1803.69 1756.7 1811.79 1757.46 1817.79 1761.6C1823.79 1765.79 1827.61 1773.36 1829.04 1782.77C1829.13 1783.33 1829.62 1783.69 1830.17 1783.6C1830.73 1783.52 1831.09 1783.03 1831 1782.47C1829.47 1772.46 1825.33 1764.46 1818.89 1760C1812.45 1755.49 1803.71 1754.56 1792.99 1758.81C1774.41 1766.23 1759.6 1783.67 1748.59 1799.78C1748.26 1800.23 1748.4 1800.86 1748.85 1801.18C1749.33 1801.5 1749.92 1801.37 1750.24 1800.93Z" fill="#AF830D"/>
<path fill-rule="evenodd" clip-rule="evenodd" d="M1761.34 1811.35C1776.15 1804.72 1788.31 1794.14 1802.47 1786.62C1809.84 1782.7 1819.36 1779.94 1827.1 1784.6C1827.57 1784.87 1828.16 1784.74 1828.48 1784.25C1828.76 1783.77 1828.62 1783.18 1828.14 1782.87C1819.78 1777.82 1809.48 1780.62 1801.54 1784.84C1787.39 1792.37 1775.31 1802.89 1760.53 1809.51C1760.04 1809.72 1759.79 1810.32 1760.04 1810.85C1760.25 1811.34 1760.85 1811.6 1761.34 1811.35Z" fill="#AF830D"/>
<path fill-rule="evenodd" clip-rule="evenodd" d="M1818.2 1784.3C1818.22 1783.86 1818.6 1783.45 1819.06 1783.38C1819.62 1783.3 1820.11 1783.66 1820.19 1784.21C1820.23 1784.43 1820.16 1784.83 1819.97 1785.29C1819.76 1785.67 1819.31 1786.4 1819.27 1786.45C1818.05 1790.16 1814.61 1791.87 1810.86 1793.88C1803.81 1797.66 1785.19 1803.08 1777.72 1804.09C1777.16 1804.18 1776.66 1803.77 1776.58 1803.22C1776.49 1802.67 1776.9 1802.17 1777.45 1802.08C1784.81 1801.13 1803.05 1795.82 1809.93 1792.1C1811.63 1791.19 1813.29 1790.37 1814.66 1789.33C1815.91 1788.4 1816.88 1787.34 1817.38 1785.78C1817.43 1785.55 1818.09 1784.45 1818.2 1784.3Z" fill="#AF830D"/>
<path fill-rule="evenodd" clip-rule="evenodd" d="M1763.01 1821.38C1766.13 1821.52 1769.74 1820.31 1772.85 1819.83C1781.37 1818.53 1789.21 1817.33 1797.48 1814.67C1802.75 1812.95 1807.8 1811.22 1812.85 1808.84C1815.53 1807.55 1819.09 1806.92 1821.45 1805.25C1827.83 1800.75 1831.28 1791.67 1831.21 1784.1C1831.21 1783.53 1830.76 1783.12 1830.19 1783.12C1829.62 1783.12 1829.21 1783.57 1829.21 1784.14C1829.28 1791.11 1826.16 1799.52 1820.29 1803.64C1818.01 1805.26 1814.57 1805.83 1811.96 1807.05C1807 1809.38 1802.03 1811.1 1796.84 1812.81C1788.66 1815.46 1780.94 1816.59 1772.5 1817.88C1769.52 1818.34 1766.08 1819.52 1763.06 1819.41C1762.49 1819.41 1762.03 1819.83 1762.03 1820.36C1762.02 1820.88 1762.44 1821.34 1763.01 1821.38Z" fill="#AF830D"/>
<path fill-rule="evenodd" clip-rule="evenodd" d="M1676.57 1866.56C1676.37 1865.55 1676.13 1864.54 1676.1 1864.37C1675.62 1861.78 1675.62 1859.77 1676.09 1857.17C1677.38 1850.48 1682.3 1843.58 1687.75 1839.61C1695.55 1833.88 1704.56 1832.37 1713.99 1831.32C1718.88 1830.79 1723.75 1829.83 1728.69 1829.9C1730.74 1829.94 1733.1 1828.79 1735 1828.11C1738.81 1826.83 1745.04 1825.05 1749.04 1824.44C1749.6 1824.35 1750.09 1824.71 1750.17 1825.27C1750.26 1825.82 1749.9 1826.31 1749.34 1826.4C1745.42 1826.99 1739.36 1828.71 1735.63 1829.97C1733.56 1830.68 1730.91 1831.87 1728.64 1831.87C1723.79 1831.83 1719.05 1832.73 1714.21 1833.29C1705.17 1834.33 1696.43 1835.66 1688.95 1841.21C1683.9 1844.95 1679.29 1851.32 1678.11 1857.52C1677.68 1859.85 1677.65 1861.64 1678.13 1863.92C1678.16 1864.14 1678.57 1865.95 1678.76 1867.23C1678.87 1867.95 1678.88 1868.56 1678.79 1868.84C1678.71 1869.16 1678.52 1869.36 1678.36 1869.47C1678.13 1869.64 1677.88 1869.72 1677.56 1869.64C1677.38 1869.62 1676.86 1869.35 1676.22 1868.84C1674.52 1867.44 1671.12 1864.04 1670.47 1863.48C1668.34 1861.5 1665.54 1859.18 1664.26 1856.5C1659.76 1847.07 1663.65 1833.7 1670.94 1826.65C1685.88 1812.29 1702.85 1812.92 1722.01 1811.61C1726.88 1811.26 1734.63 1809.72 1738.81 1810.83C1739.35 1810.96 1739.66 1811.53 1739.52 1812.07C1739.39 1812.61 1738.82 1812.92 1738.28 1812.78C1734.23 1811.7 1726.81 1813.32 1722.1 1813.64C1703.42 1814.93 1686.82 1814.11 1672.26 1828.11C1665.53 1834.59 1661.88 1846.92 1666 1855.62C1667.16 1858.1 1669.79 1860.19 1671.77 1862.02C1672.33 1862.5 1674.8 1864.96 1676.57 1866.56Z" fill="#AF830D"/>
<path fill-rule="evenodd" clip-rule="evenodd" d="M1749.07 1830.27C1743.2 1843.55 1735.13 1851.46 1721.97 1858.66C1715.69 1862.1 1709.05 1865.69 1702.01 1867.29C1698.85 1867.99 1693.11 1869.26 1687.89 1869.32C1684.63 1869.38 1681.56 1868.98 1679.64 1867.53C1679.2 1867.2 1678.56 1867.3 1678.23 1867.74C1677.91 1868.18 1678.01 1868.82 1678.45 1869.15C1680.66 1870.77 1684.15 1871.37 1687.94 1871.32C1693.29 1871.24 1699.2 1869.99 1702.44 1869.23C1709.65 1867.6 1716.49 1863.9 1722.93 1860.38C1736.53 1852.94 1744.87 1844.78 1750.93 1831.08C1751.16 1830.56 1750.94 1829.98 1750.43 1829.76C1749.87 1829.54 1749.29 1829.76 1749.07 1830.27Z" fill="#AF830D"/>
<path fill-rule="evenodd" clip-rule="evenodd" d="M1679.65 1858.77C1679.41 1859.24 1678.84 1859.46 1678.37 1859.27C1677.86 1859.04 1677.6 1858.47 1677.82 1857.95C1678.11 1857.26 1678.78 1856.81 1679.68 1856.67C1680.95 1856.47 1682.81 1856.93 1683.56 1856.95C1689.02 1857.03 1694.48 1855.67 1699.71 1854.26C1708.33 1851.89 1715.59 1848.91 1723.31 1844.37C1725.51 1843.08 1728.45 1842.02 1730.31 1840.21C1733.52 1837.01 1735.63 1832.81 1737.69 1828.92C1737.97 1828.44 1738.55 1828.26 1739.02 1828.5C1739.5 1828.77 1739.68 1829.36 1739.45 1829.83C1737.28 1833.91 1735.07 1838.26 1731.7 1841.61C1729.73 1843.56 1726.68 1844.69 1724.32 1846.09C1716.44 1850.74 1709.02 1853.8 1700.22 1856.19C1694.83 1857.67 1689.2 1859.05 1683.51 1858.96C1682.9 1858.97 1681.5 1858.61 1680.37 1858.65C1680.15 1858.64 1679.94 1858.68 1679.77 1858.7C1679.73 1858.75 1679.69 1858.76 1679.65 1858.77Z" fill="#AF830D"/>
<path fill-rule="evenodd" clip-rule="evenodd" d="M1729.21 1915.98C1726.61 1915.55 1724.36 1913.93 1722.1 1912.27C1720.08 1910.75 1718.01 1909.19 1715.66 1908.63C1713.81 1908.22 1711.81 1908.26 1709.84 1908.21C1707.65 1908.16 1705.51 1907.87 1703.61 1906.81C1703.37 1906.67 1701.73 1905.92 1701.11 1905.32C1700.7 1904.9 1700.58 1904.4 1700.66 1904.08C1700.69 1903.99 1700.71 1903.81 1700.85 1903.61C1700.96 1903.47 1701.18 1903.22 1701.52 1902.86C1702.91 1901.42 1706.35 1898.24 1706.73 1897.83C1710.3 1894.1 1713.82 1890.08 1717 1886.02C1725.1 1875.71 1730.48 1863.29 1735.72 1851.37C1735.95 1850.85 1736.52 1850.64 1737.04 1850.86C1737.55 1851.09 1737.77 1851.67 1737.55 1852.18C1732.19 1864.2 1726.71 1876.81 1718.53 1887.22C1715.32 1891.33 1711.72 1895.41 1708.15 1899.18C1707.78 1899.59 1704.41 1902.68 1703.03 1904.15L1704.64 1905.04C1706.27 1905.97 1708.08 1906.13 1709.96 1906.19C1712.07 1906.26 1714.2 1906.2 1716.14 1906.68C1718.81 1907.28 1721.07 1908.98 1723.33 1910.64C1725.35 1912.12 1727.32 1913.61 1729.6 1914C1730.14 1914.09 1730.52 1914.6 1730.43 1915.14" fill="#AF830D"/>
<path fill-rule="evenodd" clip-rule="evenodd" d="M1733.82 1914.79C1734.52 1914.2 1735.35 1913.12 1736.19 1911.72C1738.81 1907.49 1741.84 1900.48 1742.41 1899.39C1745 1894.38 1745.59 1888.53 1746.85 1883.1C1748.21 1877.14 1749.87 1871.18 1750.55 1865.06C1750.99 1861.11 1750.86 1857.12 1751.35 1853.21C1752.18 1846.1 1753.98 1838.76 1751.94 1831.66C1751.77 1831.12 1751.24 1830.81 1750.7 1830.98C1750.16 1831.15 1749.85 1831.68 1750.02 1832.22C1751.97 1839.03 1750.18 1846.1 1749.39 1852.94C1748.91 1856.89 1749.04 1860.88 1748.59 1864.83C1747.95 1870.86 1746.32 1876.73 1744.95 1882.65C1743.76 1887.94 1743.23 1893.6 1740.7 1898.48C1740.13 1899.57 1737.18 1906.52 1734.54 1910.67C1733.91 1911.68 1733.34 1912.51 1732.77 1913.03C1732.58 1913.24 1732.43 1913.39 1732.26 1913.41C1731.71 1913.5 1731.35 1913.99 1731.43 1914.54" fill="#AF830D"/>
<path fill-rule="evenodd" clip-rule="evenodd" d="M1762.45 1824C1767.76 1829.12 1775.99 1832.44 1785.07 1834.23C1798.51 1836.88 1813.74 1836.12 1823.52 1833.02C1826.43 1832.09 1829.64 1831.43 1832.66 1830.4C1835.85 1829.3 1838.85 1827.79 1841.08 1825.27C1841.45 1824.87 1841.4 1824.22 1840.99 1823.85C1840.59 1823.47 1839.94 1823.53 1839.57 1823.93C1837.56 1826.2 1834.84 1827.53 1831.98 1828.5C1828.95 1829.52 1825.74 1830.19 1822.87 1831.11C1813.36 1834.18 1798.55 1834.87 1785.43 1832.3C1776.8 1830.61 1768.86 1827.46 1763.81 1822.61C1763.4 1822.24 1762.79 1822.25 1762.37 1822.66C1762.03 1822.97 1762.04 1823.62 1762.45 1824Z" fill="#AF830D"/>
<path fill-rule="evenodd" clip-rule="evenodd" d="M1842.62 1821.68C1842.68 1821.54 1842.8 1821.17 1842.85 1820.9C1843.02 1819.74 1842.93 1818.27 1842.86 1817.85C1842.57 1815.97 1841.03 1809.89 1839.19 1806.38C1838.82 1805.69 1838.47 1805.09 1838.1 1804.67C1837.89 1804.44 1837.73 1804.25 1837.55 1804.23C1836.02 1804.16 1834.56 1805.17 1833.1 1806.22C1831.38 1807.48 1829.73 1808.96 1828.18 1809.67C1820.48 1813.2 1809.82 1816.75 1801.26 1815.53C1800.72 1815.44 1800.34 1814.93 1800.39 1814.4C1800.48 1813.86 1800.99 1813.48 1801.52 1813.53C1809.72 1814.68 1819.96 1811.19 1827.33 1807.8C1829.08 1807.01 1830.98 1805.15 1832.95 1803.8C1834.5 1802.78 1836.09 1802.06 1837.67 1802.12C1838.19 1802.13 1838.75 1802.39 1839.31 1802.87C1839.87 1803.4 1840.48 1804.26 1840.99 1805.32C1842.91 1809.03 1844.54 1815.46 1844.84 1817.41C1844.94 1818.05 1845.12 1820.38 1844.69 1821.8C1844.4 1822.8 1843.8 1823.42 1843.08 1823.53C1842.52 1823.61 1842.03 1823.25 1841.95 1822.7C1841.84 1822.28 1842.16 1821.79 1842.62 1821.68Z" fill="#AF830D"/>
</g>
<path d="M942.07 244.825C942.253 267.471 942.253 294.4 942.192 325.093C941.949 396.861 941.036 465.319 940.428 474.08C939.151 492.249 932.158 504.967 925.833 509.509C920.725 513.143 884.845 516.063 861.979 517.101H845.377C822.511 516.063 786.631 513.143 781.523 509.509C775.138 504.967 768.144 492.249 766.928 474.08C766.32 465.319 765.408 396.861 765.164 325.093C764.921 294.141 764.982 266.952 765.164 244.176C765.164 244.176 776.111 252.741 850.242 252.741C924.374 252.741 942.07 244.825 942.07 244.825Z" fill="#EFEDE4"/>
<path d="M765.038 247.611C767.485 237.293 824.889 237.086 851.563 237.086C878.236 237.086 938.684 237.086 938.684 248.129C938.624 259.225 762.174 259.743 765.038 247.611Z" fill="#E7E4D6"/>
<path d="M1060.35 67.0852C1060.35 68.7402 1060.35 79.9042 1060.35 111.32C1060.35 139.015 1033.22 189.558 1014.83 219.284C1010.46 226.361 1007.98 234.466 1007.98 242.789V474.381C1007.98 486.356 1011.06 498.616 1020.26 506.277C1027.27 512.111 1036.35 517.102 1046.36 517.102H1136.2C1146.21 517.102 1155.29 512.111 1162.3 506.277C1171.5 498.616 1174.58 486.356 1174.58 474.381V242.789C1174.58 234.466 1172.1 226.361 1167.73 219.284C1149.34 189.558 1122.21 139.015 1122.21 111.32C1122.21 79.9042 1122.21 68.7402 1122.21 67.0852M1060.35 67.0852C1075.7 82.4318 1111.37 78.8209 1122.21 67.0852M1060.35 67.0852C1060.81 64.6779 1067.49 59.8633 1090.6 59.8633C1113.72 59.8633 1121.3 64.6779 1122.21 67.0852M1060.35 75.6301C1075.7 90.9768 1111.37 87.3658 1122.21 75.6301" stroke="white" stroke-width="10.6335"/>
<path d="M1092.04 316.533C1048.23 316.533 1015.92 311.94 1004.88 310.125C1003.72 309.933 1002.67 310.823 1002.67 312.004C1002.67 346.349 1002.67 392.341 1002.67 422.576C1002.67 423.492 1003.3 424.262 1004.2 424.425C1015.54 426.478 1049.71 432.035 1093.07 432.035C1139.6 432.035 1168.44 426.758 1178.42 424.599C1179.29 424.411 1179.89 423.656 1179.89 422.767C1179.89 392.55 1179.89 346.551 1179.89 312.13C1179.89 310.929 1178.81 310.033 1177.63 310.25C1167.42 312.129 1138.32 316.533 1092.04 316.533Z" fill="#0172C2"/>
<path d="M1031.2 391.709C1029.92 391.709 1028.93 391.35 1028.25 390.632C1027.57 389.914 1027.23 388.913 1027.23 387.629V354.822C1027.23 353.537 1027.59 352.536 1028.31 351.819C1029.07 351.101 1030.09 350.742 1031.37 350.742C1032.5 350.742 1033.39 350.969 1034.03 351.422C1034.71 351.838 1035.34 352.574 1035.9 353.632L1048.99 377.543H1047.07L1060.15 353.632C1060.72 352.574 1061.33 351.838 1061.97 351.422C1062.65 350.969 1063.54 350.742 1064.63 350.742C1065.92 350.742 1066.9 351.101 1067.58 351.819C1068.3 352.536 1068.65 353.537 1068.65 354.822V387.629C1068.65 388.913 1068.31 389.914 1067.63 390.632C1066.95 391.35 1065.97 391.709 1064.69 391.709C1063.4 391.709 1062.4 391.35 1061.68 390.632C1061 389.914 1060.66 388.913 1060.66 387.629V364.681H1061.91L1051.37 383.549C1050.92 384.267 1050.43 384.815 1049.9 385.192C1049.41 385.532 1048.75 385.702 1047.92 385.702C1047.08 385.702 1046.4 385.514 1045.88 385.136C1045.35 384.758 1044.88 384.229 1044.46 383.549L1033.81 364.624H1035.17V387.629C1035.17 388.913 1034.83 389.914 1034.15 390.632C1033.5 391.35 1032.52 391.709 1031.2 391.709Z" fill="white"/>
<path d="M1081.17 391.709C1079.74 391.709 1078.64 391.312 1077.89 390.519C1077.13 389.725 1076.76 388.611 1076.76 387.176V355.275C1076.76 353.84 1077.13 352.725 1077.89 351.932C1078.64 351.139 1079.74 350.742 1081.17 350.742C1082.57 350.742 1083.65 351.139 1084.4 351.932C1085.16 352.725 1085.54 353.84 1085.54 355.275V387.176C1085.54 388.611 1085.16 389.725 1084.4 390.519C1083.69 391.312 1082.61 391.709 1081.17 391.709Z" fill="white"/>
<path d="M1098.05 391.199C1096.62 391.199 1095.5 390.802 1094.71 390.009C1093.95 389.215 1093.58 388.12 1093.58 386.722V355.615C1093.58 354.142 1093.95 353.028 1094.71 352.272C1095.47 351.517 1096.56 351.139 1098 351.139C1099.39 351.139 1100.47 351.517 1101.23 352.272C1101.98 353.028 1102.36 354.142 1102.36 355.615V383.776H1117.54C1118.75 383.776 1119.68 384.097 1120.32 384.739C1121 385.381 1121.34 386.288 1121.34 387.459C1121.34 388.668 1121 389.593 1120.32 390.235C1119.68 390.877 1118.75 391.199 1117.54 391.199H1098.05Z" fill="white"/>
<path d="M1130.48 391.709C1129.04 391.709 1127.95 391.312 1127.19 390.519C1126.44 389.725 1126.06 388.611 1126.06 387.176V355.218C1126.06 353.783 1126.44 352.688 1127.19 351.932C1127.95 351.139 1129.04 350.742 1130.48 350.742C1131.87 350.742 1132.95 351.139 1133.71 351.932C1134.46 352.688 1134.84 353.783 1134.84 355.218V368.647H1134.95L1150.03 352.895C1150.67 352.215 1151.33 351.705 1152.01 351.365C1152.73 350.988 1153.54 350.799 1154.44 350.799C1155.77 350.799 1156.71 351.139 1157.28 351.819C1157.88 352.499 1158.15 353.292 1158.07 354.199C1158 355.105 1157.58 355.955 1156.82 356.748L1141.7 372.217L1141.75 368.421L1157.62 385.362C1158.49 386.307 1158.92 387.27 1158.92 388.252C1158.96 389.234 1158.64 390.065 1157.96 390.745C1157.32 391.387 1156.35 391.709 1155.07 391.709C1153.97 391.709 1153.09 391.482 1152.41 391.029C1151.76 390.575 1151.05 389.914 1150.25 389.045L1134.95 372.954H1134.84V387.176C1134.84 388.611 1134.46 389.725 1133.71 390.519C1132.99 391.312 1131.91 391.709 1130.48 391.709Z" fill="white"/>
<g opacity="0.3">
<path d="M1286.85 67.0852C1286.85 68.7402 1286.85 79.9042 1286.85 111.32C1286.85 139.015 1259.72 189.558 1241.33 219.284C1236.96 226.361 1234.48 234.466 1234.48 242.789V474.381C1234.48 486.356 1237.56 498.616 1246.76 506.277C1253.77 512.111 1262.85 517.102 1272.86 517.102H1362.7C1372.71 517.102 1381.79 512.111 1388.8 506.277C1398 498.616 1401.08 486.356 1401.08 474.381V242.789C1401.08 234.466 1398.6 226.361 1394.23 219.284C1375.84 189.558 1348.71 139.015 1348.71 111.32C1348.71 79.9042 1348.71 68.7402 1348.71 67.0852M1286.85 67.0852C1302.2 82.4318 1337.87 78.8209 1348.71 67.0852M1286.85 67.0852C1287.31 64.6779 1293.99 59.8633 1317.1 59.8633C1340.22 59.8633 1347.8 64.6779 1348.71 67.0852M1286.85 75.6301C1302.2 90.9768 1337.87 87.3658 1348.71 75.6301" stroke="white" stroke-width="10.6335"/>
<path d="M1318.54 316.533C1274.73 316.533 1242.42 311.94 1231.38 310.125C1230.22 309.933 1229.17 310.823 1229.17 312.004C1229.17 346.349 1229.17 392.341 1229.17 422.576C1229.17 423.492 1229.8 424.262 1230.7 424.425C1242.04 426.478 1276.21 432.035 1319.57 432.035C1366.1 432.035 1394.94 426.758 1404.92 424.599C1405.79 424.411 1406.39 423.656 1406.39 422.767C1406.39 392.55 1406.39 346.551 1406.39 312.13C1406.39 310.929 1405.31 310.033 1404.13 310.25C1393.92 312.129 1364.82 316.533 1318.54 316.533Z" fill="#0172C2"/>
<path d="M1258.1 391.709C1256.82 391.709 1255.84 391.35 1255.16 390.632C1254.48 389.914 1254.14 388.913 1254.14 387.629V354.822C1254.14 353.537 1254.5 352.536 1255.21 351.819C1255.97 351.101 1256.99 350.742 1258.27 350.742C1259.41 350.742 1260.29 350.969 1260.94 351.422C1261.62 351.838 1262.24 352.574 1262.81 353.632L1275.89 377.543H1273.97L1287.06 353.632C1287.62 352.574 1288.23 351.838 1288.87 351.422C1289.55 350.969 1290.44 350.742 1291.53 350.742C1292.82 350.742 1293.8 351.101 1294.48 351.819C1295.2 352.536 1295.56 353.537 1295.56 354.822V387.629C1295.56 388.913 1295.22 389.914 1294.54 390.632C1293.86 391.35 1292.87 391.709 1291.59 391.709C1290.31 391.709 1289.3 391.35 1288.59 390.632C1287.91 389.914 1287.57 388.913 1287.57 387.629V364.681H1288.81L1278.27 383.549C1277.82 384.267 1277.33 384.815 1276.8 385.192C1276.31 385.532 1275.65 385.702 1274.82 385.702C1273.99 385.702 1273.31 385.514 1272.78 385.136C1272.25 384.758 1271.78 384.229 1271.36 383.549L1260.71 364.624H1262.07V387.629C1262.07 388.913 1261.73 389.914 1261.05 390.632C1260.41 391.35 1259.43 391.709 1258.1 391.709Z" fill="white"/>
<path d="M1308.08 391.709C1306.64 391.709 1305.55 391.312 1304.79 390.519C1304.04 389.725 1303.66 388.611 1303.66 387.176V355.275C1303.66 353.84 1304.04 352.725 1304.79 351.932C1305.55 351.139 1306.64 350.742 1308.08 350.742C1309.47 350.742 1310.55 351.139 1311.31 351.932C1312.06 352.725 1312.44 353.84 1312.44 355.275V387.176C1312.44 388.611 1312.06 389.725 1311.31 390.519C1310.59 391.312 1309.51 391.709 1308.08 391.709Z" fill="white"/>
<path d="M1324.96 391.199C1323.52 391.199 1322.41 390.802 1321.61 390.009C1320.86 389.215 1320.48 388.12 1320.48 386.722V355.615C1320.48 354.142 1320.86 353.028 1321.61 352.272C1322.37 351.517 1323.46 351.139 1324.9 351.139C1326.3 351.139 1327.37 351.517 1328.13 352.272C1328.88 353.028 1329.26 354.142 1329.26 355.615V383.776H1344.45C1345.66 383.776 1346.58 384.097 1347.22 384.739C1347.9 385.381 1348.24 386.288 1348.24 387.459C1348.24 388.668 1347.9 389.593 1347.22 390.235C1346.58 390.877 1345.66 391.199 1344.45 391.199H1324.96Z" fill="white"/>
<path d="M1357.38 391.709C1355.94 391.709 1354.85 391.312 1354.09 390.519C1353.34 389.725 1352.96 388.611 1352.96 387.176V355.218C1352.96 353.783 1353.34 352.688 1354.09 351.932C1354.85 351.139 1355.94 350.742 1357.38 350.742C1358.78 350.742 1359.85 351.139 1360.61 351.932C1361.36 352.688 1361.74 353.783 1361.74 355.218V368.647H1361.86L1376.93 352.895C1377.57 352.215 1378.23 351.705 1378.91 351.365C1379.63 350.988 1380.44 350.799 1381.35 350.799C1382.67 350.799 1383.61 351.139 1384.18 351.819C1384.78 352.499 1385.05 353.292 1384.97 354.199C1384.9 355.105 1384.48 355.955 1383.73 356.748L1368.6 372.217L1368.66 368.421L1384.52 385.362C1385.39 386.307 1385.82 387.27 1385.82 388.252C1385.86 389.234 1385.54 390.065 1384.86 390.745C1384.22 391.387 1383.25 391.709 1381.97 391.709C1380.88 391.709 1379.99 391.482 1379.31 391.029C1378.67 390.575 1377.95 389.914 1377.15 389.045L1361.86 372.954H1361.74V387.176C1361.74 388.611 1361.36 389.725 1360.61 390.519C1359.89 391.312 1358.81 391.709 1357.38 391.709Z" fill="white"/>
</g>
<path d="M822.686 67.0696C822.686 68.7246 822.686 79.8885 822.686 111.304C822.686 138.999 795.553 189.542 777.166 219.268C772.788 226.346 770.316 234.45 770.316 242.773V474.365C770.316 486.34 773.388 498.6 782.591 506.262C789.598 512.095 798.682 517.087 808.691 517.087H898.533C908.542 517.087 917.626 512.095 924.633 506.262C933.836 498.6 936.907 486.34 936.907 474.365V242.773C936.907 234.45 934.436 226.346 930.058 219.268C911.671 189.542 884.537 138.999 884.537 111.304C884.537 79.8885 884.537 68.7246 884.537 67.0696M822.686 67.0696C838.036 82.4162 873.702 78.8052 884.537 67.0696M822.686 67.0696C823.138 64.6623 829.82 59.8477 852.935 59.8477C876.05 59.8477 883.634 64.6623 884.537 67.0696M822.686 75.6145C838.036 90.9611 873.702 87.3502 884.537 75.6145" stroke="white" stroke-width="10.6335"/>
<path d="M814.145 80.6331V60.9531H890.528V80.6331C890.528 80.6331 890.385 91.7268 852.444 91.7268C814.502 91.7268 814.145 80.6331 814.145 80.6331Z" fill="#0172C2"/>
<path d="M852.371 74.0993C873.444 74.0993 890.527 68.9283 890.527 62.5496C890.527 56.1709 873.444 51 852.371 51C831.298 51 814.215 56.1709 814.215 62.5496C814.215 68.9283 831.298 74.0993 852.371 74.0993Z" fill="#248ED9"/>
<path opacity="0.48" d="M890.527 61.3339C890.527 67.0327 873.45 71.6678 852.371 71.6678C831.292 71.6678 814.215 67.0327 814.215 61.3339C814.144 55.635 831.221 51 852.371 51C873.45 51 890.527 55.635 890.527 61.3339Z" fill="url(#paint1_linear_130_28816)"/>
<path d="M854.371 316.517C815.446 316.517 785.598 312.891 771.685 310.81C768.181 310.285 765 312.978 765 316.521C765 349.084 765 390.546 765 419.399C765 422.147 766.955 424.496 769.663 424.961C783.358 427.31 815.486 432.019 855.407 432.019C897.948 432.019 925.705 427.607 937.778 425.201C940.392 424.68 942.224 422.378 942.224 419.713C942.224 390.901 942.224 349.422 942.224 316.764C942.224 313.162 938.933 310.448 935.377 311.024C922.388 313.124 895 316.517 854.371 316.517Z" fill="#0172C2"/>
<path d="M791.646 391.283C790.362 391.283 789.38 390.924 788.7 390.206C788.02 389.488 787.68 388.487 787.68 387.203V354.396C787.68 353.112 788.039 352.111 788.756 351.393C789.512 350.675 790.532 350.316 791.816 350.316C792.949 350.316 793.837 350.543 794.479 350.996C795.159 351.412 795.782 352.148 796.349 353.206L809.438 377.117H807.511L820.6 353.206C821.167 352.148 821.771 351.412 822.413 350.996C823.093 350.543 823.981 350.316 825.076 350.316C826.361 350.316 827.343 350.675 828.023 351.393C828.74 352.111 829.099 353.112 829.099 354.396V387.203C829.099 388.487 828.759 389.488 828.079 390.206C827.399 390.924 826.417 391.283 825.133 391.283C823.849 391.283 822.848 390.924 822.13 390.206C821.45 389.488 821.11 388.487 821.11 387.203V364.255H822.357L811.818 383.123C811.364 383.841 810.873 384.389 810.344 384.767C809.853 385.107 809.192 385.277 808.361 385.277C807.53 385.277 806.85 385.088 806.321 384.71C805.793 384.332 805.32 383.803 804.905 383.123L794.252 364.198H795.612V387.203C795.612 388.487 795.272 389.488 794.592 390.206C793.95 390.924 792.968 391.283 791.646 391.283Z" fill="white"/>
<path d="M841.62 391.283C840.185 391.283 839.089 390.886 838.334 390.093C837.578 389.3 837.201 388.185 837.201 386.75V354.849C837.201 353.414 837.578 352.3 838.334 351.506C839.089 350.713 840.185 350.316 841.62 350.316C843.018 350.316 844.094 350.713 844.85 351.506C845.605 352.3 845.983 353.414 845.983 354.849V386.75C845.983 388.185 845.605 389.3 844.85 390.093C844.132 390.886 843.056 391.283 841.62 391.283Z" fill="white"/>
<path d="M858.498 390.773C857.063 390.773 855.948 390.376 855.155 389.583C854.4 388.79 854.022 387.694 854.022 386.297V355.189C854.022 353.716 854.4 352.602 855.155 351.846C855.911 351.091 857.006 350.713 858.442 350.713C859.839 350.713 860.916 351.091 861.671 351.846C862.427 352.602 862.805 353.716 862.805 355.189V383.35H877.99C879.199 383.35 880.124 383.671 880.766 384.313C881.446 384.956 881.786 385.862 881.786 387.033C881.786 388.242 881.446 389.167 880.766 389.81C880.124 390.452 879.199 390.773 877.99 390.773H858.498Z" fill="white"/>
<path d="M890.922 391.283C889.487 391.283 888.391 390.886 887.636 390.093C886.881 389.3 886.503 388.185 886.503 386.75V354.793C886.503 353.357 886.881 352.262 887.636 351.506C888.391 350.713 889.487 350.316 890.922 350.316C892.32 350.316 893.397 350.713 894.152 351.506C894.908 352.262 895.285 353.357 895.285 354.793V368.221H895.399L910.471 352.47C911.113 351.79 911.774 351.28 912.454 350.94C913.171 350.562 913.984 350.373 914.89 350.373C916.212 350.373 917.157 350.713 917.723 351.393C918.328 352.073 918.592 352.866 918.517 353.773C918.441 354.679 918.026 355.529 917.27 356.323L902.141 371.791L902.198 367.995L918.063 384.937C918.932 385.881 919.366 386.844 919.366 387.826C919.404 388.809 919.083 389.64 918.403 390.319C917.761 390.962 916.798 391.283 915.514 391.283C914.418 391.283 913.53 391.056 912.85 390.603C912.208 390.149 911.491 389.488 910.697 388.62L895.399 372.528H895.285V386.75C895.285 388.185 894.908 389.3 894.152 390.093C893.434 390.886 892.358 391.283 890.922 391.283Z" fill="white"/>
<path d="M1758.99 178.954C1758.99 178.954 1755.27 194.406 1763.07 221.203C1770.86 248 1783.52 287.813 1792.03 304.309C1800.48 320.805 1810.42 366.812 1799.83 392.913C1789.25 419.015 1768.79 443.724 1739.1 458.827C1709.42 473.931 1640.97 467.041 1614.15 454.721C1587.32 442.332 1570.37 423.817 1559.07 396.324C1547.77 368.831 1550.63 345.514 1557.64 324.911C1564.72 304.309 1578.1 279.6 1585.89 256.909C1593.69 234.219 1597.19 214.313 1599.34 200.601C1601.48 186.889 1602.84 170.254 1602.84 170.254L1758.99 178.954Z" fill="#EFEDE4"/>
<path d="M1760.54 182.002C1761.63 173.335 1749.24 159.652 1677.95 159.652C1606.67 159.652 1597.55 174.406 1597.55 178.399C1597.55 182.391 1600.25 199.969 1675.26 200.407C1743.34 200.748 1759.81 188.137 1760.54 182.002Z" fill="#E7E4D6"/>
<path d="M1593.14 159.014C1597.58 158.736 1600.14 168.648 1600.14 174.124C1600.14 180.085 1598.48 189.026 1592.86 188.818C1587.53 188.61 1584.75 159.499 1593.14 159.014Z" fill="#DCE7FF"/>
<path d="M1593.28 159.016H1579.97V188.751H1593.28V159.016Z" fill="#DCE7FF"/>
<path d="M1748.79 458.304C1748.79 458.304 1744.7 482.217 1680.38 482.217C1616.05 482.217 1607.88 456.918 1607.88 456.918L1680.38 471.568L1748.79 458.304Z" fill="#DCE7FF"/>
<path d="M1586.85 100.288C1587.86 100.726 1588.92 101.184 1590.03 101.654C1597.69 104.905 1607.66 108.819 1616.64 111.341C1620.46 112.432 1625.49 113.589 1630.99 114.729C1663.35 121.44 1696.89 121.703 1729.32 115.211C1734.57 114.16 1739.38 113.08 1743.06 112.033L1743.07 112.032C1751.75 109.552 1761.51 107.035 1769.12 105.134C1770.36 104.824 1771.55 104.531 1772.66 104.257C1772.46 104.566 1772.27 104.884 1772.07 105.21C1768.59 110.969 1764.68 119.313 1763 129.608C1759.79 149.214 1756.5 184.701 1763.04 213.042C1769.45 240.899 1777.98 271.999 1796.2 307.241C1804.82 323.929 1808.23 346.29 1806.03 368.741C1803.83 391.18 1796.06 413.309 1782.81 429.596C1756.24 462.233 1717.35 469.668 1679.58 469.669C1642.01 469.601 1603.28 461.366 1576.9 428.905C1550.27 396.099 1543.88 349.032 1563.57 306.409C1580.16 270.578 1590.23 240.333 1596.66 212.349C1603.2 183.939 1599.92 148.523 1596.71 128.915C1595.04 118.707 1591.17 109.125 1587.78 102.16C1587.47 101.514 1587.16 100.89 1586.85 100.288Z" stroke="white" stroke-width="7.08898"/>
<path d="M1537.54 341.52C1537.54 341.52 1555.98 346.164 1558.06 348.728C1562.98 354.897 1560.07 372.087 1555.5 373.889C1546.28 377.493 1528.32 364.116 1528.32 364.116L1537.54 341.52Z" fill="#DCE7FF"/>
<path d="M1596.4 151.873C1602.91 151.527 1606.66 166.221 1606.66 174.469C1606.66 183.342 1604.23 196.719 1596.05 196.373C1588.15 195.957 1584.06 152.566 1596.4 151.873Z" fill="#DCE7FF"/>
<path d="M1579.97 159.013C1579.97 159.013 1590.92 178.491 1579.97 188.749C1569.02 199.007 1558.06 179.877 1554.32 174.401C1550.58 168.925 1524.24 164.489 1508.85 176.827C1493.46 189.165 1483.55 205.592 1480.43 223.683C1477.38 241.843 1484.18 271.579 1497.55 291.749C1510.86 311.919 1524.66 326.198 1535.54 335.417C1548.85 346.715 1544.41 355.24 1539.63 362.102C1534.84 368.964 1525.7 365.568 1520.5 361.964C1507.47 352.884 1493.46 339.021 1481.82 321.554C1470.17 304.087 1458.18 278.787 1455.13 257.855C1452.08 236.991 1454.79 209.959 1468.16 181.61C1481.54 153.26 1513.63 138.843 1538.66 139.19C1561.46 139.536 1575.18 152.567 1579.97 159.013Z" fill="white"/>
<path d="M1783.8 82.395L1784.01 82.9493L1784.37 83.427C1786.31 86.0402 1787.54 89.753 1786.46 92.982C1785.46 95.9716 1781.83 100.363 1769.89 103.047L1769.31 103.178L1768.78 103.458C1750.57 113.141 1718.99 119.776 1682.62 119.776C1653.62 119.776 1627.57 115.558 1608.92 108.875C1599.58 105.527 1592.33 101.644 1587.5 97.5542C1582.65 93.4478 1580.71 89.5603 1580.71 86.1032C1580.71 82.6461 1582.65 78.7587 1587.5 74.6523C1592.33 70.5623 1599.58 66.6792 1608.92 63.3311C1627.57 56.6486 1653.62 52.4306 1682.62 52.4306C1709.11 52.4306 1733.17 55.9532 1751.37 61.6724C1760.47 64.5338 1767.97 67.9019 1773.55 71.5534C1779.18 75.244 1782.46 78.9711 1783.8 82.395Z" stroke="#DCE7FF" stroke-width="8.86122"/>
<path d="M1797.14 597.014C1801.58 596.736 1804.14 606.648 1804.14 612.124C1804.14 618.085 1802.48 627.026 1796.86 626.818C1791.53 626.61 1788.75 597.499 1797.14 597.014Z" fill="#DCE7FF"/>
<path d="M1797.28 597.016H1783.97V626.751H1797.28V597.016Z" fill="#DCE7FF"/>
<path d="M1952.79 896.304C1952.79 896.304 1948.7 920.217 1884.38 920.217C1820.05 920.217 1811.88 894.918 1811.88 894.918L1884.38 909.568L1952.79 896.304Z" fill="#DCE7FF"/>
<path d="M1790.85 538.288C1791.86 538.726 1792.92 539.184 1794.03 539.654C1801.69 542.905 1811.66 546.819 1820.64 549.341C1824.46 550.432 1829.49 551.589 1834.99 552.729C1867.35 559.44 1900.89 559.703 1933.32 553.211C1938.57 552.16 1943.38 551.08 1947.06 550.033L1947.07 550.032C1955.75 547.552 1965.51 545.035 1973.12 543.134C1974.36 542.824 1975.55 542.531 1976.66 542.257C1976.46 542.566 1976.27 542.884 1976.07 543.21C1972.59 548.969 1968.68 557.313 1967 567.608C1963.79 587.214 1960.5 622.701 1967.04 651.042C1973.45 678.899 1981.98 709.999 2000.2 745.241C2008.82 761.929 2012.23 784.29 2010.03 806.741C2007.83 829.18 2000.06 851.309 1986.81 867.596C1960.24 900.233 1921.35 907.668 1883.58 907.669C1846.01 907.601 1807.28 899.366 1780.9 866.905C1754.27 834.099 1747.88 787.032 1767.57 744.409C1784.16 708.578 1794.23 678.333 1800.66 650.349C1807.2 621.939 1803.92 586.523 1800.71 566.915C1799.04 556.707 1795.17 547.125 1791.78 540.16C1791.47 539.514 1791.16 538.89 1790.85 538.288Z" stroke="white" stroke-width="7.08898"/>
<path d="M1741.54 779.52C1741.54 779.52 1759.98 784.164 1762.06 786.728C1766.98 792.897 1764.07 810.087 1759.5 811.889C1750.28 815.493 1732.32 802.116 1732.32 802.116L1741.54 779.52Z" fill="#DCE7FF"/>
<path d="M1800.4 589.873C1806.91 589.527 1810.66 604.221 1810.66 612.469C1810.66 621.342 1808.23 634.719 1800.05 634.373C1792.15 633.957 1788.06 590.566 1800.4 589.873Z" fill="#DCE7FF"/>
<path d="M1783.97 597.013C1783.97 597.013 1794.92 616.491 1783.97 626.749C1773.02 637.007 1762.06 617.877 1758.32 612.401C1754.58 606.925 1728.24 602.489 1712.85 614.827C1697.46 627.165 1687.55 643.592 1684.43 661.683C1681.38 679.843 1688.18 709.579 1701.55 729.749C1714.86 749.919 1728.66 764.198 1739.54 773.417C1752.85 784.715 1748.41 793.24 1743.63 800.102C1738.84 806.964 1729.7 803.568 1724.5 799.964C1711.47 790.884 1697.46 777.021 1685.82 759.554C1674.17 742.087 1662.18 716.787 1659.13 695.855C1656.08 674.991 1658.79 647.959 1672.16 619.61C1685.54 591.26 1717.63 576.843 1742.66 577.19C1765.46 577.536 1779.18 590.567 1783.97 597.013Z" fill="white"/>
<path d="M1987.8 520.395L1988.02 520.949L1988.37 521.427C1990.31 524.04 1991.54 527.753 1990.46 530.982C1989.46 533.972 1985.83 538.363 1973.89 541.047L1973.31 541.178L1972.78 541.458C1954.57 551.141 1922.99 557.776 1886.62 557.776C1857.63 557.776 1831.57 553.558 1812.92 546.875C1803.58 543.527 1796.33 539.644 1791.51 535.554C1786.66 531.448 1784.72 527.56 1784.72 524.103C1784.72 520.646 1786.66 516.759 1791.51 512.652C1796.33 508.562 1803.58 504.679 1812.92 501.331C1831.57 494.649 1857.63 490.431 1886.62 490.431C1913.11 490.431 1937.17 493.953 1955.37 499.672C1964.48 502.534 1971.98 505.902 1977.55 509.553C1983.18 513.244 1986.47 516.971 1987.8 520.395Z" stroke="#DCE7FF" stroke-width="8.86122"/>
<path d="M948.066 653.633C948.248 676.279 948.249 700.313 948.188 731.006C947.944 802.774 947.032 871.232 946.424 879.992C945.147 898.161 938.154 910.88 931.829 915.422C926.721 919.056 890.841 921.976 867.975 923.014H851.373C828.507 921.976 792.627 919.056 787.519 915.422C781.134 910.88 774.14 898.161 772.924 879.992C772.316 871.232 771.403 802.774 771.16 731.006C770.917 700.053 770.978 676.409 771.161 653.633C771.161 653.633 782.107 658.654 856.238 658.654C930.369 658.654 948.066 653.633 948.066 653.633Z" fill="#EFEDE4"/>
<path d="M771.035 653.525C773.532 643.207 832.108 643 859.325 643C886.543 643 948.224 643 948.224 654.044C948.163 665.139 768.112 665.657 771.035 653.525Z" fill="#E7E4D6"/>
<path opacity="0.45" d="M693.593 243.57C718.572 169.644 695.117 109.76 671.96 80.0137C668.162 75.1344 661.308 78.41 661.809 84.5732C667.169 150.46 667.531 257.194 633.498 264.565C655.639 268.138 677.757 262.326 688.079 253.017C690.823 250.542 692.41 247.072 693.593 243.57Z" fill="#1C1C1C"/>
<path d="M1542.51 539.622C1542.51 539.622 1538.79 555.074 1546.59 581.871C1554.39 608.668 1567.05 648.481 1575.56 664.977C1584 681.473 1593.94 727.48 1583.35 753.581C1572.77 779.683 1552.31 804.392 1522.63 819.495C1492.94 834.599 1424.49 827.709 1397.67 815.389C1370.85 802.999 1353.89 784.485 1342.59 756.992C1331.29 729.499 1334.15 706.182 1341.16 685.579C1348.24 664.977 1361.62 640.268 1369.42 617.577C1377.21 594.887 1380.72 574.98 1382.86 561.269C1385.01 547.557 1386.37 530.922 1386.37 530.922L1542.51 539.622Z" fill="#EFEDE4"/>
<path d="M1544.06 537.349C1545.13 528.682 1533.01 515 1463.27 515C1393.53 515 1384.62 529.754 1384.62 533.746C1384.62 537.739 1387.26 555.317 1460.63 555.755C1527.23 556.096 1543.35 543.485 1544.06 537.349Z" fill="#E7E4D6"/>
<path d="M632.885 185.855C650.033 164.182 661.095 112.453 665.445 81.1703C665.526 80.5873 666.394 80.7062 666.463 81.2907C682.747 219.581 654.69 228.26 630.713 209.31C624.418 204.335 627.907 192.147 632.885 185.855Z" fill="#444442"/>
<path d="M84.6102 1697.5L52.7734 1566.61L163.141 1559V1706.81C163.141 1709.75 163.495 1712.68 164.116 1715.55C172.092 1752.41 168.913 1779.42 164.224 1794.82L164.104 1795.21C161.746 1802.96 159.335 1810.87 159.335 1818.96C159.335 1834.71 168.468 1849.73 174.753 1864.18C178.631 1873.09 181.285 1883.67 183.035 1894.06C186.418 1914.14 172.729 1932.58 152.673 1936.13C119.452 1942.02 80.6452 1942.66 71.8024 1920.55C63.1045 1898.81 73.3014 1875.77 84.9241 1859.75C92.5808 1849.2 98.4429 1837 98.4429 1823.97C98.4429 1812.64 93.6742 1801.94 88.9698 1791.63C78.2075 1768.05 80.423 1737.26 84.5724 1717.33C85.9368 1710.78 86.1924 1704 84.6102 1697.5Z" fill="#F4EBCF"/>
<path d="M52.7734 1566.61L84.6102 1697.5C86.1924 1704 85.9368 1710.78 84.5724 1717.33C80.423 1737.26 78.2075 1768.05 88.9698 1791.63C93.6742 1801.94 98.4429 1812.64 98.4429 1823.97V1823.97C98.4429 1837 92.5808 1849.2 84.9241 1859.75C73.3014 1875.77 63.1045 1898.81 71.8024 1920.55C80.6452 1942.66 119.452 1942.02 152.673 1936.13C172.729 1932.58 186.418 1914.14 183.035 1894.06C181.285 1883.67 178.631 1873.09 174.753 1864.18C168.468 1849.73 159.335 1834.71 159.335 1818.96V1818.96C159.335 1810.74 161.828 1802.69 164.224 1794.82C168.913 1779.42 172.092 1752.41 164.116 1715.55C163.495 1712.68 163.141 1709.75 163.141 1706.81V1559" stroke="#AFA589" stroke-width="7.61157"/>
<path d="M41.3563 1977.63C34.1519 1951.53 45.365 1921.14 68.0377 1893.91C84.574 1907.02 135.744 1921.57 182.172 1890.1C199.015 1921.35 210.565 1965.33 197.395 1985.25C183.329 2006.52 141.354 2008.48 101.182 2008.07C101.064 2008.08 100.947 2008.07 100.831 2008.07C92.6587 2007.97 84.6849 2007.27 77.2094 2005.9C54.4301 2001.73 46.4082 1995.94 41.3563 1977.63Z" fill="#2F2F2D"/>
<path d="M77.2094 2005.9C54.4301 2001.73 46.4082 1995.94 41.3563 1977.63C34.1519 1951.53 45.365 1921.14 68.0377 1893.91C84.574 1907.02 135.744 1921.57 182.172 1890.1C199.015 1921.35 210.565 1965.33 197.395 1985.25C183.329 2006.52 141.354 2008.48 101.182 2008.07M77.2094 2005.9C76.9839 1992.44 78.4092 1967.63 94.639 1958.61C91.9116 1976.66 91.147 2008.34 101.182 2008.07M77.2094 2005.9C84.7918 2007.29 92.887 2007.99 101.182 2008.07" stroke="#1C1C1C" stroke-width="7.61157"/>
<path d="M75.6136 2005.67C75.4078 1992.41 82.6877 1963.69 97.5066 1954.8C95.0421 1972.39 88.4772 2007.34 97.2235 2007.8C97.3165 2007.81 97.4095 2007.81 97.5025 2007.81C97.4078 2007.81 97.3148 2007.81 97.2235 2007.8C89.7469 2007.71 82.4519 2007.02 75.6136 2005.67Z" fill="#1C1C1C"/>
<g opacity="0.1">
<path d="M77.0219 2001.11C54.2426 1996.94 46.2207 1991.15 41.1688 1972.85C39.1757 1965.62 38.5922 1958.07 39.271 1950.35C51.1177 1939.84 76.2301 1928.81 81.9056 1968.81C77.3972 1979.54 76.8793 1992.6 77.0219 2001.11Z" fill="white" fill-opacity="0.78"/>
<path d="M144.5 2001.94C130.735 2003.26 115.744 2003.43 100.995 2003.28C93.5225 2003.48 92.038 1985.97 92.8931 1969.56C117.576 1941.47 163.7 1908.03 144.5 2001.94Z" fill="white" fill-opacity="0.78"/>
</g>
<path d="M77.0219 2005.8C54.2426 2001.62 46.2207 1995.84 41.1688 1977.53C33.9644 1951.42 45.1775 1921.04 67.8502 1893.81C84.3865 1906.92 135.557 1921.47 181.985 1890C198.828 1921.25 210.377 1965.22 197.208 1985.14C183.141 2006.42 141.166 2008.37 100.995 2007.97M77.0219 2005.8C76.7964 1992.34 78.2217 1967.53 94.4515 1958.5C91.7241 1976.55 90.9595 2008.24 100.995 2007.97M77.0219 2005.8C84.6043 2007.18 92.6995 2007.89 100.995 2007.97" stroke="#1C1C1C" stroke-width="7.61157"/>
<defs>
<linearGradient id="paint0_linear_130_28816" x1="1042.51" y1="771.521" x2="1128.19" y2="771.521" gradientUnits="userSpaceOnUse">
<stop stop-color="white"/>
<stop offset="1" stop-color="white"/>
</linearGradient>
<linearGradient id="paint1_linear_130_28816" x1="814.158" y1="61.2961" x2="890.519" y2="61.2961" gradientUnits="userSpaceOnUse">
<stop stop-color="white"/>
<stop offset="1" stop-color="white"/>
</linearGradient>
<clipPath id="clip0_130_28816">
<rect width="185.198" height="146.84" fill="white" transform="translate(1651.62 1779.29) rotate(-8.69402)"/>
</clipPath>
</defs>
</svg>
