<svg width="3658" height="2973" viewBox="0 0 3658 2973" fill="none" xmlns="http://www.w3.org/2000/svg">
<path d="M1052.09 1231.38C1076.37 1223.26 1076.44 1074.34 1084.72 1015.48L912.418 1026.85C904.229 1027.39 906.228 1062.29 908.227 1097.19L908.263 1097.81C910.056 1129.11 915.402 1160.42 927.853 1189.2C936.686 1209.62 946.82 1230.91 953.355 1237.89L1052.09 1231.38Z" fill="#2464AD" stroke="#0D3461" stroke-width="6"/>
<path d="M744.669 1251.67C719.532 1246.82 699.893 1099.2 683.948 1041.93L856.246 1030.56C864.435 1030.02 867.041 1064.87 869.647 1099.73L869.693 1100.35C872.031 1131.62 870.847 1163.37 862.287 1193.53C856.214 1214.93 848.967 1237.37 843.407 1245.15L744.669 1251.67Z" fill="#2464AD" stroke="#0D3461" stroke-width="6"/>
<path d="M1229.63 1003.21C1248.13 1029.22 1266.91 1010.46 1265.22 992.261C1264.68 986.416 1246.13 961.67 1220.47 929.993L1133.71 962.761C1132.84 963.09 1132.57 964.019 1133.12 964.736C1139.53 973.122 1142.3 981.528 1143.17 988.469C1144.51 999.198 1140.33 1010.46 1142.64 1021.13C1150.31 1056.49 1182.36 1035.12 1186.22 1014.18C1179.6 1070.49 1244.42 1043.99 1229.63 1003.21Z" fill="#FFBD7D" stroke="#A55515" stroke-width="6"/>
<path d="M1190.02 836.546C1143.15 736.011 1024.43 688.431 954.928 674.629L970.612 754.111C1029.5 787.798 1102.77 907.664 1132.04 963.385C1163.15 960.337 1224.71 948.62 1222.03 926.133C1219.35 903.645 1199.57 857.038 1190.02 836.546Z" fill="#EE8530" stroke="#A55515" stroke-width="6"/>
<path d="M770.715 686.243L959.141 673.805C1007.38 670.62 1051.73 700.239 1067.28 746.011L1079.46 781.87C1097.3 834.377 1103.03 890.236 1096.24 945.273L1085.8 1029.95C1082.86 1053.76 1063.41 1072.13 1039.47 1073.71L734.354 1093.85C709.828 1095.47 687.763 1079.02 682.31 1055.06L663.952 974.369C651.647 920.288 651.727 864.125 664.185 810.079L673.698 768.807C684.281 722.896 723.703 689.347 770.715 686.243Z" fill="#BF661E" stroke="#393939" stroke-width="6"/>
<path d="M1031.84 1074.51L742.48 1093.61C722.133 1094.96 703.009 1083.81 694.152 1065.44L688.82 1054.38C643.286 959.95 640.191 850.579 680.314 753.723L705.752 692.317L817.647 761.357C850.351 781.536 892.218 778.936 922.175 754.867L1026.36 671.163L1055.93 724.312C1107.93 817.78 1116.7 929.25 1079.93 1029.7L1075.5 1041.81C1068.7 1060.38 1051.59 1073.21 1031.84 1074.51Z" fill="white" stroke="#393939" stroke-width="6"/>
<mask id="path-7-inside-1_152_10333" fill="white">
<path d="M660.703 982.698L676.688 1050.23C684.014 1081.18 706.577 1106.28 736.576 1116.86L746.002 1120.18C772.971 1129.69 801.208 1135.13 829.78 1136.31L853.701 1137.3C883.373 1138.53 913.089 1136.31 942.251 1130.7L952.048 1128.81C979.298 1123.56 1005.72 1114.68 1030.61 1102.4L1043.41 1096.09C1072.06 1081.96 1091.6 1054.27 1095.33 1022.54L1104.09 947.902C1109.5 901.849 1080.61 858.705 1035.96 846.172L720.56 866.993C674.76 885.474 649.327 934.638 660.703 982.698Z"/>
</mask>
<path d="M660.703 982.698L676.688 1050.23C684.014 1081.18 706.577 1106.28 736.576 1116.86L746.002 1120.18C772.971 1129.69 801.208 1135.13 829.78 1136.31L853.701 1137.3C883.373 1138.53 913.089 1136.31 942.251 1130.7L952.048 1128.81C979.298 1123.56 1005.72 1114.68 1030.61 1102.4L1043.41 1096.09C1072.06 1081.96 1091.6 1054.27 1095.33 1022.54L1104.09 947.902C1109.5 901.849 1080.61 858.705 1035.96 846.172L720.56 866.993C674.76 885.474 649.327 934.638 660.703 982.698Z" fill="#2464AD"/>
<path d="M676.688 1050.23L682.526 1048.84L676.688 1050.23ZM660.703 982.698L654.865 984.08L660.703 982.698ZM1104.09 947.902L1110.05 948.602L1110.05 948.602L1104.09 947.902ZM1095.33 1022.54L1089.37 1021.84L1089.37 1021.84L1095.33 1022.54ZM720.56 866.993L720.165 861.006L719.206 861.069L718.315 861.429L720.56 866.993ZM1035.96 846.172L1037.58 840.395L1036.59 840.117L1035.57 840.185L1035.96 846.172ZM1043.41 1096.09L1046.06 1101.47L1046.06 1101.47L1043.41 1096.09ZM1030.61 1102.4L1027.95 1097.02L1027.95 1097.02L1030.61 1102.4ZM952.048 1128.81L953.183 1134.7L953.183 1134.7L952.048 1128.81ZM942.251 1130.7L941.116 1124.8L941.116 1124.8L942.251 1130.7ZM853.701 1137.3L853.949 1131.31L853.949 1131.31L853.701 1137.3ZM829.78 1136.31L830.028 1130.32L830.028 1130.32L829.78 1136.31ZM746.002 1120.18L747.997 1114.53L747.997 1114.53L746.002 1120.18ZM736.576 1116.86L734.581 1122.52L734.581 1122.52L736.576 1116.86ZM682.526 1048.84L666.542 981.316L654.865 984.08L670.849 1051.61L682.526 1048.84ZM1098.13 947.202L1089.37 1021.84L1101.29 1023.24L1110.05 948.602L1098.13 947.202ZM720.955 872.98L1036.36 852.159L1035.57 840.185L720.165 861.006L720.955 872.98ZM1040.75 1090.71L1027.95 1097.02L1033.26 1107.78L1046.06 1101.47L1040.75 1090.71ZM950.913 1122.92L941.116 1124.8L943.386 1136.59L953.183 1134.7L950.913 1122.92ZM853.949 1131.31L830.028 1130.32L829.532 1142.31L853.452 1143.3L853.949 1131.31ZM747.997 1114.53L738.571 1111.2L734.581 1122.52L744.007 1125.84L747.997 1114.53ZM830.028 1130.32C802.051 1129.16 774.404 1123.84 747.997 1114.53L744.007 1125.84C771.539 1135.55 800.364 1141.1 829.532 1142.31L830.028 1130.32ZM1027.95 1097.02C1003.55 1109.06 977.636 1117.77 950.913 1122.92L953.183 1134.7C980.96 1129.35 1007.89 1120.3 1033.26 1107.78L1027.95 1097.02ZM1110.05 948.602C1115.8 899.617 1085.07 853.726 1037.58 840.395L1034.34 851.949C1076.14 863.683 1103.2 904.081 1098.13 947.202L1110.05 948.602ZM666.542 981.316C655.849 936.141 679.755 889.929 722.805 872.557L718.315 861.429C669.766 881.02 642.805 933.135 654.865 984.08L666.542 981.316ZM941.116 1124.8C912.409 1130.33 883.158 1132.52 853.949 1131.31L853.452 1143.3C883.589 1144.54 913.768 1142.29 943.386 1136.59L941.116 1124.8ZM670.849 1051.61C678.646 1084.55 702.657 1111.26 734.581 1122.52L738.571 1111.2C710.498 1101.3 689.383 1077.81 682.526 1048.84L670.849 1051.61ZM1089.37 1021.84C1085.88 1051.55 1067.58 1077.47 1040.75 1090.71L1046.06 1101.47C1076.54 1086.44 1097.32 1056.99 1101.29 1023.24L1089.37 1021.84Z" fill="#0D3461" mask="url(#path-7-inside-1_152_10333)"/>
<path d="M750.134 1285.01L738.257 1249.07C737.48 1246.72 739.132 1244.26 741.602 1244.1L846.798 1237.16C848.885 1237.02 850.687 1238.6 850.825 1240.69L855.079 1305.12C855.129 1305.88 854.968 1306.63 854.548 1307.26C833.868 1338.52 718.018 1349.94 716.418 1325.7C715.239 1307.84 735.088 1295.18 747.825 1289.88C749.735 1289.09 750.783 1286.97 750.134 1285.01Z" fill="#AE2A3C" stroke="#740C1A" stroke-width="6"/>
<path d="M1052.35 1265.05L1059.4 1227.86C1059.86 1225.43 1057.91 1223.22 1055.44 1223.38L950.239 1230.32C948.153 1230.46 946.573 1232.26 946.711 1234.35L950.965 1298.79C951.015 1299.55 951.272 1300.26 951.772 1300.84C976.382 1329.11 1092.73 1325.19 1091.13 1300.96C1089.95 1283.1 1068.61 1273.16 1055.28 1269.58C1053.29 1269.04 1051.97 1267.09 1052.35 1265.05Z" fill="#AE2A3C" stroke="#740C1A" stroke-width="6"/>
<rect x="723.75" y="717.214" width="58.4839" height="194.103" rx="29.2419" transform="rotate(-3.77681 723.75 717.214)" fill="#2464AD" stroke="#0D3461" stroke-width="6"/>
<rect x="948.947" y="702.348" width="58.4839" height="194.103" rx="29.2419" transform="rotate(-3.77681 948.947 702.348)" fill="#2464AD" stroke="#0D3461" stroke-width="6"/>
<path d="M938.579 987.48C950.778 965.515 957.094 936.815 956.291 906.857C956.227 904.456 954.133 902.537 951.582 902.705L878.707 907.516L805.831 912.326C803.281 912.495 801.457 914.673 801.709 917.061C804.851 946.865 814.885 974.486 829.865 994.657C837.777 1005.31 846.493 1010.5 855.71 1012.93C865.066 1015.41 875.089 1015.09 885.761 1014.38C896.434 1013.68 906.411 1012.68 915.361 1009C924.179 1005.37 932.137 999.08 938.579 987.48Z" fill="#18569C" stroke="#0D3461" stroke-width="6"/>
<ellipse cx="990.202" cy="869.219" rx="10.2582" ry="11.968" transform="rotate(-3.77681 990.202 869.219)" fill="#FEC400"/>
<ellipse cx="765.011" cy="884.085" rx="10.2582" ry="11.968" transform="rotate(-3.77681 765.011 884.085)" fill="#FEC400"/>
<path d="M725.198 1255.58L867.819 1246.17C868.493 1246.13 869.052 1245.63 869.181 1244.97L877.453 1202.72C877.644 1201.75 876.85 1200.86 875.864 1200.95L707.967 1215.62C706.942 1215.71 706.315 1216.79 706.745 1217.72L723.748 1254.72C724.006 1255.28 724.583 1255.63 725.198 1255.58Z" fill="#AE2A3C" stroke="#740C1A" stroke-width="6"/>
<path d="M931.556 1241.96L1074.18 1232.55C1074.85 1232.5 1075.41 1232.01 1075.54 1231.35L1083.81 1189.09C1084 1188.12 1083.21 1187.24 1082.22 1187.33L914.325 1202C913.299 1202.09 912.672 1203.17 913.102 1204.1L930.106 1241.1C930.363 1241.66 930.94 1242 931.556 1241.96Z" fill="#AE2A3C" stroke="#740C1A" stroke-width="6"/>
<path d="M643.353 488.429C500.308 461.839 502.01 419.488 520.741 401.636C685.484 397.76 1049.53 407.02 1198.58 471.391C1157.85 556.752 822.158 521.667 643.353 488.429Z" fill="#B98832" stroke="#A03D1A" stroke-width="6"/>
<path d="M545.348 485.22C587.542 373.7 667.699 361.39 709.299 376.098C723.668 381.179 728.994 396.965 727.692 412.15C717.255 533.891 694.956 727.608 579.384 721.21C492.189 716.383 481.533 653.888 545.348 485.22Z" fill="#C16C1E" stroke="#7A400B" stroke-width="6"/>
<path d="M575.797 477.794C606.18 396.841 668.814 396.973 703.324 410.934C717.375 416.618 722.844 432.003 720.907 447.037C708.684 541.902 665.1 699.228 580.027 694.447C514.615 690.77 527.983 605.192 575.797 477.794Z" fill="#945216" stroke="#7A400B" stroke-width="6"/>
<path d="M1155.24 462.214C1099.12 357.011 1018.05 355.06 978.672 374.972C965.071 381.849 961.808 398.187 965.043 413.081C990.975 532.485 1037.88 721.755 1151.68 700.619C1237.54 684.673 1240.12 621.328 1155.24 462.214Z" fill="#C16C1E" stroke="#7A400B" stroke-width="6"/>
<path d="M1124.09 458.746C1083.6 382.347 1021.49 390.493 989.055 408.756C975.847 416.191 972.392 432.15 976.237 446.812C1000.5 539.333 1063.86 689.787 1147.62 674.158C1212.02 662.141 1187.81 578.977 1124.09 458.746Z" fill="#945216" stroke="#7A400B" stroke-width="6"/>
<path d="M1072.24 519.895C1076.08 579.612 1061.38 634.598 1028.02 675.763C994.69 716.885 942.489 744.52 870.686 749.134C798.884 753.747 743.576 733.02 705.258 696.501C666.901 659.945 645.285 607.291 641.448 547.575C633.804 428.614 724.045 325.981 843.006 318.337C961.968 310.693 1064.6 400.934 1072.24 519.895Z" fill="#EE8530" stroke="#A55515" stroke-width="6"/>
<path d="M987.278 490.087C989.227 518.167 978.241 541.678 941.068 543.889C913.598 545.523 889.749 524.083 887.799 496.002C885.85 467.922 906.539 443.834 934.009 442.2C961.479 440.567 985.329 462.006 987.278 490.087Z" fill="white" stroke="#994D10" stroke-width="6"/>
<circle cx="936.43" cy="496.291" r="30.5" transform="rotate(-3.67636 936.43 496.291)" fill="#226A9E"/>
<circle cx="936.897" cy="495.76" r="21" transform="rotate(-3.67636 936.897 495.76)" fill="black"/>
<circle cx="951.14" cy="481.42" r="11.968" transform="rotate(-3.67636 951.14 481.42)" fill="white"/>
<path d="M717.063 506.156C719.012 534.237 733.159 556.253 770.332 554.042C797.802 552.409 818.491 528.321 816.542 500.24C814.592 472.16 790.743 450.72 763.272 452.354C735.802 453.987 715.113 478.075 717.063 506.156Z" fill="white" stroke="#994D10" stroke-width="6"/>
<circle cx="770.713" cy="505.937" r="30.5" transform="rotate(-3.67636 770.713 505.937)" fill="#226A9E"/>
<circle cx="771.18" cy="505.406" r="21" transform="rotate(-3.67636 771.18 505.406)" fill="black"/>
<circle cx="785.424" cy="491.066" r="11.968" transform="rotate(-3.67636 785.424 491.066)" fill="white"/>
<path d="M728.114 636.379C795.005 533.103 928.074 524.553 1007.63 618.42C1013.35 625.17 1017.9 636.914 1020.87 650.079C1027.2 678.07 1008.82 703.552 982.342 717.415C915.31 752.516 836.749 758.342 765.273 733.512L763.304 732.828C732.051 721.97 709.757 695.604 717.237 664.807C720.039 653.274 723.846 642.969 728.114 636.379Z" fill="#FFBD7D" stroke="#C38344" stroke-width="6"/>
<path d="M808.894 624.593C807.687 605.814 848.867 602.624 866.531 601.489C884.195 600.354 925.445 598.257 926.651 617.036C927.513 630.44 908.007 639.399 889.667 644.405C878.678 648.039 858.952 647.781 850.462 647.198C831.266 644.702 809.776 638.326 808.894 624.593Z" fill="#1B1B1B" stroke="#1B1B1B" stroke-width="6"/>
<path d="M869.16 642.405L871.148 673.341" stroke="#1B1B1B" stroke-width="6"/>
<path d="M955.932 661.404C956.808 675.035 948.711 688.681 933.422 699.342C918.134 710.002 896.906 716.803 874.409 718.248C851.912 719.694 829.989 715.666 813.461 707.049C796.934 698.433 787.158 685.935 786.282 672.305V672.305C843.042 673.658 899.812 670.011 955.932 661.404V661.404Z" fill="#DE482D"/>
<path d="M929.171 697.194C929.791 706.839 898.331 716.712 874.907 718.217C851.483 719.722 818.021 714.021 817.401 704.376C816.782 694.731 849.239 684.794 872.663 683.289C896.087 681.784 928.551 687.549 929.171 697.194Z" fill="#FF7259"/>
<path d="M955.932 661.404C956.808 675.035 948.711 688.681 933.422 699.342C918.134 710.002 896.906 716.803 874.409 718.248C851.912 719.694 829.989 715.666 813.461 707.049C796.934 698.433 787.158 685.935 786.282 672.305L871.363 670.846L955.932 661.404Z" stroke="#761D0E" stroke-width="6"/>
<path d="M720.71 444.089C753.875 430.972 774.723 419.561 781.002 415.495C787.28 411.43 790.649 402.79 753.895 400.757C707.953 398.216 679.255 460.486 720.71 444.089Z" fill="#964F0D" stroke="#7C4009" stroke-width="6"/>
<path d="M980.5 430.901C945.93 422.135 923.793 413.487 917.045 410.258C910.298 407.029 905.851 398.892 942.043 392.172C987.282 383.772 1023.71 441.857 980.5 430.901Z" fill="#964F0D" stroke="#7C4009" stroke-width="6"/>
<path opacity="0.12" d="M510.975 422.391C507.777 419.018 515.554 404.703 519.842 397.967C569.098 399.152 620.001 400.976 670.766 403.321L700.935 385.586L728.35 406.207C969.779 419.253 1192.5 443.245 1200.29 465.317C1201.55 468.911 1196.78 476.476 1193.07 480.69C913.865 483.721 514.174 425.763 510.975 422.391Z" fill="black" fill-opacity="0.44"/>
<path d="M757.971 204.48C724.746 206.615 697.78 326.642 688.449 386.389L1025.23 418.421C1049.5 266.802 963.706 144.162 885.353 188.628C822.67 224.201 774.314 214.018 757.971 204.48Z" fill="#FDA100" stroke="#A03D1A" stroke-width="6"/>
<path d="M852.762 298.482C997.337 301.896 1144.43 409.945 1200.07 471.472C1109.94 432.547 883.69 416.315 727.153 408.678L700.672 390.998L666.877 410.315C587.369 407.688 571.786 401.408 519.532 402.637C595.082 325.475 666.118 294.075 852.762 298.482Z" fill="#FDA100" stroke="#A03D1A" stroke-width="6"/>
<path d="M1022.44 304.94C973.848 256.716 797.917 260.16 717.192 269.036L708.637 306.104C850.686 283.698 981.612 321.95 1027.03 342.27L1022.44 304.94Z" fill="#A03D1A" stroke="#A03D1A" stroke-width="6"/>
<rect x="688.877" y="1025.78" width="46.4781" height="46.1224" rx="10.4147" transform="rotate(-23.3737 688.877 1025.78)" fill="#AC3636"/>
<rect width="46.4781" height="46.1224" rx="10.4147" transform="matrix(-0.917937 -0.396726 -0.396726 0.917937 1037.71 1140.34)" fill="#DCB736"/>
<rect x="697.041" y="1011.3" width="2.97564" height="17.8538" rx="1.48782" transform="rotate(-21.6244 697.041 1011.3)" fill="#0D3461"/>
<rect width="2.97564" height="17.8538" rx="1.48782" transform="matrix(-0.92962 -0.36852 -0.36852 0.92962 1029.55 1125.86)" fill="#0D3461"/>
<rect x="711.92" y="1005.35" width="2.97564" height="17.8538" rx="1.48782" transform="rotate(-21.6244 711.92 1005.35)" fill="#0D3461"/>
<rect width="2.97564" height="17.8538" rx="1.48782" transform="matrix(-0.92962 -0.36852 -0.36852 0.92962 1014.67 1119.91)" fill="#0D3461"/>
<rect x="716.383" y="1054.45" width="2.97564" height="17.8538" rx="1.48782" transform="rotate(-21.6244 716.383 1054.45)" fill="#0D3461"/>
<rect width="2.97564" height="17.8538" rx="1.48782" transform="matrix(-0.92962 -0.36852 -0.36852 0.92962 1010.21 1169.01)" fill="#0D3461"/>
<rect x="731.262" y="1049.98" width="2.97564" height="17.8538" rx="1.48782" transform="rotate(-21.6244 731.262 1049.98)" fill="#0D3461"/>
<rect width="2.97564" height="17.8538" rx="1.48782" transform="matrix(-0.92962 -0.36852 -0.36852 0.92962 995.33 1164.54)" fill="#0D3461"/>
<path d="M519.617 515.174C514.523 480.722 543.487 481.301 555.907 496.904C559.896 501.916 568.36 532.269 561.476 571.058L479.074 616.93C478.103 617.471 477.065 616.957 476.933 615.908C475.439 604.06 469.965 595.637 464.177 590.045C455.788 581.943 443.824 576.938 437.586 566.792C416.902 533.154 458.287 525.771 477.151 539.333C429.396 500.006 500.443 471.892 519.617 515.174Z" fill="#FFBD7D" stroke="#A55515" stroke-width="6"/>
<path d="M478.283 621.756C484.871 643.423 512.529 685.83 525.535 704.325C559.57 752.723 612.583 785.858 663.996 803.501C668.496 788.162 686.83 735.464 697.997 710.501C645.155 668.645 587.983 604.882 560.323 569.271C530.232 577.738 471.696 600.089 478.283 621.756Z" fill="#EE8530" stroke="#A55515" stroke-width="6"/>
<path d="M1931.47 1237.38C1955.75 1229.27 1955.81 1080.35 1964.09 1021.48L1791.79 1032.85C1783.6 1033.39 1785.6 1068.29 1787.6 1103.19L1787.64 1103.81C1789.43 1135.11 1794.78 1166.43 1807.23 1195.21C1816.06 1215.62 1826.19 1236.91 1832.73 1243.9L1931.47 1237.38Z" fill="#2464AD" stroke="#0D3461" stroke-width="6"/>
<path d="M1624.04 1257.67C1598.9 1252.82 1579.26 1105.2 1563.32 1047.94L1735.62 1036.56C1743.81 1036.02 1746.41 1070.88 1749.02 1105.74L1749.06 1106.36C1751.4 1137.62 1750.22 1169.37 1741.66 1199.53C1735.59 1220.93 1728.34 1243.37 1722.78 1251.16L1624.04 1257.67Z" fill="#2464AD" stroke="#0D3461" stroke-width="6"/>
<path d="M2109.01 1009.21C2127.5 1035.23 2146.28 1016.46 2144.6 998.265C2144.05 992.421 2125.51 967.674 2099.85 935.998L2013.08 968.765C2012.21 969.094 2011.95 970.024 2012.5 970.741C2018.9 979.126 2021.68 987.533 2022.54 994.474C2023.88 1005.2 2019.7 1016.46 2022.01 1027.13C2029.68 1062.5 2061.73 1041.12 2065.6 1020.18C2058.97 1076.49 2123.79 1050 2109.01 1009.21Z" fill="#FFBD7D" stroke="#A55515" stroke-width="6"/>
<path d="M2069.39 842.55C2022.52 742.016 1903.8 694.435 1834.3 680.634L1849.99 760.115C1908.87 793.803 1982.14 913.668 2011.41 969.39C2042.53 966.342 2104.08 954.624 2101.4 932.137C2098.72 909.65 2078.95 863.043 2069.39 842.55Z" fill="#EE8530" stroke="#A55515" stroke-width="6"/>
<path d="M1388.75 1024.67C1370.25 1050.69 1351.47 1031.93 1353.16 1013.73C1353.7 1007.88 1372.25 983.136 1397.91 951.46L1484.67 984.227C1485.54 984.556 1485.81 985.485 1485.26 986.203C1478.85 994.588 1476.08 1002.99 1475.21 1009.94C1473.88 1020.66 1478.05 1031.93 1475.74 1042.59C1468.07 1077.96 1436.02 1056.58 1432.16 1035.64C1438.78 1091.95 1373.96 1065.46 1388.75 1024.67Z" fill="#FFBD7D" stroke="#A55515" stroke-width="6"/>
<path d="M1428.36 858.012C1475.23 757.477 1593.95 709.897 1663.45 696.095L1647.77 775.577C1588.88 809.265 1515.61 929.13 1486.34 984.852C1455.23 981.804 1393.68 970.086 1396.35 947.599C1399.03 925.112 1418.81 878.505 1428.36 858.012Z" fill="#EE8530" stroke="#A55515" stroke-width="6"/>
<path d="M1658.19 692.403L1838.31 680.042C1886.64 676.726 1931.15 706.36 1946.73 752.23L1958.83 787.874C1976.67 840.382 1982.4 896.241 1975.61 951.277L1965.17 1035.95C1962.23 1059.77 1942.78 1078.14 1918.84 1079.72L1613.73 1099.86C1589.2 1101.48 1567.13 1085.03 1561.68 1061.06L1546.02 992.224C1532.01 930.644 1534.08 866.494 1552.04 805.948L1563.13 768.568C1575.81 725.823 1613.71 695.455 1658.19 692.403Z" fill="#BF661E" stroke="#393939" stroke-width="6"/>
<path d="M1911.22 1080.51L1621.85 1099.62C1601.5 1100.96 1582.38 1089.81 1573.52 1071.44L1568.19 1060.39C1522.66 965.954 1519.56 856.583 1559.69 759.727L1585.12 698.321L1697.02 767.361C1729.72 787.539 1771.59 784.94 1801.55 760.871L1905.73 677.166L1935.3 730.316C1987.3 823.784 1996.07 935.254 1959.31 1035.7L1954.87 1047.81C1948.07 1066.39 1930.96 1079.21 1911.22 1080.51Z" fill="white" stroke="#393939" stroke-width="6"/>
<mask id="path-64-inside-2_152_10333" fill="white">
<path d="M1540.08 988.703L1556.06 1056.23C1563.39 1087.18 1585.95 1112.29 1615.95 1122.87L1625.37 1126.19C1652.34 1135.7 1680.58 1141.13 1709.15 1142.32L1733.07 1143.31C1762.75 1144.53 1792.46 1142.32 1821.62 1136.7L1831.42 1134.81C1858.67 1129.57 1885.09 1120.68 1909.98 1108.41L1922.78 1102.09C1951.43 1087.96 1970.97 1060.28 1974.7 1028.55L1983.46 953.907C1988.87 907.854 1959.98 864.709 1915.33 852.177L1599.93 872.998C1554.13 891.479 1528.7 940.643 1540.08 988.703Z"/>
</mask>
<path d="M1540.08 988.703L1556.06 1056.23C1563.39 1087.18 1585.95 1112.29 1615.95 1122.87L1625.37 1126.19C1652.34 1135.7 1680.58 1141.13 1709.15 1142.32L1733.07 1143.31C1762.75 1144.53 1792.46 1142.32 1821.62 1136.7L1831.42 1134.81C1858.67 1129.57 1885.09 1120.68 1909.98 1108.41L1922.78 1102.09C1951.43 1087.96 1970.97 1060.28 1974.7 1028.55L1983.46 953.907C1988.87 907.854 1959.98 864.709 1915.33 852.177L1599.93 872.998C1554.13 891.479 1528.7 940.643 1540.08 988.703Z" fill="#2464AD"/>
<path d="M1556.06 1056.23L1561.9 1054.85L1556.06 1056.23ZM1540.08 988.703L1534.24 990.085L1534.24 990.085L1540.08 988.703ZM1983.46 953.907L1989.42 954.607L1989.42 954.607L1983.46 953.907ZM1974.7 1028.55L1968.74 1027.85L1968.74 1027.85L1974.7 1028.55ZM1599.93 872.998L1599.54 867.011L1598.58 867.074L1597.69 867.434L1599.93 872.998ZM1915.33 852.177L1916.96 846.4L1915.97 846.122L1914.94 846.19L1915.33 852.177ZM1922.78 1102.09L1925.43 1107.48L1925.43 1107.48L1922.78 1102.09ZM1909.98 1108.41L1907.33 1103.03L1907.33 1103.03L1909.98 1108.41ZM1831.42 1134.81L1832.56 1140.71L1832.56 1140.71L1831.42 1134.81ZM1821.62 1136.7L1820.49 1130.81L1820.49 1130.81L1821.62 1136.7ZM1733.07 1143.31L1733.32 1137.31L1733.32 1137.31L1733.07 1143.31ZM1709.15 1142.32L1709.4 1136.32L1709.4 1136.32L1709.15 1142.32ZM1625.37 1126.19L1627.37 1120.53L1627.37 1120.53L1625.37 1126.19ZM1615.95 1122.87L1613.95 1128.52L1613.95 1128.52L1615.95 1122.87ZM1561.9 1054.85L1545.91 987.321L1534.24 990.085L1550.22 1057.61L1561.9 1054.85ZM1977.51 953.207L1968.74 1027.85L1980.66 1029.25L1989.42 954.607L1977.51 953.207ZM1600.33 878.985L1915.73 858.164L1914.94 846.19L1599.54 867.011L1600.33 878.985ZM1920.12 1096.71L1907.33 1103.03L1912.63 1113.79L1925.43 1107.48L1920.12 1096.71ZM1830.29 1128.92L1820.49 1130.81L1822.76 1142.59L1832.56 1140.71L1830.29 1128.92ZM1733.32 1137.31L1709.4 1136.32L1708.9 1148.31L1732.83 1149.3L1733.32 1137.31ZM1627.37 1120.53L1617.94 1117.21L1613.95 1128.52L1623.38 1131.85L1627.37 1120.53ZM1709.4 1136.32C1681.42 1135.16 1653.78 1129.84 1627.37 1120.53L1623.38 1131.85C1650.91 1141.56 1679.74 1147.1 1708.9 1148.31L1709.4 1136.32ZM1907.33 1103.03C1882.92 1115.07 1857.01 1123.78 1830.29 1128.92L1832.56 1140.71C1860.33 1135.36 1887.27 1126.3 1912.63 1113.79L1907.33 1103.03ZM1989.42 954.607C1995.18 905.622 1964.44 859.731 1916.96 846.4L1913.71 857.954C1955.51 869.688 1982.57 910.086 1977.51 953.207L1989.42 954.607ZM1545.91 987.321C1535.22 942.146 1559.13 895.934 1602.18 878.562L1597.69 867.434C1549.14 887.025 1522.18 939.14 1534.24 990.085L1545.91 987.321ZM1820.49 1130.81C1791.78 1136.34 1762.53 1138.52 1733.32 1137.31L1732.83 1149.3C1762.96 1150.55 1793.14 1148.3 1822.76 1142.59L1820.49 1130.81ZM1550.22 1057.61C1558.02 1090.55 1582.03 1117.27 1613.95 1128.52L1617.94 1117.21C1589.87 1107.31 1568.76 1083.82 1561.9 1054.85L1550.22 1057.61ZM1968.74 1027.85C1965.25 1057.56 1946.95 1083.48 1920.12 1096.71L1925.43 1107.48C1955.91 1092.44 1976.7 1063 1980.66 1029.25L1968.74 1027.85Z" fill="#0D3461" mask="url(#path-64-inside-2_152_10333)"/>
<path d="M1629.5 1291.01L1617.63 1255.07C1616.85 1252.72 1618.5 1250.27 1620.97 1250.11L1726.17 1243.16C1728.26 1243.02 1730.06 1244.6 1730.2 1246.69L1734.45 1311.13C1734.5 1311.89 1734.34 1312.63 1733.92 1313.27C1713.24 1344.53 1597.39 1355.94 1595.79 1331.7C1594.61 1313.84 1614.46 1301.18 1627.2 1295.89C1629.11 1295.09 1630.15 1292.98 1629.5 1291.01Z" fill="#AE2A3C" stroke="#740C1A" stroke-width="6"/>
<path d="M1931.73 1271.06L1938.78 1233.87C1939.24 1231.43 1937.28 1229.22 1934.81 1229.38L1829.61 1236.33C1827.53 1236.47 1825.95 1238.27 1826.08 1240.35L1830.34 1304.79C1830.39 1305.55 1830.65 1306.27 1831.15 1306.84C1855.76 1335.11 1972.1 1331.2 1970.5 1306.96C1969.32 1289.1 1947.98 1279.16 1934.66 1275.59C1932.66 1275.05 1931.34 1273.09 1931.73 1271.06Z" fill="#AE2A3C" stroke="#740C1A" stroke-width="6"/>
<rect x="1603.12" y="723.218" width="58.4839" height="194.103" rx="29.2419" transform="rotate(-3.77681 1603.12 723.218)" fill="#2464AD" stroke="#0D3461" stroke-width="6"/>
<rect x="1828.32" y="708.352" width="58.4839" height="194.103" rx="29.2419" transform="rotate(-3.77681 1828.32 708.352)" fill="#2464AD" stroke="#0D3461" stroke-width="6"/>
<path d="M1817.95 993.484C1830.15 971.519 1836.47 942.819 1835.66 912.861C1835.6 910.46 1833.51 908.54 1830.95 908.709L1758.08 913.52L1685.2 918.33C1682.65 918.499 1680.83 920.677 1681.08 923.065C1684.22 952.869 1694.26 980.49 1709.24 1000.66C1717.15 1011.31 1725.87 1016.5 1735.08 1018.94C1744.44 1021.41 1754.46 1021.09 1765.13 1020.39C1775.81 1019.68 1785.78 1018.68 1794.73 1015C1803.55 1011.38 1811.51 1005.08 1817.95 993.484Z" fill="#18569C" stroke="#0D3461" stroke-width="6"/>
<ellipse cx="1869.57" cy="875.223" rx="10.2582" ry="11.968" transform="rotate(-3.77681 1869.57 875.223)" fill="#FEC400"/>
<ellipse cx="1644.38" cy="890.089" rx="10.2582" ry="11.968" transform="rotate(-3.77681 1644.38 890.089)" fill="#FEC400"/>
<path d="M1604.57 1261.59L1747.19 1252.17C1747.87 1252.13 1748.42 1251.64 1748.55 1250.98L1756.83 1208.72C1757.02 1207.75 1756.22 1206.87 1755.24 1206.95L1587.34 1221.63C1586.31 1221.72 1585.69 1222.79 1586.12 1223.73L1603.12 1260.73C1603.38 1261.29 1603.96 1261.63 1604.57 1261.59Z" fill="#AE2A3C" stroke="#740C1A" stroke-width="6"/>
<path d="M1810.93 1247.97L1953.55 1238.55C1954.22 1238.51 1954.78 1238.02 1954.91 1237.35L1963.18 1195.1C1963.37 1194.13 1962.58 1193.25 1961.59 1193.33L1793.7 1208C1792.67 1208.09 1792.05 1209.17 1792.48 1210.11L1809.48 1247.1C1809.74 1247.66 1810.31 1248.01 1810.93 1247.97Z" fill="#AE2A3C" stroke="#740C1A" stroke-width="6"/>
<path d="M1522.73 494.433C1379.68 467.843 1381.38 425.492 1400.12 407.64C1564.86 403.764 1928.9 413.024 2077.95 477.395C2037.22 562.756 1701.53 527.671 1522.73 494.433Z" fill="#B98832" stroke="#A03D1A" stroke-width="6"/>
<path d="M1424.72 491.224C1466.92 379.704 1547.07 367.394 1588.67 382.102C1603.04 387.183 1608.37 402.969 1607.07 418.154C1596.63 539.895 1574.33 733.612 1458.76 727.214C1371.56 722.387 1360.91 659.892 1424.72 491.224Z" fill="#C16C1E" stroke="#7A400B" stroke-width="6"/>
<path d="M1455.17 483.798C1485.56 402.845 1548.19 402.977 1582.7 416.938C1596.75 422.622 1602.22 438.007 1600.28 453.041C1588.06 547.906 1544.48 705.232 1459.4 700.451C1393.99 696.774 1407.36 611.196 1455.17 483.798Z" fill="#945216" stroke="#7A400B" stroke-width="6"/>
<path d="M2034.61 468.218C1978.5 363.015 1897.42 361.064 1858.05 380.976C1844.45 387.853 1841.18 404.191 1844.42 419.085C1870.35 538.489 1917.26 727.759 2031.06 706.623C2116.92 690.677 2119.49 627.332 2034.61 468.218Z" fill="#C16C1E" stroke="#7A400B" stroke-width="6"/>
<path d="M2003.46 464.75C1962.97 388.351 1900.87 396.497 1868.43 414.759C1855.22 422.195 1851.77 438.154 1855.61 452.816C1879.88 545.337 1943.23 695.791 2027 680.162C2091.4 668.145 2067.19 584.981 2003.46 464.75Z" fill="#945216" stroke="#7A400B" stroke-width="6"/>
<path d="M1951.62 525.899C1955.46 585.615 1940.76 640.602 1907.39 681.766C1874.06 722.889 1821.86 750.524 1750.06 755.138C1678.26 759.751 1622.95 739.024 1584.63 702.505C1546.28 665.949 1524.66 613.295 1520.82 553.579C1513.18 434.618 1603.42 331.985 1722.38 324.341C1841.34 316.697 1943.98 406.938 1951.62 525.899Z" fill="#EE8530" stroke="#A55515" stroke-width="6"/>
<path d="M1866.65 496.091C1868.6 524.17 1857.62 547.679 1820.44 549.89C1792.97 551.523 1769.12 530.085 1767.17 502.006C1765.22 473.928 1785.91 449.841 1813.38 448.208C1840.85 446.574 1864.7 468.012 1866.65 496.091Z" fill="white" stroke="#994D10" stroke-width="6"/>
<circle cx="1815.81" cy="502.295" r="30.5" transform="rotate(-3.67636 1815.81 502.295)" fill="#226A9E"/>
<circle cx="1816.27" cy="501.764" r="21" transform="rotate(-3.67636 1816.27 501.764)" fill="black"/>
<circle cx="1830.52" cy="487.423" r="11.968" transform="rotate(-3.67636 1830.52 487.423)" fill="white"/>
<path d="M1596.44 512.159C1598.39 540.238 1612.53 562.253 1649.71 560.042C1677.18 558.409 1697.87 534.322 1695.92 506.244C1693.97 478.165 1670.12 456.727 1642.65 458.36C1615.18 459.994 1594.49 484.08 1596.44 512.159Z" fill="white" stroke="#994D10" stroke-width="6"/>
<circle cx="1650.09" cy="511.941" r="30.5" transform="rotate(-3.67636 1650.09 511.941)" fill="#226A9E"/>
<circle cx="1650.56" cy="511.41" r="21" transform="rotate(-3.67636 1650.56 511.41)" fill="black"/>
<circle cx="1664.8" cy="497.069" r="11.968" transform="rotate(-3.67636 1664.8 497.069)" fill="white"/>
<path d="M1607.49 642.383C1674.38 539.107 1807.45 530.557 1887.01 624.424C1892.73 631.174 1897.27 642.918 1900.25 656.083C1906.58 684.074 1888.19 709.556 1861.72 723.419C1794.69 758.52 1716.12 764.346 1644.65 739.516L1642.68 738.831C1611.43 727.974 1589.13 701.608 1596.61 670.811C1599.41 659.278 1603.22 648.973 1607.49 642.383Z" fill="#FFBD7D" stroke="#C38344" stroke-width="6"/>
<path d="M1688.27 630.597C1687.06 611.818 1728.24 608.628 1745.91 607.493C1763.57 606.358 1804.82 604.261 1806.03 623.039C1806.89 636.443 1787.38 645.403 1769.04 650.409C1758.05 654.043 1738.33 653.785 1729.84 653.202C1710.64 650.705 1689.15 644.33 1688.27 630.597Z" fill="#1B1B1B" stroke="#1B1B1B" stroke-width="6"/>
<path d="M1748.54 648.409L1750.52 679.345" stroke="#1B1B1B" stroke-width="6"/>
<path d="M1600.09 460.093C1633.25 446.976 1654.1 435.565 1660.38 431.499C1666.66 427.434 1670.02 418.794 1633.27 416.761C1587.33 414.22 1558.63 476.49 1600.09 460.093Z" fill="#964F0D" stroke="#7C4009" stroke-width="6"/>
<path d="M1859.88 446.904C1825.3 438.139 1803.17 429.49 1796.42 426.262C1789.67 423.033 1785.23 414.896 1821.42 408.176C1866.66 399.776 1903.09 457.861 1859.88 446.904Z" fill="#964F0D" stroke="#7C4009" stroke-width="6"/>
<path opacity="0.12" d="M1390.35 428.395C1387.15 425.022 1394.93 410.707 1399.22 403.971C1448.47 405.156 1499.38 406.98 1550.14 409.325L1580.31 391.59L1607.73 412.211C1849.15 425.257 2071.88 449.248 2079.66 471.321C2080.93 474.915 2076.15 482.48 2072.45 486.694C1793.24 489.725 1393.55 431.767 1390.35 428.395Z" fill="black" fill-opacity="0.44"/>
<path d="M1637.35 210.484C1604.12 212.619 1577.15 332.646 1567.82 392.393L1904.6 424.425C1928.88 272.806 1843.08 150.166 1764.73 194.632C1702.05 230.205 1653.69 220.022 1637.35 210.484Z" fill="#FDA100" stroke="#A03D1A" stroke-width="6"/>
<path d="M1732.14 304.486C1876.71 307.9 2023.81 415.949 2079.45 477.476C1989.31 438.551 1763.06 422.319 1606.53 414.682L1580.05 397.002L1546.25 416.319C1466.74 413.692 1451.16 407.412 1398.91 408.641C1474.46 331.479 1545.49 300.079 1732.14 304.486Z" fill="#FDA100" stroke="#A03D1A" stroke-width="6"/>
<path d="M1901.82 310.944C1853.22 262.72 1677.29 266.164 1596.57 275.04L1588.01 312.108C1730.06 289.702 1860.99 327.954 1906.4 348.274L1901.82 310.944Z" fill="#A03D1A" stroke="#A03D1A" stroke-width="6"/>
<path d="M1834.93 667.408C1835.81 681.039 1827.71 694.685 1812.42 705.346C1797.14 716.006 1775.91 722.807 1753.41 724.252C1730.91 725.698 1708.99 721.669 1692.46 713.053C1675.94 704.437 1666.16 691.939 1665.28 678.309V678.309C1722.04 679.662 1778.81 676.015 1834.93 667.408V667.408Z" fill="#DE482D"/>
<path d="M1808.17 703.198C1808.79 712.843 1777.33 722.716 1753.91 724.221C1730.49 725.726 1697.02 720.025 1696.4 710.38C1695.78 700.734 1728.24 690.798 1751.66 689.293C1775.09 687.788 1807.55 693.553 1808.17 703.198Z" fill="#FF7259"/>
<path d="M1834.93 667.408C1835.81 681.039 1827.71 694.685 1812.42 705.346C1797.14 716.006 1775.91 722.807 1753.41 724.252C1730.91 725.698 1708.99 721.669 1692.46 713.053C1675.94 704.437 1666.16 691.939 1665.28 678.309L1750.37 676.85L1834.93 667.408Z" stroke="#761D0E" stroke-width="6"/>
<rect x="1568.25" y="1031.78" width="46.4781" height="46.1224" rx="10.4147" transform="rotate(-23.3737 1568.25 1031.78)" fill="#AC3636"/>
<rect width="46.4781" height="46.1224" rx="10.4147" transform="matrix(-0.917937 -0.396726 -0.396726 0.917937 1917.09 1146.34)" fill="#DCB736"/>
<rect x="1576.41" y="1017.3" width="2.97564" height="17.8538" rx="1.48782" transform="rotate(-21.6244 1576.41 1017.3)" fill="#0D3461"/>
<rect width="2.97564" height="17.8538" rx="1.48782" transform="matrix(-0.92962 -0.36852 -0.36852 0.92962 1908.93 1131.86)" fill="#0D3461"/>
<rect x="1591.29" y="1011.35" width="2.97564" height="17.8538" rx="1.48782" transform="rotate(-21.6244 1591.29 1011.35)" fill="#0D3461"/>
<rect width="2.97564" height="17.8538" rx="1.48782" transform="matrix(-0.92962 -0.36852 -0.36852 0.92962 1894.05 1125.91)" fill="#0D3461"/>
<rect x="1595.76" y="1060.45" width="2.97564" height="17.8538" rx="1.48782" transform="rotate(-21.6244 1595.76 1060.45)" fill="#0D3461"/>
<rect width="2.97564" height="17.8538" rx="1.48782" transform="matrix(-0.92962 -0.36852 -0.36852 0.92962 1889.58 1175.01)" fill="#0D3461"/>
<rect x="1610.63" y="1055.99" width="2.97564" height="17.8538" rx="1.48782" transform="rotate(-21.6244 1610.63 1055.99)" fill="#0D3461"/>
<rect width="2.97564" height="17.8538" rx="1.48782" transform="matrix(-0.92962 -0.36852 -0.36852 0.92962 1874.7 1170.55)" fill="#0D3461"/>
<path d="M2926.47 1205.38C2950.75 1197.26 2950.81 1048.34 2959.09 989.475L2786.79 1000.85C2778.6 1001.39 2780.6 1036.29 2782.6 1071.19L2782.64 1071.81C2784.43 1103.11 2789.78 1134.42 2802.23 1163.2C2811.06 1183.62 2821.19 1204.91 2827.73 1211.89L2926.47 1205.38Z" fill="#2464AD" stroke="#0D3461" stroke-width="6"/>
<path d="M2619.04 1225.67C2593.9 1220.82 2574.26 1073.2 2558.32 1015.93L2730.62 1004.56C2738.81 1004.02 2741.41 1038.88 2744.02 1073.73L2744.06 1074.35C2746.4 1105.62 2745.22 1137.37 2736.66 1167.53C2730.59 1188.93 2723.34 1211.37 2717.78 1219.15L2619.04 1225.67Z" fill="#2464AD" stroke="#0D3461" stroke-width="6"/>
<path d="M3104.01 977.208C3122.5 1003.22 3141.28 984.46 3139.6 966.261C3139.05 960.417 3120.51 935.67 3094.85 903.994L3008.08 936.761C3007.21 937.09 3006.95 938.02 3007.5 938.737C3013.9 947.122 3016.68 955.529 3017.54 962.47C3018.88 973.199 3014.7 984.46 3017.01 995.127C3024.68 1030.49 3056.73 1009.12 3060.6 988.179C3053.97 1044.49 3118.79 1017.99 3104.01 977.208Z" fill="#FFBD7D" stroke="#A55515" stroke-width="6"/>
<path d="M3064.39 810.546C3017.52 710.012 2898.8 662.431 2829.3 648.63L2844.99 728.111C2903.87 761.799 2977.14 881.664 3006.41 937.386C3037.53 934.338 3099.08 922.621 3096.4 900.133C3093.72 877.646 3073.95 831.039 3064.39 810.546Z" fill="#EE8530" stroke="#A55515" stroke-width="6"/>
<path d="M2383.75 992.67C2365.25 1018.68 2346.47 999.922 2348.16 981.723C2348.7 975.879 2367.25 951.132 2392.91 919.456L2479.67 952.223C2480.54 952.552 2480.81 953.482 2480.26 954.199C2473.85 962.584 2471.08 970.991 2470.21 977.932C2468.88 988.661 2473.05 999.922 2470.74 1010.59C2463.07 1045.96 2431.02 1024.58 2427.16 1003.64C2433.78 1059.95 2368.96 1033.46 2383.75 992.67Z" fill="#FFBD7D" stroke="#A55515" stroke-width="6"/>
<path d="M2423.36 826.008C2470.23 725.474 2588.95 677.893 2658.45 664.092L2642.77 743.573C2583.88 777.261 2510.61 897.126 2481.34 952.848C2450.23 949.8 2388.68 938.082 2391.35 915.595C2394.03 893.108 2413.81 846.501 2423.36 826.008Z" fill="#EE8530" stroke="#A55515" stroke-width="6"/>
<path d="M2653.19 660.399L2833.31 648.039C2881.64 644.722 2926.15 674.356 2941.73 720.226L2953.83 755.87C2971.67 808.378 2977.4 864.237 2970.61 919.273L2960.17 1003.95C2957.23 1027.76 2937.78 1046.13 2913.84 1047.71L2608.73 1067.85C2584.2 1069.47 2562.13 1053.02 2556.68 1029.06L2541.02 960.22C2527.01 898.64 2529.08 834.49 2547.04 773.944L2558.13 736.564C2570.81 693.819 2608.71 663.451 2653.19 660.399Z" fill="#BF661E" stroke="#393939" stroke-width="6"/>
<path d="M2906.22 1048.51L2616.85 1067.61C2596.5 1068.96 2577.38 1057.81 2568.52 1039.44L2563.19 1028.38C2517.66 933.95 2514.56 824.579 2554.69 727.723L2580.12 666.317L2692.02 735.357C2724.72 755.536 2766.59 752.936 2796.55 728.867L2900.73 645.163L2930.3 698.312C2982.3 791.78 2991.07 903.25 2954.31 1003.7L2949.87 1015.81C2943.07 1034.38 2925.96 1047.21 2906.22 1048.51Z" fill="white" stroke="#393939" stroke-width="6"/>
<mask id="path-119-inside-3_152_10333" fill="white">
<path d="M2535.08 956.699L2551.06 1024.23C2558.39 1055.18 2580.95 1080.28 2610.95 1090.86L2620.37 1094.19C2647.34 1103.69 2675.58 1109.13 2704.15 1110.31L2728.07 1111.3C2757.75 1112.53 2787.46 1110.31 2816.62 1104.7L2826.42 1102.81C2853.67 1097.56 2880.09 1088.68 2904.98 1076.4L2917.78 1070.09C2946.43 1055.96 2965.97 1028.27 2969.7 996.542L2978.46 921.903C2983.87 875.85 2954.98 832.706 2910.33 820.173L2594.93 840.994C2549.13 859.475 2523.7 908.639 2535.08 956.699Z"/>
</mask>
<path d="M2535.08 956.699L2551.06 1024.23C2558.39 1055.18 2580.95 1080.28 2610.95 1090.86L2620.37 1094.19C2647.34 1103.69 2675.58 1109.13 2704.15 1110.31L2728.07 1111.3C2757.75 1112.53 2787.46 1110.31 2816.62 1104.7L2826.42 1102.81C2853.67 1097.56 2880.09 1088.68 2904.98 1076.4L2917.78 1070.09C2946.43 1055.96 2965.97 1028.27 2969.7 996.542L2978.46 921.903C2983.87 875.85 2954.98 832.706 2910.33 820.173L2594.93 840.994C2549.13 859.475 2523.7 908.639 2535.08 956.699Z" fill="#2464AD"/>
<path d="M2551.06 1024.23L2556.9 1022.84L2551.06 1024.23ZM2535.08 956.699L2529.24 958.081L2529.24 958.081L2535.08 956.699ZM2978.46 921.903L2984.42 922.603L2984.42 922.603L2978.46 921.903ZM2969.7 996.542L2963.74 995.843L2963.74 995.843L2969.7 996.542ZM2594.93 840.994L2594.54 835.007L2593.58 835.07L2592.69 835.43L2594.93 840.994ZM2910.33 820.173L2911.96 814.396L2910.97 814.118L2909.94 814.186L2910.33 820.173ZM2917.78 1070.09L2920.43 1075.47L2920.43 1075.47L2917.78 1070.09ZM2904.98 1076.4L2902.33 1071.02L2902.33 1071.02L2904.98 1076.4ZM2826.42 1102.81L2827.56 1108.7L2827.56 1108.7L2826.42 1102.81ZM2816.62 1104.7L2815.49 1098.81L2815.49 1098.81L2816.62 1104.7ZM2728.07 1111.3L2728.32 1105.31L2728.32 1105.31L2728.07 1111.3ZM2704.15 1110.31L2704.4 1104.32L2704.4 1104.32L2704.15 1110.31ZM2620.37 1094.19L2622.37 1088.53L2622.37 1088.53L2620.37 1094.19ZM2610.95 1090.86L2608.95 1096.52L2608.95 1096.52L2610.95 1090.86ZM2556.9 1022.84L2540.91 955.317L2529.24 958.081L2545.22 1025.61L2556.9 1022.84ZM2972.51 921.203L2963.74 995.843L2975.66 997.242L2984.42 922.603L2972.51 921.203ZM2595.33 846.981L2910.73 826.16L2909.94 814.186L2594.54 835.007L2595.33 846.981ZM2915.12 1064.71L2902.33 1071.02L2907.63 1081.78L2920.43 1075.47L2915.12 1064.71ZM2825.29 1096.92L2815.49 1098.81L2817.76 1110.59L2827.56 1108.7L2825.29 1096.92ZM2728.32 1105.31L2704.4 1104.32L2703.9 1116.31L2727.83 1117.3L2728.32 1105.31ZM2622.37 1088.53L2612.94 1085.2L2608.95 1096.52L2618.38 1099.84L2622.37 1088.53ZM2704.4 1104.32C2676.42 1103.16 2648.78 1097.84 2622.37 1088.53L2618.38 1099.84C2645.91 1109.55 2674.74 1115.1 2703.9 1116.31L2704.4 1104.32ZM2902.33 1071.02C2877.92 1083.06 2852.01 1091.77 2825.29 1096.92L2827.56 1108.7C2855.33 1103.35 2882.27 1094.3 2907.63 1081.78L2902.33 1071.02ZM2984.42 922.603C2990.18 873.618 2959.44 827.727 2911.96 814.396L2908.71 825.95C2950.51 837.684 2977.57 878.082 2972.51 921.203L2984.42 922.603ZM2540.91 955.317C2530.22 910.142 2554.13 863.93 2597.18 846.558L2592.69 835.43C2544.14 855.021 2517.18 907.136 2529.24 958.081L2540.91 955.317ZM2815.49 1098.81C2786.78 1104.33 2757.53 1106.52 2728.32 1105.31L2727.83 1117.3C2757.96 1118.54 2788.14 1116.29 2817.76 1110.59L2815.49 1098.81ZM2545.22 1025.61C2553.02 1058.55 2577.03 1085.26 2608.95 1096.52L2612.94 1085.2C2584.87 1075.31 2563.76 1051.81 2556.9 1022.84L2545.22 1025.61ZM2963.74 995.843C2960.25 1025.55 2941.95 1051.48 2915.12 1064.71L2920.43 1075.47C2950.91 1060.44 2971.7 1030.99 2975.66 997.242L2963.74 995.843Z" fill="#0D3461" mask="url(#path-119-inside-3_152_10333)"/>
<path d="M2624.5 1259.01L2612.63 1223.07C2611.85 1220.72 2613.5 1218.27 2615.97 1218.1L2721.17 1211.16C2723.26 1211.02 2725.06 1212.6 2725.2 1214.69L2729.45 1279.13C2729.5 1279.89 2729.34 1280.63 2728.92 1281.26C2708.24 1312.52 2592.39 1323.94 2590.79 1299.7C2589.61 1281.84 2609.46 1269.18 2622.2 1263.88C2624.11 1263.09 2625.15 1260.98 2624.5 1259.01Z" fill="#AE2A3C" stroke="#740C1A" stroke-width="6"/>
<path d="M2926.73 1239.05L2933.78 1201.86C2934.24 1199.43 2932.28 1197.22 2929.81 1197.38L2824.61 1204.32C2822.53 1204.46 2820.95 1206.26 2821.08 1208.35L2825.34 1272.79C2825.39 1273.55 2825.65 1274.27 2826.15 1274.84C2850.76 1303.11 2967.1 1299.2 2965.5 1274.96C2964.32 1257.1 2942.98 1247.16 2929.66 1243.58C2927.66 1243.05 2926.34 1241.09 2926.73 1239.05Z" fill="#AE2A3C" stroke="#740C1A" stroke-width="6"/>
<rect x="2598.12" y="691.214" width="58.4839" height="194.103" rx="29.2419" transform="rotate(-3.77681 2598.12 691.214)" fill="#2464AD" stroke="#0D3461" stroke-width="6"/>
<rect x="2823.32" y="676.348" width="58.4839" height="194.103" rx="29.2419" transform="rotate(-3.77681 2823.32 676.348)" fill="#2464AD" stroke="#0D3461" stroke-width="6"/>
<path d="M2812.95 961.48C2825.15 939.515 2831.47 910.815 2830.66 880.857C2830.6 878.456 2828.51 876.537 2825.95 876.705L2753.08 881.516L2680.2 886.326C2677.65 886.495 2675.83 888.673 2676.08 891.061C2679.22 920.865 2689.26 948.486 2704.24 968.657C2712.15 979.309 2720.87 984.499 2730.08 986.935C2739.44 989.407 2749.46 989.089 2760.13 988.385C2770.81 987.68 2780.78 986.678 2789.73 982.997C2798.55 979.371 2806.51 973.08 2812.95 961.48Z" fill="#18569C" stroke="#0D3461" stroke-width="6"/>
<ellipse cx="2864.57" cy="843.219" rx="10.2582" ry="11.968" transform="rotate(-3.77681 2864.57 843.219)" fill="#FEC400"/>
<ellipse cx="2639.38" cy="858.085" rx="10.2582" ry="11.968" transform="rotate(-3.77681 2639.38 858.085)" fill="#FEC400"/>
<path d="M2599.57 1229.59L2742.19 1220.17C2742.87 1220.13 2743.42 1219.63 2743.55 1218.97L2751.83 1176.72C2752.02 1175.75 2751.22 1174.86 2750.24 1174.95L2582.34 1189.62C2581.31 1189.71 2580.69 1190.79 2581.12 1191.73L2598.12 1228.72C2598.38 1229.28 2598.96 1229.63 2599.57 1229.59Z" fill="#AE2A3C" stroke="#740C1A" stroke-width="6"/>
<path d="M2805.93 1215.96L2948.55 1206.55C2949.22 1206.5 2949.78 1206.01 2949.91 1205.35L2958.18 1163.1C2958.37 1162.12 2957.58 1161.24 2956.59 1161.33L2788.7 1176C2787.67 1176.09 2787.05 1177.17 2787.48 1178.1L2804.48 1215.1C2804.74 1215.66 2805.31 1216 2805.93 1215.96Z" fill="#AE2A3C" stroke="#740C1A" stroke-width="6"/>
<path d="M2517.73 462.429C2374.68 435.839 2376.38 393.488 2395.12 375.636C2559.86 371.76 2923.9 381.02 3072.95 445.391C3032.22 530.752 2696.53 495.667 2517.73 462.429Z" fill="#B98832" stroke="#A03D1A" stroke-width="6"/>
<path d="M2419.72 459.22C2461.92 347.7 2542.07 335.39 2583.67 350.098C2598.04 355.179 2603.37 370.965 2602.07 386.15C2591.63 507.891 2569.33 701.608 2453.76 695.21C2366.56 690.383 2355.91 627.888 2419.72 459.22Z" fill="#C16C1E" stroke="#7A400B" stroke-width="6"/>
<path d="M2450.17 451.794C2480.56 370.841 2543.19 370.973 2577.7 384.934C2591.75 390.618 2597.22 406.003 2595.28 421.037C2583.06 515.902 2539.48 673.228 2454.4 668.447C2388.99 664.77 2402.36 579.192 2450.17 451.794Z" fill="#945216" stroke="#7A400B" stroke-width="6"/>
<path d="M3029.61 436.214C2973.5 331.011 2892.42 329.06 2853.05 348.972C2839.45 355.849 2836.18 372.187 2839.42 387.081C2865.35 506.485 2912.26 695.755 3026.06 674.619C3111.92 658.673 3114.49 595.328 3029.61 436.214Z" fill="#C16C1E" stroke="#7A400B" stroke-width="6"/>
<path d="M2998.46 432.746C2957.97 356.347 2895.87 364.493 2863.43 382.756C2850.22 390.191 2846.77 406.15 2850.61 420.812C2874.88 513.333 2938.23 663.787 3022 648.158C3086.4 636.141 3062.19 552.977 2998.46 432.746Z" fill="#945216" stroke="#7A400B" stroke-width="6"/>
<path d="M2946.62 493.895C2950.46 553.612 2935.76 608.598 2902.39 649.763C2869.06 690.885 2816.86 718.52 2745.06 723.134C2673.26 727.747 2617.95 707.02 2579.63 670.501C2541.28 633.945 2519.66 581.291 2515.82 521.575C2508.18 402.614 2598.42 299.981 2717.38 292.337C2836.34 284.693 2938.98 374.934 2946.62 493.895Z" fill="#EE8530" stroke="#A55515" stroke-width="6"/>
<path d="M2861.65 463.44C2863.6 493.781 2852.62 519.184 2815.44 521.572C2787.97 523.337 2764.12 500.172 2762.17 469.832C2760.22 439.492 2780.91 413.465 2808.38 411.7C2835.85 409.935 2859.7 433.1 2861.65 463.44Z" fill="white" stroke="#994D10" stroke-width="6"/>
<circle cx="2810.8" cy="470.291" r="30.5" transform="rotate(-3.67636 2810.8 470.291)" fill="#226A9E"/>
<circle cx="2811.27" cy="469.76" r="21" transform="rotate(-3.67636 2811.27 469.76)" fill="black"/>
<circle cx="2825.52" cy="455.42" r="11.968" transform="rotate(-3.67636 2825.52 455.42)" fill="white"/>
<path d="M2591.44 480.802C2593.39 511.143 2607.53 534.931 2644.71 532.543C2672.18 530.777 2692.87 504.751 2690.92 474.411C2688.97 444.07 2665.12 420.905 2637.65 422.671C2610.18 424.436 2589.49 450.462 2591.44 480.802Z" fill="white" stroke="#994D10" stroke-width="6"/>
<circle cx="2645.09" cy="479.937" r="30.5" transform="rotate(-3.67636 2645.09 479.937)" fill="#226A9E"/>
<circle cx="2645.56" cy="479.406" r="21" transform="rotate(-3.67636 2645.56 479.406)" fill="black"/>
<circle cx="2659.8" cy="465.065" r="11.968" transform="rotate(-3.67636 2659.8 465.065)" fill="white"/>
<path d="M2602.49 610.379C2669.38 507.103 2802.45 498.553 2882.01 592.42C2887.73 599.17 2892.27 610.914 2895.25 624.079C2901.58 652.07 2883.19 677.552 2856.72 691.415C2789.69 726.516 2711.12 732.342 2639.65 707.512L2637.68 706.828C2606.43 695.97 2584.13 669.604 2591.61 638.807C2594.41 627.274 2598.22 616.969 2602.49 610.379Z" fill="#FFBD7D" stroke="#C38344" stroke-width="6"/>
<path d="M2683.27 598.593C2682.06 579.814 2723.24 576.624 2740.91 575.489C2758.57 574.354 2799.82 572.257 2801.03 591.036C2801.89 604.44 2782.38 613.399 2764.04 618.405C2753.05 622.039 2733.33 621.781 2724.84 621.198C2705.64 618.702 2684.15 612.326 2683.27 598.593Z" fill="#1B1B1B" stroke="#1B1B1B" stroke-width="6"/>
<path d="M2743.54 616.405L2747.5 664.5" stroke="#1B1B1B" stroke-width="6"/>
<path fill-rule="evenodd" clip-rule="evenodd" d="M2700.79 666.891C2713.5 670.814 2730.14 672.22 2747.08 670.96C2764.01 669.701 2780.26 665.849 2792.25 660.089C2798.23 657.212 2803.14 653.868 2806.54 650.136C2809.94 646.397 2812.1 641.94 2811.74 637.071C2811.78 637.611 2810.68 638.579 2809.1 639.726C2802.65 644.424 2795.63 648.58 2788.43 652.037V652.037C2777.69 657.197 2762.58 660.863 2746.41 662.065C2730.25 663.268 2714.76 661.877 2703.37 658.362C2702.14 657.98 2700.97 657.588 2699.91 657.208C2695.63 655.68 2691.64 653.373 2687.43 651.647C2683.08 649.861 2678.18 648.017 2678.11 647.009C2678.47 651.878 2681.27 655.966 2685.19 659.16C2689.1 662.349 2694.45 664.93 2700.79 666.891Z" fill="#761D0E"/>
<path d="M2592.73 419.743C2626.82 409.26 2648.5 399.516 2655.08 395.954C2661.65 392.392 2665.69 384.042 2629.21 379.14C2583.6 373.012 2550.12 432.846 2592.73 419.743Z" fill="#964F0D" stroke="#7C4009" stroke-width="6"/>
<path d="M2859.4 409.807C2824.26 403.671 2801.54 396.715 2794.57 394.004C2787.6 391.293 2782.55 383.514 2818.13 374.086C2862.61 362.301 2903.31 417.476 2859.4 409.807Z" fill="#964F0D" stroke="#7C4009" stroke-width="6"/>
<path opacity="0.12" d="M2385.35 396.391C2382.15 393.018 2389.93 378.703 2394.22 371.967C2443.47 373.152 2494.38 374.976 2545.14 377.321L2575.31 359.586L2602.73 380.207C2844.15 393.253 3066.88 417.245 3074.66 439.317C3075.93 442.911 3071.15 450.476 3067.45 454.69C2788.24 457.721 2388.55 399.763 2385.35 396.391Z" fill="black" fill-opacity="0.44"/>
<path d="M2632.35 178.48C2599.12 180.615 2572.15 300.642 2562.82 360.389L2899.6 392.421C2923.88 240.802 2838.08 118.162 2759.73 162.628C2697.05 198.201 2648.69 188.018 2632.35 178.48Z" fill="#FDA100" stroke="#A03D1A" stroke-width="6"/>
<path d="M2727.14 272.482C2871.71 275.896 3018.81 383.945 3074.45 445.472C2984.31 406.547 2758.06 390.315 2601.53 382.678L2575.05 364.998L2541.25 384.315C2461.74 381.688 2446.16 375.408 2393.91 376.637C2469.46 299.475 2540.49 268.075 2727.14 272.482Z" fill="#FDA100" stroke="#A03D1A" stroke-width="6"/>
<path d="M2896.82 278.94C2848.22 230.716 2672.29 234.16 2591.57 243.036L2583.01 280.104C2725.06 257.698 2855.99 295.95 2901.4 316.27L2896.82 278.94Z" fill="#A03D1A" stroke="#A03D1A" stroke-width="6"/>
<rect x="2563.25" y="999.778" width="46.4781" height="46.1224" rx="10.4147" transform="rotate(-23.3737 2563.25 999.778)" fill="#AC3636"/>
<rect width="46.4781" height="46.1224" rx="10.4147" transform="matrix(-0.917937 -0.396726 -0.396726 0.917937 2912.09 1114.34)" fill="#DCB736"/>
<rect x="2571.41" y="985.299" width="2.97564" height="17.8538" rx="1.48782" transform="rotate(-21.6244 2571.41 985.299)" fill="#0D3461"/>
<rect width="2.97564" height="17.8538" rx="1.48782" transform="matrix(-0.92962 -0.36852 -0.36852 0.92962 2903.93 1099.86)" fill="#0D3461"/>
<rect x="2586.29" y="979.348" width="2.97564" height="17.8538" rx="1.48782" transform="rotate(-21.6244 2586.29 979.348)" fill="#0D3461"/>
<rect width="2.97564" height="17.8538" rx="1.48782" transform="matrix(-0.92962 -0.36852 -0.36852 0.92962 2889.05 1093.91)" fill="#0D3461"/>
<rect x="2590.76" y="1028.45" width="2.97564" height="17.8538" rx="1.48782" transform="rotate(-21.6244 2590.76 1028.45)" fill="#0D3461"/>
<rect width="2.97564" height="17.8538" rx="1.48782" transform="matrix(-0.92962 -0.36852 -0.36852 0.92962 2884.58 1143.01)" fill="#0D3461"/>
<rect x="2605.63" y="1023.98" width="2.97564" height="17.8538" rx="1.48782" transform="rotate(-21.6244 2605.63 1023.98)" fill="#0D3461"/>
<rect width="2.97564" height="17.8538" rx="1.48782" transform="matrix(-0.92962 -0.36852 -0.36852 0.92962 2869.7 1138.54)" fill="#0D3461"/>
<path d="M1984.47 2556.38C2008.75 2548.26 2008.81 2399.34 2017.09 2340.48L1844.79 2351.85C1836.6 2352.39 1838.6 2387.29 1840.6 2422.19L1840.64 2422.81C1842.43 2454.11 1847.78 2485.42 1860.23 2514.2C1869.06 2534.62 1879.19 2555.91 1885.73 2562.89L1984.47 2556.38Z" fill="#2464AD" stroke="#0D3461" stroke-width="6"/>
<path d="M1677.04 2576.67C1651.9 2571.82 1632.26 2424.2 1616.32 2366.93L1788.62 2355.56C1796.81 2355.02 1799.41 2389.87 1802.02 2424.73L1802.06 2425.35C1804.4 2456.62 1803.22 2488.37 1794.66 2518.53C1788.59 2539.93 1781.34 2562.37 1775.78 2570.15L1677.04 2576.67Z" fill="#2464AD" stroke="#0D3461" stroke-width="6"/>
<path d="M2162.01 2328.21C2180.5 2354.22 2199.28 2335.46 2197.6 2317.26C2197.05 2311.42 2178.51 2286.67 2152.85 2254.99L2066.08 2287.76C2065.21 2288.09 2064.95 2289.02 2065.5 2289.74C2071.9 2298.12 2074.68 2306.53 2075.54 2313.47C2076.88 2324.2 2072.7 2335.46 2075.01 2346.13C2082.68 2381.49 2114.73 2360.12 2118.6 2339.18C2111.97 2395.49 2176.79 2368.99 2162.01 2328.21Z" fill="#FFBD7D" stroke="#A55515" stroke-width="6"/>
<path d="M2122.39 2161.55C2075.52 2061.01 1956.8 2013.43 1887.3 1999.63L1902.99 2079.11C1961.87 2112.8 2035.14 2232.66 2064.41 2288.39C2095.53 2285.34 2157.08 2273.62 2154.4 2251.13C2151.72 2228.65 2131.95 2182.04 2122.39 2161.55Z" fill="#EE8530" stroke="#A55515" stroke-width="6"/>
<path d="M1441.75 2343.67C1423.25 2369.68 1404.47 2350.92 1406.16 2332.72C1406.7 2326.88 1425.25 2302.13 1450.91 2270.46L1537.67 2303.22C1538.54 2303.55 1538.81 2304.48 1538.26 2305.2C1531.85 2313.58 1529.08 2321.99 1528.21 2328.93C1526.88 2339.66 1531.05 2350.92 1528.74 2361.59C1521.07 2396.96 1489.02 2375.58 1485.16 2354.64C1491.78 2410.95 1426.96 2384.46 1441.75 2343.67Z" fill="#FFBD7D" stroke="#A55515" stroke-width="6"/>
<path d="M1481.36 2177.01C1528.23 2076.47 1646.95 2028.89 1716.45 2015.09L1700.77 2094.57C1641.88 2128.26 1568.61 2248.13 1539.34 2303.85C1508.23 2300.8 1446.68 2289.08 1449.35 2266.6C1452.03 2244.11 1471.81 2197.5 1481.36 2177.01Z" fill="#EE8530" stroke="#A55515" stroke-width="6"/>
<path d="M1711.19 2011.4L1891.31 1999.04C1939.64 1995.72 1984.15 2025.36 1999.73 2071.23L2011.83 2106.87C2029.67 2159.38 2035.4 2215.24 2028.61 2270.27L2018.17 2354.95C2015.23 2378.76 1995.78 2397.13 1971.84 2398.71L1666.73 2418.85C1642.2 2420.47 1620.13 2404.02 1614.68 2380.06L1599.02 2311.22C1585.01 2249.64 1587.08 2185.49 1605.04 2124.94L1616.13 2087.56C1628.81 2044.82 1666.71 2014.45 1711.19 2011.4Z" fill="#BF661E" stroke="#393939" stroke-width="6"/>
<path d="M1964.22 2399.51L1674.85 2418.61C1654.5 2419.96 1635.38 2408.81 1626.52 2390.44L1621.19 2379.38C1575.66 2284.95 1572.56 2175.58 1612.69 2078.72L1638.12 2017.32L1750.02 2086.36C1782.72 2106.54 1824.59 2103.94 1854.55 2079.87L1958.73 1996.16L1988.3 2049.31C2040.3 2142.78 2049.07 2254.25 2012.31 2354.7L2007.87 2366.81C2001.07 2385.38 1983.96 2398.21 1964.22 2399.51Z" fill="white" stroke="#393939" stroke-width="6"/>
<mask id="path-172-inside-4_152_10333" fill="white">
<path d="M1593.08 2307.7L1609.06 2375.23C1616.39 2406.18 1638.95 2431.28 1668.95 2441.86L1678.37 2445.19C1705.34 2454.69 1733.58 2460.13 1762.15 2461.31L1786.07 2462.3C1815.75 2463.53 1845.46 2461.31 1874.62 2455.7L1884.42 2453.81C1911.67 2448.56 1938.09 2439.68 1962.98 2427.4L1975.78 2421.09C2004.43 2406.96 2023.97 2379.27 2027.7 2347.54L2036.46 2272.9C2041.87 2226.85 2012.98 2183.71 1968.33 2171.17L1652.93 2191.99C1607.13 2210.48 1581.7 2259.64 1593.08 2307.7Z"/>
</mask>
<path d="M1593.08 2307.7L1609.06 2375.23C1616.39 2406.18 1638.95 2431.28 1668.95 2441.86L1678.37 2445.19C1705.34 2454.69 1733.58 2460.13 1762.15 2461.31L1786.07 2462.3C1815.75 2463.53 1845.46 2461.31 1874.62 2455.7L1884.42 2453.81C1911.67 2448.56 1938.09 2439.68 1962.98 2427.4L1975.78 2421.09C2004.43 2406.96 2023.97 2379.27 2027.7 2347.54L2036.46 2272.9C2041.87 2226.85 2012.98 2183.71 1968.33 2171.17L1652.93 2191.99C1607.13 2210.48 1581.7 2259.64 1593.08 2307.7Z" fill="#2464AD"/>
<path d="M1609.06 2375.23L1614.9 2373.84L1609.06 2375.23ZM1593.08 2307.7L1587.24 2309.08L1587.24 2309.08L1593.08 2307.7ZM2036.46 2272.9L2042.42 2273.6L2042.42 2273.6L2036.46 2272.9ZM2027.7 2347.54L2021.74 2346.84L2021.74 2346.84L2027.7 2347.54ZM1652.93 2191.99L1652.54 2186.01L1651.58 2186.07L1650.69 2186.43L1652.93 2191.99ZM1968.33 2171.17L1969.96 2165.4L1968.97 2165.12L1967.94 2165.19L1968.33 2171.17ZM1975.78 2421.09L1978.43 2426.47L1978.43 2426.47L1975.78 2421.09ZM1962.98 2427.4L1960.33 2422.02L1960.33 2422.02L1962.98 2427.4ZM1884.42 2453.81L1885.56 2459.7L1885.56 2459.7L1884.42 2453.81ZM1874.62 2455.7L1873.49 2449.81L1873.49 2449.81L1874.62 2455.7ZM1786.07 2462.3L1786.32 2456.31L1786.32 2456.31L1786.07 2462.3ZM1762.15 2461.31L1762.4 2455.32L1762.4 2455.32L1762.15 2461.31ZM1678.37 2445.19L1680.37 2439.53L1680.37 2439.53L1678.37 2445.19ZM1668.95 2441.86L1666.95 2447.52L1666.95 2447.52L1668.95 2441.86ZM1614.9 2373.84L1598.91 2306.32L1587.24 2309.08L1603.22 2376.61L1614.9 2373.84ZM2030.51 2272.2L2021.74 2346.84L2033.66 2348.24L2042.42 2273.6L2030.51 2272.2ZM1653.33 2197.98L1968.73 2177.16L1967.94 2165.19L1652.54 2186.01L1653.33 2197.98ZM1973.12 2415.71L1960.33 2422.02L1965.63 2432.78L1978.43 2426.47L1973.12 2415.71ZM1883.29 2447.92L1873.49 2449.81L1875.76 2461.59L1885.56 2459.7L1883.29 2447.92ZM1786.32 2456.31L1762.4 2455.32L1761.9 2467.31L1785.83 2468.3L1786.32 2456.31ZM1680.37 2439.53L1670.94 2436.2L1666.95 2447.52L1676.38 2450.84L1680.37 2439.53ZM1762.4 2455.32C1734.42 2454.16 1706.78 2448.84 1680.37 2439.53L1676.38 2450.84C1703.91 2460.55 1732.74 2466.1 1761.9 2467.31L1762.4 2455.32ZM1960.33 2422.02C1935.92 2434.06 1910.01 2442.77 1883.29 2447.92L1885.56 2459.7C1913.33 2454.35 1940.27 2445.3 1965.63 2432.78L1960.33 2422.02ZM2042.42 2273.6C2048.18 2224.62 2017.44 2178.73 1969.96 2165.4L1966.71 2176.95C2008.51 2188.68 2035.57 2229.08 2030.51 2272.2L2042.42 2273.6ZM1598.91 2306.32C1588.22 2261.14 1612.13 2214.93 1655.18 2197.56L1650.69 2186.43C1602.14 2206.02 1575.18 2258.14 1587.24 2309.08L1598.91 2306.32ZM1873.49 2449.81C1844.78 2455.33 1815.53 2457.52 1786.32 2456.31L1785.83 2468.3C1815.96 2469.54 1846.14 2467.29 1875.76 2461.59L1873.49 2449.81ZM1603.22 2376.61C1611.02 2409.55 1635.03 2436.26 1666.95 2447.52L1670.94 2436.2C1642.87 2426.31 1621.76 2402.81 1614.9 2373.84L1603.22 2376.61ZM2021.74 2346.84C2018.25 2376.55 1999.95 2402.48 1973.12 2415.71L1978.43 2426.47C2008.91 2411.44 2029.7 2381.99 2033.66 2348.24L2021.74 2346.84Z" fill="#0D3461" mask="url(#path-172-inside-4_152_10333)"/>
<path d="M1682.5 2610.01L1670.63 2574.07C1669.85 2571.72 1671.5 2569.27 1673.97 2569.1L1779.17 2562.16C1781.26 2562.02 1783.06 2563.6 1783.2 2565.69L1787.45 2630.13C1787.5 2630.89 1787.34 2631.63 1786.92 2632.26C1766.24 2663.52 1650.39 2674.94 1648.79 2650.7C1647.61 2632.84 1667.46 2620.18 1680.2 2614.88C1682.11 2614.09 1683.15 2611.98 1682.5 2610.01Z" fill="#AE2A3C" stroke="#740C1A" stroke-width="6"/>
<path d="M1984.73 2590.05L1991.78 2552.86C1992.24 2550.43 1990.28 2548.22 1987.81 2548.38L1882.61 2555.32C1880.53 2555.46 1878.95 2557.27 1879.08 2559.35L1883.34 2623.79C1883.39 2624.55 1883.65 2625.27 1884.15 2625.84C1908.76 2654.11 2025.1 2650.2 2023.5 2625.96C2022.32 2608.1 2000.98 2598.16 1987.66 2594.58C1985.66 2594.05 1984.34 2592.09 1984.73 2590.05Z" fill="#AE2A3C" stroke="#740C1A" stroke-width="6"/>
<rect x="1656.12" y="2042.21" width="58.4839" height="194.103" rx="29.2419" transform="rotate(-3.77681 1656.12 2042.21)" fill="#2464AD" stroke="#0D3461" stroke-width="6"/>
<rect x="1881.32" y="2027.35" width="58.4839" height="194.103" rx="29.2419" transform="rotate(-3.77681 1881.32 2027.35)" fill="#2464AD" stroke="#0D3461" stroke-width="6"/>
<path d="M1870.95 2312.48C1883.15 2290.52 1889.47 2261.82 1888.66 2231.86C1888.6 2229.46 1886.51 2227.54 1883.95 2227.71L1811.08 2232.52L1738.2 2237.33C1735.65 2237.5 1733.83 2239.67 1734.08 2242.06C1737.22 2271.87 1747.26 2299.49 1762.24 2319.66C1770.15 2330.31 1778.87 2335.5 1788.08 2337.94C1797.44 2340.41 1807.46 2340.09 1818.13 2339.38C1828.81 2338.68 1838.78 2337.68 1847.73 2334C1856.55 2330.37 1864.51 2324.08 1870.95 2312.48Z" fill="#18569C" stroke="#0D3461" stroke-width="6"/>
<ellipse cx="1922.57" cy="2194.22" rx="10.2582" ry="11.968" transform="rotate(-3.77681 1922.57 2194.22)" fill="#FEC400"/>
<ellipse cx="1697.38" cy="2209.09" rx="10.2582" ry="11.968" transform="rotate(-3.77681 1697.38 2209.09)" fill="#FEC400"/>
<path d="M1657.57 2580.59L1800.19 2571.17C1800.87 2571.13 1801.42 2570.63 1801.55 2569.97L1809.83 2527.72C1810.02 2526.75 1809.22 2525.86 1808.24 2525.95L1640.34 2540.62C1639.31 2540.71 1638.69 2541.79 1639.12 2542.72L1656.12 2579.72C1656.38 2580.28 1656.96 2580.63 1657.57 2580.59Z" fill="#AE2A3C" stroke="#740C1A" stroke-width="6"/>
<path d="M1863.93 2566.96L2006.55 2557.55C2007.22 2557.5 2007.78 2557.01 2007.91 2556.35L2016.18 2514.1C2016.37 2513.12 2015.58 2512.24 2014.59 2512.33L1846.7 2527C1845.67 2527.09 1845.05 2528.17 1845.48 2529.1L1862.48 2566.1C1862.74 2566.66 1863.31 2567 1863.93 2566.96Z" fill="#AE2A3C" stroke="#740C1A" stroke-width="6"/>
<path d="M1575.73 1813.43C1432.68 1786.84 1434.38 1744.49 1453.12 1726.64C1617.86 1722.76 1981.9 1732.02 2130.95 1796.39C2090.22 1881.75 1754.53 1846.67 1575.73 1813.43Z" fill="#B98832" stroke="#A03D1A" stroke-width="6"/>
<path d="M1477.72 1810.22C1519.92 1698.7 1600.07 1686.39 1641.67 1701.1C1656.04 1706.18 1661.37 1721.96 1660.07 1737.15C1649.63 1858.89 1627.33 2052.61 1511.76 2046.21C1424.56 2041.38 1413.91 1978.89 1477.72 1810.22Z" fill="#C16C1E" stroke="#7A400B" stroke-width="6"/>
<path d="M1508.17 1802.79C1538.56 1721.84 1601.19 1721.97 1635.7 1735.93C1649.75 1741.62 1655.22 1757 1653.28 1772.04C1641.06 1866.9 1597.48 2024.23 1512.4 2019.45C1446.99 2015.77 1460.36 1930.19 1508.17 1802.79Z" fill="#945216" stroke="#7A400B" stroke-width="6"/>
<path d="M2087.61 1787.21C2031.5 1682.01 1950.42 1680.06 1911.05 1699.97C1897.45 1706.85 1894.18 1723.19 1897.42 1738.08C1923.35 1857.48 1970.26 2046.76 2084.06 2025.62C2169.92 2009.67 2172.49 1946.33 2087.61 1787.21Z" fill="#C16C1E" stroke="#7A400B" stroke-width="6"/>
<path d="M2056.46 1783.75C2015.97 1707.35 1953.87 1715.49 1921.43 1733.76C1908.22 1741.19 1904.77 1757.15 1908.61 1771.81C1932.88 1864.33 1996.23 2014.79 2080 1999.16C2144.4 1987.14 2120.19 1903.98 2056.46 1783.75Z" fill="#945216" stroke="#7A400B" stroke-width="6"/>
<path d="M2004.62 1844.9C2008.46 1904.61 1993.76 1959.6 1960.39 2000.76C1927.06 2041.89 1874.86 2069.52 1803.06 2074.13C1731.26 2078.75 1675.95 2058.02 1637.63 2021.5C1599.28 1984.94 1577.66 1932.29 1573.82 1872.58C1566.18 1753.61 1656.42 1650.98 1775.38 1643.34C1894.34 1635.69 1996.98 1725.93 2004.62 1844.9Z" fill="#EE8530" stroke="#A55515" stroke-width="6"/>
<path d="M1919.65 1814.44C1921.6 1844.78 1910.62 1870.18 1873.44 1872.57C1845.97 1874.34 1822.12 1851.17 1820.17 1820.83C1818.22 1790.49 1838.91 1764.47 1866.38 1762.7C1893.85 1760.94 1917.7 1784.1 1919.65 1814.44Z" fill="#C16C1E"/>
<path d="M1919.65 1814.44C1921.6 1844.78 1910.62 1870.18 1873.44 1872.57C1845.97 1874.34 1822.12 1851.17 1820.17 1820.83M1919.65 1814.44C1917.7 1784.1 1893.85 1760.94 1866.38 1762.7C1838.91 1764.47 1818.22 1790.49 1820.17 1820.83M1919.65 1814.44C1879.78 1799.59 1836.72 1812.51 1820.17 1820.83" stroke="#994D10" stroke-width="6"/>
<path d="M1649.53 1824.44C1647.58 1854.78 1658.57 1880.18 1695.74 1882.57C1723.21 1884.34 1747.06 1861.17 1749.01 1830.83C1750.96 1800.49 1730.27 1774.47 1702.8 1772.7C1675.33 1770.94 1651.48 1794.1 1649.53 1824.44Z" fill="#C16C1E"/>
<path d="M1649.53 1824.44C1647.58 1854.78 1658.57 1880.18 1695.74 1882.57C1723.21 1884.34 1747.06 1861.17 1749.01 1830.83M1649.53 1824.44C1651.48 1794.1 1675.33 1770.94 1702.8 1772.7C1730.27 1774.47 1750.96 1800.49 1749.01 1830.83M1649.53 1824.44C1689.41 1809.59 1732.46 1822.51 1749.01 1830.83" stroke="#994D10" stroke-width="6"/>
<path d="M1660.49 1961.38C1727.38 1858.1 1860.45 1849.55 1940.01 1943.42C1945.73 1950.17 1950.27 1961.91 1953.25 1975.08C1959.58 2003.07 1941.19 2028.55 1914.72 2042.42C1847.69 2077.52 1769.12 2083.34 1697.65 2058.51L1695.68 2057.83C1664.43 2046.97 1642.13 2020.6 1649.61 1989.81C1652.41 1978.27 1656.22 1967.97 1660.49 1961.38Z" fill="#FFBD7D" stroke="#C38344" stroke-width="6"/>
<path d="M1741.27 1942.89C1740.06 1924.11 1781.24 1920.92 1798.91 1919.78C1816.57 1918.65 1857.82 1916.55 1859.03 1935.33C1859.89 1948.73 1840.38 1957.69 1822.04 1962.7C1811.05 1966.33 1791.33 1966.08 1782.84 1965.49C1763.64 1963 1742.15 1956.62 1741.27 1942.89Z" fill="#1B1B1B" stroke="#1B1B1B" stroke-width="6"/>
<path d="M1801.54 1960.7L1805.5 2008.79" stroke="#1B1B1B" stroke-width="6"/>
<path d="M1889.65 1983.29C1890.53 1996.92 1882.43 2010.57 1867.14 2021.23C1851.85 2031.89 1830.62 2038.69 1808.13 2040.14C1785.63 2041.58 1763.71 2037.56 1747.18 2028.94C1730.65 2020.32 1720.88 2007.82 1720 1994.19V1994.19C1776.76 1995.55 1833.53 1991.9 1889.65 1983.29V1983.29Z" fill="#DE482D"/>
<path d="M1862.89 2019.08C1863.51 2028.73 1832.05 2038.6 1808.63 2040.11C1785.2 2041.61 1751.74 2035.91 1751.12 2026.27C1750.5 2016.62 1782.96 2006.68 1806.38 2005.18C1829.81 2003.67 1862.27 2009.44 1862.89 2019.08Z" fill="#FF7259"/>
<path d="M1889.65 1983.29C1890.53 1996.92 1882.43 2010.57 1867.14 2021.23C1851.85 2031.89 1830.62 2038.69 1808.13 2040.14C1785.63 2041.58 1763.71 2037.56 1747.18 2028.94C1730.65 2020.32 1720.88 2007.82 1720 1994.19L1805.08 1992.74L1889.65 1983.29Z" stroke="#761D0E" stroke-width="6"/>
<path d="M1649.33 1772.63C1682.49 1759.52 1703.34 1748.1 1709.62 1744.04C1715.9 1739.97 1719.26 1731.33 1682.51 1729.3C1636.57 1726.76 1607.87 1789.03 1649.33 1772.63Z" fill="#964F0D" stroke="#7C4009" stroke-width="6"/>
<path d="M1925.79 1764.65C1891.22 1755.88 1869.09 1747.23 1862.34 1744C1855.59 1740.78 1851.14 1732.64 1887.34 1725.92C1932.57 1717.52 1969.01 1775.6 1925.79 1764.65Z" fill="#964F0D" stroke="#7C4009" stroke-width="6"/>
<path opacity="0.12" d="M1443.35 1747.39C1440.15 1744.02 1447.93 1729.7 1452.22 1722.97C1501.47 1724.15 1552.38 1725.98 1603.14 1728.32L1633.31 1710.59L1660.73 1731.21C1902.15 1744.25 2124.88 1768.24 2132.66 1790.32C2133.93 1793.91 2129.15 1801.48 2125.45 1805.69C1846.24 1808.72 1446.55 1750.76 1443.35 1747.39Z" fill="black" fill-opacity="0.44"/>
<path d="M1690.35 1529.48C1657.12 1531.61 1630.15 1651.64 1620.82 1711.39L1957.6 1743.42C1981.88 1591.8 1896.08 1469.16 1817.73 1513.63C1755.05 1549.2 1706.69 1539.02 1690.35 1529.48Z" fill="#FDA100" stroke="#A03D1A" stroke-width="6"/>
<path d="M1785.14 1623.48C1929.71 1626.9 2076.81 1734.95 2132.45 1796.47C2042.31 1757.55 1816.06 1741.31 1659.53 1733.68L1633.05 1716L1599.25 1735.31C1519.74 1732.69 1504.16 1726.41 1451.91 1727.64C1527.46 1650.47 1598.49 1619.07 1785.14 1623.48Z" fill="#FDA100" stroke="#A03D1A" stroke-width="6"/>
<path d="M1954.82 1629.94C1906.22 1581.72 1730.29 1585.16 1649.57 1594.04L1641.01 1631.1C1783.06 1608.7 1913.99 1646.95 1959.4 1667.27L1954.82 1629.94Z" fill="#A03D1A" stroke="#A03D1A" stroke-width="6"/>
<rect x="1621.25" y="2350.78" width="46.4781" height="46.1224" rx="10.4147" transform="rotate(-23.3737 1621.25 2350.78)" fill="#AC3636"/>
<rect width="46.4781" height="46.1224" rx="10.4147" transform="matrix(-0.917937 -0.396726 -0.396726 0.917937 1970.09 2465.34)" fill="#DCB736"/>
<rect x="1629.41" y="2336.3" width="2.97564" height="17.8538" rx="1.48782" transform="rotate(-21.6244 1629.41 2336.3)" fill="#0D3461"/>
<rect width="2.97564" height="17.8538" rx="1.48782" transform="matrix(-0.92962 -0.36852 -0.36852 0.92962 1961.93 2450.86)" fill="#0D3461"/>
<rect x="1644.29" y="2330.35" width="2.97564" height="17.8538" rx="1.48782" transform="rotate(-21.6244 1644.29 2330.35)" fill="#0D3461"/>
<rect width="2.97564" height="17.8538" rx="1.48782" transform="matrix(-0.92962 -0.36852 -0.36852 0.92962 1947.05 2444.91)" fill="#0D3461"/>
<rect x="1648.76" y="2379.45" width="2.97564" height="17.8538" rx="1.48782" transform="rotate(-21.6244 1648.76 2379.45)" fill="#0D3461"/>
<rect width="2.97564" height="17.8538" rx="1.48782" transform="matrix(-0.92962 -0.36852 -0.36852 0.92962 1942.58 2494.01)" fill="#0D3461"/>
<rect x="1663.63" y="2374.98" width="2.97564" height="17.8538" rx="1.48782" transform="rotate(-21.6244 1663.63 2374.98)" fill="#0D3461"/>
<rect width="2.97564" height="17.8538" rx="1.48782" transform="matrix(-0.92962 -0.36852 -0.36852 0.92962 1927.7 2489.54)" fill="#0D3461"/>
<ellipse opacity="0.1" cx="1938.5" cy="1895" rx="27.5" ry="21" fill="#8E5521"/>
<ellipse opacity="0.1" cx="1645.5" cy="1907" rx="27.5" ry="21" fill="#8E5521"/>
</svg>
