<svg width="132" height="148" viewBox="0 0 132 148" fill="none" xmlns="http://www.w3.org/2000/svg">
<path d="M62.8168 51.7027L3.84004 61.4318C2.7749 61.6075 1.75548 60.9288 1.50669 59.8784C1.23258 58.721 1.99552 57.5735 3.16875 57.3784L129.082 36.444C130.138 36.2683 131.154 36.926 131.427 37.9615C131.736 39.1339 130.977 40.3197 129.783 40.5308L68.4904 51.3648C67.9876 51.4537 67.6325 51.9071 67.6668 52.4165L74.0354 147.215H69.0821L63.9781 52.6354C63.946 52.0407 63.4044 51.6057 62.8168 51.7027Z" fill="#914D1B" stroke="#151515"/>
<path d="M25.4518 59.2146C22.5007 54.2613 21.2353 54.0505 22.4998 52.0481C24.2916 51.0996 30.4662 52.2256 35.6744 51.0996C41.0583 49.9355 45.4765 47.0835 47.5835 45.6193C57.9118 44.6005 80.3814 41.4669 83.8382 39.612C88.1592 37.2934 96.5904 41.1929 100.806 40.9821C105.022 40.7713 105.127 36.0288 108.71 37.0827C112.293 38.1366 115.35 50.9942 106.708 49.6241C98.0658 48.254 85.946 47.6217 83.8382 52.575C81.7304 57.5284 93.6652 73.6531 88.2645 73.6531C81.9411 73.6531 76.5662 82.7386 72.456 84.5082C57.2799 91.0424 51.0618 81.1358 49.2702 76.8148C48.2923 74.4562 46.4411 75.7249 44.8949 77.5948C43.7056 79.0331 41.3764 79.829 40.5559 78.1527C38.2718 73.4864 45.1057 70.1793 49.5671 67.5171C52.974 65.4841 53.4126 63.0296 52.6427 59.32C51.4834 53.7343 29.4569 64.8003 26.8221 64.3787C24.7143 64.0415 26.4001 61.9547 25.4518 59.2146Z" fill="#1B98F4" stroke="black"/>
<path d="M84.9954 64.3785C85.4147 65.0599 85.9905 65.9808 86.2358 66.8951C87.2623 70.7202 80.7107 71.6004 77.6181 74.0744V74.0744C76.6016 75.0258 74.8314 76.545 73.6133 77.7631" stroke="black"/>
<path d="M76.127 46.718C77.3791 45.8919 80.4578 44.4875 82.7559 45.4789C85.6284 46.718 91.7049 47.4409 93.3621 44.8593C95.0194 42.2777 98.2233 44.2397 98.2233 44.8593" stroke="black"/>
<path d="M85.3167 24.5143C88.8647 37.7554 81.8924 51.0497 69.8545 54.2753C57.8165 57.5008 45.1312 49.4737 41.5832 36.2327C38.0353 22.9916 45.0076 9.69722 57.0455 6.47168C69.0834 3.24613 81.7688 11.2732 85.3167 24.5143Z" fill="#F0CC21" stroke="#151515"/>
<path d="M75.5756 23.013C77.2376 29.2156 74.0647 35.3558 68.6274 36.8127C63.19 38.2696 57.3721 34.5385 55.7101 28.3359C54.0482 22.1333 57.2211 15.9931 62.6584 14.5362C68.0957 13.0793 73.9136 16.8104 75.5756 23.013Z" fill="#CDAE1B" stroke="#151515"/>
</svg>
