<svg width="845" height="479" viewBox="0 0 845 479" fill="none" xmlns="http://www.w3.org/2000/svg">
<path d="M429.832 400.839C430.863 395.307 424.248 385.541 420.811 381.35C415.656 368.776 422.959 370.243 427.255 372.548C427.899 375.691 429.317 382.858 429.832 386.379C430.477 390.78 438.209 409.012 447.23 404.611C453.349 401.627 457.43 403.472 458.53 405.38C458.826 405.893 458.364 406.404 457.773 406.432C454.793 406.574 446.561 407.062 446.966 408.093C447.234 408.777 453.319 409.47 456.565 409.792C457.431 409.879 457.74 410.775 456.983 411.205C455.916 411.813 454.237 412.48 451.741 412.785C450.02 412.994 447.673 411.739 445.737 410.898C442.737 409.094 450.649 417.594 449.237 418.094C446.785 418.963 443.624 416.402 441.004 413.476C437.723 409.813 433.411 407.949 428.782 409.608C426.359 410.477 423.645 411.175 420.807 410.898C419.301 410.608 413.852 408.761 419.522 407.755C426.61 406.498 428.544 407.755 429.832 400.839Z" fill="#F8921E" stroke="#A45C10" stroke-width="1.10076"/>
<mask id="path-2-inside-1_173_65298" fill="white">
<path fill-rule="evenodd" clip-rule="evenodd" d="M616.007 243.178C615.967 229.924 610.96 217.127 596.886 212.73C582.905 208.37 565.73 219.239 547.95 242.114C547.23 243.04 546.51 243.986 545.788 244.951C544.045 246.995 541.686 249.349 538.895 251.665C538.799 251.745 538.689 251.808 538.571 251.851C529.771 255.055 520.46 259.117 511.663 263.167C509.294 264.257 506.801 265.371 504.23 266.519C480.968 276.911 451.432 290.105 451.966 313.694C452.209 324.42 462.457 330.623 472.111 335.305C480.687 339.464 493.788 342.707 511.795 341.772C549.038 339.839 581.774 308.1 586.319 279.691C586.365 279.4 586.521 279.14 586.763 278.975C587.599 278.404 588.459 277.949 589.347 277.605C589.417 277.577 589.485 277.544 589.549 277.503C603.004 268.928 616.055 259.131 616.007 243.178Z"/>
</mask>
<path fill-rule="evenodd" clip-rule="evenodd" d="M616.007 243.178C615.967 229.924 610.96 217.127 596.886 212.73C582.905 208.37 565.73 219.239 547.95 242.114C547.23 243.04 546.51 243.986 545.788 244.951C544.045 246.995 541.686 249.349 538.895 251.665C538.799 251.745 538.689 251.808 538.571 251.851C529.771 255.055 520.46 259.117 511.663 263.167C509.294 264.257 506.801 265.371 504.23 266.519C480.968 276.911 451.432 290.105 451.966 313.694C452.209 324.42 462.457 330.623 472.111 335.305C480.687 339.464 493.788 342.707 511.795 341.772C549.038 339.839 581.774 308.1 586.319 279.691C586.365 279.4 586.521 279.14 586.763 278.975C587.599 278.404 588.459 277.949 589.347 277.605C589.417 277.577 589.485 277.544 589.549 277.503C603.004 268.928 616.055 259.131 616.007 243.178Z" fill="#5F9BD9"/>
<path d="M596.886 212.73L597.543 210.628L597.541 210.628L596.886 212.73ZM616.007 243.178L618.208 243.171L618.208 243.171L616.007 243.178ZM547.95 242.114L549.688 243.465L549.688 243.465L547.95 242.114ZM545.788 244.951L547.463 246.38L547.509 246.326L547.551 246.269L545.788 244.951ZM511.663 263.167L510.742 261.167L510.742 261.167L511.663 263.167ZM504.23 266.519L505.128 268.529L505.128 268.529L504.23 266.519ZM451.966 313.694L449.765 313.743L449.765 313.743L451.966 313.694ZM472.111 335.305L473.072 333.324L473.072 333.324L472.111 335.305ZM511.795 341.772L511.68 339.574L511.68 339.574L511.795 341.772ZM589.347 277.605L588.55 275.552L589.347 277.605ZM589.549 277.503L590.732 279.359L589.549 277.503ZM586.319 279.691L584.145 279.343L586.319 279.691ZM586.763 278.975L588.005 280.792L586.763 278.975ZM538.895 251.665L540.301 253.359L538.895 251.665ZM538.571 251.851L537.818 249.782L538.571 251.851ZM596.229 214.831C608.986 218.817 613.767 230.392 613.805 243.185L618.208 243.171C618.167 229.456 612.934 215.438 597.543 210.628L596.229 214.831ZM549.688 243.465C558.491 232.14 567.039 223.929 574.988 219.089C582.929 214.254 590.051 212.904 596.231 214.831L597.541 210.628C589.74 208.195 581.284 210.1 572.698 215.329C564.119 220.552 555.189 229.213 546.212 240.763L549.688 243.465ZM547.551 246.269C548.265 245.315 548.977 244.38 549.688 243.465L546.212 240.763C545.483 241.7 544.754 242.657 544.025 243.633L547.551 246.269ZM540.301 253.359C543.182 250.969 545.632 248.527 547.463 246.38L544.113 243.522C542.458 245.463 540.191 247.729 537.49 249.971L540.301 253.359ZM537.818 249.782C528.934 253.017 519.56 257.108 510.742 261.167L512.583 265.167C521.36 261.127 530.607 257.093 539.324 253.92L537.818 249.782ZM510.742 261.167C508.387 262.251 505.905 263.36 503.332 264.509L505.128 268.529C507.696 267.382 510.202 266.263 512.583 265.167L510.742 261.167ZM503.332 264.509C491.753 269.682 478.32 275.672 467.867 283.386C457.418 291.098 449.474 300.885 449.765 313.743L454.167 313.644C453.924 302.913 460.482 294.309 470.482 286.929C480.479 279.551 493.445 273.748 505.128 268.529L503.332 264.509ZM449.765 313.743C449.904 319.888 452.935 324.649 457.023 328.39C461.072 332.095 466.293 334.93 471.15 337.286L473.072 333.324C468.275 330.998 463.545 328.39 459.996 325.142C456.486 321.93 454.271 318.226 454.167 313.644L449.765 313.743ZM471.15 337.286C480.107 341.63 493.587 344.922 511.909 343.971L511.68 339.574C493.988 340.492 481.266 337.298 473.072 333.324L471.15 337.286ZM511.909 343.971C531.112 342.974 549.061 334.306 562.768 322.317C576.452 310.348 586.118 294.879 588.492 280.038L584.145 279.343C581.974 292.912 573 307.517 559.869 319.003C546.761 330.469 529.721 338.637 511.68 339.574L511.909 343.971ZM588.55 275.552C587.498 275.961 586.49 276.496 585.522 277.157L588.005 280.792C588.708 280.313 589.419 279.938 590.143 279.657L588.55 275.552ZM613.805 243.185C613.85 257.779 601.964 266.98 588.366 275.646L590.732 279.359C604.043 270.876 618.261 260.483 618.208 243.171L613.805 243.185ZM590.143 279.657C590.338 279.581 590.537 279.484 590.732 279.359L588.366 275.646C588.433 275.603 588.496 275.573 588.55 275.552L590.143 279.657ZM588.492 280.038C588.45 280.302 588.297 280.593 588.005 280.792L585.522 277.157C584.745 277.687 584.28 278.498 584.145 279.343L588.492 280.038ZM537.49 249.971C537.59 249.888 537.701 249.825 537.818 249.782L539.324 253.92C539.677 253.791 540.008 253.603 540.301 253.359L537.49 249.971Z" fill="#386FA7" mask="url(#path-2-inside-1_173_65298)"/>
<path d="M736.898 308.502L737.579 308.994L748.48 316.863C750.242 318.136 752.344 318.561 754.138 318.187C755.908 317.819 757.391 316.679 758.047 314.735C758.5 313.394 758.855 312.096 759.196 310.849L759.236 310.703C759.586 309.426 759.928 308.186 760.345 307.071C761.171 304.859 762.359 302.949 764.716 302.02C771.426 297.744 777.939 293.223 782.778 287.832C787.617 282.441 790.746 276.221 790.723 268.534C790.683 255.49 785.78 243.248 772.304 239.037L736.898 308.502ZM736.898 308.502L736.296 309.089M736.898 308.502L736.296 309.089M736.296 309.089C730.074 315.155 721.766 314.074 716.214 309.987C713.442 307.947 711.453 305.217 710.78 302.389C710.118 299.608 710.704 296.655 713.221 293.992L714.326 292.822M736.296 309.089L714.326 292.822M714.326 292.822L712.788 292.349M714.326 292.822L712.788 292.349M712.788 292.349L699.641 288.304C697.885 287.764 697.145 286.929 697.001 286.33C696.884 285.843 697.071 284.999 698.603 284.098C700.843 282.781 703.586 281.301 706.463 279.749C708.753 278.513 711.129 277.231 713.406 275.948C715.945 274.517 718.338 273.096 720.266 271.775C722.136 270.494 723.7 269.221 724.479 268.05M712.788 292.349L724.479 268.05M724.479 268.05C733.321 256.68 741.965 248.356 750.079 243.416C758.196 238.474 765.682 236.972 772.304 239.037L724.479 268.05Z" fill="#4382C4" stroke="#386FA7" stroke-width="2"/>
<circle cx="617.798" cy="313.812" r="14.3098" transform="rotate(5.41766 617.798 313.812)" fill="white" stroke="#386FA7" stroke-width="2.20151"/>
<circle cx="624.061" cy="317.723" r="7.7053" transform="rotate(5.41766 624.061 317.723)" fill="black"/>
<circle cx="622.285" cy="313.134" r="2.20151" transform="rotate(5.41766 622.285 313.134)" fill="white"/>
<circle cx="646.116" cy="319.571" r="11.5579" transform="rotate(5.41766 646.116 319.571)" fill="white" stroke="#386FA7" stroke-width="2.20151"/>
<circle cx="651.635" cy="322.582" r="6.32935" transform="rotate(5.41766 651.635 322.582)" fill="black"/>
<circle cx="650.745" cy="319.061" r="1.80839" transform="rotate(5.41766 650.745 319.061)" fill="white"/>
<path d="M594.284 375.214C591.644 372.24 591.409 364.079 590.85 359.658C590.741 358.799 591.579 358.034 592.397 358.316C604.835 362.608 615.855 371.375 621.827 377.814C624.474 380.669 622.293 383.745 618.482 382.945C609.405 381.039 596.528 377.74 594.284 375.214Z" fill="#F8921E" stroke="#A45C10" stroke-width="2.20151"/>
<path d="M610.529 359.24C605.071 357.085 597.27 356.521 592.116 356.557C591.21 356.563 590.749 357.61 591.342 358.295C607.3 376.755 624.204 380.905 637.307 385.655C638.288 386.011 639.105 385.008 638.463 384.186C632.264 376.251 616.145 361.457 610.529 359.24Z" fill="#F8921E" stroke="#A45C10" stroke-width="2.20151"/>
<path d="M264.192 396.796C284.147 352.693 336.113 323.7 362.459 324.585C378.471 324.038 374.073 341.377 369.873 350.116C359.682 368.258 326.229 403.732 309.56 405.145C305.191 405.516 315.503 399.971 323.663 390.42C320.027 394.426 314.129 399.192 311.699 401.299C298.386 407.653 297.645 406.739 299.154 400.979C291.788 405.454 279.285 404.334 280.268 400.766C274.277 404.349 270.336 405.652 267.596 405.767C263.423 405.942 262.47 400.602 264.192 396.796Z" fill="#5F9BD9"/>
<path d="M317.994 370.803C305.162 386.214 288.207 395.198 280.268 400.766M280.268 400.766C274.277 404.349 270.336 405.652 267.596 405.767C263.423 405.942 262.47 400.602 264.192 396.796C284.147 352.693 336.113 323.7 362.459 324.585C378.471 324.038 374.073 341.377 369.873 350.116C359.682 368.258 326.229 403.732 309.56 405.145C305.191 405.516 315.503 399.971 323.663 390.42M280.268 400.766C279.285 404.334 291.788 405.454 299.154 400.979M299.154 400.979C297.645 406.739 298.386 407.653 311.699 401.299C314.129 399.192 320.027 394.426 323.663 390.42M299.154 400.979C309.216 392.509 330.952 372.484 337.395 360.14M354.461 354.677C345.702 366.13 329.133 384.396 323.663 390.42" stroke="#386FA7" stroke-width="2.20151"/>
<path d="M335.848 226.941C327.135 237.726 395.92 253.601 431.851 257.924C476.174 254.909 461.451 221.651 443.351 211.922C420.806 204.64 363.975 199.077 354.996 201.026C346.017 202.975 359.799 210.63 367.812 214.214C365.89 214.173 364.057 214.217 362.338 214.361C344.244 215.875 354.728 221.858 359.295 223.973C350.893 223.818 338.523 223.629 335.848 226.941Z" fill="#5F9BD9"/>
<path d="M384.283 227.2C371.689 227.2 374.371 240.103 377.286 246.555L395.943 250.426L412.851 206.877L395.943 205.426C384.749 205.426 384.283 214.135 385.449 218.49C378.919 218.49 381.95 224.297 384.283 227.2Z" fill="#4282C5" stroke="#386FA7" stroke-width="2"/>
<path d="M400.041 229.168C389.105 229.168 391.434 242.644 393.966 249.383L410.851 252.426L424.351 209.426L410.168 206.426C400.447 206.426 400.042 215.523 401.054 220.071C395.383 220.071 398.016 226.135 400.041 229.168Z" fill="#5F9BD9"/>
<path d="M394.35 249.426C391.435 242.974 387.689 228.2 400.282 228.2C397.95 225.297 394.918 219.49 401.448 219.49C400.282 215.135 400.749 206.426 411.943 206.426" stroke="#386FA7" stroke-width="2"/>
<path d="M423.677 255.926C387.746 251.603 329.408 237.237 338.12 226.452C340.796 223.14 350.576 223.466 358.979 223.621M423.678 236.223C407.368 231.216 377.939 223.971 358.979 223.621M358.979 223.621C354.411 221.507 345.351 214.808 367.851 213.926M367.851 213.926C369.574 213.858 365.929 213.885 367.851 213.926ZM367.851 213.926L430.703 228.345M367.851 213.926C359.838 210.342 344.453 201.575 359.94 201.649C369.128 201.693 415.134 204.142 437.679 211.424" stroke="#386FA7" stroke-width="1.88811"/>
<path fill-rule="evenodd" clip-rule="evenodd" d="M160.611 165.891C106.404 147.096 11.9553 95.6368 67.8116 40.1528C111.763 -3.50562 153.329 32.7751 173.384 78.7683C173.43 78.5902 173.475 78.4124 173.522 78.2351C175.833 67.1127 185.241 47.7512 193.908 50.0734C198.637 51.3405 198.566 55.1354 198.502 58.5838C198.449 61.4551 198.4 64.0862 201.13 64.8177C203.634 65.4888 204.824 62.715 206.251 59.388C208.247 54.7334 210.708 48.9958 217.884 50.0931C247.094 61.0512 203.251 147.424 178.237 163.225C174.711 166.791 169.016 169.099 160.611 165.891Z" fill="#E4A8C8"/>
<path d="M67.8116 40.1528L69.9915 42.3474L69.9915 42.3474L67.8116 40.1528ZM160.611 165.891L161.714 163.001L161.669 162.984L161.624 162.968L160.611 165.891ZM173.384 78.7683L170.549 80.0046L174.149 88.2618L176.381 79.5346L173.384 78.7683ZM173.522 78.2351L176.515 79.0165L176.534 78.9409L176.55 78.8644L173.522 78.2351ZM198.502 58.5838L195.409 58.5262L195.409 58.5262L198.502 58.5838ZM206.251 59.388L209.094 60.6072L209.094 60.6072L206.251 59.388ZM217.884 50.0931L218.97 47.197L218.669 47.084L218.351 47.0354L217.884 50.0931ZM178.237 163.225L176.585 160.61L176.287 160.799L176.038 161.05L178.237 163.225ZM65.6317 37.9583C51.1513 52.3423 46.0453 66.8906 48.0623 81.0014C50.0507 94.9131 58.877 107.733 70.8116 119.027C94.684 141.618 132.328 159.358 159.598 168.813L161.624 162.968C134.687 153.629 98.0036 136.242 75.0638 114.534C63.5924 103.678 55.8915 92.0552 54.1864 80.126C52.5097 68.396 56.5438 55.7054 69.9915 42.3474L65.6317 37.9583ZM176.219 77.532C166.055 54.2212 150.263 32.9088 130.962 23.0846C121.239 18.1352 110.597 16.0953 99.4389 18.2639C88.3067 20.4275 76.941 26.7244 65.6317 37.9583L69.9915 42.3474C80.6579 31.752 90.9698 26.2121 100.619 24.3367C110.243 22.4663 119.487 24.1852 128.156 28.5978C145.64 37.4976 160.658 57.3222 170.549 80.0046L176.219 77.532ZM170.529 77.4537C170.481 77.6361 170.434 77.8189 170.387 78.002L176.381 79.5346C176.425 79.3614 176.47 79.1887 176.515 79.0165L170.529 77.4537ZM194.709 47.0856C191.231 46.1539 188.024 47.5187 185.492 49.4885C182.954 51.4629 180.667 54.3488 178.711 57.4695C174.79 63.7229 171.723 71.6874 170.493 77.6057L176.55 78.8644C177.632 73.6603 180.424 66.3829 183.952 60.7556C185.72 57.9359 187.555 55.7216 189.291 54.3713C191.032 53.0164 192.251 52.8318 193.107 53.0612L194.709 47.0856ZM201.595 58.6413C201.624 57.0595 201.709 54.6284 200.906 52.4434C199.976 49.9157 197.997 47.9666 194.709 47.0856L193.107 53.0612C194.548 53.4473 194.898 54.0292 195.099 54.5779C195.427 55.4691 195.444 56.6597 195.409 58.5262L201.595 58.6413ZM201.93 61.8299C201.719 61.7732 201.729 61.732 201.792 61.7971C201.841 61.8485 201.801 61.8427 201.742 61.6392C201.677 61.4157 201.621 61.0664 201.596 60.5236C201.571 59.9801 201.581 59.3808 201.595 58.6413L195.409 58.5262C195.385 59.8131 195.321 61.7129 195.802 63.3671C196.065 64.2717 196.522 65.2403 197.328 66.0805C198.148 66.9343 199.176 67.4963 200.329 67.8055L201.93 61.8299ZM203.408 58.1688C203.044 59.0176 202.734 59.7396 202.423 60.374C202.11 61.014 201.854 61.4411 201.643 61.7161C201.429 61.9934 201.377 61.9619 201.522 61.8972C201.603 61.8607 201.704 61.8338 201.807 61.827C201.906 61.8205 201.953 61.836 201.93 61.8299L200.329 67.8055C201.582 68.1413 202.861 68.0758 204.05 67.5433C205.167 67.0434 205.971 66.2363 206.546 65.4882C207.626 64.0843 208.438 62.1365 209.094 60.6072L203.408 58.1688ZM218.351 47.0354C213.702 46.3245 210.289 47.8856 207.868 50.468C205.667 52.8158 204.358 55.9534 203.408 58.1688L209.094 60.6072C210.14 58.1679 211.059 56.1095 212.381 54.6992C213.484 53.5235 214.89 52.7644 217.416 53.1507L218.351 47.0354ZM179.889 165.84C186.698 161.539 194.42 152.74 201.646 142.169C208.935 131.505 215.948 118.7 221.248 106.037C226.526 93.4241 230.205 80.7127 230.62 70.2939C231.03 59.9961 228.209 50.663 218.97 47.197L216.797 52.9892C222.163 55.0022 224.816 60.575 224.439 70.0479C224.066 79.3998 220.699 91.3239 215.541 103.649C210.404 115.924 203.592 128.36 196.539 138.678C189.422 149.088 182.283 157.011 176.585 160.61L179.889 165.84ZM159.508 168.781C164.17 170.56 168.305 170.89 171.899 170.123C175.49 169.357 178.316 167.544 180.436 165.401L176.038 161.05C174.632 162.472 172.847 163.595 170.608 164.073C168.372 164.55 165.457 164.43 161.714 163.001L159.508 168.781Z" fill="#D9377A"/>
<ellipse cx="113.672" cy="86.2143" rx="26.3253" ry="39.488" transform="rotate(-56.8718 113.672 86.2143)" fill="#A02D5B"/>
<ellipse cx="136.815" cy="49.0503" rx="5.55116" ry="8.32675" transform="rotate(-56.8718 136.815 49.0503)" fill="#D166A0"/>
<ellipse cx="79.0324" cy="49.5698" rx="5.55116" ry="8.32675" transform="rotate(-56.8718 79.0324 49.5698)" fill="#D166A0"/>
<ellipse cx="155.915" cy="73.3745" rx="5.55116" ry="8.32675" transform="rotate(-56.8718 155.915 73.3745)" fill="#D166A0"/>
<path d="M194.478 77.4474C192.259 66.6056 179.468 77.6951 173.349 84.5951C171.045 78.8539 182.777 59.3681 188.932 50.3428C192.923 45.0077 199.949 57.0309 202.963 63.7093C204.244 58.9289 214.399 52.8971 219.317 50.4788C235.877 65.1634 224.382 91.331 216.565 102.579C232.333 79.5848 217.316 57.9483 213.02 68.0052C208.724 78.0622 197.251 90.9997 194.478 77.4474Z" fill="#D9377A"/>
<ellipse cx="65.8527" cy="74.8589" rx="5.55116" ry="8.32675" transform="rotate(-56.8718 65.8527 74.8589)" fill="#D166A0"/>
<ellipse cx="79.5607" cy="107.363" rx="5.55116" ry="8.32675" transform="rotate(-56.8718 79.5607 107.363)" fill="#D166A0"/>
<ellipse cx="113.012" cy="125.933" rx="5.55116" ry="8.32675" transform="rotate(-56.8718 113.012 125.933)" fill="#D166A0"/>
<ellipse cx="106.137" cy="44.023" rx="5.55116" ry="8.32675" transform="rotate(-56.8718 106.137 44.023)" fill="#D166A0"/>
<path d="M198.009 92.0959C205.169 96.753 198.842 112.286 188.225 128.61C177.608 144.934 159.56 151.21 159.56 151.21C159.56 151.21 158.076 133.297 168.694 116.973C179.311 100.649 190.849 87.4387 198.009 92.0959Z" fill="#D166A0"/>
<path d="M87.7014 194.308L44.1694 179.797" stroke="#A71A55" stroke-width="5.2766"/>
<path d="M87.7014 202.224L44.1694 216.734" stroke="#A71A55" stroke-width="5.2766"/>
<mask id="path-34-inside-2_173_65298" fill="white">
<path fill-rule="evenodd" clip-rule="evenodd" d="M103.158 212.713C100.63 214.423 97.5814 215.421 94.2995 215.421C85.557 215.421 78.4697 208.334 78.4697 199.592C78.4697 190.849 85.557 183.762 94.2995 183.762C99.9192 183.762 104.855 186.69 107.664 191.104C117.453 187.409 131.772 185.079 147.724 185.079C177.23 185.079 201.149 193.052 201.149 202.887C201.149 212.723 177.23 220.696 147.724 220.696C129.112 220.696 112.723 217.523 103.158 212.713Z"/>
</mask>
<path fill-rule="evenodd" clip-rule="evenodd" d="M103.158 212.713C100.63 214.423 97.5814 215.421 94.2995 215.421C85.557 215.421 78.4697 208.334 78.4697 199.592C78.4697 190.849 85.557 183.762 94.2995 183.762C99.9192 183.762 104.855 186.69 107.664 191.104C117.453 187.409 131.772 185.079 147.724 185.079C177.23 185.079 201.149 193.052 201.149 202.887C201.149 212.723 177.23 220.696 147.724 220.696C129.112 220.696 112.723 217.523 103.158 212.713Z" fill="#824848"/>
<path d="M103.158 212.713L104.344 210.356L102.961 209.66L101.68 210.527L103.158 212.713ZM107.664 191.104L105.438 192.521L106.59 194.33L108.596 193.572L107.664 191.104ZM101.68 210.527C99.5745 211.951 97.0381 212.783 94.2995 212.783V218.06C98.1247 218.06 101.686 216.894 104.636 214.898L101.68 210.527ZM94.2995 212.783C87.0141 212.783 81.108 206.877 81.108 199.592H75.8314C75.8314 209.791 84.0999 218.06 94.2995 218.06V212.783ZM81.108 199.592C81.108 192.306 87.0141 186.4 94.2995 186.4V181.123C84.0999 181.123 75.8314 189.392 75.8314 199.592H81.108ZM94.2995 186.4C98.9798 186.4 103.093 188.835 105.438 192.521L109.89 189.688C106.617 184.545 100.859 181.123 94.2995 181.123V186.4ZM108.596 193.572C118.001 190.022 131.983 187.717 147.724 187.717V182.44C131.562 182.44 116.906 184.796 106.732 188.636L108.596 193.572ZM147.724 187.717C162.272 187.717 175.334 189.687 184.667 192.798C189.347 194.358 192.945 196.157 195.318 198.028C197.721 199.921 198.511 201.583 198.511 202.887H203.788C203.788 199.274 201.588 196.251 198.584 193.883C195.55 191.492 191.323 189.454 186.336 187.792C176.333 184.457 162.681 182.44 147.724 182.44V187.717ZM198.511 202.887C198.511 204.191 197.721 205.853 195.318 207.747C192.945 209.617 189.347 211.417 184.667 212.977C175.334 216.088 162.272 218.058 147.724 218.058V223.334C162.681 223.334 176.333 221.317 186.336 217.983C191.323 216.32 195.55 214.282 198.584 211.891C201.588 209.524 203.788 206.501 203.788 202.887H198.511ZM147.724 218.058C129.315 218.058 113.391 214.906 104.344 210.356L101.973 215.069C112.055 220.141 128.909 223.334 147.724 223.334V218.058Z" fill="#7B0838" mask="url(#path-34-inside-2_173_65298)"/>
<path d="M51.4401 178.774C50.1255 183.554 44.581 186.464 38.8163 184.879C33.0515 183.294 29.7745 177.958 31.0891 173.178C32.4037 168.397 37.9482 165.487 43.7129 167.072C49.4777 168.657 52.7547 173.993 51.4401 178.774Z" fill="#A02D5B" stroke="#7B0838" stroke-width="2.6383"/>
<path d="M46.1662 218.344C44.8516 223.125 39.3071 226.035 33.5423 224.45C27.7776 222.864 24.5006 217.529 25.8152 212.748C27.1297 207.967 32.6742 205.057 38.439 206.642C44.2037 208.228 47.4807 213.563 46.1662 218.344Z" fill="#A02D5B" stroke="#7B0838" stroke-width="2.6383"/>
<path d="M123.318 188.375C126.176 196.51 129.386 213.439 119.36 216.077" stroke="#7B0838" stroke-width="2.6383"/>
<path d="M139.149 187.711C142.008 195.846 145.217 216.073 135.192 218.711" stroke="#7B0838" stroke-width="2.6383"/>
<path d="M164.212 187.711C167.07 195.846 170.28 216.073 160.254 218.711" stroke="#7B0838" stroke-width="2.6383"/>
<path d="M151.02 187.059C153.879 195.193 157.089 216.739 147.063 219.378" stroke="#7B0838" stroke-width="2.6383"/>
<path fill-rule="evenodd" clip-rule="evenodd" d="M152.493 274.898C98.2862 293.693 3.83714 345.152 59.6934 400.636C103.645 444.295 145.211 408.014 165.266 362.021C165.311 362.199 165.357 362.377 165.404 362.554C167.715 373.676 177.123 393.038 185.79 390.716C190.519 389.449 190.448 385.654 190.384 382.205C190.33 379.334 190.282 376.703 193.012 375.971C195.516 375.3 196.706 378.074 198.133 381.401C200.129 386.056 202.59 391.793 209.765 390.696C238.975 379.738 195.132 293.365 170.119 277.564C166.593 273.998 160.898 271.69 152.493 274.898Z" fill="#E4A8C8"/>
<path d="M59.6934 400.636L61.8733 398.442L61.8733 398.442L59.6934 400.636ZM152.493 274.898L153.596 277.788L153.551 277.805L153.506 277.821L152.493 274.898ZM165.266 362.021L162.43 360.784L166.031 352.527L168.263 361.254L165.266 362.021ZM165.404 362.554L168.396 361.773L168.416 361.848L168.432 361.925L165.404 362.554ZM190.384 382.205L193.477 382.148L193.477 382.148L190.384 382.205ZM198.133 381.401L200.976 380.182L200.976 380.182L198.133 381.401ZM209.765 390.696L210.852 393.592L210.551 393.705L210.233 393.754L209.765 390.696ZM170.119 277.564L168.467 280.179L168.168 279.99L167.92 279.739L170.119 277.564ZM57.5135 402.831C43.0331 388.447 37.9272 373.898 39.9441 359.788C41.9326 345.876 50.7588 333.056 62.6935 321.762C86.5658 299.171 124.21 281.431 151.48 271.976L153.506 277.821C126.569 287.16 89.8854 304.547 66.9456 326.255C55.4742 337.111 47.7733 348.734 46.0682 360.663C44.3916 372.393 48.4256 385.084 61.8733 398.442L57.5135 402.831ZM168.101 363.257C157.937 386.568 142.144 407.88 122.844 417.704C113.121 422.654 102.479 424.694 91.3208 422.525C80.1885 420.362 68.8228 414.065 57.5135 402.831L61.8733 398.442C72.5398 409.037 82.8516 414.577 92.501 416.452C102.124 418.323 111.369 416.604 120.038 412.191C137.522 403.291 152.54 383.467 162.43 360.784L168.101 363.257ZM162.411 363.335C162.363 363.153 162.316 362.97 162.269 362.787L168.263 361.254C168.307 361.428 168.351 361.6 168.396 361.773L162.411 363.335ZM186.59 393.703C183.113 394.635 179.906 393.27 177.374 391.301C174.836 389.326 172.549 386.44 170.593 383.32C166.672 377.066 163.605 369.102 162.375 363.183L168.432 361.925C169.514 367.129 172.306 374.406 175.834 380.034C177.602 382.853 179.437 385.067 181.173 386.418C182.914 387.773 184.133 387.957 184.989 387.728L186.59 393.703ZM193.477 382.148C193.506 383.73 193.591 386.161 192.788 388.346C191.858 390.873 189.878 392.822 186.59 393.703L184.989 387.728C186.43 387.342 186.779 386.76 186.981 386.211C187.309 385.32 187.326 384.129 187.291 382.263L193.477 382.148ZM193.812 378.959C193.601 379.016 193.611 379.057 193.674 378.992C193.723 378.941 193.683 378.946 193.624 379.15C193.559 379.373 193.503 379.723 193.478 380.265C193.453 380.809 193.463 381.408 193.477 382.148L187.291 382.263C187.267 380.976 187.203 379.076 187.684 377.422C187.947 376.517 188.404 375.549 189.21 374.709C190.029 373.855 191.057 373.293 192.211 372.984L193.812 378.959ZM195.29 382.62C194.926 381.771 194.616 381.05 194.305 380.415C193.991 379.775 193.736 379.348 193.525 379.073C193.311 378.796 193.259 378.827 193.404 378.892C193.485 378.928 193.586 378.955 193.689 378.962C193.788 378.969 193.835 378.953 193.812 378.959L192.211 372.984C193.464 372.648 194.743 372.713 195.932 373.246C197.048 373.746 197.852 374.553 198.428 375.301C199.508 376.705 200.32 378.653 200.976 380.182L195.29 382.62ZM210.233 393.754C205.584 394.465 202.171 392.903 199.75 390.321C197.549 387.973 196.24 384.836 195.29 382.62L200.976 380.182C202.022 382.621 202.941 384.68 204.263 386.09C205.366 387.266 206.771 388.025 209.298 387.638L210.233 393.754ZM171.771 274.949C178.58 279.25 186.301 288.049 193.528 298.62C200.817 309.284 207.83 322.089 213.129 334.752C218.408 347.365 222.087 360.076 222.502 370.495C222.912 380.793 220.091 390.126 210.852 393.592L208.679 387.8C214.045 385.787 216.697 380.214 216.32 370.741C215.948 361.389 212.58 349.465 207.423 337.14C202.286 324.865 195.474 312.429 188.42 302.111C181.304 291.701 174.165 283.778 168.467 280.179L171.771 274.949ZM151.39 272.008C156.052 270.229 160.187 269.9 163.78 270.666C167.372 271.432 170.198 273.245 172.318 275.388L167.92 279.739C166.514 278.317 164.729 277.194 162.49 276.716C160.254 276.239 157.339 276.36 153.596 277.788L151.39 272.008Z" fill="#D9377A"/>
<ellipse cx="26.3253" cy="39.488" rx="26.3253" ry="39.488" transform="matrix(0.546515 0.83745 0.83745 -0.546515 58.0977 354.109)" fill="#A02D5B"/>
<ellipse cx="5.55116" cy="8.32675" rx="5.55116" ry="8.32675" transform="matrix(0.546515 0.83745 0.83745 -0.546515 118.69 391.641)" fill="#D166A0"/>
<ellipse cx="5.55116" cy="8.32675" rx="5.55116" ry="8.32675" transform="matrix(0.546515 0.83745 0.83745 -0.546515 60.9072 391.121)" fill="#D166A0"/>
<ellipse cx="5.55116" cy="8.32675" rx="5.55116" ry="8.32675" transform="matrix(0.546515 0.83745 0.83745 -0.546515 137.79 367.316)" fill="#D166A0"/>
<path d="M186.36 363.342C184.141 374.184 171.35 363.094 165.231 356.194C162.927 361.935 174.659 381.421 180.813 390.446C184.805 395.781 191.831 383.758 194.844 377.08C196.125 381.86 206.281 387.892 211.199 390.31C227.759 375.626 216.264 349.458 208.447 338.21C224.215 361.204 209.197 382.841 204.901 372.784C200.606 362.727 189.133 349.789 186.36 363.342Z" fill="#D9377A"/>
<ellipse cx="5.55116" cy="8.32675" rx="5.55116" ry="8.32675" transform="matrix(0.546515 0.83745 0.83745 -0.546515 47.728 365.832)" fill="#D166A0"/>
<ellipse cx="5.55116" cy="8.32675" rx="5.55116" ry="8.32675" transform="matrix(0.546515 0.83745 0.83745 -0.546515 61.4355 333.328)" fill="#D166A0"/>
<ellipse cx="5.55116" cy="8.32675" rx="5.55116" ry="8.32675" transform="matrix(0.546515 0.83745 0.83745 -0.546515 94.8867 314.758)" fill="#D166A0"/>
<ellipse cx="5.55116" cy="8.32675" rx="5.55116" ry="8.32675" transform="matrix(0.546515 0.83745 0.83745 -0.546515 88.0117 396.668)" fill="#D166A0"/>
<path d="M189.891 348.693C197.051 344.036 190.724 328.503 180.107 312.179C169.489 295.855 151.442 289.579 151.442 289.579C151.442 289.579 149.958 307.492 160.576 323.816C171.193 340.14 182.73 353.35 189.891 348.693Z" fill="#D166A0"/>
</svg>
