<svg width="512" height="512" viewBox="0 0 512 512" fill="none" xmlns="http://www.w3.org/2000/svg">
<g clip-path="url(#clip0_156_16013)">
<path d="M303.244 353.081C307.106 345.728 318.741 331.101 330.209 334.657C343.582 338.804 333.357 362.977 331.619 366.755C329.881 370.533 325.924 387.465 306.506 380.72C287.088 373.974 296.739 365.466 303.244 353.081Z" fill="#F5AE1A"/>
<path d="M266.24 311.207C273.538 307.243 291.342 301.556 298.896 310.888C307.705 321.771 285.765 336.177 282.22 338.35C278.675 340.524 265.97 352.396 253.582 335.992C241.194 319.588 253.947 317.883 266.24 311.207Z" fill="#F5AE1A"/>
<path d="M352.946 368.705C353.068 360.4 356.837 342.094 368.675 340.084C382.478 337.74 384.281 363.924 384.438 368.08C384.595 372.235 388.717 389.128 368.346 391.886C347.976 394.644 352.741 382.692 352.946 368.705Z" fill="#F5AE1A"/>
<path d="M256.026 256.662C264.079 254.631 282.737 253.533 287.743 264.447C293.58 277.173 268.754 285.692 264.781 286.919C260.807 288.146 245.556 296.5 237.62 277.537C229.684 258.575 242.462 260.084 256.026 256.662Z" fill="#F5AE1A"/>
<path d="M483.693 215.814C475.639 217.843 458.69 225.722 459.457 237.704C460.351 251.676 486.248 247.408 490.328 246.605C494.408 245.802 511.797 245.926 509.795 225.468C507.793 205.009 497.257 212.396 483.693 215.814Z" fill="#F5AE1A"/>
<path d="M270.639 201.058C278.795 202.625 296.165 209.525 296.083 221.531C295.986 235.532 269.888 232.747 265.769 232.177C261.649 231.608 244.297 232.723 245.129 212.184C245.962 191.645 256.901 198.419 270.639 201.058Z" fill="#F5AE1A"/>
<path d="M316.332 162.263C320.378 169.516 326.267 187.254 317.021 194.914C306.239 203.846 291.585 182.071 289.371 178.551C287.158 175.03 275.142 162.461 291.404 149.887C307.666 137.314 309.516 150.047 316.332 162.263Z" fill="#F5AE1A"/>
<path d="M378.41 148.125C378.288 156.43 374.519 174.736 362.682 176.746C348.878 179.091 347.075 152.906 346.918 148.75C346.761 144.595 342.64 127.702 363.01 124.944C383.38 122.186 378.616 134.138 378.41 148.125Z" fill="#F5AE1A"/>
<path d="M430.465 158.869C427.034 166.433 416.262 181.707 404.608 178.819C391.018 175.451 399.83 150.728 401.348 146.856C402.865 142.984 405.839 125.852 425.614 131.465C445.389 137.079 436.244 146.13 430.465 158.869Z" fill="#F5AE1A"/>
<path d="M477.982 192.895C472.458 199.097 457.635 210.481 447.365 204.26C435.39 197.006 451.151 176.018 453.75 172.772C456.349 169.526 464.279 154.051 481.493 165.287C498.707 176.523 487.285 182.448 477.982 192.895Z" fill="#F5AE1A"/>
<path d="M435.833 351.137C432.648 343.466 422.486 329.387 410.745 331.898C397.053 334.826 405.627 359.467 407.019 363.386C408.41 367.305 408.815 389.645 430.213 379.904C448.922 371.387 441.199 364.056 435.833 351.137Z" fill="#F5AE1A"/>
<path d="M473.691 317.326C467.21 312.131 451.531 304.67 442.443 312.517C431.845 321.666 451.209 339.151 454.313 341.918C457.417 344.686 468.511 364.081 482.592 345.253C494.903 328.791 484.606 326.075 473.691 317.326Z" fill="#F5AE1A"/>
<path d="M478.807 300.355C470.622 298.943 454.644 292.144 454.499 280.138C454.329 266.138 480.256 269.055 484.385 269.546C488.515 270.037 510.392 265.494 505.621 288.517C501.449 308.645 492.592 302.733 478.807 300.355Z" fill="#F5AE1A"/>
<path d="M444.617 261.459C444.067 296.066 408.937 327.814 369.394 327.227C334.613 326.711 304.556 297.626 305.071 262.924C305.33 245.478 311.981 227.799 322.921 214.565C333.855 201.339 348.983 192.646 366.204 192.902C383.764 193.162 402.654 197.734 417.489 208.504C432.26 219.228 443.119 236.169 444.617 261.459Z" fill="#F4DD25" stroke="#F5AE1A" stroke-width="3"/>
<mask id="path-15-inside-1_156_16013" fill="white">
<path fill-rule="evenodd" clip-rule="evenodd" d="M47.599 376.46C47.2069 377.882 46.156 379.031 44.7909 379.59C28.1196 386.424 16.377 402.813 16.377 421.946C16.377 447.217 36.863 467.703 62.1337 467.703C66.7692 467.703 71.2438 467.013 75.4604 465.732C76.4752 465.423 77.5799 465.603 78.4295 466.238V466.238C78.9228 466.607 79.3009 467.109 79.5269 467.682C86.2193 484.651 102.762 496.658 122.109 496.658C131.833 496.658 140.848 493.625 148.26 488.453C150.023 487.223 152.405 487.265 154.125 488.555C161.77 494.293 171.27 497.693 181.565 497.693C189.905 497.693 197.723 495.462 204.456 491.564C206.426 490.424 208.955 490.762 210.556 492.38C218.85 500.768 230.364 505.964 243.092 505.964C256.719 505.964 268.955 500.007 277.337 490.555C278.975 488.709 281.769 488.312 283.856 489.629C290.914 494.082 299.275 496.658 308.237 496.658C333.508 496.658 353.994 476.172 353.994 450.902C353.994 425.631 333.508 405.145 308.237 405.145C303.518 405.145 298.966 405.859 294.683 407.186C291.825 408.071 288.659 406.279 288.075 403.343C281.952 372.53 254.765 349.304 222.153 349.304C215.544 349.304 209.158 350.258 203.125 352.035C201.194 352.604 199.099 351.893 197.934 350.252C182.647 328.71 157.466 314.647 128.991 314.647C90.1413 314.647 57.4219 340.825 47.599 376.46Z"/>
</mask>
<path fill-rule="evenodd" clip-rule="evenodd" d="M47.599 376.46C47.2069 377.882 46.156 379.031 44.7909 379.59C28.1196 386.424 16.377 402.813 16.377 421.946C16.377 447.217 36.863 467.703 62.1337 467.703C66.7692 467.703 71.2438 467.013 75.4604 465.732C76.4752 465.423 77.5799 465.603 78.4295 466.238V466.238C78.9228 466.607 79.3009 467.109 79.5269 467.682C86.2193 484.651 102.762 496.658 122.109 496.658C131.833 496.658 140.848 493.625 148.26 488.453C150.023 487.223 152.405 487.265 154.125 488.555C161.77 494.293 171.27 497.693 181.565 497.693C189.905 497.693 197.723 495.462 204.456 491.564C206.426 490.424 208.955 490.762 210.556 492.38C218.85 500.768 230.364 505.964 243.092 505.964C256.719 505.964 268.955 500.007 277.337 490.555C278.975 488.709 281.769 488.312 283.856 489.629C290.914 494.082 299.275 496.658 308.237 496.658C333.508 496.658 353.994 476.172 353.994 450.902C353.994 425.631 333.508 405.145 308.237 405.145C303.518 405.145 298.966 405.859 294.683 407.186C291.825 408.071 288.659 406.279 288.075 403.343C281.952 372.53 254.765 349.304 222.153 349.304C215.544 349.304 209.158 350.258 203.125 352.035C201.194 352.604 199.099 351.893 197.934 350.252C182.647 328.71 157.466 314.647 128.991 314.647C90.1413 314.647 57.4219 340.825 47.599 376.46Z" fill="white"/>
<path d="M203.125 352.035L203.69 353.954L203.125 352.035ZM197.934 350.252L199.565 349.094L197.934 350.252ZM277.337 490.555L278.834 491.882L277.337 490.555ZM283.856 489.629L284.923 487.937L284.923 487.937L283.856 489.629ZM154.125 488.555L155.325 486.955L155.325 486.955L154.125 488.555ZM79.5269 467.682L81.3874 466.948L79.5269 467.682ZM204.456 491.564L203.454 489.833L204.456 491.564ZM210.556 492.38L211.978 490.974L210.556 492.38ZM294.683 407.186L295.275 409.096L294.683 407.186ZM288.075 403.343L290.037 402.954L288.075 403.343ZM75.4604 465.732L74.8787 463.818L75.4604 465.732ZM78.4295 466.238L77.2323 467.84L78.4295 466.238ZM44.7909 379.59L44.0324 377.74L44.7909 379.59ZM47.599 376.46L49.5271 376.991L47.599 376.46ZM45.5495 381.441C29.6031 387.977 18.377 403.653 18.377 421.946H14.377C14.377 401.974 26.6362 384.87 44.0324 377.74L45.5495 381.441ZM18.377 421.946C18.377 446.112 37.9675 465.703 62.1337 465.703V469.703C35.7584 469.703 14.377 448.321 14.377 421.946H18.377ZM62.1337 465.703C66.57 465.703 70.8486 465.043 74.8787 463.818L76.0421 467.645C71.6389 468.983 66.9685 469.703 62.1337 469.703V465.703ZM81.3874 466.948C87.7887 483.179 103.611 494.658 122.109 494.658V498.658C101.913 498.658 84.6499 486.123 77.6663 468.416L81.3874 466.948ZM122.109 494.658C131.41 494.658 140.028 491.758 147.116 486.813L149.405 490.094C141.668 495.492 132.255 498.658 122.109 498.658V494.658ZM155.325 486.955C162.636 492.442 171.718 495.693 181.565 495.693V499.693C170.823 499.693 160.904 496.144 152.924 490.155L155.325 486.955ZM181.565 495.693C189.543 495.693 197.017 493.559 203.454 489.833L205.458 493.295C198.429 497.364 190.266 499.693 181.565 499.693V495.693ZM211.978 490.974C219.912 498.997 230.92 503.964 243.092 503.964V507.964C229.808 507.964 217.788 502.538 209.133 493.786L211.978 490.974ZM243.092 503.964C256.123 503.964 267.822 498.27 275.841 489.228L278.834 491.882C270.088 501.744 257.315 507.964 243.092 507.964V503.964ZM284.923 487.937C291.672 492.195 299.664 494.658 308.237 494.658V498.658C298.886 498.658 290.157 495.969 282.789 491.32L284.923 487.937ZM308.237 494.658C332.404 494.658 351.994 475.068 351.994 450.902H355.994C355.994 477.277 334.613 498.658 308.237 498.658V494.658ZM351.994 450.902C351.994 426.736 332.404 407.145 308.237 407.145V403.145C334.613 403.145 355.994 424.526 355.994 450.902H351.994ZM308.237 407.145C303.721 407.145 299.369 407.829 295.275 409.096L294.092 405.275C298.564 403.89 303.316 403.145 308.237 403.145V407.145ZM286.114 403.733C280.173 373.838 253.792 351.304 222.153 351.304V347.304C255.738 347.304 283.731 371.223 290.037 402.954L286.114 403.733ZM222.153 351.304C215.737 351.304 209.542 352.23 203.69 353.954L202.56 350.117C208.774 348.286 215.351 347.304 222.153 347.304V351.304ZM196.303 351.409C181.376 330.374 156.792 316.647 128.991 316.647V312.647C158.14 312.647 183.918 327.045 199.565 349.094L196.303 351.409ZM128.991 316.647C91.061 316.647 59.1161 342.205 49.5271 376.991L45.6709 375.928C55.7276 339.445 89.2215 312.647 128.991 312.647V316.647ZM203.69 353.954C200.952 354.761 197.969 353.757 196.303 351.409L199.565 349.094C200.228 350.029 201.437 350.448 202.56 350.117L203.69 353.954ZM275.841 489.228C278.129 486.648 282.008 486.098 284.923 487.937L282.789 491.32C281.53 490.526 279.821 490.769 278.834 491.882L275.841 489.228ZM147.116 486.813C149.587 485.089 152.915 485.146 155.325 486.955L152.924 490.155C151.896 489.383 150.459 489.358 149.405 490.094L147.116 486.813ZM79.6267 464.636C80.4256 465.233 81.029 466.04 81.3874 466.948L77.6663 468.416C77.5728 468.179 77.42 467.98 77.2323 467.84L79.6267 464.636ZM203.454 489.833C206.211 488.237 209.737 488.708 211.978 490.974L209.133 493.786C208.174 492.816 206.64 492.61 205.458 493.295L203.454 489.833ZM295.275 409.096C291.337 410.316 286.939 407.888 286.114 403.733L290.037 402.954C290.378 404.67 292.312 405.826 294.092 405.275L295.275 409.096ZM74.8787 463.818C76.484 463.33 78.2523 463.609 79.6267 464.636L77.2323 467.84C76.9075 467.597 76.4665 467.516 76.0421 467.645L74.8787 463.818ZM44.0324 377.74C44.8477 377.405 45.45 376.729 45.6709 375.928L49.5271 376.991C48.9639 379.034 47.4644 380.656 45.5495 381.441L44.0324 377.74Z" fill="#1EDEFF" mask="url(#path-15-inside-1_156_16013)"/>
<mask id="path-17-inside-2_156_16013" fill="white">
<path fill-rule="evenodd" clip-rule="evenodd" d="M29.2666 256.199C29.6778 254.416 29.1471 252.507 27.7975 251.271C20.7783 244.841 16.377 235.6 16.377 225.332C16.377 205.909 32.1218 190.165 51.544 190.165C55.0651 190.165 58.4654 190.682 61.6728 191.645C63.3645 192.153 65.2151 191.698 66.4759 190.461C72.82 184.237 81.513 180.398 91.1024 180.398C102.328 180.398 112.324 185.658 118.763 193.846C120.581 196.159 124.207 196.531 126.456 194.634C132.576 189.471 140.484 186.359 149.118 186.359C160.126 186.359 169.953 191.417 176.401 199.335C177.92 201.201 180.635 201.732 182.746 200.579C187.747 197.846 193.484 196.293 199.584 196.293C219.007 196.293 234.751 212.038 234.751 231.46C234.751 248.189 223.07 262.19 207.419 265.751C205.965 266.082 204.739 267.075 204.114 268.429C198.544 280.502 186.333 288.88 172.165 288.88C164.936 288.88 158.217 286.699 152.629 282.959C150.929 281.821 148.667 281.86 147.008 283.056C141.23 287.221 134.136 289.674 126.469 289.674C120.323 289.674 114.545 288.097 109.518 285.326C107.621 284.281 105.219 284.602 103.665 286.11C97.3333 292.252 88.6986 296.033 79.1809 296.033C69.3572 296.033 60.4744 292.005 54.0938 285.51C53.4973 284.903 52.6757 284.571 51.8246 284.571V284.571C39.0394 284.571 28.6751 274.207 28.6751 261.422C28.6751 259.626 28.8796 257.877 29.2666 256.199Z"/>
</mask>
<path fill-rule="evenodd" clip-rule="evenodd" d="M29.2666 256.199C29.6778 254.416 29.1471 252.507 27.7975 251.271C20.7783 244.841 16.377 235.6 16.377 225.332C16.377 205.909 32.1218 190.165 51.544 190.165C55.0651 190.165 58.4654 190.682 61.6728 191.645C63.3645 192.153 65.2151 191.698 66.4759 190.461C72.82 184.237 81.513 180.398 91.1024 180.398C102.328 180.398 112.324 185.658 118.763 193.846C120.581 196.159 124.207 196.531 126.456 194.634C132.576 189.471 140.484 186.359 149.118 186.359C160.126 186.359 169.953 191.417 176.401 199.335C177.92 201.201 180.635 201.732 182.746 200.579C187.747 197.846 193.484 196.293 199.584 196.293C219.007 196.293 234.751 212.038 234.751 231.46C234.751 248.189 223.07 262.19 207.419 265.751C205.965 266.082 204.739 267.075 204.114 268.429C198.544 280.502 186.333 288.88 172.165 288.88C164.936 288.88 158.217 286.699 152.629 282.959C150.929 281.821 148.667 281.86 147.008 283.056C141.23 287.221 134.136 289.674 126.469 289.674C120.323 289.674 114.545 288.097 109.518 285.326C107.621 284.281 105.219 284.602 103.665 286.11C97.3333 292.252 88.6986 296.033 79.1809 296.033C69.3572 296.033 60.4744 292.005 54.0938 285.51C53.4973 284.903 52.6757 284.571 51.8246 284.571V284.571C39.0394 284.571 28.6751 274.207 28.6751 261.422C28.6751 259.626 28.8796 257.877 29.2666 256.199Z" fill="white"/>
<path d="M152.629 282.959L153.741 281.297L152.629 282.959ZM147.008 283.056L148.178 284.679L147.008 283.056ZM176.401 199.335L177.952 198.072L176.401 199.335ZM182.746 200.579L183.705 202.334L182.746 200.579ZM109.518 285.326L108.552 287.078L109.518 285.326ZM103.665 286.11L102.272 284.674L103.665 286.11ZM66.4759 190.461L65.0753 189.033L66.4759 190.461ZM207.419 265.751L207.863 267.701L207.419 265.751ZM204.114 268.429L205.93 269.267L204.114 268.429ZM54.0938 285.51L52.6671 286.912L54.0938 285.51ZM126.456 194.634L127.745 196.163L126.456 194.634ZM29.1484 249.796C22.5254 243.729 18.377 235.016 18.377 225.332H14.377C14.377 236.184 19.0312 245.953 26.4466 252.745L29.1484 249.796ZM18.377 225.332C18.377 207.014 33.2263 192.165 51.544 192.165V188.165C31.0172 188.165 14.377 204.805 14.377 225.332H18.377ZM51.544 192.165C54.8682 192.165 58.0748 192.653 61.0977 193.561L62.248 189.73C58.8559 188.711 55.262 188.165 51.544 188.165V192.165ZM67.8765 191.888C73.8619 186.016 82.0577 182.398 91.1024 182.398V178.398C80.9683 178.398 71.7781 182.457 65.0753 189.033L67.8765 191.888ZM91.1024 182.398C101.688 182.398 111.115 187.355 117.191 195.083L120.335 192.61C113.534 183.96 102.967 178.398 91.1024 178.398V182.398ZM127.745 196.163C133.519 191.292 140.973 188.359 149.118 188.359V184.359C139.994 184.359 131.634 187.649 125.166 193.105L127.745 196.163ZM149.118 188.359C159.499 188.359 168.765 193.126 174.85 200.598L177.952 198.072C171.14 189.707 160.753 184.359 149.118 184.359V188.359ZM183.705 202.334C188.419 199.758 193.828 198.293 199.584 198.293V194.293C193.141 194.293 187.075 195.934 181.787 198.823L183.705 202.334ZM199.584 198.293C217.902 198.293 232.751 213.142 232.751 231.46H236.751C236.751 210.933 220.111 194.293 199.584 194.293V198.293ZM232.751 231.46C232.751 247.235 221.736 260.442 206.976 263.801L207.863 267.701C224.404 263.937 236.751 249.143 236.751 231.46H232.751ZM202.298 267.591C197.043 278.982 185.524 286.88 172.165 286.88V290.88C187.142 290.88 200.046 282.022 205.93 269.267L202.298 267.591ZM172.165 286.88C165.345 286.88 159.01 284.823 153.741 281.297L151.516 284.621C157.423 288.574 164.528 290.88 172.165 290.88V286.88ZM145.839 281.433C140.39 285.361 133.702 287.674 126.469 287.674V291.674C134.569 291.674 142.07 289.08 148.178 284.679L145.839 281.433ZM126.469 287.674C120.669 287.674 115.222 286.187 110.483 283.575L108.552 287.078C113.868 290.008 119.977 291.674 126.469 291.674V287.674ZM102.272 284.674C96.2988 290.469 88.1581 294.033 79.1809 294.033V298.033C89.2392 298.033 98.3677 294.035 105.057 287.545L102.272 284.674ZM79.1809 294.033C69.9155 294.033 61.5405 290.236 55.5204 284.109L52.6671 286.912C59.4083 293.773 68.799 298.033 79.1809 298.033V294.033ZM51.8246 282.571C40.144 282.571 30.6751 273.102 30.6751 261.422H26.6751C26.6751 275.311 37.9349 286.571 51.8246 286.571V282.571ZM30.6751 261.422C30.6751 259.778 30.8622 258.18 31.2155 256.648L27.3177 255.75C26.897 257.574 26.6751 259.473 26.6751 261.422H30.6751ZM153.741 281.297C151.348 279.695 148.176 279.749 145.839 281.433L148.178 284.679C149.159 283.971 150.511 283.948 151.516 284.621L153.741 281.297ZM174.85 200.598C176.979 203.211 180.748 203.949 183.705 202.334L181.787 198.823C180.521 199.515 178.862 199.19 177.952 198.072L174.85 200.598ZM110.483 283.575C107.818 282.105 104.458 282.554 102.272 284.674L105.057 287.545C105.98 286.65 107.425 286.457 108.552 287.078L110.483 283.575ZM61.0977 193.561C63.4865 194.278 66.0944 193.637 67.8765 191.888L65.0753 189.033C64.3358 189.758 63.2426 190.028 62.248 189.73L61.0977 193.561ZM206.976 263.801C204.916 264.269 203.183 265.673 202.298 267.591L205.93 269.267C206.295 268.477 207.013 267.894 207.863 267.701L206.976 263.801ZM55.5204 284.109C54.5339 283.104 53.1919 282.571 51.8246 282.571V286.571C52.1594 286.571 52.4607 286.702 52.6671 286.912L55.5204 284.109ZM117.191 195.083C119.708 198.284 124.631 198.79 127.745 196.163L125.166 193.105C123.783 194.272 121.454 194.034 120.335 192.61L117.191 195.083ZM26.4466 252.745C27.2272 253.46 27.5788 254.617 27.3177 255.75L31.2155 256.648C31.7768 254.214 31.067 251.553 29.1484 249.796L26.4466 252.745Z" fill="#1EDEFF" mask="url(#path-17-inside-2_156_16013)"/>
<mask id="path-19-inside-3_156_16013" fill="white">
<path fill-rule="evenodd" clip-rule="evenodd" d="M318.374 124.276C312.992 124.276 307.835 123.315 303.064 121.556C300.795 120.719 298.203 121.506 296.784 123.464C288.744 134.562 275.679 141.781 260.927 141.781C251.943 141.781 243.585 139.104 236.606 134.504C234.316 132.994 231.174 133.427 229.377 135.5C221.264 144.86 209.287 150.781 195.927 150.781C181.502 150.781 168.689 143.878 160.611 133.196C158.714 130.687 154.929 130.209 152.469 132.168C144.911 138.185 135.339 141.781 124.928 141.781C115.378 141.781 106.535 138.755 99.3039 133.611C97.4432 132.287 94.9141 132.287 93.0534 133.611C85.8226 138.755 76.9792 141.781 67.4291 141.781C42.9908 141.781 23.1797 121.97 23.1797 97.5314C23.1797 85.5722 27.924 74.7211 35.6331 66.7575C36.6941 65.6616 37.2218 64.1539 37.1156 62.6323C37.0623 61.8673 37.0352 61.0951 37.0352 60.3165C37.0352 42.1989 51.7224 27.5117 69.84 27.5117C73.425 27.5117 76.8757 28.0867 80.1048 29.1496C81.8023 29.7084 83.683 29.422 85.1036 28.3376C92.5455 22.657 101.843 19.2832 111.928 19.2832C121.478 19.2832 130.321 22.3086 137.552 27.4534C139.413 28.7774 141.942 28.7773 143.803 27.4533C151.034 22.3084 159.877 19.2829 169.428 19.2829C182.529 19.2829 194.301 24.9768 202.403 34.0251C205.245 37.1987 211.711 36.572 213.743 32.8277C222.968 15.8264 240.974 4.2832 261.677 4.2832C277.784 4.2832 292.259 11.2707 302.236 22.3798C304.108 24.4645 307.36 24.736 309.594 23.0457C317.01 17.4365 326.248 14.1094 336.263 14.1094C360.701 14.1094 380.512 33.9205 380.512 58.3588C380.512 73.639 372.767 87.1104 360.989 95.061C360.155 95.6235 359.502 96.4161 359.108 97.3413C352.369 113.175 336.668 124.276 318.374 124.276Z"/>
</mask>
<path fill-rule="evenodd" clip-rule="evenodd" d="M318.374 124.276C312.992 124.276 307.835 123.315 303.064 121.556C300.795 120.719 298.203 121.506 296.784 123.464C288.744 134.562 275.679 141.781 260.927 141.781C251.943 141.781 243.585 139.104 236.606 134.504C234.316 132.994 231.174 133.427 229.377 135.5C221.264 144.86 209.287 150.781 195.927 150.781C181.502 150.781 168.689 143.878 160.611 133.196C158.714 130.687 154.929 130.209 152.469 132.168C144.911 138.185 135.339 141.781 124.928 141.781C115.378 141.781 106.535 138.755 99.3039 133.611C97.4432 132.287 94.9141 132.287 93.0534 133.611C85.8226 138.755 76.9792 141.781 67.4291 141.781C42.9908 141.781 23.1797 121.97 23.1797 97.5314C23.1797 85.5722 27.924 74.7211 35.6331 66.7575C36.6941 65.6616 37.2218 64.1539 37.1156 62.6323C37.0623 61.8673 37.0352 61.0951 37.0352 60.3165C37.0352 42.1989 51.7224 27.5117 69.84 27.5117C73.425 27.5117 76.8757 28.0867 80.1048 29.1496C81.8023 29.7084 83.683 29.422 85.1036 28.3376C92.5455 22.657 101.843 19.2832 111.928 19.2832C121.478 19.2832 130.321 22.3086 137.552 27.4534C139.413 28.7774 141.942 28.7773 143.803 27.4533C151.034 22.3084 159.877 19.2829 169.428 19.2829C182.529 19.2829 194.301 24.9768 202.403 34.0251C205.245 37.1987 211.711 36.572 213.743 32.8277C222.968 15.8264 240.974 4.2832 261.677 4.2832C277.784 4.2832 292.259 11.2707 302.236 22.3798C304.108 24.4645 307.36 24.736 309.594 23.0457C317.01 17.4365 326.248 14.1094 336.263 14.1094C360.701 14.1094 380.512 33.9205 380.512 58.3588C380.512 73.639 372.767 87.1104 360.989 95.061C360.155 95.6235 359.502 96.4161 359.108 97.3413C352.369 113.175 336.668 124.276 318.374 124.276Z" fill="white"/>
<path d="M302.236 22.3798L300.748 23.7162L302.236 22.3798ZM309.594 23.0457L310.801 24.6408L309.594 23.0457ZM202.403 34.0251L203.893 32.6909L202.403 34.0251ZM213.743 32.8277L211.985 31.8738L213.743 32.8277ZM143.803 27.4533L142.643 25.8238L143.803 27.4533ZM99.3039 133.611L100.463 131.981L99.3039 133.611ZM93.0534 133.611L94.2128 135.24L93.0534 133.611ZM236.606 134.504L237.707 132.834L236.606 134.504ZM229.377 135.5L227.866 134.19L229.377 135.5ZM35.6331 66.7575L34.1962 65.3664L35.6331 66.7575ZM37.1156 62.6323L35.1205 62.7714L37.1156 62.6323ZM160.611 133.196L159.016 134.402L160.611 133.196ZM152.469 132.168L151.223 130.603L152.469 132.168ZM360.989 95.061L359.87 93.4033L360.989 95.061ZM359.108 97.3413L357.268 96.5581L359.108 97.3413ZM303.064 121.556L302.372 123.432L303.064 121.556ZM296.784 123.464L295.165 122.291L296.784 123.464ZM302.372 123.432C307.361 125.272 312.753 126.276 318.374 126.276V122.276C313.232 122.276 308.309 121.358 303.756 119.679L302.372 123.432ZM260.927 143.781C276.347 143.781 290.004 136.232 298.404 124.638L295.165 122.291C287.485 132.892 275.01 139.781 260.927 139.781V143.781ZM235.505 136.174C242.801 140.982 251.54 143.781 260.927 143.781V139.781C252.346 139.781 244.369 137.225 237.707 132.834L235.505 136.174ZM227.866 134.19C220.116 143.131 208.683 148.781 195.927 148.781V152.781C209.891 152.781 222.412 146.59 230.889 136.81L227.866 134.19ZM195.927 148.781C182.155 148.781 169.923 142.194 162.206 131.99L159.016 134.402C167.456 145.563 180.849 152.781 195.927 152.781V148.781ZM124.928 143.781C135.808 143.781 145.815 140.021 153.714 133.733L151.223 130.603C144.006 136.349 134.871 139.781 124.928 139.781V143.781ZM98.1445 135.24C105.703 140.618 114.949 143.781 124.928 143.781V139.781C115.807 139.781 107.367 136.893 100.463 131.981L98.1445 135.24ZM67.4291 143.781C77.4082 143.781 86.6547 140.618 94.2128 135.24L91.8939 131.981C84.9906 136.893 76.5501 139.781 67.4291 139.781V143.781ZM21.1797 97.5314C21.1797 123.074 41.8862 143.781 67.4291 143.781V139.781C44.0954 139.781 25.1797 120.865 25.1797 97.5314H21.1797ZM34.1962 65.3664C26.1405 73.688 21.1797 85.0324 21.1797 97.5314H25.1797C25.1797 86.1119 29.7075 75.7542 37.0701 68.1486L34.1962 65.3664ZM35.0352 60.3165C35.0352 61.1415 35.0639 61.9602 35.1205 62.7714L39.1108 62.4931C39.0607 61.7744 39.0352 61.0486 39.0352 60.3165H35.0352ZM69.84 25.5117C50.6178 25.5117 35.0352 41.0943 35.0352 60.3165H39.0352C39.0352 43.3035 52.827 29.5117 69.84 29.5117V25.5117ZM80.7301 27.2499C77.3017 26.1214 73.6401 25.5117 69.84 25.5117V29.5117C73.2099 29.5117 76.4496 30.0521 79.4795 31.0494L80.7301 27.2499ZM111.928 17.2832C101.389 17.2832 91.6684 20.8105 83.8901 26.7479L86.3171 29.9274C93.4226 24.5036 102.296 21.2832 111.928 21.2832V17.2832ZM138.712 25.8238C131.153 20.446 121.907 17.2832 111.928 17.2832V21.2832C121.049 21.2832 129.489 24.1712 136.393 29.083L138.712 25.8238ZM169.428 17.2829C159.448 17.2829 150.202 20.4459 142.643 25.8238L144.962 29.0829C151.866 24.171 160.306 21.2829 169.428 21.2829V17.2829ZM203.893 32.6909C195.427 23.2369 183.121 17.2829 169.428 17.2829V21.2829C181.937 21.2829 193.174 26.7168 200.913 35.3593L203.893 32.6909ZM261.677 2.2832C240.212 2.2832 221.546 14.2538 211.985 31.8738L215.501 33.7815C224.39 17.399 241.737 6.2832 261.677 6.2832V2.2832ZM303.724 21.0434C293.384 9.52982 278.375 2.2832 261.677 2.2832V6.2832C277.192 6.2832 291.134 13.0116 300.748 23.7162L303.724 21.0434ZM336.263 12.1094C325.798 12.1094 316.139 15.5878 308.388 21.4506L310.801 24.6408C317.881 19.2852 326.699 16.1094 336.263 16.1094V12.1094ZM382.512 58.3588C382.512 32.8159 361.806 12.1094 336.263 12.1094V16.1094C359.597 16.1094 378.512 35.0251 378.512 58.3588H382.512ZM362.107 96.7187C374.414 88.4121 382.512 74.3316 382.512 58.3588H378.512C378.512 72.9465 371.121 85.8086 359.87 93.4033L362.107 96.7187ZM318.374 126.276C337.498 126.276 353.906 114.67 360.948 98.1245L357.268 96.5581C350.832 111.68 335.838 122.276 318.374 122.276V126.276ZM300.748 23.7162C303.333 26.5946 307.759 26.9414 310.801 24.6408L308.388 21.4506C306.96 22.5306 304.883 22.3344 303.724 21.0434L300.748 23.7162ZM200.913 35.3593C202.877 37.5531 205.914 38.2833 208.58 38.0102C211.246 37.7371 214.078 36.4034 215.501 33.7815L211.985 31.8738C211.376 32.9963 209.959 33.848 208.173 34.031C206.388 34.2139 204.77 33.6707 203.893 32.6909L200.913 35.3593ZM136.393 29.083C138.948 30.9008 142.407 30.9008 144.962 29.0829L142.643 25.8238C141.477 26.6539 139.878 26.6539 138.712 25.8238L136.393 29.083ZM79.4795 31.0494C81.7786 31.8061 84.3516 31.4277 86.3171 29.9274L83.8901 26.7479C83.0144 27.4163 81.8261 27.6107 80.7301 27.2499L79.4795 31.0494ZM100.463 131.981C97.9085 130.163 94.4488 130.163 91.8939 131.981L94.2128 135.24C95.3795 134.41 96.9778 134.41 98.1445 135.24L100.463 131.981ZM237.707 132.834C234.579 130.772 230.32 131.359 227.866 134.19L230.889 136.81C232.028 135.495 234.053 135.216 235.505 136.174L237.707 132.834ZM37.0701 68.1486C38.5399 66.6303 39.255 64.5605 39.1108 62.4931L35.1205 62.7714C35.1886 63.7474 34.8483 64.6928 34.1962 65.3664L37.0701 68.1486ZM162.206 131.99C159.632 128.585 154.564 127.943 151.223 130.603L153.714 133.733C155.295 132.474 157.796 132.79 159.016 134.402L162.206 131.99ZM359.87 93.4033C358.716 94.1819 357.812 95.2783 357.268 96.5581L360.948 98.1245C361.191 97.554 361.594 97.0652 362.107 96.7187L359.87 93.4033ZM303.756 119.679C300.647 118.533 297.11 119.606 295.165 122.291L298.404 124.638C299.296 123.406 300.944 122.906 302.372 123.432L303.756 119.679Z" fill="#1EDEFF" mask="url(#path-19-inside-3_156_16013)"/>
</g>
<defs>
<clipPath id="clip0_156_16013">
<rect width="512" height="512" fill="white"/>
</clipPath>
</defs>
</svg>
