<svg width="1719" height="3245" viewBox="0 0 1719 3245" fill="none" xmlns="http://www.w3.org/2000/svg">
<g clip-path="url(#clip0_68_1259)">
<path d="M1092.66 1838.44C750.157 1569.94 381 1838.44 381 2059.44C413 2470.94 824.974 2413.31 1009.66 2302.44C1266.5 2110.94 1178.58 1905.8 1092.66 1838.44Z" fill="#21282E"/>
<path d="M599.363 1832.62C615.969 1993.08 655.548 2320.08 681.012 2344.44M722.067 1815.8C716.839 1908.68 724.651 2136.8 797.72 2306.26M843.849 1792.62C839.544 1915.35 848.185 2184.08 917.195 2277.17M939.799 1764.44C946.564 1892.32 971.167 2171.35 1015.45 2264.44M484.5 1974.44C634.575 1964.74 956.498 1930.89 1043.59 1873.08M498.8 2059.44C650.413 2046.56 974.488 2009.17 1057.89 1962.62M513.1 2144.44C668.249 2121.56 996.538 2068.8 1068.5 2040.8M522.326 2231.71C695.773 2196.26 1047.83 2125.62 1068.5 2126.71M584.14 2306.26C719.299 2273.23 996.446 2207.17 1023.75 2207.17" stroke="#1C2228" stroke-width="9"/>
<path d="M1186.71 2838.83C1180.98 2950.99 1245.01 2958 1283.93 2958C1315.97 2958 1375.35 2959.5 1377.91 2846.5C1380.49 2733.02 1347.82 2671.78 1293.66 2612.15C1288.51 2606.47 1279.66 2606.19 1274.26 2611.64C1197.84 2688.66 1190.04 2773.64 1186.71 2838.83Z" fill="#252A34"/>
<path d="M1276.02 2611.76C1203.85 2684.47 1194.81 2773.12 1191.5 2838.85C1186.03 2947.27 1246.01 2957.44 1275.07 2958C1245.26 2957.45 1166.81 2947.32 1172.27 2838.85C1175.56 2773.58 1198.58 2647.4 1274 2608.78C1275.96 2607.78 1277.58 2610.2 1276.02 2611.76Z" fill="#49515C"/>
<path d="M1289.48 2611.76C1361.65 2684.47 1370.69 2773.12 1374 2838.85C1379.47 2947.27 1319.49 2957.44 1290.43 2958C1320.24 2957.45 1398.69 2947.32 1393.23 2838.85C1389.94 2773.58 1366.92 2647.4 1291.5 2608.78C1289.54 2607.78 1287.92 2610.2 1289.48 2611.76Z" fill="#49515C"/>
<path d="M1282.71 2953.68C1267.31 2912.91 1276.06 2725.72 1282.26 2649.63C1282.35 2648.55 1283.58 2648.42 1283.79 2649.48C1291.43 2688.06 1287.96 2863.94 1284.33 2953.41C1284.29 2954.43 1283.07 2954.63 1282.71 2953.68Z" fill="#49515C"/>
<path d="M1293.1 2956.13C1311.2 2943.73 1337.7 2914.23 1329.4 2855.33C1329.24 2854.17 1327.71 2854.1 1327.55 2855.23C1318.7 2919.72 1310.34 2922.9 1291.79 2954.77C1291.28 2955.65 1292.27 2956.69 1293.1 2956.13Z" fill="#49515C"/>
<path d="M1274.14 2955.65C1256.04 2943.26 1229.54 2913.75 1237.84 2854.85C1238 2853.69 1239.53 2853.62 1239.68 2854.75C1248.54 2919.24 1256.9 2922.42 1275.45 2954.29C1275.96 2955.18 1274.97 2956.22 1274.14 2955.65Z" fill="#49515C"/>
<path d="M752.979 2496.49C821.754 2499.87 894.629 2520.6 979.432 2564.63C990.064 2570.15 999.15 2578.06 1005.71 2587.59C1011.85 2596.54 1015.77 2606.91 1016.65 2618.11C1021.39 2678.23 1011.11 2759.7 979.246 2838.56C961.052 2883.59 937.139 2927.88 907.519 2967.06C872.828 3012.96 830.307 3051.85 779.979 3076.74C689.193 3121.64 573.001 3120.97 431.518 3033.6C414.717 3023.22 402.044 3007.14 396.905 2988.07C365.454 2871.37 387.991 2736.54 458.069 2637.56C494.891 2585.55 544.84 2543.44 606.979 2519.06C649.925 2502.2 698.695 2493.82 752.979 2496.49Z" fill="#459519"/>
<path d="M816.979 2739.75L752.979 2496.49M752.979 2496.49C821.754 2499.87 894.629 2520.6 979.432 2564.63C1000.03 2575.33 1014.83 2594.97 1016.65 2618.11C1021.39 2678.23 1011.11 2759.7 979.246 2838.56M752.979 2496.49C698.695 2493.82 649.925 2502.2 606.979 2519.06M833.479 2726.82L730.479 2807.56L711.479 2819.83M833.479 2726.82L979.246 2838.56M833.479 2726.82L1006.98 2586.56M979.246 2838.56C961.052 2883.59 937.139 2927.88 907.519 2967.06M907.519 2967.06L711.479 2819.83M907.519 2967.06C872.828 3012.96 830.307 3051.85 779.979 3076.74M711.479 2819.83L682.462 2838.56M682.462 2838.56L606.979 2519.06M682.462 2838.56L560.479 2917.32M606.979 2519.06C544.84 2543.44 494.891 2585.55 458.069 2637.56M458.069 2637.56C387.991 2736.54 365.454 2871.37 396.905 2988.07C402.044 3007.14 414.717 3023.22 431.518 3033.6C573.001 3120.97 689.193 3121.64 779.979 3076.74M458.069 2637.56L527.979 2938.3M527.979 2938.3L560.479 2917.32M527.979 2938.3L411.479 3015.06M560.479 2917.32L779.979 3076.74" stroke="#3B7419" stroke-width="12"/>
<path d="M247.428 2894.18C240.754 2910.59 185.476 2904.11 157.797 2898.66C157.325 2898.57 157.004 2898.15 157.01 2897.67L184.463 551.148C184.48 549.683 186.002 548.751 187.22 549.565C210.281 564.96 223.998 628.99 228.128 660.563C228.161 660.821 228.149 661.048 228.082 661.3C210.921 726.346 206.841 957.759 207 1070L247.496 2893.8C247.499 2893.93 247.477 2894.06 247.428 2894.18Z" fill="#4B7F2A" stroke="#385923" stroke-width="4"/>
<path d="M1073.58 480.689C1016.55 506.81 1005.7 608.983 1007.4 656.804C1032.99 730.549 1103.61 700.646 1135.73 676.477C1149.5 536.489 1100.04 487.623 1073.58 480.689Z" fill="#FFCB00" stroke="#101115" stroke-width="15"/>
<path d="M1328.5 566.377C1266.65 576.847 1229.73 672.73 1218.99 719.362C1224.62 797.216 1300.58 786.611 1337.85 771.578C1387.39 639.925 1352.26 579.922 1328.5 566.377Z" fill="#FFCB00" stroke="#101115" stroke-width="15"/>
<path d="M842.08 508.737C903.697 520.483 938.635 617.108 948.402 663.952C941.168 741.673 865.446 729.501 828.49 713.701C781.681 581.052 818.046 521.788 842.08 508.737Z" fill="#FFCB00" stroke="#101115" stroke-width="15"/>
<path d="M620.592 614.788C683.15 610.186 741.906 694.476 763.464 737.196C776.592 814.141 700.301 821.982 660.514 816.285C580.968 700.271 600.755 633.615 620.592 614.788Z" fill="#FFCB00" stroke="#101115" stroke-width="15"/>
<path d="M958.537 460.475C901.507 486.595 903.673 621.344 905.375 669.165C930.959 742.91 1001.58 713.008 1033.7 688.838C1047.48 548.85 984.991 467.409 958.537 460.475Z" fill="#FFCB00" stroke="#101115" stroke-width="15"/>
<path d="M1248.48 716.188L1248.45 716.391C1214.77 786.806 1145.38 730.554 1116.18 702.941C1118.16 562.29 1199.43 475.041 1226.49 471.114C1280.16 503.41 1255.57 668.589 1248.48 716.188Z" fill="#FFCB00" stroke="#101115" stroke-width="15"/>
<path d="M1490.12 653.546C1530.03 712.124 1406.09 873.968 1378.92 913.418C1315.32 959.585 1298.73 846.857 1281.31 805.852C1343.13 678.383 1461.42 642.523 1490.12 653.546Z" fill="#FFCB00" stroke="#101115" stroke-width="15"/>
<path d="M723.794 522.097C786.406 525.891 827.755 656.411 843.414 701.627C846.149 779.636 769.494 777.218 730.824 766.258C667.485 640.661 701.62 538.106 723.794 522.097Z" fill="#FFCB00" stroke="#101115" stroke-width="15"/>
<path d="M512.838 673.694C476.508 724.83 555.247 872.864 580.632 913.427C639.661 964.5 682.826 869.344 698.554 832.356C640.491 704.233 539.215 666.471 512.838 673.694Z" fill="#FFCB00" stroke="#101115" stroke-width="15"/>
<path d="M1275.93 1445.28C1213.21 1444.6 1161.75 1355.67 1143.86 1311.29C1137.25 1233.51 1213.93 1232.11 1253.1 1241.14C1322.6 1363.43 1297.28 1428.18 1275.93 1445.28Z" fill="#FFCB00" stroke="#101115" stroke-width="15"/>
<path d="M1053.03 1513.78C1104.54 1478 1097.17 1375.52 1087.05 1328.75C1048.84 1260.68 984.607 1302.59 957.269 1332.06C968.443 1472.28 1025.76 1511.63 1053.03 1513.78Z" fill="#FFCB00" stroke="#101115" stroke-width="15"/>
<path d="M807.554 1506.96C866.578 1485.73 885.983 1384.83 888.307 1337.03C869.014 1261.4 796.126 1285.26 762.093 1306.64C736.595 1444.97 781.776 1497.83 807.554 1506.96Z" fill="#FFCB00" stroke="#101115" stroke-width="15"/>
<path d="M431.212 851.757C425.318 914.207 508.376 974.692 550.642 997.128C627.299 1011.84 636.715 935.73 631.841 895.834C517.496 813.908 450.445 832.314 431.212 851.757Z" fill="#FFCB00" stroke="#101115" stroke-width="15"/>
<path d="M1573.1 810.825C1579.28 873.247 1496.5 934.108 1454.33 956.736C1377.74 971.799 1367.98 895.729 1372.67 855.811C1486.65 773.368 1553.78 791.469 1573.1 810.825Z" fill="#FFCB00" stroke="#101115" stroke-width="15"/>
<path d="M387.101 1142.69C415.248 1198.74 517.744 1205.93 565.473 1202.51C638.254 1174.31 605.842 1104.8 580.538 1073.57C440.145 1064.82 393.083 1116 387.101 1142.69Z" fill="#FFCB00" stroke="#101115" stroke-width="15"/>
<path d="M1588.49 1095.24C1560.6 1151.43 1458.14 1159.08 1410.39 1155.88C1337.48 1128 1369.58 1058.35 1394.74 1027C1535.09 1017.61 1582.39 1068.58 1588.49 1095.24Z" fill="#FFCB00" stroke="#101115" stroke-width="15"/>
<path d="M1573.5 1211.94C1532.52 1259.43 1431.37 1241.38 1385.92 1226.41C1322.23 1181.29 1370.63 1121.8 1402.8 1097.69C1541.08 1123.48 1574.22 1184.61 1573.5 1211.94Z" fill="#FFCB00" stroke="#101115" stroke-width="15"/>
<path d="M1179.05 1510.52C1116.32 1509.85 1063.51 1385.86 1045.62 1341.48C1039.01 1263.71 1115.69 1262.31 1154.86 1271.33C1224.37 1393.62 1200.4 1493.43 1179.05 1510.52Z" fill="#FFCB00" stroke="#101115" stroke-width="15"/>
<path d="M1410.24 1413.42C1450.74 1365.52 1375.53 1205.12 1353.65 1162.57C1299.12 1106.71 1251.5 1182.28 1232.72 1217.81C1279.8 1350.36 1383.35 1418.4 1410.24 1413.42Z" fill="#FFCB00" stroke="#101115" stroke-width="15"/>
<path d="M939.529 1549.68C995.189 1520.75 979.893 1384.7 975.813 1337.02C946.592 1264.64 877.543 1298.02 846.671 1323.75C839.875 1464.25 912.762 1544.07 939.529 1549.68Z" fill="#FFCB00" stroke="#101115" stroke-width="15"/>
<path d="M685.158 1496.96C631.175 1465.01 642.916 1297.75 649.614 1250.37C682.775 1179.71 760.904 1249.09 790.312 1276.49C789.364 1417.15 712.193 1492.83 685.158 1496.96Z" fill="#FFCB00" stroke="#101115" stroke-width="15"/>
<path d="M1498.44 1343.18C1437.37 1361.37 1349.17 1282.34 1312.7 1240.55C1272.77 1159.86 1346.47 1135.25 1388.31 1133.03C1508.38 1242.09 1511.76 1318.57 1498.44 1343.18Z" fill="#FFCB00" stroke="#101115" stroke-width="15"/>
<path d="M344.698 1009.78C355.168 1071.63 556.147 1107.59 602.779 1118.32C680.633 1112.69 613.378 1003.3 598.344 966.026C466.692 916.487 358.242 986.026 344.698 1009.78Z" fill="#FFCB00" stroke="#101115" stroke-width="15"/>
<path d="M1630.87 966.557C1620.68 1028.45 1423.09 1058.47 1376.51 1069.42C1298.63 1064.14 1364.53 966.683 1379.4 929.34C1510.82 879.204 1617.22 942.86 1630.87 966.557Z" fill="#FFCB00" stroke="#101115" stroke-width="15"/>
<path d="M408.823 1304.06C448.813 1352.39 640.844 1284.13 686.595 1270.11C751.205 1226.31 638.266 1165.2 606.608 1140.44C467.824 1163.36 408.673 1276.71 408.823 1304.06Z" fill="#FFCB00" stroke="#101115" stroke-width="15"/>
<path d="M551.873 1422.33C613.848 1432.01 679.276 1352.79 704.243 1311.97C723.596 1236.35 648.197 1222.32 608.078 1224.75C519.345 1333.9 533.636 1401.95 551.873 1422.33Z" fill="#FFCB00" stroke="#101115" stroke-width="15"/>
<path d="M566.103 1079.02L566.152 1079.42L566.232 1079.82C588.11 1188.76 631.819 1264.36 688.805 1313.7C745.776 1363.03 815.1 1385.32 886.788 1389.32C1029.63 1397.28 1183.59 1332.79 1275.19 1261.53L1275.6 1261.21L1275.98 1260.84C1400.68 1142.03 1434.34 1029.2 1422.51 937.236C1410.76 845.881 1354.31 777.079 1302.35 745.626C1101.63 624.131 910.294 646.975 772.782 730.497C636.189 813.46 551.372 957.429 566.103 1079.02Z" fill="#644D29" stroke="#141415" stroke-width="21"/>
<path d="M777.305 811.348C815.22 978.005 898.523 1316.91 928.411 1339.29M904.227 778.021C910.564 876.381 947.851 1115.33 1046.3 1284.26M1029.37 738.118C1040.48 867.757 1083.81 1149.31 1168.27 1238.44M1126.7 696.248C1150.11 829.894 1211.55 1120.25 1269.99 1212.53M674.561 975.156C831.18 945.832 1165.48 869.204 1249.72 797.29M700.434 1062.74C858.265 1029.87 1194.38 949.242 1276.17 889.655M726.308 1150.32C886.584 1106.49 1225.17 1009.16 1297.29 970.538M747.133 1240.95C925.054 1181.55 1286.36 1062.39 1308.24 1060.9M821.651 1311.48C959.608 1259.51 1242.7 1154.71 1271.43 1151.23" stroke="#544123" stroke-width="9"/>
</g>
<defs>
<clipPath id="clip0_68_1259">
<rect width="1719" height="3245" fill="white"/>
</clipPath>
</defs>
</svg>
