<svg width="1131" height="873" viewBox="0 0 1131 873" fill="none" xmlns="http://www.w3.org/2000/svg">
<path d="M738.376 722.545C734.376 717.745 740.042 717.545 743.376 718.045C743.965 714.806 743.507 708.487 742.958 703.58C742.621 700.569 742.578 697.514 743.208 694.549C743.85 691.526 744.506 689.573 745.375 688.368C747.288 685.717 750.853 685.514 756.952 686.67C756.968 686.673 756.984 686.676 757 686.68C759.469 687.129 761.607 689.473 762.875 690.827C765.113 693.217 765.804 696.781 766.101 700.677C766.104 700.704 766.106 700.731 766.107 700.757C766.321 703.622 766.325 706.664 766.577 709.549C766.651 710.398 766.747 711.233 766.875 712.046C767.295 714.705 767.675 717.05 767.918 719.049C768.543 724.194 768.256 727.046 765.375 727.046C763.174 727.046 761.881 725.38 760.914 721.049C760.391 718.711 759.964 715.597 759.539 711.549C759.321 709.468 759.104 707.141 758.875 704.546C758.779 703.462 758.653 702.464 758.501 701.549C758.153 699.457 757.669 697.799 757.101 696.549C756.173 694.506 755.021 693.553 753.875 693.578C753.19 693.592 752.507 693.956 751.875 694.645C750.823 695.792 749.914 697.841 749.375 700.677C748.985 702.734 748.789 705.205 748.875 708.046C748.896 708.735 748.905 709.403 748.904 710.049C748.893 716.009 747.962 720.127 746.541 722.545C744.43 726.138 741.239 725.981 738.376 722.545Z" fill="#FF5C1C"/>
<path d="M743.376 718.045C740.042 717.545 734.376 717.745 738.376 722.545C741.239 725.981 744.43 726.138 746.541 722.545M743.376 718.045C743.965 714.806 743.507 708.487 742.958 703.58C742.621 700.569 742.578 697.514 743.208 694.549V694.549M743.376 718.045C744.486 719.044 746.674 721.342 746.541 722.545M757 686.68C756.658 686.617 757.324 686.741 757 686.68ZM757 686.68C750.872 685.513 747.293 685.71 745.375 688.368M757 686.68C755.108 686.273 753.92 691.502 753.875 693.578M757 686.68C759.469 687.129 761.607 689.473 762.875 690.827M743.875 709.549C745.394 708.882 748.528 708.049 748.904 710.049M748.904 710.049C748.905 709.403 748.896 708.735 748.875 708.046C748.789 705.205 748.985 702.734 749.375 700.677M748.904 710.049C748.893 716.009 747.962 720.127 746.541 722.545M743.208 694.549C743.597 696.635 745.375 700.78 749.375 700.677M743.208 694.549C743.85 691.526 744.506 689.573 745.375 688.368M749.375 700.677C749.914 697.841 750.823 695.792 751.875 694.645M745.375 688.368C746.875 690.492 750.275 694.722 751.875 694.645M751.875 694.645C752.507 693.956 753.19 693.592 753.875 693.578M753.875 693.578C755.021 693.553 756.173 694.506 757.101 696.549M757.101 696.549C759.026 695.401 762.875 692.649 762.875 690.827M757.101 696.549C757.669 697.799 758.153 699.457 758.501 701.549M762.875 690.827C765.113 693.217 765.804 696.781 766.101 700.677M758.501 701.549C758.653 702.464 758.779 703.462 758.875 704.546C759.104 707.141 759.321 709.468 759.539 711.549M758.501 701.549C761.128 702.135 766.326 702.78 766.101 700.677M766.101 700.677C766.32 703.566 766.323 706.637 766.577 709.549M759.539 711.549C761.922 711.384 766.665 710.752 766.577 709.549M759.539 711.549C759.964 715.597 760.391 718.711 760.914 721.049M766.577 709.549C766.651 710.398 766.747 711.233 766.875 712.046C767.295 714.705 767.675 717.05 767.918 719.049M760.914 721.049C761.881 725.38 763.174 727.046 765.375 727.046C768.256 727.046 768.543 724.194 767.918 719.049M760.914 721.049C762.763 719.716 766.753 717.449 767.918 719.049" stroke="#9B2C00"/>
<path d="M580.658 747.92C581.594 742.894 575.584 734.022 572.462 730.215C567.779 718.792 574.414 720.124 578.316 722.219C578.901 725.074 580.189 731.585 580.658 734.784C581.243 738.782 588.268 755.345 596.463 751.347C602.022 748.636 605.729 750.312 606.728 752.046C606.997 752.512 606.578 752.976 606.04 753.001C603.333 753.131 595.855 753.574 596.223 754.51C596.467 755.131 601.994 755.761 604.943 756.054C605.73 756.132 606.01 756.947 605.323 757.338C604.354 757.89 602.828 758.496 600.561 758.772C595.878 759.344 589.438 753.632 586.511 753.632C583.585 753.632 578.313 757.63 572.459 757.059C571.09 756.795 566.14 755.117 571.292 754.203C577.731 753.061 579.487 754.203 580.658 747.92Z" fill="#F8921E" stroke="#A45C10"/>
<path d="M612.351 734.634C613.263 729.475 607.411 720.37 604.371 716.462C599.811 704.738 606.271 706.106 610.071 708.256C610.641 711.187 611.895 717.869 612.351 721.152C612.921 725.255 619.761 742.254 627.74 738.151C633.173 735.357 636.789 737.102 637.746 738.888C638 739.361 637.578 739.822 637.041 739.85C634.385 739.984 627.149 740.439 627.507 741.397C627.745 742.036 633.146 742.683 636.013 742.983C636.786 743.064 637.075 743.868 636.412 744.272C635.469 744.846 633.973 745.483 631.73 745.771C627.17 746.357 620.901 740.496 618.051 740.496C615.201 740.496 610.067 744.599 604.368 744.013C603.035 743.742 598.215 742.02 603.231 741.082C609.501 739.909 611.211 741.082 612.351 734.634Z" fill="#F8921E" stroke="#A45C10"/>
<mask id="path-5-inside-1_116_11041" fill="white">
<path fill-rule="evenodd" clip-rule="evenodd" d="M662.768 671.449C668.691 665.07 672.353 656.729 672.892 648.041C673.817 633.132 668.961 616.669 652.57 613.362C638.729 610.578 623.253 623.626 608.573 648.737C585.363 645.687 559.762 650.837 542.375 665.706C524.468 651.177 495.644 628.929 488.299 627.705C480.065 626.332 489.125 637.424 494.683 643.142C493.075 642.461 491.513 641.883 490.014 641.427C474.233 636.624 476.578 642.063 479.722 645.383C472.683 642.428 466.799 641.246 463.428 643.142C453.174 648.91 500.487 678.074 530.302 694.708C533.814 703.021 541.727 714.309 558.612 724.509C593.322 745.478 666.444 712.794 653.57 677.349C656.636 676.642 659.471 674.999 662.768 671.449Z"/>
</mask>
<path fill-rule="evenodd" clip-rule="evenodd" d="M662.768 671.449C668.691 665.07 672.353 656.729 672.892 648.041C673.817 633.132 668.961 616.669 652.57 613.362C638.729 610.578 623.253 623.626 608.573 648.737C585.363 645.687 559.762 650.837 542.375 665.706C524.468 651.177 495.644 628.929 488.299 627.705C480.065 626.332 489.125 637.424 494.683 643.142C493.075 642.461 491.513 641.883 490.014 641.427C474.233 636.624 476.578 642.063 479.722 645.383C472.683 642.428 466.799 641.246 463.428 643.142C453.174 648.91 500.487 678.074 530.302 694.708C533.814 703.021 541.727 714.309 558.612 724.509C593.322 745.478 666.444 712.794 653.57 677.349C656.636 676.642 659.471 674.999 662.768 671.449Z" fill="#3A3A3A"/>
<path d="M672.892 648.041L674.888 648.165L674.888 648.165L672.892 648.041ZM662.768 671.449L661.302 670.088L661.302 670.088L662.768 671.449ZM652.57 613.362L652.965 611.401L652.964 611.401L652.57 613.362ZM608.573 648.737L608.313 650.72L609.63 650.893L610.3 649.746L608.573 648.737ZM542.375 665.706L541.114 667.259L542.408 668.309L543.674 667.226L542.375 665.706ZM488.299 627.705L488.628 625.732L488.628 625.732L488.299 627.705ZM494.683 643.142L493.904 644.984L496.117 641.748L494.683 643.142ZM490.014 641.427L490.596 639.513L490.596 639.513L490.014 641.427ZM479.722 645.383L478.948 647.227L481.174 644.007L479.722 645.383ZM463.428 643.142L462.448 641.399L462.448 641.399L463.428 643.142ZM530.302 694.708L532.144 693.93L531.877 693.297L531.276 692.962L530.302 694.708ZM558.612 724.509L557.578 726.221L557.578 726.221L558.612 724.509ZM653.57 677.349L653.12 675.4L650.918 675.908L651.69 678.032L653.57 677.349ZM670.896 647.917C670.386 656.132 666.92 664.039 661.302 670.088L664.233 672.81C670.463 666.102 674.319 657.327 674.888 648.165L670.896 647.917ZM652.174 615.322C659.682 616.837 664.519 621.32 667.43 627.234C670.377 633.219 671.344 640.687 670.896 647.917L674.888 648.165C675.364 640.486 674.367 632.267 671.019 625.467C667.636 618.596 661.849 613.194 652.965 611.401L652.174 615.322ZM610.3 649.746C617.577 637.299 624.973 627.983 632.149 622.14C639.326 616.296 646.06 614.093 652.175 615.323L652.964 611.401C645.239 609.847 637.314 612.776 629.623 619.038C621.931 625.301 614.249 635.065 606.847 647.727L610.3 649.746ZM543.674 667.226C560.522 652.818 585.505 647.723 608.313 650.72L608.834 646.754C585.22 643.651 559.001 648.856 541.075 664.186L543.674 667.226ZM487.97 629.677C488.586 629.78 489.622 630.151 491.111 630.886C492.559 631.601 494.298 632.592 496.276 633.816C500.231 636.264 505.036 639.581 510.2 643.334C520.523 650.836 532.175 660.006 541.114 667.259L543.635 664.153C534.667 656.877 522.954 647.658 512.552 640.098C507.354 636.32 502.457 632.937 498.381 630.415C496.345 629.154 494.487 628.092 492.883 627.3C491.319 626.527 489.848 625.935 488.628 625.732L487.97 629.677ZM496.117 641.748C493.364 638.916 489.851 634.856 488.048 631.758C487.603 630.994 487.3 630.353 487.134 629.849C486.953 629.304 487.002 629.132 486.987 629.194C486.973 629.257 486.927 629.375 486.821 629.489C486.718 629.6 486.629 629.632 486.635 629.629C486.702 629.606 487.071 629.527 487.97 629.677L488.628 625.732C487.468 625.538 486.32 625.506 485.327 625.849C484.187 626.244 483.372 627.102 483.095 628.273C482.859 629.271 483.064 630.286 483.337 631.108C483.623 631.971 484.07 632.877 484.591 633.771C486.648 637.306 490.444 641.651 493.25 644.536L496.117 641.748ZM489.432 643.34C490.852 643.772 492.348 644.325 493.904 644.984L495.463 641.3C493.803 640.597 492.174 639.994 490.596 639.513L489.432 643.34ZM481.174 644.007C480.463 643.257 479.889 642.476 479.601 641.852C479.258 641.107 479.601 641.292 479.298 641.65C479.127 641.853 479.304 641.439 481.19 641.548C482.909 641.649 485.546 642.158 489.432 643.34L490.596 639.513C486.591 638.295 483.604 637.682 481.423 637.555C479.408 637.438 477.409 637.69 476.244 639.067C474.948 640.6 475.48 642.466 475.968 643.526C476.511 644.705 477.409 645.849 478.27 646.758L481.174 644.007ZM464.409 644.885C465.524 644.258 467.304 644.02 469.894 644.42C472.442 644.813 475.505 645.782 478.948 647.227L480.496 643.539C476.9 642.029 473.501 640.929 470.505 640.467C467.55 640.011 464.703 640.13 462.448 641.399L464.409 644.885ZM531.276 692.962C516.392 684.658 497.182 673.248 482.994 663.217C475.874 658.183 470.142 653.582 466.838 649.948C465.152 648.093 464.307 646.711 464.066 645.813C463.958 645.409 464.012 645.249 464.024 645.219C464.03 645.204 464.076 645.072 464.409 644.885L462.448 641.399C461.498 641.933 460.713 642.705 460.3 643.759C459.893 644.798 459.941 645.872 460.203 646.85C460.703 648.716 462.106 650.689 463.879 652.639C467.494 656.615 473.531 661.426 480.685 666.483C495.043 676.635 514.397 688.125 529.327 696.455L531.276 692.962ZM559.646 722.798C543.1 712.802 535.483 701.832 532.144 693.93L528.46 695.487C532.146 704.211 540.353 715.816 557.578 726.221L559.646 722.798ZM651.69 678.032C654.628 686.122 652.726 694.122 647.425 701.447C642.093 708.816 633.383 715.382 623.077 720.278C612.788 725.165 601.047 728.321 589.787 728.974C578.511 729.629 567.872 727.767 559.646 722.798L557.578 726.221C566.707 731.736 578.225 733.652 590.019 732.968C601.829 732.283 614.072 728.984 624.793 723.891C635.498 718.806 644.824 711.865 650.665 703.792C656.538 695.676 658.948 686.299 655.449 676.666L651.69 678.032ZM661.302 670.088C658.207 673.421 655.706 674.804 653.12 675.4L654.019 679.298C657.566 678.48 660.736 676.577 664.233 672.81L661.302 670.088Z" fill="#1C1C1C" mask="url(#path-5-inside-1_116_11041)"/>
<circle cx="640" cy="642" r="13" fill="white" stroke="#1C1C1C" stroke-width="2"/>
<circle cx="646" cy="645" r="7" fill="black"/>
<circle cx="644" cy="641" r="2" fill="white"/>
<circle cx="666.5" cy="645.5" r="10.5" fill="white" stroke="#1C1C1C" stroke-width="2"/>
<circle cx="671.75" cy="647.75" r="5.75" fill="black"/>
<circle cx="670.643" cy="644.643" r="1.64286" fill="white"/>
<path d="M651.121 674.89C648.797 672.125 648.785 664.708 648.387 660.678C648.309 659.896 649.089 659.222 649.825 659.498C661.015 663.703 670.805 671.937 676.069 677.932C678.403 680.59 676.346 683.33 672.905 682.509C664.709 680.554 653.096 677.24 651.121 674.89Z" fill="#F8921E" stroke="#A45C10" stroke-width="2"/>
<path d="M666.269 660.785C661.365 658.693 654.295 657.989 649.614 657.894C648.791 657.877 648.347 658.816 648.868 659.453C662.904 676.612 678.152 680.798 689.934 685.435C690.816 685.782 691.583 684.892 691.02 684.13C685.587 676.77 671.314 662.937 666.269 660.785Z" fill="#F8921E" stroke="#A45C10" stroke-width="2"/>
<path d="M540.822 698.531C511.948 682.808 454.396 649.697 465.374 643.522C468.745 641.625 476.89 645.187 483.93 648.142M534.303 680.521C522.219 670.814 499.815 654.809 483.93 648.142M483.93 648.142C480.785 644.822 470.502 635.803 494.221 644.186C495.699 644.708 496.901 644.677 498.51 645.357M542.879 676.233L498.51 645.357M498.51 645.357C492.951 639.64 479.079 624.653 492.125 629.92C499.865 633.044 536.878 661.653 553.459 675.375" stroke="#1C1C1C" stroke-width="1.71528"/>
<path d="M501.878 702.107C524.84 664.601 574.955 644.327 598.604 648.096C613.1 649.409 607.18 664.544 602.408 671.947C591.175 687.152 557.018 715.356 541.833 714.75C537.852 714.591 547.774 710.756 556.207 703.067C552.477 706.268 546.622 709.899 544.194 711.524C531.477 715.75 530.912 714.842 532.922 709.82C525.778 713.024 514.634 710.604 515.922 707.498C510.117 710.053 506.417 710.783 503.934 710.577C500.153 710.265 499.897 705.343 501.878 702.107Z" fill="#3A3A3A"/>
<path d="M553.309 684.744C540.003 697.188 523.706 703.375 515.922 707.498M515.922 707.498C510.117 710.053 506.417 710.783 503.934 710.577C500.153 710.265 499.897 705.343 501.878 702.107C524.84 664.601 574.955 644.327 598.604 648.096C613.1 649.409 607.18 664.544 602.408 671.947C591.175 687.152 557.018 715.356 541.833 714.75C537.852 714.591 547.774 710.756 556.207 703.067M515.922 707.498C514.634 710.604 525.778 713.024 532.922 709.82M532.922 709.82C530.912 714.842 531.477 715.75 544.194 711.524C546.622 709.899 552.477 706.268 556.207 703.067M532.922 709.82C542.948 703.32 564.8 687.72 572 677.32M588 674.32C578.813 683.656 561.817 698.253 556.207 703.067" stroke="#1C1C1C" stroke-width="2"/>
<path d="M326.819 750.374C334.061 748.474 336.948 705.019 340.498 688H290C289.007 688 288.41 689.748 288.045 692.522C285.456 712.168 285.325 735.043 297.881 750.374H326.819Z" fill="#2464AD" stroke="#0D3461" stroke-width="2.54433"/>
<path d="M242.679 750.374C235.437 748.474 232.55 705.019 229 688H279.498C280.491 688 281.088 689.748 281.453 692.522C284.042 712.168 284.173 735.043 271.618 750.374H242.679Z" fill="#2464AD" stroke="#0D3461" stroke-width="2.54433"/>
<path d="M224.705 487.853H340.705C336.83 481.209 328.905 468.742 317.266 458.389C307.62 449.808 294.563 446.857 281.654 447.059C277.497 447.124 273.188 447.238 268.977 447.38C253.352 447.904 236.101 451.926 230.219 466.411C226.893 474.601 226.19 482.867 224.705 487.853Z" fill="#FDA100" stroke="#A03D1A" stroke-width="2"/>
<path d="M224.705 487.852H340.705C338.324 483.77 334.414 477.489 329.053 470.852L228.07 472.852C226.467 478.736 225.798 484.182 224.705 487.852Z" fill="#A03D1A" stroke="#A03D1A" stroke-width="2"/>
<path d="M197.673 550.925C161.171 505.307 187.18 491.17 221.793 487.311C253.492 483.777 285.532 482.858 317.352 480.661C379.244 476.388 387.927 492.607 384.692 509.683C379.705 536 264.256 634.137 197.673 550.925Z" fill="#EC9600" stroke="#A03D1A" stroke-width="2"/>
<path d="M361.742 497.588C242.831 476.659 208.79 505.816 199 520.501C222.173 538.737 313.022 516.624 362.075 501.363C364.052 500.748 363.781 497.947 361.742 497.588Z" fill="#7B290B"/>
<path d="M194 523C205.38 497.913 222.514 491.341 235.058 492.188C245.279 492.878 248.833 503.969 247.182 514.079C241.454 549.154 230.385 596.217 199.508 592.511C174.151 589.467 172.213 571.028 194 523Z" fill="#C16C1E" stroke="#7A400B" stroke-width="2.54433"/>
<path d="M377.619 522C366.239 496.913 349.105 490.341 336.561 491.188C326.34 491.878 322.786 502.969 324.437 513.079C330.165 548.154 341.234 595.217 372.111 591.511C397.468 588.467 399.406 570.028 377.619 522Z" fill="#C16C1E" stroke="#7A400B" stroke-width="2.54433"/>
<path d="M369.722 537.331C362.318 520.894 351.667 514.978 342.832 514.114C332.693 513.124 328.731 524.349 330.463 534.389C334.939 560.352 343.518 592.513 365.59 589.844C384.611 587.545 386.065 573.615 369.722 537.331Z" fill="#945216" stroke="#7A400B" stroke-width="2.54433"/>
<path d="M201.278 537.331C208.682 520.894 219.333 514.978 228.168 514.114C238.307 513.124 242.269 524.349 240.537 534.389C236.061 560.352 227.482 592.513 205.41 589.844C186.389 587.545 184.935 573.615 201.278 537.331Z" fill="#945216" stroke="#7A400B" stroke-width="2.54433"/>
<path d="M400.917 669.275C400.803 665.001 370.346 624.352 355.132 604.562C351.473 599.391 347.124 597.842 342.826 598.299L325.672 598.299L325.672 604.461C325.672 607.559 326.708 610.669 328.665 613.435L362.173 660.795C366.337 666.681 361.187 675.608 367.096 680.337C370.493 683.056 376.281 678.722 377.442 674.149C374.424 690.453 393.849 683.971 390.321 671.784C395.216 679.731 401.059 674.618 400.917 669.275Z" fill="#EE8530" stroke="#A55515" stroke-width="2.54433"/>
<path d="M390.322 671.057C395.217 679.005 401.06 673.891 400.918 668.548C400.872 666.832 395.936 659.254 389.059 649.516L360.108 657.149L362.174 660.068C366.338 665.954 361.188 674.881 367.097 679.61C370.495 682.329 376.282 677.995 377.443 673.422C374.425 689.726 393.851 683.244 390.322 671.057Z" fill="#FFBD7D"/>
<path d="M355.141 604.552C364.095 616.199 378.328 635.07 388.549 649.5M325.682 609.196C334.83 622.126 352.763 647.473 359.858 657.5M388.549 649.5C395.695 659.589 400.88 667.507 400.927 669.266C401.069 674.609 395.226 679.722 390.33 671.775C393.859 683.961 374.434 690.444 377.452 674.14C376.291 678.712 370.503 683.047 367.106 680.328C361.197 675.598 366.347 666.672 362.182 660.786V660.786C361.669 660.06 360.875 658.937 359.858 657.5M388.549 649.5L359.858 657.5" stroke="#A55515" stroke-width="2.54433"/>
<path d="M172.782 671.275C172.896 667.001 203.353 626.352 218.568 606.562C222.226 601.391 226.575 599.842 230.874 600.299L248.027 600.299L248.027 606.461C248.027 609.559 246.992 612.669 245.035 615.435L211.527 662.795C207.362 668.681 212.513 677.608 206.603 682.337C203.206 685.056 197.418 680.722 196.258 676.149C199.275 692.453 179.85 685.971 183.379 673.784C178.484 681.731 172.64 676.618 172.782 671.275Z" fill="#EE8530" stroke="#A55515" stroke-width="2.54433"/>
<path d="M183.377 673.057C178.482 681.005 172.639 675.891 172.781 670.548C172.827 668.832 177.763 661.254 184.64 651.516L213.591 659.149L211.525 662.068C207.361 667.954 212.511 676.881 206.602 681.61C203.205 684.329 197.417 679.995 196.256 675.422C199.274 691.726 179.849 685.244 183.377 673.057Z" fill="#FFBD7D"/>
<path d="M218.558 606.552C209.604 618.199 195.371 637.07 185.15 651.5M248.017 611.196C238.869 624.126 220.936 649.473 213.841 659.5M185.15 651.5C178.004 661.589 172.819 669.507 172.773 671.266C172.63 676.609 178.474 681.722 183.369 673.775C179.84 685.961 199.265 692.444 196.248 676.14C197.408 680.712 203.196 685.047 206.593 682.328C212.503 677.598 207.352 668.672 211.517 662.786V662.786C212.031 662.06 212.825 660.937 213.841 659.5M185.15 651.5L213.841 659.5" stroke="#A55515" stroke-width="2.54433"/>
<path d="M264.544 586.272H308.185C325.397 586.272 340.461 597.835 344.911 614.461C350.035 633.604 350.765 653.658 347.049 673.124L345.005 683.827C342.8 695.375 332.701 703.728 320.945 703.728H248.421C236.584 703.728 226.502 695.124 224.642 683.434L223.154 674.077C219.961 654.011 221.345 633.482 227.203 614.026C232.164 597.55 247.337 586.272 264.544 586.272Z" fill="#BF661E" stroke="#393939" stroke-width="2.54433"/>
<path d="M326.561 703.814H243.025C236.839 703.814 231.272 700.057 228.958 694.319C216.828 664.247 218.101 630.428 232.458 601.353L239.551 586.989L277.944 614.326C282.77 617.762 289.236 617.787 294.088 614.389L333.209 586.993L339.274 599.816C353.451 629.788 353.886 664.446 340.464 694.764C338.028 700.266 332.577 703.814 326.561 703.814Z" fill="white" stroke="#393939" stroke-width="2.54433"/>
<mask id="path-36-inside-2_116_11041" fill="white">
<path d="M220.663 670.267L224.027 690.281C225.568 699.455 231.669 707.215 240.219 710.879L242.906 712.031C250.593 715.325 258.728 717.455 267.042 718.351L274.004 719.1C282.639 720.03 291.353 719.956 299.971 718.879L302.866 718.517C310.919 717.51 318.801 715.427 326.3 712.324L330.156 710.729C338.789 707.156 345.026 699.454 346.724 690.267L350.72 668.655C353.185 655.32 345.584 642.173 332.798 637.656H240.359C226.638 642.167 218.269 656.024 220.663 670.267Z"/>
</mask>
<path d="M220.663 670.267L224.027 690.281C225.568 699.455 231.669 707.215 240.219 710.879L242.906 712.031C250.593 715.325 258.728 717.455 267.042 718.351L274.004 719.1C282.639 720.03 291.353 719.956 299.971 718.879L302.866 718.517C310.919 717.51 318.801 715.427 326.3 712.324L330.156 710.729C338.789 707.156 345.026 699.454 346.724 690.267L350.72 668.655C353.185 655.32 345.584 642.173 332.798 637.656H240.359C226.638 642.167 218.269 656.024 220.663 670.267Z" fill="#2464AD"/>
<path d="M224.027 690.281L226.536 689.859L224.027 690.281ZM220.663 670.267L223.172 669.846L220.663 670.267ZM350.72 668.655L348.218 668.192L348.218 668.192L350.72 668.655ZM346.724 690.267L349.226 690.729L349.226 690.729L346.724 690.267ZM240.359 637.656V635.112H239.951L239.564 635.239L240.359 637.656ZM332.798 637.656L333.646 635.257L333.234 635.112H332.798V637.656ZM330.156 710.729L329.183 708.378L329.183 708.378L330.156 710.729ZM326.3 712.324L327.272 714.675L327.272 714.675L326.3 712.324ZM302.866 718.517L303.182 721.041L303.182 721.041L302.866 718.517ZM299.971 718.879L299.656 716.354L299.656 716.354L299.971 718.879ZM274.004 719.1L273.731 721.63L273.731 721.63L274.004 719.1ZM267.042 718.351L267.315 715.821L267.315 715.821L267.042 718.351ZM242.906 712.031L241.903 714.369L241.903 714.369L242.906 712.031ZM240.219 710.879L241.221 708.541L241.221 708.541L240.219 710.879ZM226.536 689.859L223.172 669.846L218.154 670.689L221.517 690.703L226.536 689.859ZM348.218 668.192L344.222 689.804L349.226 690.729L353.222 669.117L348.218 668.192ZM240.359 640.201H332.798V635.112H240.359V640.201ZM329.183 708.378L325.327 709.973L327.272 714.675L331.129 713.08L329.183 708.378ZM302.551 715.992L299.656 716.354L300.287 721.403L303.182 721.041L302.551 715.992ZM274.276 716.571L267.315 715.821L266.77 720.88L273.731 721.63L274.276 716.571ZM243.908 709.692L241.221 708.541L239.217 713.218L241.903 714.369L243.908 709.692ZM267.315 715.821C259.251 714.953 251.362 712.887 243.908 709.692L241.903 714.369C249.823 717.763 258.204 719.958 266.77 720.88L267.315 715.821ZM325.327 709.973C318.038 712.989 310.378 715.014 302.551 715.992L303.182 721.041C311.461 720.007 319.563 717.865 327.272 714.675L325.327 709.973ZM353.222 669.117C355.914 654.552 347.612 640.191 333.646 635.257L331.951 640.055C343.556 644.155 350.455 656.089 348.218 668.192L353.222 669.117ZM223.172 669.846C220.987 656.842 228.627 644.192 241.154 640.073L239.564 635.239C224.649 640.143 215.552 655.206 218.154 670.689L223.172 669.846ZM299.656 716.354C291.233 717.407 282.716 717.48 274.276 716.571L273.731 721.63C282.562 722.581 291.473 722.505 300.287 721.403L299.656 716.354ZM221.517 690.703C223.203 700.73 229.871 709.213 239.217 713.218L241.221 708.541C233.467 705.217 227.934 698.179 226.536 689.859L221.517 690.703ZM344.222 689.804C342.68 698.144 337.02 705.135 329.183 708.378L331.129 713.08C340.559 709.178 347.371 700.765 349.226 690.729L344.222 689.804Z" fill="#0D3461" mask="url(#path-36-inside-2_116_11041)"/>
<path d="M347 543C347 560.476 341.686 576.216 331.203 587.577C320.731 598.924 305.013 606 284 606C262.987 606 247.269 598.924 236.797 587.577C226.314 576.216 221 560.476 221 543C221 508.206 249.206 480 284 480C318.794 480 347 508.206 347 543Z" fill="#EE8530" stroke="#A55515" stroke-width="2"/>
<path d="M243.268 758.817L241.314 751.268C240.897 749.657 242.113 748.086 243.777 748.086H271.315C272.72 748.086 273.859 749.225 273.859 750.63V767.635C273.859 768.147 273.717 768.651 273.383 769.039C266.123 777.444 233 778.421 233 771.412C233 766.752 237.784 763.615 241.529 762.066C242.814 761.534 243.616 760.163 243.268 758.817Z" fill="#AE2A3C" stroke="#740C1A" stroke-width="2.54433"/>
<path d="M326.592 758.817L328.545 751.268C328.962 749.657 327.746 748.086 326.082 748.086H298.544C297.139 748.086 296 749.225 296 750.63V767.635C296 768.147 296.142 768.651 296.477 769.039C303.737 777.444 336.859 778.421 336.859 771.412C336.859 766.752 332.075 763.615 328.331 762.066C327.046 761.534 326.243 760.163 326.592 758.817Z" fill="#AE2A3C" stroke="#740C1A" stroke-width="2.54433"/>
<ellipse cx="308.344" cy="532.602" rx="14.5" ry="13" fill="white"/>
<ellipse cx="306.844" cy="533.602" rx="10" ry="9" fill="#226A9E"/>
<ellipse cx="307" cy="533.5" rx="7" ry="6.5" fill="black"/>
<ellipse cx="14.5" cy="13" rx="14.5" ry="13" transform="matrix(-1 0 0 1 272.844 519.602)" fill="white"/>
<circle cx="312.5" cy="529.5" r="3.5" fill="white"/>
<ellipse cx="10" cy="9" rx="10" ry="9" transform="matrix(-1 0 0 1 269.844 524.602)" fill="#226A9E"/>
<rect x="244.569" y="594.405" width="16.3138" height="55.9752" rx="8.15691" fill="#2464AD" stroke="#0D3461" stroke-width="2.54433"/>
<ellipse cx="260" cy="533.5" rx="7" ry="6.5" fill="black"/>
<rect x="310.571" y="594.405" width="16.3138" height="55.9752" rx="8.15691" fill="#2464AD" stroke="#0D3461" stroke-width="2.54433"/>
<circle cx="3.5" cy="3.5" r="3.5" transform="matrix(-1 0 0 1 258 526)" fill="white"/>
<path d="M301.326 676.802C304.836 671.36 307.111 664.266 307.804 656.618C307.983 654.641 306.353 652.922 304.211 652.922H285.727L267.243 652.922C265.101 652.922 263.471 654.641 263.65 656.618C264.343 664.266 266.618 671.36 270.128 676.802C272.183 679.988 274.554 681.614 277.111 682.473C279.726 683.352 282.598 683.454 285.727 683.454C288.856 683.454 291.728 683.352 294.343 682.473C296.9 681.614 299.271 679.988 301.326 676.802Z" fill="#3580D5" stroke="#0D3461" stroke-width="2.54433"/>
<path d="M244.576 576.778C265.876 548.104 304.554 548.104 325.855 576.778C327.097 578.449 328.004 580.445 328.595 582.596C329.569 586.142 328.738 589.546 326.77 592.62C324.79 595.712 321.684 598.417 318.259 600.433C314.225 602.806 309.682 604.181 305.009 604.442L284.87 605.566L264.194 604.412C259.845 604.169 255.602 602.978 251.761 600.923C247.763 598.783 244.327 595.686 242.394 592.195C240.481 588.74 240.046 584.931 241.925 581.141C242.71 579.557 243.611 578.076 244.576 576.778Z" fill="#FFBD7D" stroke="#C38344" stroke-width="2.54433"/>
<path d="M265.395 568.512C265.395 562.183 279.111 562 284.989 562C290.868 562 304.584 562.186 304.584 568.515C304.584 573.033 297.929 575.62 291.744 576.904C288.024 577.887 281.492 577.375 278.69 576.996C272.381 575.744 265.395 573.141 265.395 568.512Z" fill="black" stroke="black" stroke-width="1.2708"/>
<path d="M284.992 575.602V585.799" stroke="black" stroke-width="2.54433"/>
<mask id="path-55-inside-3_116_11041" fill="white">
<path d="M312.985 583.536C312.985 588.043 310.036 592.366 304.786 595.553C299.537 598.741 292.417 600.531 284.993 600.531C277.568 600.531 270.448 598.741 265.199 595.553C259.949 592.366 257 588.043 257 583.536L284.993 583.536H312.985Z"/>
</mask>
<path d="M312.985 583.536C312.985 588.043 310.036 592.366 304.786 595.553C299.537 598.741 292.417 600.531 284.993 600.531C277.568 600.531 270.448 598.741 265.199 595.553C259.949 592.366 257 588.043 257 583.536L284.993 583.536H312.985Z" fill="#923829" stroke="#761D0E" stroke-width="5.08866" mask="url(#path-55-inside-3_116_11041)"/>
<ellipse cx="284.99" cy="594.876" rx="13.9963" ry="5.6651" fill="#BC3D28"/>
<mask id="path-57-inside-4_116_11041" fill="white">
<path d="M312.985 583.536C312.985 588.043 310.036 592.366 304.786 595.553C299.537 598.741 292.417 600.531 284.993 600.531C277.568 600.531 270.448 598.741 265.199 595.553C259.949 592.366 257 588.043 257 583.536L284.993 583.536H312.985Z"/>
</mask>
<path d="M312.985 583.536C312.985 588.043 310.036 592.366 304.786 595.553C299.537 598.741 292.417 600.531 284.993 600.531C277.568 600.531 270.448 598.741 265.199 595.553C259.949 592.366 257 588.043 257 583.536L284.993 583.536H312.985Z" stroke="#761D0E" stroke-width="5.08866" mask="url(#path-57-inside-4_116_11041)"/>
<path d="M245.763 520.127C255.688 516.921 261.987 513.982 263.895 512.913C265.804 511.844 266.949 509.386 256.261 508.103C242.9 506.5 233.357 524.135 245.763 520.127Z" fill="#964F0D" stroke="#7C4009" stroke-width="2"/>
<path d="M322.381 520.127C312.456 516.921 306.158 513.982 304.249 512.913C302.341 511.844 301.195 509.386 311.884 508.103C325.244 506.5 334.787 524.135 322.381 520.127Z" fill="#964F0D" stroke="#7C4009" stroke-width="2"/>
<ellipse cx="319" cy="643.5" rx="3" ry="3.5" fill="#FEC400"/>
<ellipse cx="253" cy="643.5" rx="3" ry="3.5" fill="#FEC400"/>
<path d="M373.901 509.501C294.237 479.232 203.586 508.819 191.676 526.814C190.965 527.888 188.453 529.25 189.5 530L186.705 531.524L184.705 511.199C194.402 503.002 219.584 487.948 248 487.798L249 486L320.5 481.5L328.5 485.713C345.039 487.538 361.531 491.216 377.205 497.313L380.5 514.5L374 512C375.638 510.872 375.76 510.207 373.901 509.501Z" fill="#EC9600"/>
<path d="M191.216 527.341V527.341C190.592 526.652 191.557 525.942 192.147 525.223C206.108 508.195 289.336 479.199 371.811 509.305C373.163 509.799 375.697 512.702 374.5 513.5V513.5" stroke="#A03D1A" stroke-width="2"/>
<path d="M335 480L225 488L229 475L327.5 471.5L335 480Z" fill="#A03D1A"/>
<path d="M335.668 145.385L344.001 138.998L346.501 127L346 119L346 118L349 126.5L346.501 140.496L337.238 147.841L335.668 145.385Z" fill="#381001"/>
<path d="M347.5 116C358.7 123.6 366.833 145.5 369.5 155.5C372.731 148.576 370 141 364.5 134C362 124.5 352.615 116 347.5 116Z" fill="#330E02"/>
<path d="M258.3 296.602C258.399 337.249 225.447 370.3 184.7 370.3C144.05 370.3 111 337.445 111 296.7C111 256.05 143.855 223 184.6 223C225.247 223 258.201 255.952 258.3 296.602Z" fill="#252525" stroke="#1A1A1A" stroke-width="2"/>
<path d="M349.096 138.57L305.596 163.67L303.596 170.87L351.096 142.47L349.096 138.57Z" fill="#551802"/>
<path d="M361.197 130.372C354.697 119.772 347.997 113.772 346.297 116.772C344.597 119.772 348.497 130.772 354.997 141.372C361.497 151.872 368.197 157.972 369.897 154.972C371.597 151.872 367.697 140.872 361.197 130.372ZM365.397 149.572C364.397 151.372 359.797 146.872 355.297 139.472C350.697 132.072 347.897 124.572 348.897 122.772C349.897 120.972 354.497 125.472 358.997 132.872C363.497 140.272 366.397 147.772 365.397 149.572Z" fill="#551802"/>
<path d="M348.695 125.674C348.695 125.674 354.595 124.974 364.195 150.474L347.895 144.774L345.695 140.574L348.695 125.674Z" fill="#551802"/>
<path d="M356.295 136.869L361.495 133.969L362.695 137.669L356.995 138.869L356.295 136.869Z" fill="#551802"/>
<path opacity="0.34" d="M356.5 134L335.5 146.5L337.5 150.5L348 144.5L360.5 141.5L359 138.5L361.5 137.5L364.5 143.5L367.5 143C366.5 139 361 129.5 358.5 126.5L355.5 127.5C356.3 128.7 359 132.5 360.5 135L357.5 136.5L356.5 134Z" fill="black"/>
<path d="M268 299.875H411C411.552 299.875 412 300.323 412 300.875V307.875C412 308.427 411.552 308.875 411 308.875H268C267.448 308.875 267 308.427 267 307.875V300.875C267 300.323 267.448 299.875 268 299.875Z" fill="#494748" stroke="#1A1A1A" stroke-width="2"/>
<path d="M278.596 141.8L303.762 127.419C312.036 122.691 322.561 125.231 327.768 133.212L346.495 161.917C351.42 169.466 350.002 179.494 343.177 185.382L313.596 210.9L278.896 159.1L278.596 141.8Z" fill="#AF0A01"/>
<path d="M538.642 321.929L549.954 301.807L571.087 322.065C574.031 324.887 574.477 329.434 572.136 332.774C569.665 336.299 564.901 337.336 561.187 335.158L538.642 321.929Z" fill="#2E2E2E" stroke="#1A1A1A"/>
<path d="M477.566 121.041C477.566 121.041 489.935 117.566 490.065 132.188C490.196 146.809 473.213 186.024 473.213 186.024C473.213 186.024 467.797 205.563 439.504 209.988C411.075 214.534 381.759 216.845 382.391 206.5C383.023 196.155 382.642 185.62 410.751 186.312C438.86 187.003 450.207 187.696 450.207 187.696C450.207 187.696 455.642 121.753 477.566 121.041Z" fill="#C95F18"/>
<path d="M441.857 185.972C436.133 186.082 426.311 186.119 410.887 185.74C388.27 185.184 384.097 191.896 383.001 199.929L442.43 194.279C451.004 193.464 458.211 187.496 460.611 179.224L477.5 121.004C459.927 121.574 451.893 162.821 449.397 179.17C448.815 182.984 445.714 185.897 441.857 185.972Z" fill="#B45110"/>
<ellipse opacity="0.1" cx="482.819" cy="129.907" rx="4.58171" ry="6.03194" transform="rotate(12.9743 482.819 129.907)" fill="white"/>
<path d="M544.837 224.991L544.591 225.368L544.592 225.819L544.886 297.512H393.092H274.841C220.976 294.117 185.99 289.997 163.559 286.11C152.339 284.166 144.281 282.283 138.583 280.585C132.859 278.88 129.605 277.386 127.927 276.262L127.926 276.261C124.228 273.788 120.763 268.551 117.686 261.492C114.635 254.495 112.066 245.951 110.028 237.159C105.944 219.54 104.052 201.201 104.589 192.707C105.339 180.841 112.065 171.018 115.983 166.253C117.642 164.237 119.591 162.511 121.782 161.056C142.621 147.218 197.771 128.046 285.828 126.423C292.743 126.295 299.178 129.997 302.673 135.996L328.973 181.136C333.593 189.065 332.059 199.143 325.289 205.338L318.631 211.43C313.284 216.324 310.622 223.494 311.479 230.691L315.552 264.868C316.241 270.653 321.146 275.008 326.971 275.008H334.587C339.645 275.008 344.103 271.65 344.967 266.52L344.967 266.519L345.041 266.078C346.858 255.268 349.602 238.963 365.047 221.433C369.841 215.99 376.251 212.88 383.434 211.078C390.633 209.271 398.509 208.801 406.148 208.571C422.874 208.067 444.142 202.915 465 187.522C475.729 179.603 488.135 173.87 500.775 176.155C522.568 180.094 540.314 187.931 551.133 193.65C556.945 196.721 558.526 204.065 554.82 209.731L544.837 224.991Z" fill="#FF0E00" stroke="#990A02" stroke-width="3"/>
<path opacity="0.78" d="M124.092 272.508C127.292 278.108 145.091 282.174 153.591 283.508L149.092 223.508C149.092 196.986 158.227 171.274 174.959 150.698L186.092 137.008L134.592 153.508L116.592 166.008C88.5918 199.008 120.092 265.508 124.092 272.508Z" fill="#FF0E00"/>
<path opacity="0.45" d="M152.275 191.993C156.106 142.758 202.999 130.893 226.172 130.008L288.989 126.494C294.306 126.196 299.332 128.941 301.955 133.575L308.782 145.637C317.512 161.06 307.089 180.301 289.401 181.412L275.954 182.257C257.443 183.42 239.131 186.743 221.391 192.158L173.215 206.865C162.644 210.092 151.418 203.012 152.275 191.993Z" fill="#FF5D51"/>
<path opacity="0.45" d="M113.59 170C95.0905 201.5 110.09 236.008 118.09 262.508C119.924 249.01 119.99 219.908 135.59 223.508C151.19 227.108 128.09 160.008 166.09 143.008C157.089 143.007 117.946 160.8 113.59 170Z" fill="#D70A00"/>
<path d="M274.465 242L274.47 242.005C284.119 251.125 295.212 262.633 301.439 274.756C305.102 281.89 312.032 288.005 320.481 288.005H342.923C350.158 288.005 355.943 282.208 357.929 275.656L358.137 274.97C362.009 262.187 365.782 249.734 373.028 238.863C378.24 231.043 384.835 228.85 392.129 226.673C394.494 225.968 396.866 225.244 399.242 224.518C407.757 221.919 416.336 219.301 424.87 217.436C437.98 214.571 455.067 209.253 468.708 201.286L469.118 201.047C474.206 198.074 479.099 195.215 484.543 194.147C500.842 190.95 516.057 194.324 527.237 200.216C532.828 203.163 537.371 206.719 540.526 210.351C543.701 214.007 545.365 217.615 545.465 220.68C545.518 222.322 545.193 223.991 544.807 225.849L544.755 226.096C544.394 227.829 543.996 229.738 543.996 231.679V295.478L384.496 297.997L282.728 297.009C281.996 297.002 281.265 296.939 280.543 296.822L272.249 295.474L272.041 295.44L271.831 295.465L187.854 305.497L161.014 302.181C161.015 302.153 161.015 302.126 161.015 302.098C161.021 301.17 161.022 299.816 161.006 298.107C160.975 294.689 160.873 289.846 160.594 284.141C160.037 272.741 158.768 257.854 155.915 244C155.478 241.875 156.23 239.735 157.879 238.534C172.649 227.776 186.085 225.516 205.936 223.393C229.512 220.929 257.78 226.1 274.465 242Z" fill="#ED0D01" stroke="#990A02" stroke-width="3"/>
<path d="M544.837 224.991L544.591 225.368L544.592 225.819L544.886 297.512H393.092H274.841C220.976 294.117 185.99 289.997 163.559 286.11C152.339 284.166 144.281 282.283 138.583 280.585C132.859 278.88 129.605 277.386 127.927 276.262L127.926 276.261C124.228 273.788 120.763 268.551 117.686 261.492C114.635 254.495 112.066 245.951 110.028 237.159C105.944 219.54 104.052 201.201 104.589 192.707C105.339 180.841 112.065 171.018 115.983 166.253C117.642 164.237 119.591 162.511 121.782 161.056C142.712 147.157 198.254 127.879 286.982 126.403C293.188 126.299 298.958 129.619 302.095 135.003L329.785 182.53C333.931 189.646 332.554 198.689 326.478 204.249L317.874 212.123C313.002 216.582 310.576 223.114 311.358 229.672L315.762 266.632C316.331 271.41 320.383 275.008 325.195 275.008H336.068C340.235 275.008 343.981 272.252 344.717 267.986C344.823 267.375 344.929 266.743 345.039 266.091C346.815 255.533 349.461 239.798 363.881 222.782C368.963 216.785 375.851 213.294 383.596 211.152C391.358 209.005 399.867 208.241 408.113 207.622C423.924 206.434 443.573 201.224 463.234 187.898C475.157 179.816 488.627 173.833 502.279 176.434C523.97 180.567 541.514 188.489 551.996 194.109C557.319 196.964 558.761 203.706 555.35 208.921L544.837 224.991Z" stroke="#990A02" stroke-width="3"/>
<path d="M554.094 303.012V303.015C554.193 350.061 516.042 388.314 468.892 388.412C421.846 388.511 383.593 350.36 383.494 303.21C383.395 256.165 421.546 217.912 468.695 217.812C515.845 217.813 554.094 255.967 554.094 303.012Z" fill="#353535" stroke="#1A1A1A" stroke-width="2"/>
<path d="M468.794 249.509L468.8 249.509C498.443 249.313 522.594 273.361 522.594 303.109C522.594 332.857 498.541 356.91 468.893 357.009C439.144 357.008 415.094 332.955 415.094 303.309C415.094 273.56 439.147 249.509 468.794 249.509Z" fill="#666666" stroke="#4D4D4D" stroke-width="2"/>
<path d="M503.194 303.113C503.194 322.113 487.894 337.512 468.894 337.512C449.894 337.512 434.494 322.212 434.494 303.212C434.494 284.212 449.794 268.812 468.794 268.812C487.794 268.812 503.194 284.113 503.194 303.113Z" fill="#D1D1D1"/>
<path d="M140.551 201.663C142.051 209.963 139.751 217.263 135.451 217.963C131.151 218.763 126.551 212.663 125.051 204.363C123.551 196.063 125.851 188.763 130.151 188.063C134.451 187.363 139.051 193.463 140.551 201.663Z" fill="#FF6D00"/>
<path d="M137.951 203.066C139.151 209.466 137.351 215.166 134.051 215.766C130.751 216.366 127.051 211.666 125.951 205.166C124.751 198.766 126.551 193.066 129.851 192.466C133.151 191.866 136.751 196.566 137.951 203.066Z" fill="#FFC100"/>
<path d="M119.434 210.14C120.547 216.299 118.841 221.716 115.65 222.236C112.459 222.829 109.045 218.303 107.932 212.144C106.819 205.985 108.526 200.568 111.717 200.048C114.908 199.529 118.321 204.055 119.434 210.14Z" fill="#FF6D00"/>
<path d="M117.506 211.185C118.396 215.934 117.06 220.164 114.612 220.609C112.163 221.055 109.417 217.567 108.601 212.744C107.711 207.994 109.046 203.765 111.495 203.32C113.944 202.874 116.615 206.362 117.506 211.185Z" fill="#FFC100"/>
<path d="M142.002 234.851C143.002 240.251 141.502 244.951 138.702 245.451C135.902 245.951 132.902 242.051 131.902 236.651C130.902 231.251 132.402 226.551 135.202 226.051C138.002 225.551 141.002 229.451 142.002 234.851Z" fill="#FF6D00"/>
<path d="M140.201 235.654C141.001 239.854 139.801 243.554 137.601 243.954C135.401 244.354 133.101 241.254 132.301 237.054C131.501 232.854 132.701 229.154 134.901 228.754C137.101 228.454 139.501 231.554 140.201 235.654Z" fill="#FFC100"/>
<path d="M120.993 232.921C121.735 236.929 120.622 240.416 118.544 240.787C116.466 241.158 114.24 238.264 113.498 234.257C112.756 230.25 113.869 226.762 115.947 226.391C118.024 226.02 120.251 228.914 120.993 232.921Z" fill="#FF6D00"/>
<path d="M119.656 233.518C120.25 236.634 119.359 239.38 117.727 239.677C116.094 239.974 114.388 237.673 113.794 234.557C113.2 231.44 114.091 228.695 115.723 228.398C117.356 228.175 119.137 230.475 119.656 233.518Z" fill="#FFC100"/>
<path d="M186.092 137.508V137.508C159.921 149.972 145.025 178.126 149.442 206.775L159.5 272.008" stroke="#990A02" stroke-width="3"/>
<path d="M282.095 315.907C282.194 356.553 249.242 389.605 208.495 389.605C167.845 389.605 134.795 356.75 134.795 316.005C134.795 275.354 167.65 242.305 208.395 242.305C249.042 242.305 281.996 275.257 282.095 315.907Z" fill="#353535" stroke="#1A1A1A" stroke-width="2"/>
<path d="M254.794 315.902C254.794 341.549 234.041 362.303 208.492 362.402C182.845 362.401 162.093 341.648 161.994 316.1C161.995 290.454 182.746 269.7 208.396 269.602C234.044 269.603 254.794 290.356 254.794 315.902Z" fill="#666666" stroke="#4D4D4D" stroke-width="2"/>
<path d="M238.195 316.005C238.195 332.405 224.895 345.705 208.495 345.805C192.095 345.805 178.795 332.505 178.795 316.105C178.795 299.705 192.095 286.405 208.495 286.305C224.795 286.305 238.095 299.605 238.195 316.005Z" fill="#D1D1D1"/>
<path d="M316.899 179.627C316.653 179.248 316.201 179.057 315.758 179.144L166.596 208.502C166.042 208.611 165.682 209.15 165.793 209.704C165.903 210.255 166.438 210.613 166.989 210.505L316.184 181.315C316.953 181.164 317.326 180.284 316.899 179.627Z" fill="#990A02"/>
<path opacity="0.2" d="M349 116.499C345.4 114.899 345.5 118.165 346 119.999C345.6 115.597 352.5 120.166 356 123C355.167 121.5 352.6 118.099 349 116.499Z" fill="white"/>
</svg>
