<svg width="2464" height="3673" viewBox="0 0 2464 3673" fill="none" xmlns="http://www.w3.org/2000/svg">
<path d="M1643.33 1057.47L1569.58 990.395L1495.83 923.315C1492.58 920.367 1487.48 920.701 1484.54 923.95C1331.88 1092.64 1319.58 1143.41 1324.11 1251.93C1324.3 1256.3 1328.05 1259.72 1332.43 1259.49C1440.89 1253.75 1490.27 1236.7 1643.77 1068.77C1646.72 1065.54 1646.57 1060.42 1643.33 1057.47Z" fill="#7DB1E6"/>
<path d="M1590.5 942.273L1615.51 965.019C1618.75 967.968 1623.77 967.73 1626.72 964.488L1720.02 861.898C1722.97 858.656 1722.74 853.638 1719.49 850.689L1694.48 827.943C1691.24 824.994 1686.22 825.232 1683.28 828.474L1589.97 931.064C1587.02 934.306 1587.26 939.325 1590.5 942.273Z" fill="#664935"/>
<path d="M1435.53 991.583L1581.07 1123.95C1584.22 1126.81 1589.06 1126.69 1592.04 1123.65C1599.01 1116.53 1606.23 1109.03 1613.71 1101.12C1616.76 1097.9 1616.56 1092.81 1613.28 1089.83L1466.46 956.293C1463.18 953.31 1458.09 953.592 1455.17 956.929C1448.01 965.126 1441.22 973.021 1434.8 980.64C1432.05 983.889 1432.39 988.722 1435.53 991.583Z" fill="#A9CDED"/>
<path d="M1583.49 938.19L1497.36 1032.89C1488.13 1043.04 1488.87 1058.75 1499.02 1067.98C1509.17 1077.21 1524.87 1076.46 1534.1 1066.31L1620.24 971.614C1620.87 970.921 1620.82 969.846 1620.12 969.215L1585.89 938.077C1585.19 937.446 1584.12 937.497 1583.49 938.19Z" fill="#4573AE"/>
<path d="M1648.26 841.855L1712.06 899.882C1715.3 902.83 1720.32 902.593 1723.27 899.35L1814.72 798.802C1817.67 795.56 1817.43 790.542 1814.19 787.593L1750.39 729.566C1747.14 726.617 1742.13 726.855 1739.18 730.097L1647.73 830.646C1644.78 833.888 1645.02 838.906 1648.26 841.855Z" fill="#CD2C1A"/>
<path d="M1737.83 747.987L1799.08 803.694C1806.97 810.873 1819.19 810.294 1826.36 802.401C1833.54 794.508 1832.96 782.29 1825.07 775.112L1763.82 719.405C1755.93 712.226 1743.71 712.805 1736.53 720.698C1729.36 728.591 1729.93 740.809 1737.83 747.987Z" fill="#A71E0F"/>
<path d="M1578.99 946.726L1612.16 976.899C1615.41 979.848 1620.42 979.61 1623.37 976.368L1627.55 971.776C1630.5 968.534 1630.26 963.515 1627.02 960.566L1593.84 930.393C1590.6 927.444 1585.58 927.682 1582.63 930.924L1578.46 935.516C1575.51 938.759 1575.75 943.777 1578.99 946.726Z" fill="#74A8DF"/>
<path d="M1240.19 899.774L1169.7 829.279L1099.2 758.783C1096.1 755.685 1090.98 755.777 1087.89 758.883C927.426 920.157 912.731 970.293 912.128 1078.9C912.103 1083.28 915.695 1086.87 920.077 1086.85C1028.68 1086.24 1078.82 1071.55 1240.09 911.081C1243.2 907.99 1243.29 902.873 1240.19 899.774Z" fill="#7DB1E6"/>
<path d="M1192.87 782.201L1216.77 806.105C1219.87 809.204 1224.9 809.204 1228 806.105L1326.05 708.046C1329.15 704.947 1329.15 699.923 1326.05 696.824L1302.15 672.92C1299.05 669.821 1294.03 669.821 1290.93 672.92L1192.87 770.979C1189.77 774.078 1189.77 779.102 1192.87 782.201Z" fill="#664935"/>
<path d="M1035.74 824.121L1174.85 963.232C1177.86 966.239 1182.7 966.343 1185.82 963.45C1193.13 956.668 1200.69 949.515 1208.54 941.972C1211.74 938.9 1211.78 933.804 1208.64 930.67L1068.31 790.334C1065.17 787.2 1060.08 787.24 1057 790.436C1049.46 798.284 1042.31 805.849 1035.53 813.155C1032.63 816.271 1032.74 821.114 1035.74 824.121Z" fill="#A9CDED"/>
<path d="M1186.06 777.791L1095.54 868.308C1085.84 878.008 1085.84 893.734 1095.54 903.434C1105.24 913.134 1120.97 913.134 1130.67 903.434L1221.18 812.917C1221.85 812.254 1221.85 811.179 1221.18 810.516L1188.46 777.791C1187.8 777.128 1186.72 777.128 1186.06 777.791Z" fill="#4573AE"/>
<path d="M1255.32 684.628L1316.3 745.61C1319.4 748.709 1324.42 748.709 1327.52 745.61L1423.63 649.503C1426.73 646.404 1426.73 641.379 1423.63 638.281L1362.65 577.299C1359.55 574.2 1354.52 574.2 1351.42 577.299L1255.32 673.407C1252.22 676.505 1252.22 681.53 1255.32 684.628Z" fill="#1D8C06"/>
<path d="M1349.23 595.106L1407.77 653.649C1415.32 661.194 1427.55 661.194 1435.09 653.649C1442.64 646.105 1442.64 633.874 1435.09 626.329L1376.55 567.786C1369 560.242 1356.77 560.242 1349.23 567.786C1341.68 575.33 1341.68 587.562 1349.23 595.106Z" fill="#1A7707"/>
<path d="M1181.16 786.104L1212.87 817.814C1215.97 820.913 1220.99 820.913 1224.09 817.814L1228.48 813.424C1231.58 810.325 1231.58 805.301 1228.48 802.202L1196.77 770.493C1193.67 767.394 1188.65 767.394 1185.55 770.493L1181.16 774.882C1178.06 777.981 1178.06 783.005 1181.16 786.104Z" fill="#74A8DF"/>
<path fill-rule="evenodd" clip-rule="evenodd" d="M1969.39 1762.49C1962.91 1770.07 1951.6 1776.35 1933.08 1775.05L1751.72 1775.05C1733.2 1776.35 1721.89 1770.07 1715.41 1762.49C1707.53 1753.28 1708.8 1740.04 1710.45 1728.04L1718.55 1669.13L1647.28 1527.35L1614.82 1527.35L1663.51 1478.66L1663.51 1510.61L1731.06 1578.16L1739.02 1520.3L1945.78 1520.3L1946.75 1527.35L1947.18 1530.5C1983.71 1511.31 2046.35 1494.61 2051.63 1559.11C2056.75 1621.58 2007.3 1694.96 1974.89 1732.29C1976.17 1743.08 1976.35 1754.36 1969.39 1762.49ZM1971.87 1710.04C2000.91 1676.9 2042.4 1614.89 2035.4 1561.93C2027.97 1505.65 1978.34 1529.85 1950.15 1552.11L1971.87 1710.04Z" fill="#F9A800"/>
<path d="M1933.08 1775.05L1933.08 1772.93L1933.15 1772.93L1933.23 1772.93L1933.08 1775.05ZM1969.39 1762.49L1967.78 1761.11L1967.78 1761.11L1969.39 1762.49ZM1751.72 1775.05L1751.57 1772.93L1751.65 1772.93L1751.72 1772.93L1751.72 1775.05ZM1715.41 1762.49L1717.02 1761.11L1717.02 1761.11L1715.41 1762.49ZM1710.45 1728.04L1712.55 1728.33L1712.55 1728.33L1710.45 1728.04ZM1718.55 1669.13L1720.45 1668.18L1720.74 1668.77L1720.65 1669.42L1718.55 1669.13ZM1647.28 1527.35L1647.28 1525.24L1648.59 1525.24L1649.17 1526.4L1647.28 1527.35ZM1614.82 1527.35L1614.82 1529.47L1609.71 1529.47L1613.32 1525.86L1614.82 1527.35ZM1663.51 1478.66L1662.01 1477.17L1665.63 1473.55L1665.63 1478.66L1663.51 1478.66ZM1663.51 1510.61L1662.01 1512.11L1661.39 1511.49L1661.39 1510.61L1663.51 1510.61ZM1731.06 1578.16L1733.16 1578.45L1732.58 1582.67L1729.56 1579.66L1731.06 1578.16ZM1739.02 1520.3L1736.92 1520.01L1737.17 1518.18L1739.02 1518.18L1739.02 1520.3ZM1945.78 1520.3L1945.78 1518.18L1947.63 1518.18L1947.88 1520.01L1945.78 1520.3ZM1946.75 1527.35L1944.65 1527.64L1946.75 1527.35ZM1947.18 1530.5L1948.17 1532.37L1945.5 1533.77L1945.09 1530.78L1947.18 1530.5ZM2051.63 1559.11L2053.74 1558.94L2053.74 1558.94L2051.63 1559.11ZM1974.89 1732.29L1972.79 1732.54L1972.68 1731.61L1973.3 1730.9L1974.89 1732.29ZM2035.4 1561.93L2037.5 1561.66L2037.5 1561.66L2035.4 1561.93ZM1971.87 1710.04L1973.46 1711.43L1970.4 1714.92L1969.77 1710.33L1971.87 1710.04ZM1950.15 1552.11L1948.06 1552.39L1947.89 1551.19L1948.84 1550.44L1950.15 1552.11ZM1933.23 1772.93C1951.15 1774.19 1961.78 1768.14 1967.78 1761.11L1971 1763.87C1964.04 1772 1952.06 1778.5 1932.93 1777.16L1933.23 1772.93ZM1751.72 1772.93L1933.08 1772.93L1933.08 1777.16L1751.72 1777.16L1751.72 1772.93ZM1717.02 1761.11C1723.02 1768.14 1733.65 1774.19 1751.57 1772.93L1751.87 1777.16C1732.74 1778.5 1720.76 1772 1713.8 1763.87L1717.02 1761.11ZM1712.55 1728.33C1711.73 1734.33 1711.03 1740.44 1711.47 1746.15C1711.91 1751.83 1713.46 1756.96 1717.02 1761.11L1713.8 1763.87C1709.48 1758.81 1707.73 1752.72 1707.25 1746.48C1706.77 1740.27 1707.53 1733.75 1708.36 1727.75L1712.55 1728.33ZM1720.65 1669.42L1712.55 1728.33L1708.36 1727.75L1716.46 1668.84L1720.65 1669.42ZM1649.17 1526.4L1720.45 1668.18L1716.66 1670.08L1645.39 1528.31L1649.17 1526.4ZM1614.82 1525.24L1647.28 1525.24L1647.28 1529.47L1614.82 1529.47L1614.82 1525.24ZM1665.01 1480.16L1616.32 1528.85L1613.32 1525.86L1662.01 1477.17L1665.01 1480.16ZM1661.39 1510.61L1661.39 1478.66L1665.63 1478.66L1665.63 1510.61L1661.39 1510.61ZM1729.56 1579.66L1662.01 1512.11L1665.01 1509.12L1732.56 1576.67L1729.56 1579.66ZM1741.12 1520.59L1733.16 1578.45L1728.96 1577.88L1736.92 1520.01L1741.12 1520.59ZM1945.78 1522.42L1739.02 1522.42L1739.02 1518.18L1945.78 1518.18L1945.78 1522.42ZM1944.65 1527.64L1943.68 1520.59L1947.88 1520.01L1948.85 1527.07L1944.65 1527.64ZM1945.09 1530.78L1944.65 1527.64L1948.85 1527.07L1949.28 1530.21L1945.09 1530.78ZM2049.52 1559.28C2048.23 1543.5 2043.45 1532.98 2036.72 1526.23C2029.99 1519.48 2021.06 1516.25 2010.97 1515.53C1990.68 1514.08 1966.32 1522.84 1948.17 1532.37L1946.2 1528.62C1964.58 1518.97 1989.8 1509.78 2011.27 1511.31C2022.07 1512.08 2032.08 1515.57 2039.72 1523.24C2047.36 1530.89 2052.39 1542.47 2053.74 1558.94L2049.52 1559.28ZM1973.3 1730.9C1989.42 1712.34 2009.77 1684.8 2025.45 1654.16C2041.15 1623.49 2052.04 1589.94 2049.52 1559.28L2053.74 1558.94C2056.35 1590.74 2045.07 1625.13 2029.22 1656.09C2013.35 1687.1 1992.78 1714.92 1976.49 1733.68L1973.3 1730.9ZM1967.78 1761.11C1974.08 1753.75 1974.07 1743.35 1972.79 1732.54L1977 1732.04C1978.27 1742.81 1978.61 1754.97 1971 1763.87L1967.78 1761.11ZM2037.5 1561.66C2041.08 1588.74 2032.25 1617.94 2019.04 1644.36C2005.81 1670.83 1988.07 1694.77 1973.46 1711.43L1970.28 1708.64C1984.71 1692.17 2002.23 1668.54 2015.25 1642.47C2028.3 1616.37 2036.72 1588.08 2033.3 1562.21L2037.5 1561.66ZM1948.84 1550.44C1963.01 1539.26 1982.86 1527.33 2000.34 1525.46C2009.16 1524.52 2017.58 1526.13 2024.29 1531.92C2030.97 1537.68 2035.6 1547.3 2037.5 1561.66L2033.3 1562.21C2031.48 1548.43 2027.13 1539.96 2021.53 1535.13C2015.96 1530.32 2008.82 1528.82 2000.79 1529.67C1984.55 1531.4 1965.49 1542.7 1951.47 1553.77L1948.84 1550.44ZM1969.77 1710.33L1948.06 1552.39L1952.25 1551.82L1973.97 1709.75L1969.77 1710.33Z" fill="#CE8503"/>
<path d="M1662.15 1476.43C1659.36 1473.64 1654.84 1473.64 1652.05 1476.43L1615.3 1513.17C1611.39 1517.09 1612.17 1523.63 1616.9 1526.5V1526.5C1620.41 1528.63 1624.94 1527.96 1627.68 1524.91L1662.41 1486.25C1664.95 1483.42 1664.83 1479.11 1662.15 1476.43V1476.43Z" fill="#CE8503"/>
<path d="M1946.15 1518.18L1738.68 1518.18L1738.68 1528.06L1946.15 1528.06L1946.15 1518.18Z" fill="#CE8503"/>
<rect width="232.873" height="21.1702" rx="10.5851" transform="matrix(-1 -8.74228e-08 -8.74228e-08 1 1960.6 1498.42)" fill="#F29B00"/>
<rect width="86.2464" height="18.792" rx="9.39598" transform="matrix(-0.707107 0.707107 0.707107 0.707107 1657.99 1458.9)" fill="#F29B00"/>
<path d="M1749.17 2241.57C1749.45 2242.89 1749.72 2244.1 1749.99 2245.19C1749.71 2244.01 1749.44 2242.8 1749.17 2241.57C1746.37 2228.14 1743.5 2204.03 1749.99 2191.78C1758.03 2176.59 1767.7 2204.97 1776.78 2232.47C1777.16 2233.61 1778.92 2233.28 1778.82 2232.09C1773.06 2163.79 1778.92 2043.87 1839.92 2017.28C1849.23 2013.22 1857.94 2006.49 1859.36 1996.44C1859.69 1994.09 1859.96 1991.68 1860.15 1989.24C1860.2 1988.6 1859.61 1988.09 1858.98 1988.19C1730.9 2008.31 1732 2163.01 1749.17 2241.57Z" fill="#9AD4FF"/>
<path d="M1774.63 2241.35C1784.51 2270.74 1790.44 2202.65 1797.37 2198.7C1804.29 2194.74 1810.23 2213.54 1822.11 2214.53C1833.91 2215.51 1810.55 2020.29 1850.02 2012.85C1850.29 2012.81 1850.56 2012.77 1850.82 2012.73C1850.55 2012.76 1850.29 2012.8 1850.02 2012.85C1771.61 2025.48 1767.03 2170.07 1774.59 2241.13C1774.59 2241.21 1774.61 2241.28 1774.63 2241.35Z" fill="#9AD4FF"/>
<path d="M1740.02 2258.99C1732.53 2259.43 1726.2 2242.86 1722.79 2229.23C1722.53 2228.2 1720.99 2228.2 1720.72 2229.23C1716.9 2244.1 1713.19 2251.18 1709.94 2253.71C1699.44 2165.04 1713.94 1982.53 1855.69 1960.73C1856.12 1960.66 1856.55 1960.87 1856.73 1961.25C1860.47 1968.85 1861.34 1978.89 1860.78 1988.69C1860.76 1989.16 1860.38 1989.55 1859.92 1989.62C1738.08 2008.42 1732.71 2148.67 1747.13 2230.21C1749.04 2240.99 1750.95 2258.35 1740.02 2258.99Z" fill="#9AD4FF"/>
<path d="M1702.05 2246.55C1689.44 1988.83 1793.03 1941.41 1846.51 1949.91C1846.57 1949.92 1846.63 1949.94 1846.68 1949.96C1851.64 1951.77 1853.61 1955.83 1855.86 1960.25C1856.17 1960.86 1855.76 1961.61 1855.08 1961.72C1714.29 1983.96 1701.57 2164.44 1711.93 2253.17C1711.98 2253.52 1711.83 2253.85 1711.54 2254.04C1707.31 2256.83 1703.9 2251.94 1702.11 2246.83C1702.08 2246.74 1702.06 2246.64 1702.05 2246.55Z" fill="#9AD4FF"/>
<path opacity="0.2" d="M1775.63 2241.35C1785.51 2270.74 1791.44 2202.65 1798.37 2198.7C1805.3 2194.74 1811.24 2213.54 1823.11 2214.53C1834.92 2215.51 1811.55 2020.29 1851.02 2012.85C1851.29 2012.81 1851.56 2012.77 1851.82 2012.73C1851.55 2012.76 1851.29 2012.8 1851.02 2012.85C1772.61 2025.48 1768.03 2170.07 1775.59 2241.13C1775.59 2241.21 1775.61 2241.28 1775.63 2241.35Z" fill="white"/>
<path opacity="0.2" d="M1741.02 2258.99C1733.53 2259.43 1727.2 2242.86 1723.79 2229.23C1723.53 2228.2 1721.99 2228.2 1721.72 2229.23C1718.39 2242.18 1715.15 2249.22 1712.22 2252.5C1711.7 2253.08 1710.83 2252.77 1710.74 2252C1700.63 2162.7 1715.86 1982.39 1856.69 1960.73C1857.12 1960.66 1857.55 1960.87 1857.74 1961.25C1861.47 1968.85 1862.34 1978.89 1861.78 1988.69C1861.76 1989.16 1861.38 1989.55 1860.92 1989.62C1739.08 2008.42 1733.71 2148.67 1748.14 2230.21C1750.04 2240.99 1751.95 2258.35 1741.02 2258.99Z" fill="white"/>
<g opacity="0.9" clip-path="url(#clip0_85_2262)">
<path d="M1749.17 2241.57C1749.45 2242.89 1749.72 2244.1 1749.99 2245.19C1749.71 2244.01 1749.44 2242.8 1749.17 2241.57C1746.37 2228.14 1743.5 2204.03 1749.99 2191.78C1758.03 2176.59 1767.7 2204.97 1776.78 2232.47C1777.16 2233.61 1778.92 2233.28 1778.82 2232.09C1773.06 2163.79 1778.92 2043.87 1839.92 2017.28C1849.23 2013.22 1857.94 2006.49 1859.36 1996.44C1859.69 1994.09 1859.96 1991.68 1860.15 1989.24C1860.2 1988.6 1859.61 1988.09 1858.98 1988.19C1730.9 2008.31 1732 2163.01 1749.17 2241.57Z" fill="url(#paint0_linear_85_2262)"/>
<path d="M1774.63 2241.35C1784.51 2270.74 1790.44 2202.65 1797.37 2198.7C1804.29 2194.74 1810.23 2213.54 1822.11 2214.53C1833.91 2215.51 1810.55 2020.29 1850.02 2012.85C1850.29 2012.81 1850.56 2012.77 1850.82 2012.73C1850.55 2012.76 1850.29 2012.8 1850.02 2012.85C1771.61 2025.48 1767.03 2170.07 1774.59 2241.13C1774.59 2241.21 1774.61 2241.28 1774.63 2241.35Z" fill="url(#paint1_linear_85_2262)"/>
<path d="M1740.02 2258.99C1732.53 2259.43 1726.2 2242.86 1722.79 2229.23C1722.53 2228.2 1720.99 2228.2 1720.72 2229.23C1716.9 2244.1 1713.19 2251.18 1709.94 2253.71C1699.44 2165.04 1713.94 1982.53 1855.69 1960.73C1856.12 1960.66 1856.55 1960.87 1856.73 1961.25C1860.47 1968.85 1861.34 1978.89 1860.78 1988.69C1860.76 1989.16 1860.38 1989.55 1859.92 1989.62C1738.08 2008.42 1732.71 2148.67 1747.13 2230.21C1749.04 2240.99 1750.95 2258.35 1740.02 2258.99Z" fill="url(#paint2_linear_85_2262)"/>
<path d="M1702.05 2246.55C1689.44 1988.83 1793.03 1941.41 1846.51 1949.91C1846.57 1949.92 1846.63 1949.94 1846.68 1949.96C1851.64 1951.77 1853.61 1955.83 1855.86 1960.25C1856.17 1960.86 1855.76 1961.61 1855.08 1961.72C1714.29 1983.96 1701.57 2164.44 1711.93 2253.17C1711.98 2253.52 1711.83 2253.85 1711.54 2254.04C1707.31 2256.83 1703.9 2251.94 1702.11 2246.83C1702.08 2246.74 1702.06 2246.64 1702.05 2246.55Z" fill="url(#paint3_linear_85_2262)"/>
<path opacity="0.2" d="M1749.17 2241.57C1749.45 2242.89 1749.72 2244.1 1749.99 2245.19C1749.71 2244.01 1749.44 2242.8 1749.17 2241.57C1746.37 2228.14 1743.5 2204.03 1749.99 2191.78C1758.03 2176.59 1767.7 2204.97 1776.78 2232.47C1777.16 2233.61 1778.92 2233.28 1778.82 2232.09C1773.06 2163.79 1778.92 2043.87 1839.92 2017.28C1849.23 2013.22 1857.94 2006.49 1859.36 1996.44C1859.69 1994.09 1859.96 1991.68 1860.15 1989.24C1860.2 1988.6 1859.61 1988.09 1858.98 1988.19C1730.9 2008.31 1732 2163.01 1749.17 2241.57Z" fill="url(#paint4_linear_85_2262)"/>
<path opacity="0.02" d="M1775.63 2241.35C1785.51 2270.74 1791.44 2202.65 1798.37 2198.7C1805.3 2194.74 1811.24 2213.54 1823.11 2214.53C1834.92 2215.51 1811.55 2020.29 1851.02 2012.85C1851.29 2012.81 1851.56 2012.77 1851.82 2012.73C1851.55 2012.76 1851.29 2012.8 1851.02 2012.85C1772.61 2025.48 1768.03 2170.07 1775.59 2241.13C1775.59 2241.21 1775.61 2241.28 1775.63 2241.35Z" fill="url(#paint5_linear_85_2262)"/>
<path opacity="0.02" d="M1741.02 2258.99C1733.53 2259.43 1727.2 2242.86 1723.79 2229.23C1723.53 2228.2 1721.99 2228.2 1721.72 2229.23C1718.39 2242.18 1715.15 2249.22 1712.22 2252.5C1711.7 2253.08 1710.83 2252.77 1710.74 2252C1700.63 2162.7 1715.86 1982.39 1856.69 1960.73C1857.12 1960.66 1857.55 1960.87 1857.74 1961.25C1861.47 1968.85 1862.34 1978.89 1861.78 1988.69C1861.76 1989.16 1861.38 1989.55 1860.92 1989.62C1739.08 2008.42 1733.71 2148.67 1748.14 2230.21C1750.04 2240.99 1751.95 2258.35 1741.02 2258.99Z" fill="url(#paint6_linear_85_2262)"/>
<path opacity="0.2" d="M1703.06 2246.55C1690.44 1988.83 1794.03 1941.41 1847.51 1949.91C1847.57 1949.92 1847.63 1949.94 1847.68 1949.96C1852.64 1951.77 1854.19 1955.83 1856.37 1960.25C1856.67 1960.86 1856.26 1961.61 1855.58 1961.72C1714.79 1983.96 1702.57 2164.44 1712.94 2253.17C1712.98 2253.52 1712.83 2253.85 1712.54 2254.04C1708.31 2256.83 1704.9 2251.94 1703.11 2246.83C1703.08 2246.74 1703.06 2246.64 1703.06 2246.55Z" fill="url(#paint7_linear_85_2262)"/>
</g>
<path d="M1315.4 2245.08C1315.43 2245.22 1315.47 2245.36 1315.5 2245.5C1315.47 2245.36 1315.44 2245.22 1315.4 2245.08C1312.81 2233.2 1324.52 2229 1326 2229C1327.5 2229 1337.25 2228.5 1342.5 2242.5C1348.08 2257.37 1344.32 2056.31 1407.36 2018.38C1416.06 2013.14 1424.95 2006.49 1426.36 1996.44C1426.69 1994.09 1426.96 1991.68 1427.15 1989.24C1427.2 1988.6 1426.61 1988.09 1425.98 1988.19C1296.12 2008.58 1297.57 2167.6 1315.4 2245.08Z" fill="#9AD4FF"/>
<path d="M1341.63 2241.35C1351.52 2270.78 1362.03 2217.5 1370 2217.5C1377 2217.5 1375.62 2227.01 1387.5 2228C1399.31 2228.98 1377.51 2020.26 1417.08 2012.84C1417.33 2012.8 1417.58 2012.76 1417.82 2012.73C1417.57 2012.76 1417.33 2012.79 1417.08 2012.84C1338.61 2025.41 1334.03 2170.06 1341.59 2241.13C1341.59 2241.21 1341.61 2241.28 1341.63 2241.35Z" fill="#9AD4FF"/>
<path d="M1308.3 2260.59C1300.2 2266.27 1293.21 2254.58 1289.56 2241.3C1289.27 2240.27 1287.68 2240.26 1287.38 2241.28C1284.21 2252.16 1281.26 2251.75 1278.48 2252.85C1277.76 2253.14 1276.83 2252.77 1276.74 2252C1266.63 2162.7 1281.86 1982.39 1422.7 1960.73C1423.12 1960.66 1423.55 1960.87 1423.74 1961.25C1427.47 1968.85 1428.34 1978.89 1427.79 1988.69C1427.76 1989.16 1427.39 1989.55 1426.92 1989.62C1305.08 2008.42 1299.71 2148.67 1314.14 2230.21C1316.04 2240.99 1317.26 2254.31 1308.3 2260.59Z" fill="#9AD4FF"/>
<path d="M1269.06 2246.55C1256.44 1988.83 1360.03 1941.41 1413.51 1949.91C1413.57 1949.92 1413.63 1949.94 1413.68 1949.96C1418.64 1951.77 1420.61 1955.83 1422.86 1960.25C1423.17 1960.86 1422.76 1961.61 1422.09 1961.72C1281.31 1983.94 1271.56 2162.24 1281.94 2250.96C1281.98 2251.3 1281.83 2251.64 1281.54 2251.83C1277.12 2254.76 1270.95 2251.9 1269.11 2246.83C1269.08 2246.74 1269.06 2246.64 1269.06 2246.55Z" fill="#9AD4FF"/>
<path opacity="0.2" d="M1341.64 2241.35C1351.52 2270.78 1362.03 2217.5 1370 2217.5C1377 2217.5 1375.62 2227.01 1387.5 2228C1399.31 2228.98 1377.51 2020.26 1417.08 2012.84C1417.33 2012.8 1417.58 2012.76 1417.82 2012.73C1417.58 2012.76 1417.33 2012.79 1417.08 2012.84C1338.62 2025.41 1334.03 2170.06 1341.59 2241.13C1341.59 2241.21 1341.61 2241.28 1341.64 2241.35Z" fill="white"/>
<path opacity="0.2" d="M1269.06 2246.55C1256.44 1988.83 1360.03 1941.41 1413.51 1949.91C1413.57 1949.92 1413.63 1949.94 1413.68 1949.96C1418.64 1951.77 1420.61 1955.83 1422.86 1960.25C1423.17 1960.86 1422.76 1961.61 1422.08 1961.72C1281.31 1983.94 1271.56 2162.24 1281.94 2250.96C1281.98 2251.3 1281.83 2251.64 1281.54 2251.83C1277.12 2254.76 1270.95 2251.9 1269.11 2246.83C1269.08 2246.74 1269.06 2246.64 1269.06 2246.55Z" fill="white"/>
<g opacity="0.9" clip-path="url(#clip1_85_2262)">
<path d="M1315.4 2245.08C1315.43 2245.22 1315.47 2245.36 1315.5 2245.5C1315.47 2245.36 1315.44 2245.22 1315.4 2245.08C1312.81 2233.2 1324.52 2229 1326 2229C1327.5 2229 1337.25 2228.5 1342.5 2242.5C1348.08 2257.37 1344.32 2056.31 1407.36 2018.38C1416.06 2013.14 1424.95 2006.49 1426.36 1996.44C1426.69 1994.09 1426.96 1991.68 1427.15 1989.24C1427.2 1988.6 1426.61 1988.09 1425.98 1988.19C1296.12 2008.58 1297.57 2167.6 1315.4 2245.08Z" fill="url(#paint8_linear_85_2262)"/>
<path d="M1341.63 2241.35C1351.52 2270.78 1362.03 2217.5 1370 2217.5C1377 2217.5 1375.62 2227.01 1387.5 2228C1399.31 2228.98 1377.51 2020.26 1417.08 2012.84C1417.33 2012.8 1417.58 2012.76 1417.82 2012.73C1417.57 2012.76 1417.33 2012.79 1417.08 2012.84C1338.61 2025.41 1334.03 2170.06 1341.59 2241.13C1341.59 2241.21 1341.61 2241.28 1341.63 2241.35Z" fill="url(#paint9_linear_85_2262)"/>
<path d="M1308.3 2260.59C1300.2 2266.27 1293.21 2254.58 1289.56 2241.3C1289.27 2240.27 1287.68 2240.26 1287.38 2241.28C1284.21 2252.16 1281.26 2251.75 1278.48 2252.85C1277.76 2253.14 1276.83 2252.77 1276.74 2252C1266.63 2162.7 1281.86 1982.39 1422.7 1960.73C1423.12 1960.66 1423.55 1960.87 1423.74 1961.25C1427.47 1968.85 1428.34 1978.89 1427.79 1988.69C1427.76 1989.16 1427.39 1989.55 1426.92 1989.62C1305.08 2008.42 1299.71 2148.67 1314.14 2230.21C1316.04 2240.99 1317.26 2254.31 1308.3 2260.59Z" fill="url(#paint10_linear_85_2262)"/>
<path d="M1269.06 2246.55C1256.44 1988.83 1360.03 1941.41 1413.51 1949.91C1413.57 1949.92 1413.63 1949.94 1413.68 1949.96C1418.64 1951.77 1420.61 1955.83 1422.86 1960.25C1423.17 1960.86 1422.76 1961.61 1422.09 1961.72C1281.31 1983.94 1271.56 2162.24 1281.94 2250.96C1281.98 2251.3 1281.83 2251.64 1281.54 2251.83C1277.12 2254.76 1270.95 2251.9 1269.11 2246.83C1269.08 2246.74 1269.06 2246.64 1269.06 2246.55Z" fill="url(#paint11_linear_85_2262)"/>
<path opacity="0.2" d="M1341.64 2241.35C1351.52 2270.78 1362.03 2217.5 1370 2217.5C1377 2217.5 1375.62 2227.01 1387.5 2228C1399.31 2228.98 1377.51 2020.26 1417.08 2012.84C1417.33 2012.8 1417.58 2012.76 1417.82 2012.73C1417.58 2012.76 1417.33 2012.79 1417.08 2012.84C1338.62 2025.41 1334.03 2170.06 1341.59 2241.13C1341.59 2241.21 1341.61 2241.28 1341.64 2241.35Z" fill="url(#paint12_linear_85_2262)"/>
<path opacity="0.2" d="M1269.06 2246.55C1256.44 1988.83 1360.03 1941.41 1413.51 1949.91C1413.57 1949.92 1413.63 1949.94 1413.68 1949.96C1418.64 1951.77 1420.61 1955.83 1422.86 1960.25C1423.17 1960.86 1422.76 1961.61 1422.08 1961.72C1281.31 1983.94 1271.56 2162.24 1281.94 2250.96C1281.98 2251.3 1281.83 2251.64 1281.54 2251.83C1277.12 2254.76 1270.95 2251.9 1269.11 2246.83C1269.08 2246.74 1269.06 2246.64 1269.06 2246.55Z" fill="url(#paint13_linear_85_2262)"/>
</g>
<path d="M1513.36 2244.9C1513.41 2245.1 1513.45 2245.3 1513.5 2245.5C1513.45 2245.3 1513.41 2245.1 1513.36 2244.9C1510.66 2232.53 1514.66 2209.5 1524 2209.5C1533.5 2209.5 1535.17 2223.44 1542.5 2243C1548.08 2257.87 1542.59 2056.42 1605.36 2018.4C1614.05 2013.14 1622.95 2006.49 1624.36 1996.44C1624.69 1994.09 1624.96 1991.68 1625.15 1989.24C1625.2 1988.6 1624.61 1988.09 1623.98 1988.19C1494.23 2008.57 1495.57 2167.35 1513.36 2244.9Z" fill="#9AD4FF"/>
<path d="M1539.64 2241.35C1549.53 2270.74 1561.03 2203 1569 2203C1576 2203 1575.24 2213.54 1587.12 2214.53C1598.92 2215.51 1575.55 2020.29 1615.02 2012.85C1615.29 2012.81 1615.56 2012.77 1615.82 2012.73C1615.55 2012.76 1615.29 2012.8 1615.02 2012.85C1536.61 2025.48 1532.03 2170.07 1539.59 2241.13C1539.59 2241.21 1539.61 2241.28 1539.64 2241.35Z" fill="#9AD4FF"/>
<path d="M1506.3 2260.59C1498.2 2266.27 1491.21 2254.58 1487.56 2241.3C1487.27 2240.27 1485.68 2240.26 1485.38 2241.28C1482.21 2252.16 1479.26 2251.75 1476.48 2252.85C1475.76 2253.14 1474.83 2252.77 1474.74 2252C1464.63 2162.7 1479.86 1982.39 1620.7 1960.73C1621.12 1960.66 1621.55 1960.87 1621.74 1961.25C1625.47 1968.85 1626.34 1978.89 1625.79 1988.69C1625.76 1989.16 1625.39 1989.55 1624.92 1989.62C1503.08 2008.42 1497.71 2148.67 1512.14 2230.21C1514.04 2240.99 1515.26 2254.31 1506.3 2260.59Z" fill="#9AD4FF"/>
<path d="M1467.06 2246.55C1454.44 1988.83 1558.03 1941.41 1611.51 1949.91C1611.57 1949.92 1611.63 1949.94 1611.68 1949.96C1616.64 1951.77 1618.61 1955.83 1620.86 1960.25C1621.17 1960.86 1620.76 1961.61 1620.09 1961.72C1479.31 1983.94 1469.56 2162.24 1479.94 2250.96C1479.98 2251.3 1479.83 2251.64 1479.54 2251.83C1475.12 2254.76 1468.95 2251.9 1467.11 2246.83C1467.08 2246.74 1467.06 2246.64 1467.06 2246.55Z" fill="#9AD4FF"/>
<path opacity="0.2" d="M1467.06 2246.55C1454.44 1988.83 1558.03 1941.41 1611.51 1949.91C1611.57 1949.92 1611.63 1949.94 1611.68 1949.96C1616.64 1951.77 1618.61 1955.83 1620.86 1960.25C1621.17 1960.86 1620.76 1961.61 1620.08 1961.72C1479.31 1983.94 1469.56 2162.24 1479.94 2250.96C1479.98 2251.3 1479.83 2251.64 1479.54 2251.83C1475.12 2254.76 1468.95 2251.9 1467.11 2246.83C1467.08 2246.74 1467.06 2246.64 1467.06 2246.55Z" fill="white"/>
<path opacity="0.2" d="M1513.36 2244.9C1513.41 2245.1 1513.45 2245.3 1513.5 2245.5C1513.46 2245.3 1513.41 2245.1 1513.36 2244.9C1510.66 2232.53 1514.66 2209.5 1524 2209.5C1533.5 2209.5 1535.17 2223.44 1542.5 2243C1548.08 2257.87 1542.6 2056.42 1605.36 2018.4C1614.05 2013.14 1622.95 2006.49 1624.36 1996.44C1624.69 1994.09 1624.96 1991.68 1625.15 1989.24C1625.2 1988.6 1624.61 1988.09 1623.99 1988.19C1494.23 2008.57 1495.57 2167.35 1513.36 2244.9Z" fill="white"/>
<g opacity="0.9" clip-path="url(#clip2_85_2262)">
<path d="M1513.36 2244.9C1513.41 2245.1 1513.45 2245.3 1513.5 2245.5C1513.45 2245.3 1513.41 2245.1 1513.36 2244.9C1510.66 2232.53 1514.66 2209.5 1524 2209.5C1533.5 2209.5 1535.17 2223.44 1542.5 2243C1548.08 2257.87 1542.59 2056.42 1605.36 2018.4C1614.05 2013.14 1622.95 2006.49 1624.36 1996.44C1624.69 1994.09 1624.96 1991.68 1625.15 1989.24C1625.2 1988.6 1624.61 1988.09 1623.98 1988.19C1494.23 2008.57 1495.57 2167.35 1513.36 2244.9Z" fill="url(#paint14_linear_85_2262)"/>
<path d="M1539.64 2241.35C1549.53 2270.74 1561.03 2203 1569 2203C1576 2203 1575.24 2213.54 1587.12 2214.53C1598.92 2215.51 1575.55 2020.29 1615.02 2012.85C1615.29 2012.81 1615.56 2012.77 1615.82 2012.73C1615.55 2012.76 1615.29 2012.8 1615.02 2012.85C1536.61 2025.48 1532.03 2170.07 1539.59 2241.13C1539.59 2241.21 1539.61 2241.28 1539.64 2241.35Z" fill="url(#paint15_linear_85_2262)"/>
<path d="M1506.3 2260.59C1498.2 2266.27 1491.21 2254.58 1487.56 2241.3C1487.27 2240.27 1485.68 2240.26 1485.38 2241.28C1482.21 2252.16 1479.26 2251.75 1476.48 2252.85C1475.76 2253.14 1474.83 2252.77 1474.74 2252C1464.63 2162.7 1479.86 1982.39 1620.7 1960.73C1621.12 1960.66 1621.55 1960.87 1621.74 1961.25C1625.47 1968.85 1626.34 1978.89 1625.79 1988.69C1625.76 1989.16 1625.39 1989.55 1624.92 1989.62C1503.08 2008.42 1497.71 2148.67 1512.14 2230.21C1514.04 2240.99 1515.26 2254.31 1506.3 2260.59Z" fill="url(#paint16_linear_85_2262)"/>
<path d="M1467.06 2246.55C1454.44 1988.83 1558.03 1941.41 1611.51 1949.91C1611.57 1949.92 1611.63 1949.94 1611.68 1949.96C1616.64 1951.77 1618.61 1955.83 1620.86 1960.25C1621.17 1960.86 1620.76 1961.61 1620.09 1961.72C1479.31 1983.94 1469.56 2162.24 1479.94 2250.96C1479.98 2251.3 1479.83 2251.64 1479.54 2251.83C1475.12 2254.76 1468.95 2251.9 1467.11 2246.83C1467.08 2246.74 1467.06 2246.64 1467.06 2246.55Z" fill="url(#paint17_linear_85_2262)"/>
<path opacity="0.2" d="M1467.06 2246.55C1454.44 1988.83 1558.03 1941.41 1611.51 1949.91C1611.57 1949.92 1611.63 1949.94 1611.68 1949.96C1616.64 1951.77 1618.61 1955.83 1620.86 1960.25C1621.17 1960.86 1620.76 1961.61 1620.08 1961.72C1479.31 1983.94 1469.56 2162.24 1479.94 2250.96C1479.98 2251.3 1479.83 2251.64 1479.54 2251.83C1475.12 2254.76 1468.95 2251.9 1467.11 2246.83C1467.08 2246.74 1467.06 2246.64 1467.06 2246.55Z" fill="url(#paint18_linear_85_2262)"/>
<path opacity="0.2" d="M1513.36 2244.9C1513.41 2245.1 1513.45 2245.3 1513.5 2245.5C1513.46 2245.3 1513.41 2245.1 1513.36 2244.9C1510.66 2232.53 1514.66 2209.5 1524 2209.5C1533.5 2209.5 1535.17 2223.44 1542.5 2243C1548.08 2257.87 1542.6 2056.42 1605.36 2018.4C1614.05 2013.14 1622.95 2006.49 1624.36 1996.44C1624.69 1994.09 1624.96 1991.68 1625.15 1989.24C1625.2 1988.6 1624.61 1988.09 1623.99 1988.19C1494.23 2008.57 1495.57 2167.35 1513.36 2244.9Z" fill="url(#paint19_linear_85_2262)"/>
</g>
<path d="M440.546 1067.23C461.046 1051.09 534.796 1057.73 539.547 1074.73C540.148 1076.88 540.088 1078.88 539.459 1080.73C549.009 1081.89 568.809 1090.43 571.609 1115.23C574.409 1140.03 572.775 1222.56 571.609 1260.73C569.109 1278.23 556.109 1313.23 524.109 1313.23L447.046 1313.23C415.046 1313.23 402.046 1278.23 399.546 1260.73C398.379 1222.56 396.746 1140.03 399.546 1115.23C402.346 1090.43 422.146 1081.89 431.695 1080.73C431.406 1076.86 434.029 1072.36 440.546 1067.23Z" fill="white" fill-opacity="0.2"/>
<path d="M431.695 1080.73C433.495 1104.74 547.729 1104.01 539.547 1074.73C534.796 1057.73 461.046 1051.09 440.546 1067.23C434.029 1072.36 431.406 1076.86 431.695 1080.73ZM431.695 1080.73C422.146 1081.89 402.346 1090.43 399.546 1115.23C396.746 1140.03 398.379 1222.56 399.546 1260.73C402.046 1278.23 415.046 1313.23 447.046 1313.23L524.109 1313.23C556.109 1313.23 569.109 1278.23 571.609 1260.73C572.775 1222.56 574.409 1140.03 571.609 1115.23C568.809 1090.43 549.009 1081.89 539.459 1080.73" stroke="white" stroke-width="13"/>
<path d="M428 1085.5C418 1124 541 1130.7 545 1085.5" stroke="white" stroke-width="3"/>
<path d="M550.574 965.995C540.34 957.415 519.194 946.5 486.5 946.5C453.806 946.5 432.66 957.415 422.426 965.995C418.574 969.225 417 974.221 417 979.248V988.5C417 998 430.9 1017 486.5 1017C542.1 1017 556 998 556 988.5V979.248C556 974.221 554.426 969.225 550.574 965.995Z" fill="#872DA9" stroke="black" stroke-width="3"/>
<path d="M554 973.5C554 976.51 552.387 979.554 549.08 982.5C545.774 985.445 540.906 988.166 534.761 990.481C522.484 995.108 505.421 998 486.5 998C467.579 998 450.516 995.108 438.239 990.481C432.094 988.166 427.226 985.445 423.92 982.5C420.613 979.554 419 976.51 419 973.5C419 972.632 419.34 971.545 420.165 970.256C420.985 968.975 422.234 967.576 423.909 966.115C427.258 963.192 432.172 960.14 438.326 957.368C450.624 951.828 467.664 947.5 486.5 947.5C505.322 947.5 522.359 952.071 534.663 957.737C540.819 960.572 545.742 963.659 549.1 966.544C550.78 967.987 552.032 969.35 552.853 970.571C553.686 971.809 554 972.789 554 973.5Z" fill="#A042C4" stroke="#5A0F77" stroke-width="3"/>
<path d="M550.574 965.995C540.34 957.415 519.194 946.5 486.5 946.5C453.806 946.5 432.66 957.415 422.426 965.995C418.574 969.225 417 974.221 417 979.248V988.5C417 998 430.9 1017 486.5 1017C542.1 1017 556 998 556 988.5V979.248C556 974.221 554.426 969.225 550.574 965.995Z" stroke="#5A0F77" stroke-width="3"/>
<path d="M428.019 987C421.662 983.065 418.5 976.444 418.5 971.5L417 987C417 991.282 419.824 997.494 428.019 1003.03M428.019 987V1003.03M428.019 987C432.686 989.89 438.808 992.409 446 994.414M428.019 1003.03C432.37 1005.97 438.237 1008.71 446 1010.88M446 994.414V1010.88M446 994.414C451.162 995.854 456.876 997.028 463 997.884M446 1010.88C450.884 1012.24 456.519 1013.37 463 1014.17M463 997.884V1014.17M463 997.884C469.435 998.784 476.323 999.332 483.5 999.467M463 1014.17C469.066 1014.92 475.874 1015.38 483.5 1015.48M483.5 999.467C484.659 999.489 485.826 999.5 487 999.5C492.866 999.5 498.562 999.224 504 998.705M483.5 999.467V1015.48M483.5 1015.48C484.486 1015.49 485.486 1015.5 486.5 1015.5C492.866 1015.5 498.686 1015.25 504 1014.8M504 1014.8V998.705M504 1014.8C510.368 1014.25 516.01 1013.41 521 1012.34M504 998.705C510.021 998.13 515.727 997.257 521 996.13M521 996.13V1012.34M521 996.13C526.306 994.995 531.173 993.604 535.483 992M521 1012.34C526.623 1011.14 531.416 1009.66 535.483 1008M535.483 992V1008M535.483 992C541.529 989.75 546.478 987.082 550 984.12M535.483 1008C542.097 1005.3 546.789 1002.14 550 998.951M550 984.12C553.856 980.878 554.5 975.783 554.5 972L556 987C556 990.252 554.372 994.616 550 998.951M550 984.12V998.951" stroke="#5A0F77" stroke-width="3"/>
<path d="M538 972.5C538 974.087 537.092 975.948 534.658 977.974C532.238 979.987 528.586 981.912 523.854 983.577C514.413 986.899 501.206 989 486.5 989C471.794 989 458.587 986.899 449.146 983.577C444.414 981.912 440.762 979.987 438.342 977.974C435.908 975.948 435 974.087 435 972.5C435 970.913 435.908 969.052 438.342 967.026C440.762 965.013 444.414 963.088 449.146 961.423C458.587 958.101 471.794 956 486.5 956C501.206 956 514.413 958.101 523.854 961.423C528.586 963.088 532.238 965.013 534.658 967.026C537.092 969.052 538 970.913 538 972.5Z" fill="#A042C4" stroke="#5A0F77" stroke-width="5"/>
<path d="M602.002 2617.53C633.262 2574.37 705.924 2548.14 740.922 2540C658.368 2566.98 617.76 2603.49 602.039 2626.77L602.002 2617.53Z" fill="#91C358"/>
<path d="M602.002 2617.53C602.014 2616.7 601.989 2618.38 602.002 2617.53ZM602.002 2617.53C633.262 2574.37 705.924 2548.14 740.922 2540C658.368 2566.98 617.76 2603.49 602.039 2626.77L602.002 2617.53Z" stroke="#22A331"/>
<path d="M797.397 2472.17C729.695 2488.83 729.742 2524.44 739.401 2540.19C751.98 2545.58 784.063 2539.75 803.092 2478.22C804.194 2474.65 801.018 2471.28 797.397 2472.17Z" fill="#7BC61B"/>
<path d="M739.401 2540.19C729.742 2524.44 729.695 2488.83 797.397 2472.17C801.018 2471.28 804.194 2474.65 803.092 2478.22C784.063 2539.75 751.98 2545.58 739.401 2540.19ZM739.401 2540.19C741.507 2536.96 744.362 2532.85 747.769 2528.29M794.486 2482.34C784.989 2487.54 775.01 2496.57 766.012 2506.27M756.183 2517.55C763.962 2517.44 780.061 2515.97 782.223 2510.93M756.183 2517.55C759.261 2513.81 762.564 2509.99 766.012 2506.27M756.183 2517.55C753.128 2521.26 750.297 2524.9 747.769 2528.29M766.012 2506.27C766.013 2502.83 767.843 2493.75 775.158 2484.95M747.769 2528.29C747.384 2521.04 748.096 2504.79 754.024 2497.69" stroke="#2BAA33"/>
<path d="M703.469 2485.82C642.946 2520.44 652.771 2554.66 666.384 2567.15C679.961 2568.89 709.21 2554.47 710.606 2490.07C710.686 2486.34 706.706 2483.97 703.469 2485.82Z" fill="#7BC61B"/>
<path d="M666.384 2567.15C652.771 2554.66 642.946 2520.44 703.469 2485.82C706.706 2483.97 710.686 2486.34 710.606 2490.07C709.21 2554.47 679.961 2568.89 666.384 2567.15ZM666.384 2567.15C667.522 2563.47 669.139 2558.73 671.161 2553.41M703.463 2496.4C695.76 2504.01 688.644 2515.43 682.658 2527.23M676.304 2540.78C683.755 2538.54 698.83 2532.7 699.524 2527.26M676.304 2540.78C678.236 2536.34 680.364 2531.76 682.658 2527.23M676.304 2540.78C674.387 2545.19 672.662 2549.46 671.161 2553.41M682.658 2527.23C681.713 2523.92 680.978 2514.69 685.595 2504.22M671.161 2553.41C668.803 2546.55 665.023 2530.73 668.773 2522.27" stroke="#2BAA33"/>
<path d="M713.811 2598.48C658.84 2641.37 630.894 2619.31 624.492 2601.97C628.035 2588.75 652.462 2567.15 712.584 2590.27C716.066 2591.61 716.752 2596.19 713.811 2598.48Z" fill="#7BC61B"/>
<path d="M624.492 2601.97C630.894 2619.31 658.84 2641.37 713.811 2598.48C716.752 2596.19 716.066 2591.61 712.584 2590.27C652.462 2567.15 628.035 2588.75 624.492 2601.97ZM624.492 2601.97C628.334 2602.32 633.328 2602.61 639.021 2602.76M704.021 2594.48C694.058 2598.72 680.791 2600.98 667.601 2602.04M652.661 2602.79C657.556 2596.74 668.672 2585.01 673.969 2586.43M652.661 2602.79C657.503 2602.69 662.546 2602.45 667.601 2602.04M652.661 2602.79C647.854 2602.89 643.245 2602.87 639.021 2602.76M667.601 2602.04C670.306 2604.17 678.575 2608.35 690.012 2608.05M639.021 2602.76C644.472 2607.54 657.686 2617.04 666.929 2616.77" stroke="#2BAA33"/>
<path d="M626.002 2808.52C657.262 2765.37 729.924 2739.14 764.922 2731C682.368 2757.98 641.76 2794.48 626.039 2817.77L626.002 2808.52Z" fill="#91C358"/>
<path d="M626.002 2808.52C626.014 2807.69 625.989 2809.38 626.002 2808.52ZM626.002 2808.52C657.262 2765.37 729.924 2739.14 764.922 2731C682.368 2757.98 641.76 2794.48 626.039 2817.77L626.002 2808.52Z" stroke="#22A331"/>
<path d="M821.397 2663.17C753.695 2679.83 753.742 2715.44 763.401 2731.19C775.98 2736.58 808.063 2730.75 827.092 2669.22C828.194 2665.65 825.018 2662.28 821.397 2663.17Z" fill="#7BC61B"/>
<path d="M763.401 2731.19C753.742 2715.44 753.695 2679.83 821.397 2663.17C825.018 2662.28 828.194 2665.65 827.092 2669.22C808.063 2730.75 775.98 2736.58 763.401 2731.19ZM763.401 2731.19C765.507 2727.96 768.362 2723.85 771.769 2719.29M818.486 2673.34C808.989 2678.54 799.01 2687.57 790.012 2697.27M780.183 2708.55C787.962 2708.44 804.061 2706.97 806.223 2701.93M780.183 2708.55C783.261 2704.81 786.564 2700.99 790.012 2697.27M780.183 2708.55C777.128 2712.26 774.297 2715.9 771.769 2719.29M790.012 2697.27C790.013 2693.83 791.843 2684.75 799.158 2675.95M771.769 2719.29C771.384 2712.04 772.096 2695.79 778.024 2688.69" stroke="#2BAA33"/>
<path d="M714.469 2687.82C653.946 2722.44 663.771 2756.66 677.384 2769.15C690.961 2770.89 720.21 2756.47 721.606 2692.07C721.686 2688.34 717.706 2685.97 714.469 2687.82Z" fill="#7BC61B"/>
<path d="M677.384 2769.15C663.771 2756.66 653.946 2722.44 714.469 2687.82C717.706 2685.97 721.686 2688.34 721.606 2692.07C720.21 2756.47 690.961 2770.89 677.384 2769.15ZM677.384 2769.15C678.522 2765.47 680.139 2760.73 682.161 2755.41M714.463 2698.4C706.76 2706.01 699.644 2717.43 693.658 2729.23M687.304 2742.78C694.755 2740.54 709.83 2734.7 710.524 2729.26M687.304 2742.78C689.236 2738.34 691.364 2733.76 693.658 2729.23M687.304 2742.78C685.387 2747.19 683.662 2751.46 682.161 2755.41M693.658 2729.23C692.713 2725.92 691.978 2716.69 696.595 2706.22M682.161 2755.41C679.803 2748.55 676.023 2732.73 679.773 2724.27" stroke="#2BAA33"/>
<path d="M766.551 2759.24C714.462 2805.59 685.151 2785.37 677.643 2768.49C680.325 2755.07 703.308 2731.93 764.796 2751.12C768.357 2752.23 769.337 2756.76 766.551 2759.24Z" fill="#7BC61B"/>
<path d="M677.643 2768.49C685.151 2785.37 714.462 2805.59 766.551 2759.24C769.337 2756.76 768.357 2752.23 764.796 2751.12C703.308 2731.93 680.325 2755.07 677.643 2768.49ZM677.643 2768.49C681.499 2768.58 686.502 2768.56 692.192 2768.34M756.522 2755.88C746.854 2760.76 733.761 2763.86 720.666 2765.78M705.806 2767.49C710.301 2761.14 720.636 2748.71 726.014 2749.78M705.806 2767.49C710.631 2767.07 715.649 2766.51 720.666 2765.78M705.806 2767.49C701.016 2767.9 696.415 2768.17 692.192 2768.34M720.666 2765.78C723.503 2767.73 732.025 2771.37 743.419 2770.32M692.192 2768.34C697.941 2772.76 711.741 2781.38 720.947 2780.52" stroke="#2BAA33"/>
<path d="M482.876 2759.52C451.616 2716.37 378.954 2690.14 343.956 2682C426.51 2708.98 467.118 2745.48 482.839 2768.77L482.876 2759.52Z" fill="#91C358"/>
<path d="M482.876 2759.52C482.864 2758.69 482.889 2760.38 482.876 2759.52ZM482.876 2759.52C451.616 2716.37 378.954 2690.14 343.956 2682C426.51 2708.98 467.118 2745.48 482.839 2768.77L482.876 2759.52Z" stroke="#22A331"/>
<path d="M296.652 2607.36C361.538 2632.87 356.759 2668.15 345.092 2682.48C331.907 2686.16 300.883 2676.11 290.203 2612.59C289.585 2608.92 293.181 2605.99 296.652 2607.36Z" fill="#7BC61B"/>
<path d="M345.092 2682.48C356.759 2668.15 361.538 2632.87 296.652 2607.36C293.181 2605.99 289.585 2608.92 290.203 2612.59C300.883 2676.11 331.907 2686.16 345.092 2682.48ZM345.092 2682.48C343.434 2679 341.15 2674.55 338.38 2669.57M298.185 2617.82C306.906 2624.24 315.597 2634.52 323.225 2645.33M331.467 2657.81C323.771 2656.68 308.011 2653.08 306.539 2647.79M331.467 2657.81C328.914 2653.7 326.147 2649.48 323.225 2645.33M331.467 2657.81C334.001 2661.9 336.325 2665.88 338.38 2669.57M323.225 2645.33C323.681 2641.92 323.075 2632.67 316.995 2622.98M338.38 2669.57C339.724 2662.45 341.179 2646.24 336.248 2638.42" stroke="#2BAA33"/>
<path d="M406.303 2643.74C467.626 2676.92 458.612 2711.36 445.297 2724.18C431.764 2726.23 402.184 2712.5 399.269 2648.16C399.1 2644.43 403.023 2641.97 406.303 2643.74Z" fill="#7BC61B"/>
<path d="M445.297 2724.18C458.612 2711.36 467.626 2676.92 406.303 2643.74C403.023 2641.97 399.1 2644.43 399.269 2648.16C402.184 2712.5 431.764 2726.23 445.297 2724.18ZM445.297 2724.18C444.072 2720.52 442.344 2715.82 440.197 2710.55M406.559 2654.32C414.439 2661.74 421.822 2672.99 428.086 2684.65M434.757 2698.04C427.256 2695.98 412.047 2690.5 411.225 2685.08M434.757 2698.04C432.721 2693.65 430.486 2689.12 428.086 2684.65M434.757 2698.04C436.778 2702.4 438.603 2706.63 440.197 2710.55M428.086 2684.65C428.952 2681.32 429.469 2672.07 424.606 2661.71M440.197 2710.55C442.393 2703.64 445.798 2687.72 441.85 2679.36" stroke="#2BAA33"/>
<path d="M319.576 2728.29C384.192 2754.48 405.026 2725.6 406.435 2707.18C399.406 2695.43 369.996 2681.35 318.506 2720.05C315.524 2722.29 316.12 2726.89 319.576 2728.29Z" fill="#7BC61B"/>
<path d="M406.435 2707.18C405.026 2725.6 384.192 2754.48 319.576 2728.29C316.12 2726.89 315.524 2722.29 318.506 2720.05C369.996 2681.35 399.406 2695.43 406.435 2707.18ZM406.435 2707.18C402.834 2708.56 398.113 2710.22 392.678 2711.92M327.895 2721.76C338.64 2723.11 352.016 2721.64 364.995 2719.06M379.568 2715.68C373.203 2711.21 359.298 2702.96 354.592 2705.78M379.568 2715.68C374.882 2716.91 369.968 2718.06 364.995 2719.06M379.568 2715.68C384.219 2714.46 388.645 2713.18 392.678 2711.92M364.995 2719.06C362.976 2721.84 356.169 2728.13 345.085 2730.97M392.678 2711.92C388.745 2718.01 378.638 2730.76 369.675 2733.04" stroke="#2BAA33"/>
<path d="M527.881 2628.48C496.62 2585.32 423.996 2561.61 388.997 2553.48C471.552 2580.45 511.819 2616.71 527.54 2640H527.881V2628.48Z" fill="#91C358"/>
<path d="M527.881 2628.48C527.868 2627.65 527.893 2629.33 527.881 2628.48ZM527.881 2628.48C496.62 2585.32 423.996 2561.61 388.997 2553.48C471.552 2580.45 511.819 2616.71 527.54 2640H527.881V2628.48ZM527.881 2628.48H528.029" stroke="#22A331"/>
<path d="M342.652 2478.36C407.538 2503.87 402.759 2539.15 391.092 2553.48C377.907 2557.16 346.883 2547.11 336.203 2483.59C335.585 2479.92 339.181 2476.99 342.652 2478.36Z" fill="#7BC61B"/>
<path d="M391.092 2553.48C402.759 2539.15 407.538 2503.87 342.652 2478.36C339.181 2476.99 335.585 2479.92 336.203 2483.59C346.883 2547.11 377.907 2557.16 391.092 2553.48ZM391.092 2553.48C389.434 2550 387.15 2545.55 384.38 2540.57M344.185 2488.82C352.906 2495.24 361.597 2505.52 369.225 2516.33M377.467 2528.81C369.771 2527.68 354.011 2524.08 352.539 2518.79M377.467 2528.81C374.914 2524.7 372.147 2520.48 369.225 2516.33M377.467 2528.81C380.001 2532.9 382.325 2536.88 384.38 2540.57M369.225 2516.33C369.681 2512.92 369.075 2503.67 362.995 2493.98M384.38 2540.57C385.724 2533.45 387.179 2517.24 382.248 2509.42" stroke="#2BAA33"/>
<path d="M467.805 2514.85C524.547 2555.37 511.337 2588.43 496.538 2599.5C482.855 2599.86 455.202 2582.58 460.278 2518.36C460.572 2514.65 464.769 2512.69 467.805 2514.85Z" fill="#7BC61B"/>
<path d="M496.538 2599.5C511.337 2588.43 524.547 2555.37 467.805 2514.85C464.769 2512.69 460.572 2514.65 460.278 2518.36C455.202 2582.58 482.855 2599.86 496.538 2599.5ZM496.538 2599.5C495.775 2595.71 494.642 2590.84 493.164 2585.34M466.749 2525.38C473.649 2533.72 479.582 2545.8 484.354 2558.14M489.316 2572.26C482.127 2569.28 467.715 2561.96 467.57 2556.48M489.316 2572.26C487.84 2567.64 486.182 2562.87 484.354 2558.14M489.316 2572.26C490.781 2576.84 492.068 2581.26 493.164 2585.34M484.354 2558.14C485.626 2554.95 487.285 2545.83 483.741 2534.95M493.164 2585.34C496.2 2578.76 501.549 2563.39 498.666 2554.6" stroke="#2BAA33"/>
<path d="M961.171 2876.25H947.721C946.688 2876.25 945.544 2874 945.942 2873.04C948.355 2867.27 951.341 2851.52 945.999 2809.75C944.604 2798.84 939.999 2767.32 939.999 2739.75C939.999 2722.75 954.999 2668.25 966.499 2641.75C969.004 2635.07 970.283 2628.75 970.704 2622.89C972.759 2594.3 955.601 2566.35 947.455 2538.86C945.204 2531.26 943.467 2520.72 943.772 2512.8L943.841 2511C947.401 2518.8 949.719 2527.09 951.706 2535.43C963.031 2582.95 991.582 2612.62 971.508 2652.75C945.999 2703.75 953.804 2773.29 956.999 2786.75C962.56 2810.17 961.523 2845.34 963.173 2874.13C963.239 2875.28 962.325 2876.25 961.171 2876.25Z" fill="#91C358" stroke="#22A331"/>
<path d="M897.652 2441.36C962.538 2466.87 957.759 2502.15 946.092 2516.48C932.907 2520.16 901.883 2510.11 891.203 2446.59C890.585 2442.92 894.181 2439.99 897.652 2441.36Z" fill="#7BC61B"/>
<path d="M946.092 2516.48C957.759 2502.15 962.538 2466.87 897.652 2441.36C894.181 2439.99 890.585 2442.92 891.203 2446.59C901.883 2510.11 932.907 2520.16 946.092 2516.48ZM946.092 2516.48C944.434 2513 942.15 2508.55 939.38 2503.57M899.185 2451.82C907.906 2458.24 916.597 2468.52 924.225 2479.33M932.467 2491.81C924.771 2490.68 909.011 2487.08 907.539 2481.79M932.467 2491.81C929.914 2487.7 927.147 2483.48 924.225 2479.33M932.467 2491.81C935.001 2495.9 937.325 2499.88 939.38 2503.57M924.225 2479.33C924.681 2475.92 924.075 2466.67 917.995 2456.98M939.38 2503.57C940.724 2496.45 942.179 2480.24 937.248 2472.42" stroke="#2BAA33"/>
<path d="M1014.4 2489.17C946.695 2505.83 946.742 2541.44 956.401 2557.19C968.98 2562.58 1001.06 2556.75 1020.09 2495.22C1021.19 2491.65 1018.02 2488.28 1014.4 2489.17Z" fill="#7BC61B"/>
<path d="M956.401 2557.19C946.742 2541.44 946.695 2505.83 1014.4 2489.17C1018.02 2488.28 1021.19 2491.65 1020.09 2495.22C1001.06 2556.75 968.98 2562.58 956.401 2557.19ZM956.401 2557.19C958.507 2553.96 961.362 2549.85 964.769 2545.29M1011.49 2499.34C1001.99 2504.54 992.01 2513.57 983.012 2523.27M973.183 2534.55C980.962 2534.44 997.061 2532.97 999.223 2527.93M973.183 2534.55C976.261 2530.81 979.564 2526.99 983.012 2523.27M973.183 2534.55C970.128 2538.26 967.297 2541.9 964.769 2545.29M983.012 2523.27C983.013 2519.83 984.843 2510.75 992.158 2501.95M964.769 2545.29C964.384 2538.04 965.096 2521.79 971.024 2514.69" stroke="#2BAA33"/>
<path d="M1784.44 2474.08C1798.56 2437.82 1827.19 2442.4 1847.84 2452.22C1863.46 2459.65 1879.55 2463.68 1896.75 2461.79C1919.79 2459.26 1948.6 2464.32 1945.81 2513.7C1945.14 2525.5 1938.72 2536.11 1929.61 2543.64C1856.31 2604.27 1802.8 2559.87 1784.44 2528.08L1783.57 2525.92C1777.87 2511.1 1776.79 2493.75 1784.44 2474.08Z" fill="#E22D10"/>
<path d="M1937.1 2535.62C1860.18 2607.91 1803.74 2561.21 1784.89 2528.16L1784.03 2526C1782.55 2522.11 1781.39 2518.04 1780.61 2513.8C1803.88 2537.56 1868.83 2573.26 1942.5 2526C1941.82 2529.68 1939.83 2533.05 1937.1 2535.62Z" fill="#CF270C"/>
<path opacity="0.3" d="M1823.97 2454.02C1805.74 2449.34 1795.05 2462.07 1790.23 2473.22C1788.64 2476.9 1791.2 2480.88 1795.2 2481.14C1816.69 2482.54 1825.45 2470.26 1827.96 2460.55C1828.71 2457.64 1826.88 2454.77 1823.97 2454.02Z" fill="#FAFFF4"/>
<path d="M1861.86 2444.6L1867.82 2441.43C1871.24 2439.61 1875.46 2441.42 1876.51 2445.14C1877.32 2448 1880.09 2449.86 1883.05 2449.52L1894.69 2448.17C1897.41 2447.86 1898.99 2451.16 1897.05 2453.08C1895.52 2454.59 1896.12 2457.17 1898.14 2457.86L1900.05 2458.51C1903.85 2459.8 1903.76 2465.2 1899.92 2466.36L1895.49 2467.7C1893.88 2468.19 1893.2 2470.09 1894.13 2471.49C1895.54 2473.61 1893.26 2476.24 1890.96 2475.14L1882.72 2471.21C1880.6 2470.2 1878.07 2470.79 1876.61 2472.63L1872.3 2478.09C1868.64 2482.71 1861.2 2480.46 1860.73 2474.58L1860.61 2473.15C1860.36 2470 1857.4 2467.79 1854.31 2468.45L1846.39 2470.12C1843.92 2470.64 1842.22 2467.69 1843.91 2465.81C1845.1 2464.5 1844.67 2462.42 1843.06 2461.69L1840.89 2460.69C1837.36 2459.08 1838.12 2453.86 1841.96 2453.31C1844.66 2452.92 1846.13 2449.93 1844.79 2447.55C1842.96 2444.28 1846.3 2440.52 1849.74 2442L1856.36 2444.83C1858.13 2445.59 1860.16 2445.51 1861.86 2444.6Z" fill="#22A331"/>
<path d="M1850.56 2410.83C1870.45 2425.72 1873.23 2447.12 1872.04 2457.14C1871.96 2457.8 1871.39 2458.27 1870.74 2458.27H1868.07C1867.4 2458.27 1866.83 2457.77 1866.73 2457.11C1862.92 2432.16 1852.59 2420.55 1846.69 2417.05C1845.97 2416.62 1845.68 2415.67 1846.15 2414.97L1848.66 2411.16C1849.08 2410.53 1849.95 2410.37 1850.56 2410.83Z" fill="#2BAA33"/>
<path d="M1784.44 2734.4C1798.56 2698.13 1827.19 2702.71 1847.84 2712.54C1863.46 2719.97 1879.55 2723.99 1896.75 2722.1C1919.79 2719.58 1948.6 2724.64 1945.81 2774.02C1945.14 2785.81 1938.72 2796.42 1929.61 2803.95C1856.31 2864.58 1802.8 2820.19 1784.44 2788.4L1783.57 2786.23C1777.87 2771.42 1776.79 2754.06 1784.44 2734.4Z" fill="#7BC61B"/>
<path d="M1937.1 2795.94C1860.18 2868.23 1803.74 2821.52 1784.89 2788.47L1784.03 2786.32C1782.55 2782.42 1781.39 2778.36 1780.61 2774.12C1803.88 2797.88 1868.83 2833.58 1942.5 2786.32C1941.82 2790 1939.83 2793.37 1937.1 2795.94Z" fill="#67AC0E"/>
<path opacity="0.3" d="M1823.97 2714.34C1805.74 2709.66 1795.05 2722.39 1790.23 2733.54C1788.64 2737.22 1791.2 2741.19 1795.2 2741.45C1816.69 2742.85 1825.45 2730.58 1827.96 2720.86C1828.71 2717.96 1826.88 2715.09 1823.97 2714.34Z" fill="#FAFFF4"/>
<path d="M1861.86 2704.92L1867.82 2701.75C1871.24 2699.93 1875.46 2701.73 1876.51 2705.45C1877.32 2708.32 1880.09 2710.17 1883.05 2709.83L1894.69 2708.49C1897.41 2708.17 1898.99 2711.47 1897.05 2713.4C1895.52 2714.9 1896.12 2717.48 1898.14 2718.17L1900.05 2718.82C1903.85 2720.11 1903.76 2725.52 1899.92 2726.68L1895.49 2728.02C1893.88 2728.5 1893.2 2730.41 1894.13 2731.81C1895.54 2733.93 1893.26 2736.56 1890.96 2735.46L1882.72 2731.53C1880.6 2730.52 1878.07 2731.11 1876.61 2732.95L1872.3 2738.4C1868.64 2743.03 1861.2 2740.77 1860.73 2734.89L1860.61 2733.47C1860.36 2730.32 1857.4 2728.11 1854.31 2728.76L1846.39 2730.44C1843.92 2730.96 1842.22 2728.01 1843.91 2726.13C1845.1 2724.82 1844.67 2722.74 1843.06 2722L1840.89 2721.01C1837.36 2719.39 1838.12 2714.17 1841.96 2713.63C1844.66 2713.24 1846.13 2710.24 1844.79 2707.86C1842.96 2704.6 1846.3 2700.84 1849.74 2702.31L1856.36 2705.15C1858.13 2705.91 1860.16 2705.82 1861.86 2704.92Z" fill="#22A331"/>
<path d="M1850.56 2671.14C1870.45 2686.03 1873.23 2707.43 1872.04 2717.46C1871.96 2718.11 1871.39 2718.59 1870.74 2718.59H1868.07C1867.4 2718.59 1866.83 2718.08 1866.73 2717.42C1862.92 2692.47 1852.59 2680.86 1846.69 2677.37C1845.97 2676.94 1845.68 2675.98 1846.15 2675.28L1848.66 2671.48C1849.08 2670.84 1849.95 2670.69 1850.56 2671.14Z" fill="#2BAA33"/>
<circle cx="240" cy="1695" r="19" fill="#5FA54B"/>
<path d="M243.846 1694.05C246.562 1683.92 241.636 1684.85 231.5 1682.13C221.364 1679.41 208.504 1679.13 207.141 1684.22C205.69 1689.63 211.217 1701.87 221.353 1704.59C231.488 1707.3 241.13 1704.19 243.846 1694.05Z" fill="#5FA54B"/>
<circle cx="268" cy="1695" r="19" fill="#5FA54B"/>
<circle cx="298" cy="1695" r="19" fill="#5FA54B"/>
<circle cx="327" cy="1695" r="19" fill="#5FA54B"/>
<circle cx="356" cy="1695" r="19" fill="#5FA54B"/>
<path fill-rule="evenodd" clip-rule="evenodd" d="M228.5 1692.78C234.364 1691.64 246.292 1690.4 253.097 1693.1C254.43 1693.46 255.5 1693.88 255.5 1694.28V1694.39C255.634 1694.49 255.765 1694.59 255.89 1694.69C256.266 1694.6 256.661 1694.51 257.071 1694.42L258.974 1693.78C258.978 1693.86 258.982 1693.94 258.985 1694.02C267.05 1692.4 279.178 1690.91 282.715 1694C282.894 1694.11 283 1694.2 283 1694.28L286.974 1693.78C286.978 1693.87 286.982 1693.95 286.985 1694.03C292.33 1693.55 301.857 1692.76 308.015 1694.02C308.018 1693.94 308.022 1693.86 308.026 1693.78C308.485 1693.94 309.085 1694.17 309.696 1694.45C311.127 1694.89 312.274 1695.49 313 1696.28L316.985 1695.54C316.982 1695.62 316.978 1695.7 316.974 1695.78C323.366 1694.44 331.637 1693.08 337.063 1693.23C337.075 1693.08 337.089 1692.93 337.104 1692.78C339.069 1692.78 343 1693.08 343 1694.28C352.343 1692.62 371.776 1689.78 374.764 1691.78C374.919 1692.76 375 1693.76 375 1694.78C375 1705.28 366.493 1713.78 356 1713.78C350.188 1713.78 344.985 1711.17 341.5 1707.06C338.015 1711.17 332.812 1713.78 327 1713.78C321.188 1713.78 315.985 1711.17 312.5 1707.06C309.015 1711.17 303.812 1713.78 298 1713.78C291.903 1713.78 286.477 1710.91 283 1706.45C279.523 1710.91 274.097 1713.78 268 1713.78C262.46 1713.78 257.473 1711.41 254 1707.63C250.527 1711.41 245.54 1713.78 240 1713.78C233.242 1713.78 227.308 1710.26 223.94 1704.94C223.084 1704.79 222.22 1704.6 221.353 1704.37C212.467 1701.99 207.123 1692.29 206.918 1686.28C210.869 1687.02 216.989 1688.3 221.704 1689.64C221.737 1689.52 221.772 1689.4 221.808 1689.28C222.941 1689.71 224.649 1690.4 226.056 1691.08C227.567 1691.69 228.5 1692.27 228.5 1692.78Z" fill="#A5BD5E"/>
<path d="M207.5 1686.28C211.794 1686.72 219.013 1687.81 223.648 1689.41C226.54 1690.41 230.293 1691.96 233.343 1691.72C239.826 1691.2 248.187 1691.11 252.933 1692.85C254.688 1693.49 256.574 1694.08 258.421 1693.8C265.267 1692.75 275.6 1691.78 280.849 1693.31C282.313 1693.73 283.835 1694.17 285.353 1694.03C292.165 1693.37 302.164 1693.1 308.102 1694.32C311.278 1694.97 315.501 1696.39 318.667 1695.69C325.779 1694.13 334.832 1692.49 339.757 1693.27C341.596 1693.57 343.554 1694.02 345.373 1693.62C354.288 1691.68 369.131 1689.42 374.5 1692.28" stroke="#5FA54B" stroke-width="2"/>
<circle cx="386" cy="1688" r="26" fill="#5FA54C"/>
<path opacity="0.3" d="M360.583 1693.36C363.107 1705.08 373.528 1713.86 386 1713.86C395.976 1713.86 404.64 1708.25 409 1700C385.4 1717.71 366.889 1702.95 360.583 1693.36Z" fill="#3A8726"/>
<path d="M389.5 1664C389.167 1659 391 1649 401 1649" stroke="#5FA54C" stroke-width="3"/>
<path d="M378.744 1664.86C378.181 1659.88 374.596 1650.37 364.756 1652.15" stroke="#5FA54C" stroke-width="3"/>
<circle cx="402.5" cy="1649.5" r="3.5" fill="#3A8726"/>
<circle cx="395.676" cy="1678.13" r="8" transform="rotate(3.74401 395.676 1678.13)" fill="white" stroke="#3A8726"/>
<circle cx="376.324" cy="1682.87" r="8" transform="rotate(3.74401 376.324 1682.87)" fill="white" stroke="#3A8726"/>
<circle cx="362.5" cy="1652.5" r="3.5" fill="#3A8726"/>
<circle cx="396.5" cy="1679.5" r="3.5" fill="#231D1F"/>
<circle cx="377.5" cy="1684.5" r="3.5" fill="#231D1F"/>
<circle cx="396" cy="1678" r="1" fill="white"/>
<path d="M378 1683C378 1683.55 377.552 1684 377 1684C376.448 1684 376 1683.55 376 1683C376 1682.45 376.448 1682 377 1682C377.552 1682 378 1682.45 378 1683Z" fill="white"/>
<path d="M382 1697.59C386.737 1701.54 395.816 1700.82 397 1694" stroke="#3A8726" stroke-width="2"/>
<circle cx="354.5" cy="1684.5" r="2.5" fill="#A14C30"/>
<circle cx="336.5" cy="1685.5" r="2.5" fill="#A14C30"/>
<circle cx="320.5" cy="1691.5" r="2.5" fill="#A14C30"/>
<circle cx="302.5" cy="1684.5" r="2.5" fill="#A14C30"/>
<circle cx="287.5" cy="1690.5" r="2.5" fill="#A14C30"/>
<circle cx="271.5" cy="1685.5" r="2.5" fill="#A14C30"/>
<circle cx="245.5" cy="1686.5" r="2.5" fill="#A14C30"/>
<circle cx="235.5" cy="1682.5" r="2.5" fill="#A14C30"/>
<circle cx="710" cy="1703" r="19" fill="#5FA54B"/>
<path d="M713.846 1702.05C716.562 1691.92 711.636 1692.85 701.5 1690.13C691.364 1687.41 678.504 1687.13 677.141 1692.22C675.69 1697.63 681.217 1709.87 691.353 1712.59C701.488 1715.3 711.13 1712.19 713.846 1702.05Z" fill="#5FA54B"/>
<circle cx="740" cy="1684" r="19" fill="#5FA54B"/>
<circle cx="768" cy="1665" r="19" fill="#5FA54B"/>
<circle cx="800" cy="1680" r="19" fill="#5FA54B"/>
<circle cx="826" cy="1703" r="19" fill="#5FA54B"/>
<path fill-rule="evenodd" clip-rule="evenodd" d="M788.5 1672C788.488 1672.32 788.466 1672.63 788.436 1672.93C789.621 1673.73 791.003 1674.97 792.494 1676.3L792.494 1676.3L792.495 1676.3C794.838 1678.39 797.452 1680.73 800 1682C804.585 1687.2 808.273 1690.52 810.995 1692.33C811.196 1692.17 811.369 1692.07 811.5 1692L832.5 1703.5C837.363 1702.84 839.982 1701.36 841.691 1700.4C843.077 1699.62 843.864 1699.18 844.764 1699.78C844.919 1700.76 845 1701.76 845 1702.78C845 1713.28 836.493 1721.78 826 1721.78C815.507 1721.78 807 1713.28 807 1702.78C807 1702.11 807.035 1701.44 807.104 1700.78C807.104 1700.15 807.153 1699.55 807.241 1698.98C805.009 1699.59 802.564 1699.84 800 1699.84C790.01 1699.84 781.821 1692.13 781.058 1682.33C777.53 1683.7 773.082 1684.1 768.462 1684.1C764.957 1684.1 761.674 1683.15 758.855 1681.49L758.676 1683.29C758.693 1683.62 758.702 1683.96 758.702 1684.29C758.702 1694.79 750.195 1703.29 739.702 1703.29C735.795 1703.29 732.163 1702.11 729.143 1700.09L728.974 1701.78C728.991 1702.12 729 1702.45 729 1702.78C729 1713.28 720.493 1721.78 710 1721.78C703.242 1721.78 697.308 1718.26 693.94 1712.94C693.084 1712.79 692.22 1712.61 691.353 1712.37C682.467 1709.99 677.123 1700.29 676.918 1694.28C680.869 1695.02 686.988 1696.3 691.704 1697.64C691.737 1697.52 691.772 1697.4 691.808 1697.28C692.942 1697.71 694.651 1698.4 696.059 1699.08C697.567 1699.69 698.5 1700.27 698.5 1700.78C700.79 1700.34 704.455 1698.61 708.526 1696.69L708.526 1696.69C713.029 1694.56 718.03 1692.2 722.218 1691.08C726.126 1688.8 729.94 1685.69 733.793 1682.54C739.429 1677.93 745.149 1673.26 751.363 1671.04C753.96 1670.11 756.353 1669.6 757.983 1669.56C763.687 1667.59 770.598 1666.15 776.154 1665.9C781.001 1665.68 785.191 1668.45 788.5 1672Z" fill="#A5BD5E"/>
<path d="M677.5 1694.28C681.822 1694.73 689.107 1696.14 693.738 1697.97C696.583 1699.1 700.301 1700.63 703.157 1699.53C710.144 1696.84 718.876 1691.57 722.467 1691.04C722.823 1690.99 723.175 1690.98 723.519 1690.87C730 1688.91 741.185 1672.08 749.456 1670.86C751.686 1670.54 754.18 1670.7 756.199 1669.7C763.046 1666.3 770.782 1665.13 775.667 1665.82C778.877 1666.27 783.225 1668.23 785.984 1669.93C793.537 1674.59 803.037 1688.33 810.472 1691.09C811.449 1691.45 812.423 1691.85 813.254 1692.47C823.215 1700.01 837.246 1705.93 843 1709" stroke="#5FA54B" stroke-width="2"/>
<circle cx="856" cy="1696" r="26" fill="#5FA54C"/>
<path opacity="0.3" d="M830.583 1701.36C833.107 1713.08 843.528 1721.86 856 1721.86C865.976 1721.86 874.64 1716.25 879 1708C855.4 1725.71 836.889 1710.95 830.583 1701.36Z" fill="#3A8726"/>
<path d="M859.5 1672C859.167 1667 861 1657 871 1657" stroke="#5FA54C" stroke-width="3"/>
<path d="M848.744 1672.86C848.181 1667.88 844.596 1658.37 834.756 1660.15" stroke="#5FA54C" stroke-width="3"/>
<circle cx="872.5" cy="1657.5" r="3.5" fill="#3A8726"/>
<circle cx="865.676" cy="1686.13" r="8" transform="rotate(3.74401 865.676 1686.13)" fill="white" stroke="#3A8726"/>
<circle cx="846.324" cy="1690.87" r="8" transform="rotate(3.74401 846.324 1690.87)" fill="white" stroke="#3A8726"/>
<circle cx="832.5" cy="1660.5" r="3.5" fill="#3A8726"/>
<circle cx="866.5" cy="1687.5" r="3.5" fill="#231D1F"/>
<circle cx="847.5" cy="1692.5" r="3.5" fill="#231D1F"/>
<circle cx="866" cy="1686" r="1" fill="white"/>
<path d="M848 1691C848 1691.55 847.552 1692 847 1692C846.448 1692 846 1691.55 846 1691C846 1690.45 846.448 1690 847 1690C847.552 1690 848 1690.45 848 1691Z" fill="white"/>
<path d="M852 1705.59C856.737 1709.54 865.816 1708.82 867 1702" stroke="#3A8726" stroke-width="2"/>
<circle cx="824.5" cy="1692.5" r="2.5" fill="#A14C30"/>
<circle cx="808.5" cy="1676.5" r="2.5" fill="#A14C30"/>
<circle cx="793.5" cy="1670.5" r="2.5" fill="#A14C30"/>
<circle cx="773.5" cy="1652.5" r="2.5" fill="#A14C30"/>
<circle cx="760.5" cy="1657.5" r="2.5" fill="#A14C30"/>
<circle cx="736.5" cy="1674.5" r="2.5" fill="#A14C30"/>
<circle cx="713.5" cy="1690.5" r="2.5" fill="#A14C30"/>
<circle cx="704.5" cy="1691.5" r="2.5" fill="#A14C30"/>
<circle cx="475" cy="1695" r="19" fill="#5FA54B"/>
<path d="M478.846 1694.05C481.562 1683.92 476.636 1684.85 466.5 1682.13C456.364 1679.41 443.504 1679.13 442.141 1684.22C440.69 1689.63 446.217 1701.87 456.353 1704.59C466.488 1707.3 476.13 1704.19 478.846 1694.05Z" fill="#5FA54B"/>
<circle cx="503" cy="1688" r="19" fill="#5FA54B"/>
<circle cx="533" cy="1682" r="19" fill="#5FA54B"/>
<circle cx="562" cy="1686" r="19" fill="#5FA54B"/>
<circle cx="591" cy="1695" r="19" fill="#5FA54B"/>
<path fill-rule="evenodd" clip-rule="evenodd" d="M532.462 1701.1C537.562 1701.1 542.196 1699.27 545.613 1696.19C548.915 1701.8 555.018 1705.57 562 1705.57C566.251 1705.57 570.177 1704.17 573.342 1701.81C576.137 1708.83 582.989 1713.78 591 1713.78C601.493 1713.78 610 1705.28 610 1694.78C610 1693.76 609.919 1692.76 609.764 1691.78C607.112 1690.01 591.509 1692.04 581.5 1693.69C579.442 1693.03 575.731 1692.01 572.252 1691.42C569.676 1688.89 566.307 1686.82 562.5 1686.57C561.13 1686.44 559.919 1686.15 558.851 1685.76C556.518 1684.91 553.963 1684.02 551.46 1683.66L551.462 1683.6H550.991C549.869 1683.47 548.761 1683.45 547.692 1683.6H547.462C547.162 1683.49 546.841 1683.4 546.5 1683.32C542.9 1681.98 525.333 1683.22 517 1684L516.997 1684.01C515.545 1684.07 513.715 1684.45 511.778 1684.85C509.766 1685.27 507.638 1685.71 505.702 1685.84C502.143 1686.25 494.112 1690.22 488.49 1693.26C481.761 1690.35 469.479 1691.62 463.5 1692.78C463.5 1692.27 462.567 1691.69 461.056 1691.08C459.649 1690.4 457.941 1689.71 456.808 1689.28C456.772 1689.4 456.737 1689.52 456.704 1689.64C451.989 1688.3 445.869 1687.02 441.918 1686.28C442.123 1692.29 447.467 1701.99 456.353 1704.37C457.22 1704.6 458.084 1704.79 458.94 1704.94C462.308 1710.26 468.242 1713.78 475 1713.78C482.229 1713.78 488.515 1709.75 491.727 1703.8C494.826 1706 498.613 1707.29 502.702 1707.29C510.311 1707.29 516.875 1702.82 519.909 1696.36C523.256 1699.31 527.65 1701.1 532.462 1701.1Z" fill="#A5BD5E"/>
<path d="M442.5 1686.28C446.822 1686.73 454.107 1688.14 458.738 1689.97C461.583 1691.1 465.29 1692.66 468.313 1692.18C474.143 1691.26 481.103 1690.31 485.404 1691.62C487.191 1692.17 489.087 1692.83 490.887 1692.33C496.769 1690.69 501.629 1687.73 501.98 1687.51C501.994 1687.5 502.006 1687.5 502.02 1687.49C510.384 1682.18 529.268 1680.68 538.401 1682.18C541.599 1682.71 546.058 1683.99 549.29 1684.24C557.616 1684.9 569.465 1688.8 575.394 1692.2C577.116 1693.19 579.148 1693.71 581.09 1693.3C589.939 1691.42 604.178 1689.45 609.5 1692.28" stroke="#5FA54B" stroke-width="2"/>
<circle cx="621" cy="1688" r="26" fill="#5FA54C"/>
<path opacity="0.3" d="M595.583 1693.36C598.107 1705.08 608.528 1713.86 621 1713.86C630.976 1713.86 639.64 1708.25 644 1700C620.4 1717.71 601.889 1702.95 595.583 1693.36Z" fill="#3A8726"/>
<path d="M624.5 1664C624.167 1659 626 1649 636 1649" stroke="#5FA54C" stroke-width="3"/>
<path d="M613.744 1664.86C613.181 1659.88 609.596 1650.37 599.756 1652.15" stroke="#5FA54C" stroke-width="3"/>
<circle cx="637.5" cy="1649.5" r="3.5" fill="#3A8726"/>
<circle cx="630.676" cy="1678.13" r="8" transform="rotate(3.74401 630.676 1678.13)" fill="white" stroke="#3A8726"/>
<circle cx="611.324" cy="1682.87" r="8" transform="rotate(3.74401 611.324 1682.87)" fill="white" stroke="#3A8726"/>
<circle cx="597.5" cy="1652.5" r="3.5" fill="#3A8726"/>
<circle cx="631.5" cy="1679.5" r="3.5" fill="#231D1F"/>
<circle cx="612.5" cy="1684.5" r="3.5" fill="#231D1F"/>
<circle cx="631" cy="1678" r="1" fill="white"/>
<path d="M613 1683C613 1683.55 612.552 1684 612 1684C611.448 1684 611 1683.55 611 1683C611 1682.45 611.448 1682 612 1682C612.552 1682 613 1682.45 613 1683Z" fill="white"/>
<path d="M617 1697.59C621.737 1701.54 630.816 1700.82 632 1694" stroke="#3A8726" stroke-width="2"/>
<circle cx="589.5" cy="1684.5" r="2.5" fill="#A14C30"/>
<circle cx="571.5" cy="1676.5" r="2.5" fill="#A14C30"/>
<circle cx="556.5" cy="1670.5" r="2.5" fill="#A14C30"/>
<circle cx="537.5" cy="1668.5" r="2.5" fill="#A14C30"/>
<circle cx="527.5" cy="1670.5" r="2.5" fill="#A14C30"/>
<circle cx="505.5" cy="1674.5" r="2.5" fill="#A14C30"/>
<circle cx="480.5" cy="1686.5" r="2.5" fill="#A14C30"/>
<circle cx="470.5" cy="1682.5" r="2.5" fill="#A14C30"/>
<circle cx="280" cy="1988" r="19" transform="rotate(-90 280 1988)" fill="#5FA54B"/>
<path d="M279.051 1984.15C268.915 1981.44 269.846 1986.36 267.13 1996.5C264.414 2006.64 264.13 2019.5 269.216 2020.86C274.63 2022.31 286.873 2016.78 289.588 2006.65C292.304 1996.51 289.187 1986.87 279.051 1984.15Z" fill="#5FA54B"/>
<circle cx="273" cy="1960" r="19" transform="rotate(-90 273 1960)" fill="#5FA54B"/>
<circle cx="267" cy="1930" r="19" transform="rotate(-90 267 1930)" fill="#5FA54B"/>
<circle cx="271" cy="1901" r="19" transform="rotate(-90 271 1901)" fill="#5FA54B"/>
<circle cx="280" cy="1872" r="19" transform="rotate(-90 280 1872)" fill="#5FA54B"/>
<path fill-rule="evenodd" clip-rule="evenodd" d="M286.098 1930.54C286.098 1925.44 284.274 1920.8 281.19 1917.39C286.801 1914.08 290.568 1907.98 290.568 1901C290.568 1896.75 289.171 1892.82 286.812 1889.66C293.826 1886.86 298.784 1880.01 298.784 1872C298.784 1861.51 290.277 1853 279.784 1853C278.763 1853 277.761 1853.08 276.784 1853.24C275.009 1855.89 277.041 1871.49 278.685 1881.5C278.03 1883.56 277.007 1887.27 276.415 1890.75C273.895 1893.32 271.818 1896.69 271.568 1900.5C271.438 1901.87 271.15 1903.08 270.759 1904.15C269.907 1906.48 269.019 1909.04 268.659 1911.54L268.598 1911.54L268.598 1912.01C268.467 1913.13 268.45 1914.24 268.598 1915.31L268.598 1915.54C268.492 1915.84 268.401 1916.16 268.325 1916.5C266.985 1920.1 268.217 1937.67 269 1946L269.009 1946C269.071 1947.45 269.449 1949.29 269.85 1951.22C270.266 1953.23 270.705 1955.36 270.839 1957.3C271.247 1960.86 275.219 1968.89 278.265 1974.51C275.348 1981.24 276.617 1993.52 277.784 1999.5C277.274 1999.5 276.689 2000.43 276.078 2001.94C275.397 2003.35 274.707 2005.06 274.284 2006.19C274.403 2006.23 274.522 2006.26 274.642 2006.3C273.301 2011.01 272.016 2017.13 271.284 2021.08C277.288 2020.88 286.991 2015.53 289.372 2006.65C289.605 2005.78 289.794 2004.92 289.941 2004.06C295.255 2000.69 298.784 1994.76 298.784 1988C298.784 1980.77 294.746 1974.48 288.804 1971.27C291.001 1968.17 292.292 1964.39 292.292 1960.3C292.292 1952.69 287.82 1946.13 281.36 1943.09C284.309 1939.74 286.098 1935.35 286.098 1930.54Z" fill="#A5BD5E"/>
<path d="M271.284 2020.5C271.727 2016.18 273.135 2008.89 274.97 2004.26C276.097 2001.42 277.657 1997.71 277.182 1994.69C276.265 1988.86 275.31 1981.9 276.621 1977.6C277.166 1975.81 277.833 1973.91 277.331 1972.11C275.691 1966.23 272.729 1961.37 272.512 1961.02C272.504 1961.01 272.496 1960.99 272.487 1960.98C267.181 1952.62 265.675 1933.73 267.183 1924.6C267.71 1921.4 268.99 1916.94 269.243 1913.71C269.896 1905.38 273.796 1893.53 277.2 1887.61C278.189 1885.88 278.709 1883.85 278.297 1881.91C276.419 1873.06 274.445 1858.82 277.284 1853.5" stroke="#5FA54B" stroke-width="2"/>
<circle cx="269.5" cy="1873.5" r="2.5" transform="rotate(-90 269.5 1873.5)" fill="#A14C30"/>
<circle cx="261.5" cy="1891.5" r="2.5" transform="rotate(-90 261.5 1891.5)" fill="#A14C30"/>
<circle cx="255.5" cy="1906.5" r="2.5" transform="rotate(-90 255.5 1906.5)" fill="#A14C30"/>
<circle cx="253.5" cy="1925.5" r="2.5" transform="rotate(-90 253.5 1925.5)" fill="#A14C30"/>
<circle cx="255.5" cy="1935.5" r="2.5" transform="rotate(-90 255.5 1935.5)" fill="#A14C30"/>
<circle cx="259.5" cy="1957.5" r="2.5" transform="rotate(-90 259.5 1957.5)" fill="#A14C30"/>
<circle cx="271.5" cy="1982.5" r="2.5" transform="rotate(-90 271.5 1982.5)" fill="#A14C30"/>
<circle cx="267.5" cy="1992.5" r="2.5" transform="rotate(-90 267.5 1992.5)" fill="#A14C30"/>
<circle cx="282" cy="1837" r="26" fill="#5FA54C"/>
<path opacity="0.3" d="M256.583 1842.36C259.107 1854.08 269.528 1862.86 282 1862.86C291.976 1862.86 300.64 1857.25 305 1849C281.4 1866.71 262.889 1851.95 256.583 1842.36Z" fill="#3A8726"/>
<path d="M285.5 1813C285.167 1808 287 1798 297 1798" stroke="#5FA54C" stroke-width="3"/>
<path d="M274.744 1813.86C274.181 1808.88 270.596 1799.37 260.756 1801.15" stroke="#5FA54C" stroke-width="3"/>
<circle cx="298.5" cy="1798.5" r="3.5" fill="#3A8726"/>
<circle cx="291.676" cy="1827.13" r="8" transform="rotate(3.74401 291.676 1827.13)" fill="white" stroke="#3A8726"/>
<circle cx="272.324" cy="1831.87" r="8" transform="rotate(3.74401 272.324 1831.87)" fill="white" stroke="#3A8726"/>
<circle cx="258.5" cy="1801.5" r="3.5" fill="#3A8726"/>
<circle cx="292.5" cy="1827.5" r="3.5" fill="#231D1F"/>
<circle cx="272.5" cy="1832.5" r="3.5" fill="#231D1F"/>
<circle cx="292" cy="1826" r="1" fill="white"/>
<path d="M273 1831C273 1831.55 272.552 1832 272 1832C271.448 1832 271 1831.55 271 1831C271 1830.45 271.448 1830 272 1830C272.552 1830 273 1830.45 273 1831Z" fill="white"/>
<circle cx="287.5" cy="1847.5" r="5.5" fill="#3A8726"/>
<circle cx="287.5" cy="1847.5" r="3.5" fill="#A5BD5E"/>
<circle cx="452" cy="1990" r="19" transform="rotate(-90 452 1990)" fill="#5FA54B"/>
<path d="M453.455 1986.15C463.591 1983.44 462.66 1988.36 465.376 1998.5C468.092 2008.64 468.376 2021.5 463.29 2022.86C457.876 2024.31 445.633 2018.78 442.917 2008.65C440.202 1998.51 443.319 1988.87 453.455 1986.15Z" fill="#5FA54B"/>
<circle cx="450" cy="1962" r="19" transform="rotate(-90 450 1962)" fill="#5FA54B"/>
<circle cx="447" cy="1932" r="19" transform="rotate(-90 447 1932)" fill="#5FA54B"/>
<circle cx="449" cy="1903" r="19" transform="rotate(-90 449 1903)" fill="#5FA54B"/>
<circle cx="449" cy="1874" r="19" transform="rotate(-90 449 1874)" fill="#5FA54B"/>
<path fill-rule="evenodd" clip-rule="evenodd" d="M448.784 1855C459.277 1855 467.784 1863.51 467.784 1874C467.784 1879.67 465.302 1884.76 461.365 1888.24C463.964 1890.39 466.02 1893.27 467.194 1896.7C469.85 1904.45 467.202 1912.74 461.183 1917.62C464.515 1921.23 466.368 1926.41 466.368 1932C466.368 1937.47 464.053 1942.41 460.348 1945.88C465.719 1949.23 469.292 1955.2 469.292 1962C469.292 1967.03 467.341 1971.6 464.155 1974.99C468.624 1978.47 471.5 1983.9 471.5 1990C471.5 1995.45 469.612 2000.36 466.33 2003.82C469.018 2014.39 466.243 2022.08 463.286 2023.06C462.522 2021.94 461.625 2020.68 460.679 2019.34L460.679 2019.34C457.914 2015.43 454.73 2010.93 453.219 2008C451.364 2005.44 450.846 2003.27 450.5 2001.5C449.539 1996.57 448.508 1987.37 449.806 1980.52C449.904 1977.39 451.205 1972.43 452 1969.88C449.922 1965.63 448.107 1961.34 447.839 1959C447.496 1954.02 447.343 1945.65 448.886 1943.02C448.167 1934.03 447.462 1921.01 448.595 1917.96C448.671 1917.62 448.762 1917.3 448.868 1917L449.8 1913.3C449.413 1910.94 449.427 1908.42 449.475 1906.09C449.498 1904.96 449.378 1903.72 449.057 1902.38C448.53 1900.43 448.526 1898.43 448.87 1896.5C448.184 1895.06 447.567 1892.58 448.284 1887C448.096 1885.95 447.894 1884.77 447.685 1883.5C446.04 1873.49 444.009 1857.89 445.784 1855.24C446.761 1855.08 447.763 1855 448.784 1855Z" fill="#A5BD5E"/>
<path d="M463 2023C448.318 2008.32 448.779 1989.4 450.71 1978.45C451.737 1972.62 451.577 1966.48 449.059 1961.12V1961.12C449.02 1961.04 448.992 1960.95 448.975 1960.86L448.873 1960.3C448.292 1957.11 448 1953.87 448 1950.62L448 1932.5C449.068 1908.21 448.996 1896.89 448.696 1891.61C448.54 1888.85 447.528 1885.12 446.988 1882.41C445.217 1873.52 443.601 1860.53 446.284 1855.5" stroke="#5FA54B" stroke-width="2"/>
<circle cx="451" cy="1839" r="26" fill="#5FA54C"/>
<path opacity="0.3" d="M425.583 1844.36C428.107 1856.08 438.528 1864.86 451 1864.86C460.976 1864.86 469.64 1859.25 474 1851C450.4 1868.71 431.889 1853.95 425.583 1844.36Z" fill="#3A8726"/>
<path d="M454.5 1815C454.167 1810 456 1800 466 1800" stroke="#5FA54C" stroke-width="3"/>
<path d="M443.744 1815.86C443.181 1810.88 439.596 1801.37 429.756 1803.15" stroke="#5FA54C" stroke-width="3"/>
<circle cx="467.5" cy="1800.5" r="3.5" fill="#3A8726"/>
<circle cx="460.676" cy="1829.13" r="8" transform="rotate(3.74401 460.676 1829.13)" fill="white" stroke="#3A8726"/>
<circle cx="441.324" cy="1833.87" r="8" transform="rotate(3.74401 441.324 1833.87)" fill="white" stroke="#3A8726"/>
<circle cx="427.5" cy="1803.5" r="3.5" fill="#3A8726"/>
<circle cx="461.5" cy="1829.5" r="3.5" fill="#231D1F"/>
<circle cx="441.5" cy="1834.5" r="3.5" fill="#231D1F"/>
<circle cx="461" cy="1828" r="1" fill="white"/>
<path d="M442 1833C442 1833.55 441.552 1834 441 1834C440.448 1834 440 1833.55 440 1833C440 1832.45 440.448 1832 441 1832C441.552 1832 442 1832.45 442 1833Z" fill="white"/>
<circle cx="438.5" cy="1875.5" r="2.5" transform="rotate(-90 438.5 1875.5)" fill="#A14C30"/>
<circle cx="442.5" cy="1893.5" r="2.5" transform="rotate(-90 442.5 1893.5)" fill="#A14C30"/>
<circle cx="436.5" cy="1908.5" r="2.5" transform="rotate(-90 436.5 1908.5)" fill="#A14C30"/>
<circle cx="434.5" cy="1927.5" r="2.5" transform="rotate(-90 434.5 1927.5)" fill="#A14C30"/>
<circle cx="436.5" cy="1937.5" r="2.5" transform="rotate(-90 436.5 1937.5)" fill="#A14C30"/>
<circle cx="440.5" cy="1959.5" r="2.5" transform="rotate(-90 440.5 1959.5)" fill="#A14C30"/>
<circle cx="440.5" cy="1984.5" r="2.5" transform="rotate(-90 440.5 1984.5)" fill="#A14C30"/>
<circle cx="436.5" cy="1994.5" r="2.5" transform="rotate(-90 436.5 1994.5)" fill="#A14C30"/>
<circle cx="456.5" cy="1849.5" r="5.5" fill="#3A8726"/>
<circle cx="456.5" cy="1849.5" r="3.5" fill="#A5BD5E"/>
<circle cx="19" cy="19" r="19" transform="matrix(4.37114e-08 -1 -1 -4.37114e-08 382 2007)" fill="#A5BD5E"/>
<path d="M363.949 1984.15C374.085 1981.44 373.154 1986.36 375.87 1996.5C378.586 2006.64 378.87 2019.5 373.784 2020.86C368.37 2022.31 356.127 2016.78 353.412 2006.65C350.696 1996.51 353.813 1986.87 363.949 1984.15Z" fill="#A5BD5E"/>
<circle cx="19" cy="19" r="19" transform="matrix(4.37114e-08 -1 -1 -4.37114e-08 389 1979)" fill="#A5BD5E"/>
<circle cx="19" cy="19" r="19" transform="matrix(4.37114e-08 -1 -1 -4.37114e-08 395 1949)" fill="#A5BD5E"/>
<circle cx="19" cy="19" r="19" transform="matrix(4.37114e-08 -1 -1 -4.37114e-08 391 1920)" fill="#A5BD5E"/>
<circle cx="19" cy="19" r="19" transform="matrix(4.37114e-08 -1 -1 -4.37114e-08 382 1891)" fill="#A5BD5E"/>
<path fill-rule="evenodd" clip-rule="evenodd" d="M356.902 1930.54C356.902 1925.44 358.726 1920.8 361.81 1917.39C356.199 1914.08 352.432 1907.98 352.432 1901C352.432 1896.75 353.829 1892.82 356.188 1889.66C349.174 1886.86 344.216 1880.01 344.216 1872C344.216 1861.51 352.723 1853 363.216 1853C364.237 1853 365.239 1853.08 366.216 1853.24C367.991 1855.89 365.959 1871.49 364.315 1881.5C364.97 1883.56 365.993 1887.27 366.585 1890.75C369.105 1893.32 371.182 1896.69 371.432 1900.5C371.562 1901.87 371.85 1903.08 372.241 1904.15C373.093 1906.48 373.981 1909.04 374.341 1911.54L374.402 1911.54L374.402 1912.01C374.533 1913.13 374.55 1914.24 374.402 1915.31L374.402 1915.54C374.508 1915.84 374.599 1916.16 374.675 1916.5C376.015 1920.1 374.783 1937.67 374 1946L373.991 1946C373.929 1947.45 373.551 1949.29 373.15 1951.22C372.734 1953.23 372.295 1955.36 372.161 1957.3C371.753 1960.86 367.781 1968.89 364.735 1974.51C367.652 1981.24 366.383 1993.52 365.216 1999.5C365.726 1999.5 366.311 2000.43 366.922 2001.94C367.603 2003.35 368.293 2005.06 368.716 2006.19C368.597 2006.23 368.478 2006.26 368.358 2006.3C369.699 2011.01 370.984 2017.13 371.716 2021.08C365.712 2020.88 356.009 2015.53 353.628 2006.65C353.395 2005.78 353.206 2004.92 353.059 2004.06C347.745 2000.69 344.216 1994.76 344.216 1988C344.216 1980.77 348.254 1974.48 354.196 1971.27C351.999 1968.17 350.708 1964.39 350.708 1960.3C350.708 1952.69 355.18 1946.13 361.64 1943.09C358.691 1939.74 356.902 1935.35 356.902 1930.54Z" fill="#5FA54B"/>
<path d="M371.716 2020.5C371.273 2016.18 369.865 2008.89 368.03 2004.26C366.903 2001.42 365.343 1997.71 365.818 1994.69C366.735 1988.86 367.69 1981.9 366.379 1977.6C365.834 1975.81 365.167 1973.91 365.669 1972.11C367.309 1966.23 370.271 1961.37 370.488 1961.02C370.496 1961.01 370.504 1960.99 370.513 1960.98C375.819 1952.62 377.325 1933.73 375.817 1924.6C375.29 1921.4 374.01 1916.94 373.757 1913.71C373.104 1905.38 369.204 1893.53 365.8 1887.61C364.811 1885.88 364.291 1883.85 364.703 1881.91C366.581 1873.06 368.555 1858.82 365.716 1853.5" stroke="#A5BD5E" stroke-width="2"/>
<circle cx="2.5" cy="2.5" r="2.5" transform="matrix(4.37114e-08 -1 -1 -4.37114e-08 356 1879)" fill="#A14C30"/>
<circle cx="2.5" cy="2.5" r="2.5" transform="matrix(4.37114e-08 -1 -1 -4.37114e-08 364 1897)" fill="#A14C30"/>
<circle cx="2.5" cy="2.5" r="2.5" transform="matrix(4.37114e-08 -1 -1 -4.37114e-08 370 1912)" fill="#A14C30"/>
<circle cx="2.5" cy="2.5" r="2.5" transform="matrix(4.37114e-08 -1 -1 -4.37114e-08 372 1931)" fill="#A14C30"/>
<circle cx="2.5" cy="2.5" r="2.5" transform="matrix(4.37114e-08 -1 -1 -4.37114e-08 370 1941)" fill="#A14C30"/>
<circle cx="2.5" cy="2.5" r="2.5" transform="matrix(4.37114e-08 -1 -1 -4.37114e-08 366 1963)" fill="#A14C30"/>
<circle cx="2.5" cy="2.5" r="2.5" transform="matrix(4.37114e-08 -1 -1 -4.37114e-08 354 1988)" fill="#A14C30"/>
<circle cx="2.5" cy="2.5" r="2.5" transform="matrix(4.37114e-08 -1 -1 -4.37114e-08 358 1998)" fill="#A14C30"/>
<circle cx="364" cy="1835" r="26" fill="#5FA54C"/>
<path opacity="0.3" d="M338.583 1840.36C341.107 1852.08 351.528 1860.86 364 1860.86C373.976 1860.86 382.64 1855.25 387 1847C363.4 1864.71 344.889 1849.95 338.583 1840.36Z" fill="#3A8726"/>
<path d="M367.5 1811C367.167 1806 369 1796 379 1796" stroke="#5FA54C" stroke-width="3"/>
<path d="M356.744 1811.86C356.181 1806.88 352.596 1797.37 342.756 1799.15" stroke="#5FA54C" stroke-width="3"/>
<circle cx="380.5" cy="1796.5" r="3.5" fill="#3A8726"/>
<circle cx="373.676" cy="1825.13" r="8" transform="rotate(3.74401 373.676 1825.13)" fill="white" stroke="#3A8726"/>
<circle cx="354.324" cy="1829.87" r="8" transform="rotate(3.74401 354.324 1829.87)" fill="white" stroke="#3A8726"/>
<circle cx="340.5" cy="1799.5" r="3.5" fill="#3A8726"/>
<circle cx="374.5" cy="1825.5" r="3.5" fill="#231D1F"/>
<circle cx="354.5" cy="1830.5" r="3.5" fill="#231D1F"/>
<circle cx="374" cy="1824" r="1" fill="white"/>
<path d="M355 1829C355 1829.55 354.552 1830 354 1830C353.448 1830 353 1829.55 353 1829C353 1828.45 353.448 1828 354 1828C354.552 1828 355 1828.45 355 1829Z" fill="white"/>
<circle cx="369.5" cy="1845.5" r="5.5" fill="#3A8726"/>
<circle cx="369.5" cy="1845.5" r="3.5" fill="#A5BD5E"/>
<defs>
<linearGradient id="paint0_linear_85_2262" x1="1809.06" y1="2245.61" x2="1809.53" y2="2147.3" gradientUnits="userSpaceOnUse">
<stop stop-color="white"/>
<stop offset="0.628911" stop-color="white" stop-opacity="0"/>
</linearGradient>
<linearGradient id="paint1_linear_85_2262" x1="1816.99" y1="2249.07" x2="1817.59" y2="2158.87" gradientUnits="userSpaceOnUse">
<stop stop-color="white"/>
<stop offset="0.628911" stop-color="white" stop-opacity="0"/>
</linearGradient>
<linearGradient id="paint2_linear_85_2262" x1="1791.87" y1="2259.48" x2="1792.33" y2="2145.42" gradientUnits="userSpaceOnUse">
<stop stop-color="white"/>
<stop offset="0.628911" stop-color="white" stop-opacity="0"/>
</linearGradient>
<linearGradient id="paint3_linear_85_2262" x1="1789.76" y1="2255.35" x2="1790.27" y2="2138.43" gradientUnits="userSpaceOnUse">
<stop stop-color="white"/>
<stop offset="0.628911" stop-color="white" stop-opacity="0"/>
</linearGradient>
<linearGradient id="paint4_linear_85_2262" x1="1809.06" y1="2245.61" x2="1809.53" y2="2147.3" gradientUnits="userSpaceOnUse">
<stop stop-color="white"/>
<stop offset="0.628911" stop-color="white" stop-opacity="0"/>
</linearGradient>
<linearGradient id="paint5_linear_85_2262" x1="1817.99" y1="2249.07" x2="1818.59" y2="2158.87" gradientUnits="userSpaceOnUse">
<stop stop-color="white"/>
<stop offset="0.628911" stop-color="white" stop-opacity="0"/>
</linearGradient>
<linearGradient id="paint6_linear_85_2262" x1="1795.97" y1="2259.48" x2="1796.46" y2="2145.42" gradientUnits="userSpaceOnUse">
<stop stop-color="white"/>
<stop offset="0.628911" stop-color="white" stop-opacity="0"/>
</linearGradient>
<linearGradient id="paint7_linear_85_2262" x1="1790.48" y1="2255.35" x2="1790.99" y2="2138.43" gradientUnits="userSpaceOnUse">
<stop stop-color="white"/>
<stop offset="0.628911" stop-color="white" stop-opacity="0"/>
</linearGradient>
<linearGradient id="paint8_linear_85_2262" x1="1385.07" y1="2240.1" x2="1388.21" y2="2182.14" gradientUnits="userSpaceOnUse">
<stop stop-color="white"/>
<stop offset="0.931883" stop-color="white" stop-opacity="0"/>
</linearGradient>
<linearGradient id="paint9_linear_85_2262" x1="1390.23" y1="2245.24" x2="1394.3" y2="2191.93" gradientUnits="userSpaceOnUse">
<stop stop-color="white"/>
<stop offset="0.931883" stop-color="white" stop-opacity="0"/>
</linearGradient>
<linearGradient id="paint10_linear_85_2262" x1="1374.12" y1="2255.74" x2="1377.5" y2="2187.86" gradientUnits="userSpaceOnUse">
<stop stop-color="white"/>
<stop offset="0.931883" stop-color="white" stop-opacity="0"/>
</linearGradient>
<linearGradient id="paint11_linear_85_2262" x1="1369.05" y1="2246.64" x2="1372.45" y2="2178.18" gradientUnits="userSpaceOnUse">
<stop stop-color="white"/>
<stop offset="0.931883" stop-color="white" stop-opacity="0"/>
</linearGradient>
<linearGradient id="paint12_linear_85_2262" x1="1390.23" y1="2245.24" x2="1394.3" y2="2191.93" gradientUnits="userSpaceOnUse">
<stop stop-color="white"/>
<stop offset="0.931883" stop-color="white" stop-opacity="0"/>
</linearGradient>
<linearGradient id="paint13_linear_85_2262" x1="1369.05" y1="2246.64" x2="1372.45" y2="2178.18" gradientUnits="userSpaceOnUse">
<stop stop-color="white"/>
<stop offset="0.931883" stop-color="white" stop-opacity="0"/>
</linearGradient>
<linearGradient id="paint14_linear_85_2262" x1="1589.85" y1="2240.1" x2="1589.84" y2="2175.53" gradientUnits="userSpaceOnUse">
<stop stop-color="white"/>
<stop offset="1" stop-color="white" stop-opacity="0"/>
</linearGradient>
<linearGradient id="paint15_linear_85_2262" x1="1592.66" y1="2243.8" x2="1592.66" y2="2184.61" gradientUnits="userSpaceOnUse">
<stop stop-color="white"/>
<stop offset="1" stop-color="white" stop-opacity="0"/>
</linearGradient>
<linearGradient id="paint16_linear_85_2262" x1="1580.77" y1="2255.74" x2="1580.77" y2="2180.16" gradientUnits="userSpaceOnUse">
<stop stop-color="white"/>
<stop offset="1" stop-color="white" stop-opacity="0"/>
</linearGradient>
<linearGradient id="paint17_linear_85_2262" x1="1575.81" y1="2246.64" x2="1575.81" y2="2170.41" gradientUnits="userSpaceOnUse">
<stop stop-color="white"/>
<stop offset="1" stop-color="white" stop-opacity="0"/>
</linearGradient>
<linearGradient id="paint18_linear_85_2262" x1="1575.8" y1="2246.64" x2="1575.8" y2="2170.41" gradientUnits="userSpaceOnUse">
<stop stop-color="white"/>
<stop offset="1" stop-color="white" stop-opacity="0"/>
</linearGradient>
<linearGradient id="paint19_linear_85_2262" x1="1589.85" y1="2240.1" x2="1589.85" y2="2175.53" gradientUnits="userSpaceOnUse">
<stop stop-color="white"/>
<stop offset="1" stop-color="white" stop-opacity="0"/>
</linearGradient>
<clipPath id="clip0_85_2262">
<rect width="198" height="114" fill="white" transform="translate(1664 2167)"/>
</clipPath>
<clipPath id="clip1_85_2262">
<rect width="203" height="150" fill="white" transform="translate(1225 2171)"/>
</clipPath>
<clipPath id="clip2_85_2262">
<rect width="203" height="150" fill="white" transform="translate(1423 2171)"/>
</clipPath>
</defs>
</svg>
