<svg width="368" height="430" viewBox="0 0 368 430" fill="none" xmlns="http://www.w3.org/2000/svg">
<path d="M151.968 321.039L147.785 303.844L162.285 302.844V322.263C162.285 322.649 162.332 323.034 162.413 323.411C163.461 328.253 163.043 331.802 162.427 333.826L162.412 333.877C162.102 334.895 161.785 335.935 161.785 336.997C161.785 339.067 162.985 341.04 163.811 342.937C164.32 344.108 164.669 345.498 164.899 346.863C165.343 349.502 163.545 351.924 160.91 352.391C156.545 353.165 151.447 353.248 150.285 350.344C149.142 347.487 150.482 344.46 152.009 342.356C153.015 340.97 153.785 339.367 153.785 337.655C153.785 336.166 153.159 334.761 152.541 333.406C151.127 330.308 151.418 326.264 151.963 323.645C152.142 322.784 152.176 321.894 151.968 321.039Z" fill="#F4EBCF"/>
<path d="M147.785 303.844L151.968 321.039C152.176 321.894 152.142 322.784 151.963 323.645C151.418 326.264 151.127 330.308 152.541 333.406C153.159 334.761 153.785 336.166 153.785 337.655V337.655C153.785 339.367 153.015 340.97 152.009 342.356C150.482 344.46 149.142 347.487 150.285 350.344C151.447 353.248 156.545 353.165 160.91 352.391C163.545 351.924 165.343 349.502 164.899 346.863C164.669 345.498 164.32 344.108 163.811 342.937C162.985 341.04 161.785 339.067 161.785 336.997V336.997C161.785 335.917 162.113 334.859 162.427 333.826C163.043 331.802 163.461 328.253 162.413 323.411C162.332 323.034 162.285 322.649 162.285 322.263V302.844" stroke="#AFA589"/>
<path d="M146.285 357.844C145.338 354.414 146.812 350.421 149.79 346.844C151.963 348.566 158.686 350.478 164.785 346.344C166.998 350.449 168.515 356.227 166.785 358.844C164.937 361.639 159.423 361.896 154.145 361.843C154.129 361.843 154.114 361.843 154.099 361.842C153.025 361.829 151.977 361.737 150.995 361.557C148.003 361.009 146.949 360.249 146.285 357.844Z" fill="#805C42"/>
<path d="M150.995 361.557C148.003 361.009 146.949 360.249 146.285 357.844C145.338 354.414 146.812 350.421 149.79 346.844C151.963 348.566 158.686 350.478 164.785 346.344C166.998 350.449 168.515 356.227 166.785 358.844C164.937 361.639 159.423 361.896 154.145 361.843M150.995 361.557C150.966 359.789 151.153 356.53 153.285 355.344C152.927 357.715 152.826 361.877 154.145 361.843M150.995 361.557C151.991 361.739 153.055 361.832 154.145 361.843" stroke="#61432D"/>
<path d="M150.786 361.526C150.759 359.785 151.715 356.012 153.662 354.844C153.338 357.155 152.476 361.746 153.625 361.807C153.637 361.807 153.649 361.808 153.661 361.808C153.649 361.808 153.637 361.808 153.625 361.807C152.643 361.795 151.684 361.704 150.786 361.526Z" fill="#61432D"/>
<path d="M150.786 361.526C150.759 359.785 151.715 356.012 153.662 354.844C153.335 357.179 152.458 361.842 153.661 361.808C152.666 361.797 151.695 361.706 150.786 361.526Z" stroke="#61432D" stroke-width="0.48671"/>
<path d="M217.5 342.844C223.1 330.444 213 316.344 208 310.844L210 300.844C227.2 316.444 226.833 336.177 224 344.844L217.5 342.844Z" fill="#FEFAEE"/>
<path d="M208 310.844C213 316.344 223.1 330.444 217.5 342.844L224 344.844C226.833 336.177 227.2 316.444 210 300.844" stroke="#AFA589"/>
<path d="M216.286 361.344C211.153 355.89 212.967 349.214 215.434 344.979C216.494 343.159 218.378 342.016 220.396 341.411C221.537 341.068 222.819 341.413 223.439 342.43C228.054 350.001 220.802 358.073 216.286 361.344Z" fill="#31302E"/>
<path d="M219.519 292.843C168.319 291.243 156.519 270.176 157.019 259.843V212.344C157.019 191.844 219.519 169.843 266.02 175.343C312.52 180.843 319.52 229.343 312.52 258.343C305.52 287.343 283.519 294.843 219.519 292.843Z" fill="#FEFAEE"/>
<path d="M158.019 259.198V211.699C158.019 200.679 176.078 189.226 200.004 181.844C206.705 216.95 210.015 282.957 172.743 278.176C169.271 277.731 166.01 276.023 163.732 273.366C159.299 268.192 157.836 262.977 158.019 259.198Z" fill="#EEE8D5"/>
<mask id="mask0_84_967" style="mask-type:alpha" maskUnits="userSpaceOnUse" x="157" y="173" width="158" height="120">
<path d="M219.519 292.2C168.319 290.6 156.519 269.534 157.019 259.2V211.701C157.019 191.201 219.519 169.2 266.02 174.7C312.52 180.2 319.52 228.7 312.52 257.7C305.52 286.7 283.519 294.2 219.519 292.2Z" fill="#FEFAEE"/>
</mask>
<g mask="url(#mask0_84_967)">
<path d="M153.138 243.744C178.971 236.411 225.738 216.644 206.138 196.244C181.638 170.744 129.138 194.244 153.138 243.744Z" fill="#2F2F2D"/>
<path d="M313.506 201.844C300.506 216.01 282.306 247.344 313.506 259.344C344.706 271.344 326.506 226.01 313.506 201.844Z" fill="#2F2F2D"/>
<path d="M262.006 201.844C252.806 201.844 258.172 180.177 262.006 169.344C278.172 169.344 310.004 173.244 308.004 188.844C305.504 208.344 275.004 214.844 274.004 210.344C273.004 205.844 273.506 201.844 262.006 201.844Z" fill="#2F2F2D"/>
<path d="M222.004 174.344C222.837 183.344 225.904 200.344 231.504 196.344C238.504 191.344 245.504 163.844 222.004 174.344Z" fill="#2F2F2D"/>
<path d="M193.004 259.344C186.327 259.344 184.42 256.97 184.903 253.828C186.372 244.276 197.693 239.784 207.286 238.612C217.078 237.415 227.641 238.376 231.504 245.844C239.004 260.344 211.504 259.344 193.004 259.344Z" fill="#2F2F2D"/>
<path d="M245.504 224.344C245.504 242.844 270.004 249.344 274.004 241.844C278.004 234.344 248.004 197.344 245.504 224.344Z" fill="#2F2F2D"/>
<path d="M223.504 221.344C220.203 221.55 219.332 220.08 219.559 218.197C220.022 214.369 224.258 211.096 227.83 212.55C231.916 214.212 229.592 220.963 223.504 221.344Z" fill="#2F2F2D"/>
</g>
<path d="M157.518 259.224L157.519 259.212V259.2V211.701C157.519 206.828 161.249 201.74 167.808 196.9C174.339 192.081 183.554 187.601 194.244 183.924C215.626 176.568 242.8 172.457 265.961 175.197C289.006 177.923 302.241 191.283 308.869 207.576C315.51 223.899 315.514 243.164 312.033 257.583C310.296 264.78 307.637 270.608 303.654 275.282C299.674 279.955 294.345 283.504 287.223 286.106C272.948 291.319 251.538 292.701 219.535 291.701C168.411 290.103 157.04 269.111 157.518 259.224Z" stroke="#AFA589"/>
<path d="M180.968 321.039L176.785 303.844L191.285 302.844V322.263C191.285 322.649 191.332 323.034 191.413 323.411C192.461 328.253 192.043 331.802 191.427 333.826L191.412 333.877C191.102 334.895 190.785 335.935 190.785 336.997C190.785 339.067 191.985 341.04 192.811 342.937C193.32 344.108 193.669 345.498 193.899 346.863C194.343 349.502 192.545 351.924 189.91 352.391C185.545 353.165 180.447 353.248 179.285 350.344C178.142 347.487 179.482 344.46 181.009 342.356C182.015 340.97 182.785 339.367 182.785 337.655C182.785 336.166 182.159 334.761 181.541 333.406C180.127 330.308 180.418 326.264 180.963 323.645C181.142 322.784 181.176 321.894 180.968 321.039Z" fill="#FEFAEE"/>
<path d="M176.785 303.844L180.968 321.039C181.176 321.894 181.142 322.784 180.963 323.645C180.418 326.264 180.127 330.308 181.541 333.406C182.159 334.761 182.785 336.166 182.785 337.655V337.655C182.785 339.367 182.015 340.97 181.009 342.356C179.482 344.46 178.142 347.487 179.285 350.344C180.447 353.248 185.545 353.165 189.91 352.391C192.545 351.924 194.343 349.502 193.899 346.863C193.669 345.498 193.32 344.108 192.811 342.937C191.985 341.04 190.785 339.067 190.785 336.997V336.997C190.785 335.917 191.113 334.859 191.427 333.826C192.043 331.802 192.461 328.253 191.413 323.411C191.332 323.034 191.285 322.649 191.285 322.263V302.844" stroke="#AFA589"/>
<path d="M175.285 357.844C174.338 354.414 175.812 350.421 178.79 346.844C180.963 348.566 187.686 350.478 193.785 346.344C195.998 350.449 197.515 356.227 195.785 358.844C193.937 361.639 188.423 361.896 183.145 361.843C183.129 361.843 183.114 361.843 183.099 361.842C182.025 361.829 180.977 361.737 179.995 361.557C177.003 361.009 175.949 360.249 175.285 357.844Z" fill="#805C42"/>
<path d="M179.995 361.557C177.003 361.009 175.949 360.249 175.285 357.844C174.338 354.414 175.812 350.421 178.79 346.844C180.963 348.566 187.686 350.478 193.785 346.344C195.998 350.449 197.515 356.227 195.785 358.844C193.937 361.639 188.423 361.896 183.145 361.843M179.995 361.557C179.966 359.789 180.153 356.53 182.285 355.344C181.927 357.715 181.826 361.877 183.145 361.843M179.995 361.557C180.991 361.739 182.055 361.832 183.145 361.843" stroke="#61432D"/>
<path d="M179.786 361.526C179.759 359.785 180.715 356.012 182.662 354.844C182.338 357.155 181.476 361.746 182.625 361.807C182.637 361.807 182.649 361.808 182.661 361.808C182.649 361.808 182.637 361.808 182.625 361.807C181.643 361.795 180.684 361.704 179.786 361.526Z" fill="#61432D"/>
<path d="M179.786 361.526C179.759 359.785 180.715 356.012 182.662 354.844C182.335 357.179 181.458 361.842 182.661 361.808C181.666 361.797 180.695 361.706 179.786 361.526Z" stroke="#61432D" stroke-width="0.48671"/>
<path d="M82 274.844C77.2 292.844 68 283.01 64 275.844L69 274.844C73 284.044 76 278.677 77 274.844H82Z" fill="#FDA335" stroke="#E79127" stroke-width="2"/>
<path d="M101.729 198.455C105.329 282.855 66.7383 264.455 64.237 261.455C61.109 258.955 45.2383 280.955 80.7285 275.955C123.32 269.955 113.729 210.455 110.229 202.955C107.429 196.955 103.395 197.455 101.729 198.455Z" fill="#B88534" stroke="#775237" stroke-width="2"/>
<path d="M101.5 198.344C105.1 282.744 67.0013 264.344 64.5 261.344C66.4454 261.02 67.9373 260.951 69.9047 261.089C72.6965 261.284 75.9347 260.689 79.0841 259.387C95.7158 252.513 94.1562 229.194 98.2549 211.671C99.5708 206.045 100.776 201.175 101.5 198.344Z" fill="#9E722C" stroke="#775237" stroke-width="2"/>
<path d="M234.934 330.623C229.641 328.782 233.949 318.594 236.765 313.73L242.963 317.235C242.492 322.465 240.226 332.464 234.934 330.623Z" fill="#FF8585" stroke="#E36A6A"/>
<path d="M230.405 308.491C233.503 301.055 248.013 289.473 281.276 302.632C279.812 322.651 250.691 345.424 230.405 308.491Z" fill="#FF9999" stroke="#E36A6A"/>
<path d="M268.165 339.424C260.912 340.337 260.043 325.898 260.514 318.565L269.789 319.075C272.27 325.477 275.418 338.51 268.165 339.424Z" fill="#FF9999"/>
<path d="M246.045 337.704C253.335 338.237 253.449 323.772 252.594 316.473L243.358 317.468C241.216 323.991 238.754 337.171 246.045 337.704Z" fill="#FF9999"/>
<path d="M260.538 318.207C260.066 325.541 260.936 339.98 268.189 339.066C275.441 338.153 272.293 325.12 269.813 318.718" stroke="#E36A6A"/>
<path d="M252.621 316.117C253.476 323.416 253.362 337.88 246.072 337.347C238.781 336.814 241.243 323.634 243.386 317.111" stroke="#E36A6A"/>
<path d="M244.492 334.117C245.716 334.845 246.986 334.938 248.303 334.396" stroke="#E36A6A"/>
<path d="M265.527 335.373C266.63 336.274 267.873 336.553 269.255 336.211" stroke="#E36A6A"/>
<circle cx="175.004" cy="28.2295" r="1" fill="white"/>
<rect x="286.574" y="352.099" width="5.84906" height="5.22642" rx="2.61321" fill="#FBA53E" stroke="#E79127"/>
<rect x="287.82" y="320.344" width="3.35849" height="5.22642" rx="1.67925" fill="#FBA53E" stroke="#E79127"/>
<path d="M279.849 332.919C279.849 330.593 280.824 328.82 282.204 327.497C286.101 323.763 292.9 323.763 296.797 327.497C298.177 328.82 299.151 330.593 299.151 332.919C299.151 340.391 301.953 348.485 303.821 350.353H289.5H275.18C277.048 348.485 279.849 340.391 279.849 332.919Z" fill="#FBA53E" stroke="#E79127"/>
<rect x="273.5" y="350.23" width="32" height="3.35849" rx="1.67925" fill="#FBA53E" stroke="#E79127"/>
<path d="M292.926 327.004C294.171 327.315 296.724 329.121 296.973 333.853C297.222 338.585 298.114 341.844 298.53 342.881" stroke="#FFBD6F"/>
<path d="M236.5 148.792C241.833 156.459 257.3 168.292 276.5 154.292M274 151.292C274.667 152.625 276.7 155.192 279.5 154.792M233 146.792C233.833 148.125 236.2 150.092 239 147.292" stroke="#E36A6A" stroke-width="2"/>
<circle cx="295.673" cy="102.96" r="4" transform="rotate(6.86427 295.673 102.96)" fill="black"/>
<circle cx="296" cy="103.406" r="1" fill="white"/>
<circle cx="273.878" cy="93.1808" r="3" transform="rotate(6.86427 273.878 93.1808)" fill="black"/>
<circle cx="274" cy="93.4062" r="1" fill="white"/>
<path d="M248.3 95.8044C229.53 105.787 210.412 75.6321 212.603 59.7111L222.848 65.2054C253.174 84.5089 253.744 91.2612 248.3 95.8044Z" fill="#F77F6E" stroke="#E36A6A"/>
<path d="M251.913 93.57C251.593 72.1322 223.861 61.3222 212.226 59.1105C214.268 66.411 217.01 73.5795 221.388 79.7684C236.212 100.725 247.664 98.1645 251.913 93.57Z" fill="#FFFAEE" stroke="#AFA589"/>
<path d="M187.887 145.804C206.657 155.787 225.775 125.632 223.584 109.711L213.34 115.205C183.013 134.509 182.443 141.261 187.887 145.804Z" fill="#F77F6E" stroke="#E36A6A"/>
<path d="M184.274 143.57C184.594 122.132 212.326 111.322 223.962 109.11C221.92 116.411 219.177 123.579 214.799 129.768C199.975 150.725 188.523 148.165 184.274 143.57Z" fill="#F4EBCF" stroke="#AFA589"/>
<path d="M139.772 76.0283C121.077 73.7779 104.207 92.5629 97.544 104.687C82.8594 124.283 88.5571 144.099 102.664 153.213C114.78 158.868 140.685 168.59 153 160C160.976 154.437 164.628 138.402 165.875 123.602C167.057 109.571 166.512 93.7523 156.757 83.5977C153.057 79.746 147.818 76.9968 139.772 76.0283Z" fill="#FFFAEE" stroke="#AFA589"/>
<path d="M142.629 121.994C112.345 90.3394 82.9965 106.427 75.5911 126.464C73.4274 132.318 72.8683 138.754 73.4257 144.97C74.3699 155.501 80.1567 168.118 98.3429 170.307C104.838 171.089 111.562 171.319 117.946 170.81C134.76 169.469 155.875 164.672 161.242 148.681C165.011 137.451 156.741 130.849 148.549 131.542C147.312 127.969 145.243 124.725 142.629 121.994Z" fill="#F77F6E" stroke="#E36A6A"/>
<path d="M143.656 92.2209C136.961 90.6939 136.257 98.3412 136.406 102.115C137.001 105.942 138.67 113.343 143.266 114.257C149.012 115.4 151.218 110.658 151.699 106.66C152.181 102.662 152.025 94.1298 143.656 92.2209Z" fill="white" stroke="#AFA589"/>
<path d="M128.57 87.6486C133.615 89.819 130.326 95.2843 128.385 97.7443C126.13 100.027 121.439 104.196 118.041 102.615C113.793 100.64 114.696 96.4072 116.343 93.4957C117.99 90.5842 122.263 84.9356 128.57 87.6486Z" fill="white" stroke="#AFA589"/>
<path d="M96.9002 115.276C101.305 116.959 97.8096 123.001 95.8156 125.773C93.5524 128.396 88.8954 133.251 85.9395 131.995C82.2446 130.424 83.4525 125.93 85.2185 122.723C86.9845 119.517 91.3943 113.173 96.9002 115.276Z" fill="#E77160" stroke="#E36A6A"/>
<path d="M113.888 118.943C107.295 120.633 110.817 128.99 112.983 132.869C115.562 136.586 120.995 143.52 125.449 142.219C131.017 140.593 130.357 134.542 128.613 130.117C126.869 125.692 122.129 116.831 113.888 118.943Z" fill="#E77160" stroke="#E36A6A"/>
<path d="M164.001 97.2716C146.447 96.6693 148.464 83.6873 155.395 80.4927C161.693 79.7401 173.132 80.3112 170.496 88.8573C169.922 93.6229 166.007 97.3404 164.001 97.2716Z" fill="#FFFAEE" stroke="#AFA589"/>
<path d="M113.502 85.2716C126.5 87.2725 129.246 79.6717 125.409 75.3933C121.287 73.0159 113.228 70.0595 112.521 76.8369C111.508 80.353 112.014 85.0427 113.502 85.2716Z" fill="#FFFAEE" stroke="#AFA589"/>
<path d="M165.263 67.0442C164.392 72.1225 159.715 76.6014 155.818 79.5022C153.828 80.9833 152.392 83.3137 153.011 85.7161C155.488 95.3385 166.29 94.7275 169.468 91.8582C169.871 91.4942 170.103 90.9857 170.277 90.471C173.963 79.5632 170.474 70.7353 167.058 66.3811C166.502 65.6729 165.415 66.1569 165.263 67.0442Z" fill="#805B3F" stroke="#593D27"/>
<path d="M117.833 61.7105C118.114 65.3918 120.591 69.1211 122.959 71.7915C124.589 73.6307 125.696 76.1239 124.729 78.3838C122.306 84.0478 117.21 83.7168 113.497 81.9252C111.983 81.1946 111.047 79.664 110.881 77.9912C110.112 70.2407 113.302 64.0101 116.147 60.8805C116.754 60.2131 117.765 60.8109 117.833 61.7105Z" fill="#805B3F" stroke="#593D27"/>
<path opacity="0.1" d="M117.996 112.845C117.649 114.398 112.119 115.51 107.268 114.428C102.417 113.347 98.7644 111.211 99.1107 109.657C99.457 108.104 105.649 106.762 110.5 107.844C115.351 108.925 118.342 111.291 117.996 112.845Z" fill="white"/>
<path d="M285.5 129.844L244 133.344C249.318 138.329 254.972 143.297 261.96 145.372C278.092 150.163 284.374 137.865 285.5 129.844Z" fill="#E34949" stroke="#C53232"/>
<path d="M262.018 72.8438C259.618 69.6438 262.018 64.8438 263.518 62.8438L316.02 68.8438C316.186 69.6771 314.82 72.5437 308.02 77.3438C299.52 83.3438 291.02 75.8438 285.02 75.3438C279.02 74.8438 265.018 76.8438 262.018 72.8438Z" fill="#F77F6E" stroke="#C85545"/>
</svg>
