<svg width="368" height="429" viewBox="0 0 368 429" fill="none" xmlns="http://www.w3.org/2000/svg">
<path d="M151.968 320.352L147.785 303.156L162.285 302.156V321.576C162.285 321.962 162.332 322.346 162.413 322.723C163.461 327.566 163.043 331.114 162.427 333.138L162.412 333.19C162.102 334.207 161.785 335.247 161.785 336.31C161.785 338.379 162.985 340.352 163.811 342.25C164.32 343.42 164.669 344.811 164.899 346.176C165.343 348.815 163.545 351.236 160.91 351.704C156.545 352.477 151.447 352.561 150.285 349.656C149.142 346.799 150.482 343.773 152.009 341.669C153.015 340.283 153.785 338.68 153.785 336.967C153.785 335.479 153.159 334.073 152.541 332.719C151.127 329.621 151.418 325.576 151.963 322.958C152.142 322.097 152.176 321.206 151.968 320.352Z" fill="#2F2F2D"/>
<path d="M147.785 303.156L151.968 320.352C152.176 321.206 152.142 322.097 151.963 322.958C151.418 325.576 151.127 329.621 152.541 332.719C153.159 334.073 153.785 335.479 153.785 336.967V336.967C153.785 338.68 153.015 340.283 152.009 341.669C150.482 343.773 149.142 346.799 150.285 349.656C151.447 352.561 156.545 352.477 160.91 351.704C163.545 351.236 165.343 348.815 164.899 346.176C164.669 344.811 164.32 343.42 163.811 342.25C162.985 340.352 161.785 338.379 161.785 336.31V336.31C161.785 335.229 162.113 334.172 162.427 333.138C163.043 331.114 163.461 327.566 162.413 322.723C162.332 322.346 162.285 321.962 162.285 321.576V302.156" stroke="#292927"/>
<path d="M146.285 357.156C145.338 353.726 146.812 349.734 149.79 346.156C151.963 347.879 158.686 349.79 164.785 345.656C166.998 349.761 168.515 355.539 166.785 358.156C164.937 360.951 159.423 361.208 154.145 361.155C154.129 361.156 154.114 361.155 154.099 361.155C153.025 361.142 151.977 361.049 150.995 360.869C148.003 360.321 146.949 359.562 146.285 357.156Z" fill="#805C42"/>
<path d="M150.995 360.869C148.003 360.321 146.949 359.562 146.285 357.156C145.338 353.726 146.812 349.734 149.79 346.156C151.963 347.879 158.686 349.79 164.785 345.656C166.998 349.761 168.515 355.539 166.785 358.156C164.937 360.951 159.423 361.208 154.145 361.155M150.995 360.869C150.966 359.102 151.153 355.842 153.285 354.656C152.927 357.028 152.826 361.19 154.145 361.155M150.995 360.869C151.991 361.052 153.055 361.144 154.145 361.155" stroke="#61432D"/>
<path d="M150.786 360.839C150.759 359.098 151.715 355.324 153.662 354.156C153.338 356.468 152.476 361.058 153.625 361.12C153.637 361.12 153.649 361.12 153.661 361.12C153.649 361.121 153.637 361.12 153.625 361.12C152.643 361.107 151.684 361.016 150.786 360.839Z" fill="#61432D"/>
<path d="M150.786 360.839C150.759 359.098 151.715 355.324 153.662 354.156C153.335 356.492 152.458 361.155 153.661 361.12C152.666 361.109 151.695 361.018 150.786 360.839Z" stroke="#61432D" stroke-width="0.48671"/>
<path d="M217.5 342.156C223.1 329.756 213 315.656 208 310.156L210 300.156C227.2 315.756 226.833 335.49 224 344.156L217.5 342.156Z" fill="#2F2F2D"/>
<path d="M208 310.156C213 315.656 223.1 329.756 217.5 342.156L224 344.156C226.833 335.49 227.2 315.756 210 300.156" stroke="#292927"/>
<path d="M216.286 360.656C211.153 355.203 212.967 348.527 215.434 344.292C216.494 342.471 218.378 341.329 220.396 340.723C221.537 340.381 222.819 340.725 223.439 341.742C228.054 349.314 220.802 357.386 216.286 360.656Z" fill="#FEFAEE" stroke="#AFA589"/>
<path d="M219.585 292.155C168.385 290.555 156.585 269.489 157.085 259.155V211.656C157.085 191.156 219.585 169.155 266.086 174.655C312.587 180.155 319.586 228.655 312.586 257.655C305.586 286.655 283.585 294.155 219.585 292.155Z" fill="#2F2F2D"/>
<mask id="mask0_88_3005" style="mask-type:alpha" maskUnits="userSpaceOnUse" x="157" y="173" width="158" height="119">
<path d="M219.515 291.513C168.315 289.913 156.515 268.846 157.015 258.513V211.014C157.015 190.514 219.515 168.513 266.016 174.013C312.516 179.513 319.516 228.013 312.516 257.013C305.516 286.013 283.515 293.513 219.515 291.513Z" fill="#FEFAEE"/>
</mask>
<g mask="url(#mask0_88_3005)">
<path d="M153.134 243.057C178.967 235.723 225.734 215.957 206.134 195.557C181.634 170.057 129.134 193.557 153.134 243.057Z" fill="#FEFAEE"/>
<path d="M313.502 201.156C300.502 215.323 282.302 246.656 313.502 258.656C344.702 270.656 326.502 225.323 313.502 201.156Z" fill="#FEFAEE"/>
<path d="M262.002 201.156C252.802 201.156 258.168 179.49 262.002 168.656C278.168 168.656 310 172.556 308 188.156C305.5 207.656 275 214.156 274 209.656C273 205.156 273.502 201.156 262.002 201.156Z" fill="#FEFAEE"/>
<path d="M222 173.656C222.833 182.656 225.9 199.656 231.5 195.656C238.5 190.656 245.5 163.156 222 173.656Z" fill="#FEFAEE"/>
<path d="M193 258.656C186.324 258.656 184.416 256.282 184.899 253.14C186.369 243.588 197.689 239.097 207.282 237.924C217.075 236.727 227.637 237.688 231.5 245.156C239 259.656 211.5 258.656 193 258.656Z" fill="#FEFAEE"/>
<path d="M245.5 223.656C245.5 242.156 270 248.656 274 241.156C278 233.656 248 196.656 245.5 223.656Z" fill="#FEFAEE"/>
<path d="M223.5 220.656C220.199 220.863 219.328 219.393 219.555 217.51C220.018 213.681 224.254 210.409 227.826 211.862C231.912 213.524 229.588 220.276 223.5 220.656Z" fill="#FEFAEE"/>
</g>
<path d="M157.585 258.537L157.585 258.525V258.513V211.014C157.585 206.141 161.316 201.052 167.874 196.213C174.406 191.394 183.62 186.914 194.311 183.236C215.692 175.88 242.866 171.77 266.027 174.509C289.072 177.235 302.307 190.596 308.936 206.889C315.576 223.211 315.58 242.477 312.1 256.895C310.363 264.092 307.703 269.92 303.721 274.595C299.74 279.267 294.412 282.817 287.289 285.418C273.015 290.631 251.604 292.013 219.601 291.013C168.477 289.415 157.106 268.424 157.585 258.537Z" stroke="#292927"/>
<path d="M158.085 258.51V211.011C158.085 199.992 176.144 188.539 200.07 181.156C206.771 216.263 210.081 282.269 172.809 277.489C169.338 277.044 166.076 275.336 163.799 272.678C159.365 267.505 157.902 262.29 158.085 258.51Z" fill="#292927"/>
<path d="M180.968 320.352L176.785 303.156L191.285 302.156V321.576C191.285 321.962 191.332 322.346 191.413 322.723C192.461 327.566 192.043 331.114 191.427 333.138L191.412 333.19C191.102 334.207 190.785 335.247 190.785 336.31C190.785 338.379 191.985 340.352 192.811 342.25C193.32 343.42 193.669 344.811 193.899 346.176C194.343 348.815 192.545 351.236 189.91 351.704C185.545 352.477 180.447 352.561 179.285 349.656C178.142 346.799 179.482 343.773 181.009 341.669C182.015 340.283 182.785 338.68 182.785 336.967C182.785 335.479 182.159 334.073 181.541 332.719C180.127 329.621 180.418 325.576 180.963 322.958C181.142 322.097 181.176 321.206 180.968 320.352Z" fill="#2F2F2D"/>
<path d="M176.785 303.156L180.968 320.352C181.176 321.206 181.142 322.097 180.963 322.958C180.418 325.576 180.127 329.621 181.541 332.719C182.159 334.073 182.785 335.479 182.785 336.967V336.967C182.785 338.68 182.015 340.283 181.009 341.669C179.482 343.773 178.142 346.799 179.285 349.656C180.447 352.561 185.545 352.477 189.91 351.704C192.545 351.236 194.343 348.815 193.899 346.176C193.669 344.811 193.32 343.42 192.811 342.25C191.985 340.352 190.785 338.379 190.785 336.31V336.31C190.785 335.229 191.113 334.172 191.427 333.138C192.043 331.114 192.461 327.566 191.413 322.723C191.332 322.346 191.285 321.962 191.285 321.576V302.156" stroke="#292927"/>
<path d="M175.285 357.156C174.338 353.726 175.812 349.734 178.79 346.156C180.963 347.879 187.686 349.79 193.785 345.656C195.998 349.761 197.515 355.539 195.785 358.156C193.937 360.951 188.423 361.208 183.145 361.155C183.129 361.156 183.114 361.155 183.099 361.155C182.025 361.142 180.977 361.049 179.995 360.869C177.003 360.321 175.949 359.562 175.285 357.156Z" fill="#805C42"/>
<path d="M179.995 360.869C177.003 360.321 175.949 359.562 175.285 357.156C174.338 353.726 175.812 349.734 178.79 346.156C180.963 347.879 187.686 349.79 193.785 345.656C195.998 349.761 197.515 355.539 195.785 358.156C193.937 360.951 188.423 361.208 183.145 361.155M179.995 360.869C179.966 359.102 180.153 355.842 182.285 354.656C181.927 357.028 181.826 361.19 183.145 361.155M179.995 360.869C180.991 361.052 182.055 361.144 183.145 361.155" stroke="#61432D"/>
<path d="M179.786 360.839C179.759 359.098 180.715 355.324 182.662 354.156C182.338 356.468 181.476 361.058 182.625 361.12C182.637 361.12 182.649 361.12 182.661 361.12C182.649 361.121 182.637 361.12 182.625 361.12C181.643 361.107 180.684 361.016 179.786 360.839Z" fill="#61432D"/>
<path d="M179.786 360.839C179.759 359.098 180.715 355.324 182.662 354.156C182.335 356.492 181.458 361.155 182.661 361.12C181.666 361.109 180.695 361.018 179.786 360.839Z" stroke="#61432D" stroke-width="0.48671"/>
<path d="M82 274C77.2 292 68 282.167 64 275L69 274C73 283.2 76 277.833 77 274H82Z" fill="#FDA335" stroke="#E79127" stroke-width="2"/>
<path d="M101.729 197.611C105.329 282.011 66.7383 263.611 64.237 260.611C61.109 258.111 45.2383 280.111 80.7285 275.111C123.32 269.111 113.729 209.611 110.229 202.111C107.429 196.111 103.395 196.611 101.729 197.611Z" fill="#B88534" stroke="#775237" stroke-width="2"/>
<path d="M101.5 197.5C105.1 281.9 67.0013 263.5 64.5 260.5C66.4454 260.176 67.9373 260.108 69.9047 260.245C72.6965 260.44 75.9347 259.845 79.0841 258.543C95.7158 251.669 94.1562 228.35 98.2549 210.827C99.5708 205.201 100.776 200.331 101.5 197.5Z" fill="#9E722C" stroke="#775237" stroke-width="2"/>
<path d="M234.934 329.779C229.641 327.938 233.949 317.75 236.765 312.886L242.963 316.391C242.492 321.621 240.226 331.621 234.934 329.779Z" fill="#FF8585" stroke="#E36A6A"/>
<path d="M230.405 307.647C233.503 300.211 248.013 288.63 281.276 301.788C279.812 321.807 250.691 344.58 230.405 307.647Z" fill="#FF9999" stroke="#E36A6A"/>
<path d="M268.165 338.58C260.912 339.493 260.043 325.055 260.514 317.721L269.789 318.231C272.27 324.634 275.418 337.666 268.165 338.58Z" fill="#FF9999"/>
<path d="M246.045 336.86C253.335 337.393 253.449 322.928 252.594 315.629L243.358 316.624C241.216 323.147 238.754 336.327 246.045 336.86Z" fill="#FF9999"/>
<path d="M260.538 317.364C260.066 324.697 260.936 339.136 268.189 338.222C275.441 337.309 272.293 324.276 269.813 317.874" stroke="#E36A6A"/>
<path d="M252.621 315.273C253.476 322.572 253.362 337.036 246.072 336.503C238.781 335.97 241.243 322.791 243.386 316.268" stroke="#E36A6A"/>
<path d="M244.492 333.273C245.716 334.001 246.986 334.094 248.303 333.552" stroke="#E36A6A"/>
<path d="M265.527 334.529C266.63 335.43 267.873 335.709 269.255 335.368" stroke="#E36A6A"/>
<circle cx="175.004" cy="27.3857" r="1" fill="white"/>
<rect x="286.574" y="351.255" width="5.84906" height="5.22642" rx="2.61321" fill="#FBA53E" stroke="#E79127"/>
<rect x="287.82" y="319.5" width="3.35849" height="5.22642" rx="1.67925" fill="#FBA53E" stroke="#E79127"/>
<path d="M279.849 332.075C279.849 329.749 280.824 327.976 282.204 326.654C286.101 322.92 292.9 322.92 296.797 326.654C298.177 327.976 299.151 329.749 299.151 332.075C299.151 339.547 301.953 347.641 303.821 349.509H289.5H275.18C277.048 347.641 279.849 339.547 279.849 332.075Z" fill="#FBA53E" stroke="#E79127"/>
<rect x="273.5" y="349.387" width="32" height="3.35849" rx="1.67925" fill="#FBA53E" stroke="#E79127"/>
<path d="M292.926 326.16C294.171 326.471 296.724 328.277 296.973 333.009C297.222 337.741 298.114 341 298.53 342.038" stroke="#FFBD6F"/>
<path d="M236.5 147.948C241.833 155.615 257.3 167.448 276.5 153.448M274 150.448C274.667 151.782 276.7 154.348 279.5 153.948M233 145.948C233.833 147.282 236.2 149.248 239 146.448" stroke="#E36A6A" stroke-width="2"/>
<circle cx="295.673" cy="102.116" r="4" transform="rotate(6.86427 295.673 102.116)" fill="black"/>
<circle cx="296" cy="102.562" r="1" fill="white"/>
<circle cx="273.878" cy="92.3371" r="3" transform="rotate(6.86427 273.878 92.3371)" fill="black"/>
<circle cx="274" cy="92.5625" r="1" fill="white"/>
<path d="M248.3 95.1169C229.53 105.099 210.412 74.9446 212.603 59.0236L222.848 64.5179C253.174 83.8214 253.744 90.5737 248.3 95.1169Z" fill="#F77F6E" stroke="#E36A6A"/>
<path d="M251.913 92.8825C251.593 71.4447 223.861 60.6347 212.226 58.423C214.268 65.7235 217.01 72.892 221.388 79.0809C236.212 100.038 247.664 97.477 251.913 92.8825Z" fill="#2F2F2D" stroke="#292927"/>
<path d="M187.887 145.117C206.657 155.099 225.775 124.945 223.584 109.024L213.34 114.518C183.013 133.821 182.443 140.574 187.887 145.117Z" fill="#F77F6E" stroke="#E36A6A"/>
<path d="M184.274 142.882C184.594 121.445 212.326 110.635 223.962 108.423C221.92 115.724 219.177 122.892 214.799 129.081C199.975 150.038 188.523 147.477 184.274 142.882Z" fill="#2F2F2D" stroke="#292927"/>
<path d="M139.772 74.9062C121.077 72.6558 104.207 91.4408 97.544 103.565C82.8594 123.161 88.5571 142.977 102.664 152.091C114.78 157.746 140.685 166.59 153 158C160.93 152.469 164.586 136.949 165.853 122.479C167.081 108.451 166.512 92.6302 156.757 82.4757C153.057 78.6239 147.818 75.8748 139.772 74.9062Z" fill="#2F2F2D" stroke="#292927"/>
<path d="M142.629 120.872C112.345 89.2173 82.9965 105.305 75.5911 125.342C73.4274 131.196 72.8683 137.632 73.4257 143.848C74.3699 154.379 80.1567 166.996 98.3429 169.185C104.838 169.967 111.562 170.197 117.946 169.688C134.76 168.347 155.875 163.55 161.242 147.559C165.011 136.329 156.741 129.727 148.549 130.419C147.312 126.847 145.243 123.603 142.629 120.872Z" fill="#F77F6E" stroke="#E36A6A"/>
<path d="M143.656 91.0989C136.961 89.5718 136.257 97.2191 136.406 100.993C137.001 104.82 138.67 112.221 143.266 113.135C149.012 114.278 151.218 109.536 151.699 105.538C152.181 101.54 152.025 93.0077 143.656 91.0989Z" fill="white" stroke="#292927"/>
<path d="M128.57 86.5265C133.615 88.6969 130.326 94.1622 128.385 96.6223C126.13 98.9054 121.439 103.074 118.041 101.493C113.793 99.5179 114.696 95.2851 116.343 92.3736C117.99 89.4621 122.263 83.8135 128.57 86.5265Z" fill="white" stroke="#292927"/>
<path d="M96.9002 114.154C101.305 115.837 97.8096 121.879 95.8156 124.651C93.5524 127.274 88.8954 132.129 85.9395 130.873C82.2446 129.302 83.4525 124.808 85.2185 121.601C86.9845 118.394 91.3943 112.051 96.9002 114.154Z" fill="#E77160" stroke="#E36A6A"/>
<path d="M113.888 117.821C107.295 119.511 110.817 127.867 112.983 131.747C115.562 135.464 120.995 142.398 125.449 141.097C131.017 139.471 130.357 133.42 128.613 128.995C126.869 124.57 122.129 115.709 113.888 117.821Z" fill="#E77160" stroke="#E36A6A"/>
<path d="M164.001 96.1495C146.447 95.5472 148.464 82.5652 155.395 79.3707C161.693 78.618 173.132 79.1891 170.496 87.7353C169.922 92.5009 166.007 96.2184 164.001 96.1495Z" fill="#2F2F2D" stroke="#292927"/>
<path d="M113.502 84.1495C126.5 86.1504 129.246 78.5496 125.409 74.2712C121.287 71.8938 113.228 68.9375 112.521 75.7148C111.508 79.2309 112.014 83.9206 113.502 84.1495Z" fill="#2F2F2D" stroke="#292927"/>
<path d="M165.263 65.9221C164.392 71.0004 159.715 75.4793 155.818 78.3801C153.828 79.8612 152.392 82.1916 153.011 84.594C155.488 94.2165 166.29 93.6054 169.468 90.7362C169.871 90.3721 170.103 89.8636 170.277 89.349C173.963 78.4411 170.474 69.6132 167.058 65.259C166.502 64.5508 165.415 65.0348 165.263 65.9221Z" fill="#805B3F" stroke="#593D27"/>
<path d="M117.833 60.5884C118.114 64.2698 120.591 67.999 122.959 70.6694C124.589 72.5086 125.696 75.0018 124.729 77.2617C122.306 82.9257 117.21 82.5948 113.497 80.8031C111.983 80.0725 111.047 78.5419 110.881 76.8692C110.112 69.1186 113.302 62.8881 116.147 59.7585C116.754 59.091 117.765 59.6889 117.833 60.5884Z" fill="#805B3F" stroke="#593D27"/>
<path opacity="0.1" d="M117.996 111.723C117.649 113.276 112.119 114.388 107.268 113.306C102.417 112.224 98.7644 110.088 99.1107 108.535C99.457 106.982 105.649 105.64 110.5 106.722C115.351 107.803 118.342 110.169 117.996 111.723Z" fill="white"/>
<path d="M285.5 129L244 132.5C249.318 137.485 254.972 142.453 261.96 144.528C278.092 149.319 284.374 137.021 285.5 129Z" fill="#E34949" stroke="#C53232"/>
<path d="M262.018 72C259.618 68.8 262.018 64 263.518 62L316.02 68C316.186 68.8333 314.82 71.7 308.02 76.5C299.52 82.5 291.02 75 285.02 74.5C279.02 74 265.018 76 262.018 72Z" fill="#F77F6E" stroke="#C85545"/>
</svg>
