<svg width="1482" height="1665" viewBox="0 0 1482 1665" fill="none" xmlns="http://www.w3.org/2000/svg">
<path d="M719.397 627.038C719.589 650.859 719.589 679.185 719.525 711.469C719.269 786.959 718.31 858.967 717.67 868.182C716.327 887.293 708.971 900.671 702.318 905.449C696.945 909.271 659.204 912.343 635.153 913.435H617.69C593.638 912.343 555.898 909.271 550.524 905.449C543.808 900.671 536.452 887.293 535.172 868.182C534.533 858.967 533.573 786.959 533.317 711.469C533.061 678.912 533.125 650.313 533.317 626.355C533.317 626.355 544.831 635.365 622.807 635.365C700.783 635.365 719.397 627.038 719.397 627.038Z" fill="#EFEDE4"/>
<path d="M533.185 629.969C535.758 619.117 596.14 618.898 624.196 618.898C652.253 618.898 715.835 618.898 715.835 630.515C715.772 642.185 530.172 642.731 533.185 629.969Z" fill="#E7E4D6"/>
<path d="M918.191 440.08C918.191 441.821 918.191 453.564 918.191 486.608C918.191 515.739 889.65 568.904 870.31 600.171C865.705 607.616 863.105 616.141 863.105 624.895V868.498C863.105 881.094 866.336 893.989 876.017 902.048C883.387 908.184 892.942 913.434 903.47 913.434H997.971C1008.5 913.434 1018.05 908.184 1025.42 902.048C1035.1 893.989 1038.34 881.094 1038.34 868.498V624.895C1038.34 616.141 1035.74 607.616 1031.13 600.171C1011.79 568.904 983.25 515.739 983.25 486.608C983.25 453.564 983.25 441.821 983.25 440.08M918.191 440.08C934.337 456.222 971.853 452.424 983.25 440.08M918.191 440.08C918.666 437.548 925.694 432.483 950.008 432.483C974.322 432.483 982.3 437.548 983.25 440.08M918.191 449.068C934.337 465.21 971.853 461.412 983.25 449.068" stroke="white" stroke-width="11.1849"/>
<path d="M951.518 702.464C905.437 702.464 871.45 697.633 859.841 695.723C858.615 695.522 857.512 696.458 857.512 697.7C857.512 733.826 857.512 782.204 857.512 814.006C857.512 814.969 858.179 815.78 859.127 815.951C871.049 818.11 906.991 823.956 952.607 823.956C1001.54 823.956 1031.88 818.405 1042.38 816.134C1043.29 815.936 1043.93 815.142 1043.93 814.207C1043.93 782.423 1043.93 734.039 1043.93 697.832C1043.93 696.569 1042.79 695.626 1041.54 695.855C1030.81 697.832 1000.2 702.464 951.518 702.464Z" fill="#0172C2"/>
<path d="M887.524 781.536C886.173 781.536 885.14 781.159 884.424 780.404C883.709 779.649 883.352 778.596 883.352 777.245V742.737C883.352 741.386 883.729 740.333 884.484 739.578C885.279 738.823 886.351 738.445 887.702 738.445C888.894 738.445 889.828 738.684 890.504 739.161C891.219 739.598 891.874 740.372 892.47 741.485L906.238 766.636H904.212L917.979 741.485C918.575 740.372 919.211 739.598 919.886 739.161C920.602 738.684 921.535 738.445 922.688 738.445C924.038 738.445 925.072 738.823 925.787 739.578C926.542 740.333 926.919 741.386 926.919 742.737V777.245C926.919 778.596 926.562 779.649 925.846 780.404C925.131 781.159 924.098 781.536 922.747 781.536C921.396 781.536 920.343 781.159 919.588 780.404C918.873 779.649 918.516 778.596 918.516 777.245V753.107H919.827L908.741 772.954C908.264 773.709 907.748 774.285 907.192 774.682C906.675 775.04 905.98 775.219 905.106 775.219C904.231 775.219 903.516 775.02 902.96 774.623C902.404 774.225 901.907 773.669 901.47 772.954L890.265 753.047H891.696V777.245C891.696 778.596 891.338 779.649 890.623 780.404C889.947 781.159 888.914 781.536 887.524 781.536Z" fill="white"/>
<path d="M940.089 781.536C938.58 781.536 937.427 781.119 936.633 780.285C935.838 779.45 935.441 778.278 935.441 776.768V743.213C935.441 741.703 935.838 740.531 936.633 739.697C937.427 738.863 938.58 738.445 940.089 738.445C941.56 738.445 942.692 738.863 943.487 739.697C944.281 740.531 944.679 741.703 944.679 743.213V776.768C944.679 778.278 944.281 779.45 943.487 780.285C942.732 781.119 941.599 781.536 940.089 781.536Z" fill="white"/>
<path d="M957.843 781C956.333 781 955.161 780.583 954.326 779.748C953.532 778.914 953.134 777.761 953.134 776.291V743.571C953.134 742.021 953.532 740.849 954.326 740.055C955.121 739.26 956.273 738.863 957.783 738.863C959.253 738.863 960.386 739.26 961.18 740.055C961.975 740.849 962.372 742.021 962.372 743.571V773.192H978.345C979.617 773.192 980.59 773.53 981.266 774.205C981.981 774.881 982.338 775.834 982.338 777.066C982.338 778.338 981.981 779.311 981.266 779.987C980.59 780.662 979.617 781 978.345 781H957.843Z" fill="white"/>
<path d="M991.948 781.536C990.438 781.536 989.286 781.119 988.492 780.285C987.697 779.45 987.3 778.278 987.3 776.768V743.154C987.3 741.644 987.697 740.492 988.492 739.697C989.286 738.863 990.438 738.445 991.948 738.445C993.418 738.445 994.551 738.863 995.346 739.697C996.14 740.492 996.538 741.644 996.538 743.154V757.279H996.657L1012.51 740.71C1013.19 739.995 1013.88 739.459 1014.6 739.101C1015.35 738.704 1016.21 738.505 1017.16 738.505C1018.55 738.505 1019.54 738.863 1020.14 739.578C1020.77 740.293 1021.05 741.127 1020.97 742.081C1020.89 743.035 1020.46 743.929 1019.66 744.763L1003.75 761.034L1003.81 757.041L1020.5 774.861C1021.41 775.854 1021.87 776.867 1021.87 777.901C1021.91 778.934 1021.57 779.808 1020.85 780.523C1020.18 781.198 1019.17 781.536 1017.81 781.536C1016.66 781.536 1015.73 781.298 1015.01 780.821C1014.34 780.344 1013.58 779.649 1012.75 778.735L996.657 761.809H996.538V776.768C996.538 778.278 996.14 779.45 995.346 780.285C994.591 781.119 993.458 781.536 991.948 781.536Z" fill="white"/>
<g opacity="0.3">
<path d="M1184.77 440.08C1184.77 441.821 1184.77 453.564 1184.77 486.608C1184.77 515.739 1156.22 568.904 1136.88 600.171C1132.28 607.616 1129.68 616.141 1129.68 624.895V868.498C1129.68 881.094 1132.91 893.989 1142.59 902.048C1149.96 908.184 1159.52 913.434 1170.04 913.434H1264.55C1275.07 913.434 1284.63 908.184 1292 902.048C1301.68 893.989 1304.91 881.094 1304.91 868.498V624.895C1304.91 616.141 1302.31 607.616 1297.71 600.171C1278.36 568.904 1249.82 515.739 1249.82 486.608C1249.82 453.564 1249.82 441.821 1249.82 440.08M1184.77 440.08C1200.91 456.222 1238.43 452.424 1249.82 440.08M1184.77 440.08C1185.24 437.548 1192.27 432.483 1216.58 432.483C1240.9 432.483 1248.87 437.548 1249.82 440.08M1184.77 449.068C1200.91 465.21 1238.43 461.412 1249.82 449.068" stroke="white" stroke-width="11.1849"/>
<path d="M1218.09 702.464C1172.01 702.464 1138.02 697.633 1126.42 695.723C1125.19 695.522 1124.09 696.458 1124.09 697.7C1124.09 733.826 1124.09 782.204 1124.09 814.006C1124.09 814.969 1124.75 815.78 1125.7 815.951C1137.62 818.11 1173.57 823.956 1219.18 823.956C1268.12 823.956 1298.45 818.405 1308.96 816.134C1309.87 815.936 1310.5 815.142 1310.5 814.207C1310.5 782.423 1310.5 734.039 1310.5 697.832C1310.5 696.569 1309.36 695.626 1308.12 695.855C1297.38 697.832 1266.77 702.464 1218.09 702.464Z" fill="#0172C2"/>
<path d="M1154.52 781.536C1153.17 781.536 1152.14 781.159 1151.42 780.404C1150.71 779.649 1150.35 778.596 1150.35 777.245V742.737C1150.35 741.386 1150.73 740.333 1151.48 739.578C1152.28 738.823 1153.35 738.445 1154.7 738.445C1155.89 738.445 1156.83 738.684 1157.5 739.161C1158.22 739.598 1158.87 740.372 1159.47 741.485L1173.24 766.636H1171.21L1184.98 741.485C1185.58 740.372 1186.21 739.598 1186.89 739.161C1187.6 738.684 1188.54 738.445 1189.69 738.445C1191.04 738.445 1192.07 738.823 1192.79 739.578C1193.54 740.333 1193.92 741.386 1193.92 742.737V777.245C1193.92 778.596 1193.56 779.649 1192.85 780.404C1192.13 781.159 1191.1 781.536 1189.75 781.536C1188.4 781.536 1187.34 781.159 1186.59 780.404C1185.87 779.649 1185.52 778.596 1185.52 777.245V753.107H1186.83L1175.74 772.954C1175.26 773.709 1174.75 774.285 1174.19 774.682C1173.68 775.04 1172.98 775.219 1172.11 775.219C1171.23 775.219 1170.52 775.02 1169.96 774.623C1169.4 774.225 1168.91 773.669 1168.47 772.954L1157.27 753.047H1158.7V777.245C1158.7 778.596 1158.34 779.649 1157.62 780.404C1156.95 781.159 1155.91 781.536 1154.52 781.536Z" fill="white"/>
<path d="M1207.09 781.536C1205.58 781.536 1204.43 781.119 1203.63 780.285C1202.84 779.45 1202.44 778.278 1202.44 776.768V743.213C1202.44 741.703 1202.84 740.531 1203.63 739.697C1204.43 738.863 1205.58 738.445 1207.09 738.445C1208.56 738.445 1209.69 738.863 1210.49 739.697C1211.28 740.531 1211.68 741.703 1211.68 743.213V776.768C1211.68 778.278 1211.28 779.45 1210.49 780.285C1209.73 781.119 1208.6 781.536 1207.09 781.536Z" fill="white"/>
<path d="M1224.84 781C1223.33 781 1222.16 780.583 1221.33 779.748C1220.53 778.914 1220.13 777.761 1220.13 776.291V743.571C1220.13 742.021 1220.53 740.849 1221.33 740.055C1222.12 739.26 1223.27 738.863 1224.78 738.863C1226.25 738.863 1227.39 739.26 1228.18 740.055C1228.97 740.849 1229.37 742.021 1229.37 743.571V773.192H1245.35C1246.62 773.192 1247.59 773.53 1248.27 774.205C1248.98 774.881 1249.34 775.834 1249.34 777.066C1249.34 778.338 1248.98 779.311 1248.27 779.987C1247.59 780.662 1246.62 781 1245.35 781H1224.84Z" fill="white"/>
<path d="M1258.95 781.536C1257.44 781.536 1256.29 781.119 1255.49 780.285C1254.7 779.45 1254.3 778.278 1254.3 776.768V743.154C1254.3 741.644 1254.7 740.492 1255.49 739.697C1256.29 738.863 1257.44 738.445 1258.95 738.445C1260.42 738.445 1261.55 738.863 1262.35 739.697C1263.14 740.492 1263.54 741.644 1263.54 743.154V757.279H1263.66L1279.51 740.71C1280.19 739.995 1280.88 739.459 1281.6 739.101C1282.35 738.704 1283.21 738.505 1284.16 738.505C1285.55 738.505 1286.54 738.863 1287.14 739.578C1287.77 740.293 1288.05 741.127 1287.97 742.081C1287.89 743.035 1287.46 743.929 1286.66 744.763L1270.75 761.034L1270.81 757.041L1287.5 774.861C1288.41 775.854 1288.87 776.867 1288.87 777.901C1288.91 778.934 1288.57 779.808 1287.85 780.523C1287.18 781.198 1286.17 781.536 1284.81 781.536C1283.66 781.536 1282.73 781.298 1282.01 780.821C1281.34 780.344 1280.58 779.649 1279.75 778.735L1263.66 761.809H1263.54V776.768C1263.54 778.278 1263.14 779.45 1262.35 780.285C1261.59 781.119 1260.46 781.536 1258.95 781.536Z" fill="white"/>
</g>
<path d="M593.824 440.063C593.824 441.804 593.824 453.547 593.824 486.592C593.824 515.723 565.283 568.887 545.943 600.155C541.338 607.599 538.738 616.124 538.738 624.878V868.481C538.738 881.077 541.969 893.972 551.649 902.031C559.02 908.167 568.575 913.418 579.103 913.418H673.604C684.132 913.418 693.687 908.167 701.057 902.031C710.738 893.972 713.968 881.077 713.968 868.481V624.878C713.968 616.124 711.369 607.599 706.764 600.155C687.423 568.887 658.883 515.723 658.883 486.592C658.883 453.547 658.883 441.804 658.883 440.063M593.824 440.063C609.97 456.206 647.485 452.408 658.883 440.063M593.824 440.063C594.299 437.531 601.327 432.467 625.641 432.467C649.955 432.467 657.933 437.531 658.883 440.063M593.824 449.051C609.97 465.194 647.485 461.396 658.883 449.051" stroke="white" stroke-width="11.1849"/>
<path d="M584.836 454.33V433.63H665.181V454.33C665.181 454.33 665.03 465.999 625.121 465.999C585.212 465.999 584.836 454.33 584.836 454.33Z" fill="#0172C2"/>
<path d="M625.045 447.459C647.211 447.459 665.18 442.02 665.18 435.311C665.18 428.601 647.211 423.162 625.045 423.162C602.879 423.162 584.91 428.601 584.91 435.311C584.91 442.02 602.879 447.459 625.045 447.459Z" fill="#248ED9"/>
<path opacity="0.48" d="M665.18 434.032C665.18 440.026 647.217 444.902 625.045 444.902C602.873 444.902 584.91 440.026 584.91 434.032C584.835 428.038 602.798 423.162 625.045 423.162C647.217 423.162 665.18 428.038 665.18 434.032Z" fill="url(#paint0_linear_84_1050)"/>
<path d="M627.151 702.447C586.207 702.447 554.811 698.633 540.177 696.444C536.491 695.892 533.145 698.725 533.145 702.451C533.145 736.703 533.145 780.315 533.145 810.665C533.145 813.555 535.201 816.026 538.049 816.514C552.454 818.985 586.248 823.939 628.239 823.939C672.987 823.939 702.184 819.298 714.883 816.767C717.632 816.219 719.56 813.798 719.56 810.995C719.56 780.688 719.56 737.058 719.56 702.707C719.56 698.918 716.098 696.064 712.357 696.668C698.695 698.878 669.886 702.447 627.151 702.447Z" fill="#0172C2"/>
<path d="M561.172 781.091C559.821 781.091 558.788 780.713 558.073 779.958C557.358 779.203 557 778.151 557 776.8V742.291C557 740.94 557.377 739.887 558.132 739.132C558.927 738.377 560 738 561.351 738C562.543 738 563.477 738.238 564.152 738.715C564.867 739.152 565.523 739.927 566.119 741.04L579.886 766.191H577.86L591.628 741.04C592.224 739.927 592.859 739.152 593.535 738.715C594.25 738.238 595.184 738 596.336 738C597.687 738 598.72 738.377 599.435 739.132C600.19 739.887 600.568 740.94 600.568 742.291V776.8C600.568 778.151 600.21 779.203 599.495 779.958C598.78 780.713 597.747 781.091 596.396 781.091C595.045 781.091 593.992 780.713 593.237 779.958C592.522 779.203 592.164 778.151 592.164 776.8V752.662H593.475L582.39 772.508C581.913 773.263 581.396 773.839 580.84 774.237C580.323 774.594 579.628 774.773 578.754 774.773C577.88 774.773 577.165 774.575 576.608 774.177C576.052 773.78 575.555 773.224 575.118 772.508L563.914 752.602H565.344V776.8C565.344 778.151 564.986 779.203 564.271 779.958C563.596 780.713 562.563 781.091 561.172 781.091Z" fill="white"/>
<path d="M613.738 781.091C612.228 781.091 611.076 780.674 610.281 779.839C609.486 779.005 609.089 777.833 609.089 776.323V742.768C609.089 741.258 609.486 740.086 610.281 739.252C611.076 738.417 612.228 738 613.738 738C615.208 738 616.34 738.417 617.135 739.252C617.93 740.086 618.327 741.258 618.327 742.768V776.323C618.327 777.833 617.93 779.005 617.135 779.839C616.38 780.674 615.248 781.091 613.738 781.091Z" fill="white"/>
<path d="M631.491 780.554C629.981 780.554 628.809 780.137 627.975 779.303C627.18 778.468 626.783 777.316 626.783 775.846V743.126C626.783 741.576 627.18 740.404 627.975 739.609C628.769 738.815 629.922 738.417 631.432 738.417C632.902 738.417 634.034 738.815 634.829 739.609C635.623 740.404 636.021 741.576 636.021 743.126V772.747H651.994C653.265 772.747 654.238 773.085 654.914 773.76C655.629 774.435 655.987 775.389 655.987 776.621C655.987 777.892 655.629 778.866 654.914 779.541C654.238 780.217 653.265 780.554 651.994 780.554H631.491Z" fill="white"/>
<path d="M665.597 781.091C664.087 781.091 662.935 780.674 662.14 779.839C661.345 779.005 660.948 777.833 660.948 776.323V742.708C660.948 741.199 661.345 740.046 662.14 739.252C662.935 738.417 664.087 738 665.597 738C667.067 738 668.199 738.417 668.994 739.252C669.789 740.046 670.186 741.199 670.186 742.708V756.834H670.305L686.159 740.265C686.834 739.55 687.53 739.013 688.245 738.656C689 738.258 689.854 738.06 690.808 738.06C692.198 738.06 693.192 738.417 693.788 739.132C694.423 739.848 694.701 740.682 694.622 741.636C694.543 742.589 694.105 743.483 693.311 744.318L677.398 760.588L677.457 756.595L694.145 774.416C695.059 775.409 695.516 776.422 695.516 777.455C695.556 778.488 695.218 779.362 694.503 780.078C693.827 780.753 692.814 781.091 691.463 781.091C690.311 781.091 689.377 780.852 688.662 780.376C687.987 779.899 687.232 779.203 686.397 778.29L670.305 761.363H670.186V776.323C670.186 777.833 669.789 779.005 668.994 779.839C668.239 780.674 667.107 781.091 665.597 781.091Z" fill="white"/>
<path d="M673.129 1149.98C673.129 1149.98 669.217 1166.23 677.418 1194.42C685.619 1222.61 698.936 1264.48 707.889 1281.84C716.767 1299.19 727.225 1347.58 716.09 1375.03C704.955 1402.49 683.437 1428.48 652.213 1444.37C620.99 1460.25 548.988 1453.01 520.774 1440.05C492.56 1427.02 474.729 1407.54 462.842 1378.62C450.954 1349.7 453.964 1325.18 461.337 1303.51C468.785 1281.84 482.855 1255.84 491.055 1231.98C499.256 1208.11 502.943 1187.17 505.2 1172.75C507.457 1158.33 508.887 1140.83 508.887 1140.83L673.129 1149.98Z" fill="#EFEDE4"/>
<path d="M674.759 1153.18C675.909 1144.07 662.875 1129.68 587.892 1129.68C512.908 1129.68 503.324 1145.19 503.324 1149.39C503.324 1153.59 506.161 1172.08 585.055 1172.54C656.665 1172.9 673.992 1159.64 674.759 1153.18Z" fill="#E7E4D6"/>
<path d="M988.947 1129.01C993.613 1128.71 996.311 1139.14 996.311 1144.9C996.311 1151.17 994.561 1160.57 988.655 1160.36C983.041 1160.14 980.125 1129.52 988.947 1129.01Z" fill="#DCE7FF"/>
<path d="M989.092 1129.01H975.094V1160.28H989.092V1129.01Z" fill="#DCE7FF"/>
<path d="M1152.67 1443.81C1152.67 1443.81 1148.37 1468.97 1080.71 1468.97C1013.05 1468.97 1004.45 1442.36 1004.45 1442.36L1080.71 1457.77L1152.67 1443.81Z" fill="#DCE7FF"/>
<path d="M982.336 1067.23C983.395 1067.69 984.513 1068.17 985.679 1068.67C993.736 1072.09 1004.22 1076.21 1013.67 1078.86C1017.69 1080.01 1022.98 1081.22 1028.76 1082.42C1062.8 1089.48 1098.08 1089.76 1132.19 1082.93C1137.72 1081.82 1142.77 1080.69 1146.65 1079.59L1146.65 1079.59C1155.78 1076.98 1166.05 1074.33 1174.05 1072.33C1175.36 1072 1176.61 1071.7 1177.78 1071.41C1177.57 1071.73 1177.37 1072.07 1177.16 1072.41C1173.5 1078.47 1169.39 1087.24 1167.61 1098.07C1164.24 1118.7 1160.79 1156.02 1167.66 1185.83L982.336 1067.23ZM982.336 1067.23C982.658 1067.87 982.984 1068.52 983.315 1069.2C986.88 1076.53 990.943 1086.61 992.701 1097.34C996.077 1117.97 999.528 1155.22 992.655 1185.11C985.885 1214.54 975.298 1246.35 957.847 1284.04C937.133 1328.87 943.851 1378.38 971.866 1412.89C999.617 1447.04 1040.35 1455.7 1079.87 1455.77M982.336 1067.23L1079.87 1455.77M1079.87 1455.77C1119.6 1455.77 1160.51 1447.95 1188.45 1413.62C1202.39 1396.49 1210.56 1373.21 1212.88 1349.61C1215.19 1325.99 1211.61 1302.47 1202.54 1284.92C1183.38 1247.85 1174.4 1215.14 1167.66 1185.84L1079.87 1455.77Z" stroke="white" stroke-width="7.4566"/>
<path d="M930.47 1320.97C930.47 1320.97 949.864 1325.86 952.051 1328.56C957.228 1335.04 954.165 1353.13 949.353 1355.02C939.657 1358.81 920.773 1344.74 920.773 1344.74L930.47 1320.97Z" fill="#DCE7FF"/>
<path d="M992.377 1121.49C999.231 1121.13 1003.17 1136.59 1003.17 1145.26C1003.17 1154.59 1000.62 1168.67 992.013 1168.3C983.701 1167.86 979.4 1122.22 992.377 1121.49Z" fill="#DCE7FF"/>
<path d="M975.094 1129C975.094 1129 986.613 1149.49 975.094 1160.28C963.574 1171.07 952.055 1150.95 948.118 1145.19C944.181 1139.43 916.476 1134.76 900.29 1147.74C884.104 1160.72 873.679 1178 870.398 1197.03C867.19 1216.13 874.335 1247.41 888.406 1268.62C902.404 1289.84 916.913 1304.86 928.36 1314.56C942.358 1326.44 937.692 1335.41 932.661 1342.62C927.631 1349.84 918.007 1346.27 912.539 1342.48C898.832 1332.93 884.104 1318.35 871.856 1299.97C859.607 1281.6 846.994 1254.99 843.786 1232.97C840.578 1211.03 843.422 1182.59 857.493 1152.77C871.564 1122.95 905.321 1107.79 931.641 1108.15C955.627 1108.52 970.063 1122.22 975.094 1129Z" fill="white"/>
<path d="M498.677 1129.01C503.344 1128.71 506.041 1139.14 506.041 1144.9C506.041 1151.17 504.291 1160.57 498.386 1160.36C492.772 1160.14 489.856 1129.52 498.677 1129.01Z" fill="#DCE7FF"/>
<path d="M498.823 1129.01H484.824V1160.28H498.823V1129.01Z" fill="#DCE7FF"/>
<path d="M662.398 1443.81C662.398 1443.81 658.097 1468.97 590.438 1468.97C522.779 1468.97 514.176 1442.36 514.176 1442.36L590.438 1457.77L662.398 1443.81Z" fill="#DCE7FF"/>
<path d="M492.067 1067.23C493.126 1067.69 494.243 1068.17 495.409 1068.67C503.466 1072.09 513.95 1076.21 523.4 1078.86C527.419 1080.01 532.706 1081.22 538.491 1082.42C572.53 1089.48 607.812 1089.76 641.921 1082.93C647.448 1081.82 652.498 1080.69 656.377 1079.59L656.383 1079.59C665.511 1076.98 675.781 1074.33 683.785 1072.33C685.091 1072 686.337 1071.7 687.506 1071.41C687.302 1071.73 687.096 1072.07 686.889 1072.41C683.232 1078.47 679.116 1087.24 677.343 1098.07C673.967 1118.7 670.516 1156.02 677.389 1185.83L492.067 1067.23ZM492.067 1067.23C492.388 1067.87 492.715 1068.52 493.046 1069.2C496.61 1076.53 500.674 1086.61 502.431 1097.34C505.808 1117.97 509.258 1155.22 502.385 1185.11C495.615 1214.54 485.029 1246.35 467.578 1284.04C446.863 1328.87 453.581 1378.38 481.597 1412.89C509.348 1447.04 550.084 1455.7 589.602 1455.77M492.067 1067.23L589.602 1455.77M589.602 1455.77C629.33 1455.77 670.24 1447.95 698.181 1413.62C712.124 1396.49 720.29 1373.21 722.606 1349.61C724.923 1325.99 721.342 1302.47 712.269 1284.92C693.108 1247.85 684.129 1215.14 677.389 1185.84L589.602 1455.77Z" stroke="white" stroke-width="7.4566"/>
<path d="M440.201 1320.97C440.201 1320.97 459.594 1325.86 461.782 1328.56C466.958 1335.04 463.896 1353.13 459.084 1355.02C449.387 1358.81 430.504 1344.74 430.504 1344.74L440.201 1320.97Z" fill="#DCE7FF"/>
<path d="M502.108 1121.49C508.961 1121.13 512.898 1136.59 512.898 1145.26C512.898 1154.59 510.346 1168.67 501.743 1168.3C493.432 1167.86 489.13 1122.22 502.108 1121.49Z" fill="#DCE7FF"/>
<path d="M484.824 1129C484.824 1129 496.344 1149.49 484.824 1160.28C473.305 1171.07 461.785 1150.95 457.848 1145.19C453.911 1139.43 426.206 1134.76 410.021 1147.74C393.835 1160.72 383.409 1178 380.128 1197.03C376.92 1216.13 384.065 1247.41 398.137 1268.62C412.135 1289.84 426.644 1304.86 438.09 1314.56C452.089 1326.44 447.422 1335.41 442.392 1342.62C437.361 1349.84 427.737 1346.27 422.269 1342.48C408.562 1332.93 393.835 1318.35 381.586 1299.97C369.338 1281.6 356.725 1254.99 353.517 1232.97C350.309 1211.03 353.152 1182.59 367.223 1152.77C381.295 1122.95 415.051 1107.79 441.371 1108.15C465.358 1108.52 479.794 1122.22 484.824 1129Z" fill="white"/>
<path d="M1189.5 1048.41L1189.73 1049L1190.1 1049.5C1192.14 1052.25 1193.44 1056.15 1192.3 1059.55C1191.25 1062.69 1187.43 1067.31 1174.87 1070.14L1174.26 1070.27L1173.7 1070.57C1154.55 1080.75 1121.33 1087.73 1083.07 1087.73C1052.58 1087.73 1025.17 1083.3 1005.55 1076.27C995.727 1072.75 988.103 1068.66 983.025 1064.36C977.926 1060.04 975.883 1055.95 975.883 1052.31C975.883 1048.68 977.926 1044.59 983.025 1040.27C988.103 1035.97 995.727 1031.88 1005.55 1028.36C1025.17 1021.33 1052.58 1016.89 1083.07 1016.89C1110.94 1016.89 1136.25 1020.6 1155.39 1026.62C1164.97 1029.63 1172.86 1033.17 1178.72 1037.01C1184.64 1040.89 1188.09 1044.81 1189.5 1048.41Z" stroke="#DCE7FF" stroke-width="9.32076"/>
<path d="M699.225 1048.41L699.452 1049L699.825 1049.5C701.865 1052.25 703.163 1056.15 702.026 1059.55C700.973 1062.69 697.156 1067.31 684.596 1070.14L683.984 1070.27L683.43 1070.57C664.276 1080.75 631.056 1087.73 592.798 1087.73C562.303 1087.73 534.897 1083.3 515.281 1076.27C505.453 1072.75 497.829 1068.66 492.751 1064.36C487.653 1060.04 485.61 1055.95 485.61 1052.31C485.61 1048.68 487.653 1044.59 492.751 1040.27C497.829 1035.97 505.453 1031.88 515.281 1028.36C534.897 1021.33 562.303 1016.89 592.798 1016.89C620.665 1016.89 645.974 1020.6 665.117 1026.62C674.694 1029.63 682.582 1033.17 688.444 1037.01C694.368 1040.89 697.822 1044.81 699.225 1048.41Z" stroke="#DCE7FF" stroke-width="9.32076"/>
<path d="M1181.84 279.33V258.63H1262.18V279.33C1262.18 279.33 1262.03 290.999 1222.12 290.999C1182.21 290.999 1181.84 279.33 1181.84 279.33Z" fill="#0172C2"/>
<path d="M1222.04 272.459C1244.21 272.459 1262.18 267.02 1262.18 260.311C1262.18 253.601 1244.21 248.162 1222.04 248.162C1199.88 248.162 1181.91 253.601 1181.91 260.311C1181.91 267.02 1199.88 272.459 1222.04 272.459Z" fill="#248ED9"/>
<path opacity="0.48" d="M1262.18 259.032C1262.18 265.026 1244.22 269.902 1222.05 269.902C1199.87 269.902 1181.91 265.026 1181.91 259.032C1181.84 253.038 1199.8 248.162 1222.05 248.162C1244.22 248.162 1262.18 253.038 1262.18 259.032Z" fill="url(#paint1_linear_84_1050)"/>
<path d="M1009.77 237.097C991.886 226.664 959.409 215.022 911.568 215.022C863.726 215.022 831.25 226.664 813.369 237.097C803.889 242.629 799.719 253.391 799.719 264.368V269.204C799.719 281.459 822.089 305.969 911.568 305.969C1001.05 305.969 1023.42 281.459 1023.42 269.204V264.368C1023.42 253.391 1019.25 242.629 1009.77 237.097Z" fill="#005FA3" stroke="black" stroke-width="5.59245"/>
<path d="M1019.81 249.854C1019.81 253.138 1017.6 256.82 1012.26 260.634C1006.99 264.398 999.177 267.903 989.276 270.894C969.509 276.864 942.033 280.598 911.564 280.598C881.095 280.598 853.619 276.864 833.852 270.894C823.951 267.903 816.142 264.398 810.871 260.634C805.53 256.82 803.316 253.138 803.316 249.854C803.316 249.131 803.681 247.973 804.96 246.371C806.216 244.799 808.169 243.034 810.849 241.16C816.2 237.416 824.087 233.485 833.993 229.908C853.782 222.762 881.222 217.174 911.564 217.174C941.885 217.174 969.319 223.078 989.116 230.385C999.024 234.043 1006.93 238.018 1012.3 241.715C1014.99 243.568 1016.95 245.29 1018.21 246.793C1019.52 248.351 1019.81 249.365 1019.81 249.854Z" fill="#0172C2" stroke="#05548B" stroke-width="5.59245"/>
<path d="M1009.77 237.097C991.886 226.664 959.409 215.022 911.568 215.022C863.726 215.022 831.25 226.664 813.369 237.097C803.889 242.629 799.719 253.391 799.719 264.368V269.204C799.719 281.459 822.089 305.969 911.568 305.969C1001.05 305.969 1023.42 281.459 1023.42 269.204V264.368C1023.42 253.391 1019.25 242.629 1009.77 237.097Z" stroke="#05548B" stroke-width="5.59245"/>
<path d="M817.451 267.269C807.221 262.193 803.447 253.884 803.447 247.507L800.462 263.33C799.968 265.95 799.556 268.674 800.409 271.201C802.11 276.245 807.138 282.363 817.451 287.944M817.451 267.269V287.944M817.451 267.269C824.964 270.997 834.815 274.247 846.39 276.834M817.451 287.944C824.455 291.735 833.897 295.278 846.39 298.069M846.39 276.834V298.069M846.39 276.834C854.697 278.691 863.893 280.205 873.748 281.31M846.39 298.069C854.25 299.825 863.319 301.284 873.748 302.319M873.748 281.31V302.319M873.748 281.31C884.105 282.471 895.19 283.178 906.74 283.352M873.748 302.319C883.511 303.288 894.467 303.886 906.74 304.011M906.74 283.352C908.606 283.38 910.484 283.395 912.372 283.395C921.814 283.395 930.98 283.039 939.731 282.369M906.74 283.352V304.011M906.74 304.011C908.327 304.027 909.936 304.035 911.568 304.035C921.813 304.035 931.178 303.714 939.731 303.126M939.731 303.126V282.369M939.731 303.126C949.979 302.422 959.06 301.336 967.09 299.963M939.731 282.369C949.422 281.627 958.604 280.501 967.09 279.047M967.09 279.047V299.963M967.09 279.047C975.628 277.583 983.462 275.788 990.398 273.719M967.09 299.963C976.139 298.416 983.853 296.504 990.398 294.363M990.398 273.719V294.363M990.398 273.719C1000.13 270.817 1008.09 267.375 1013.76 263.554M990.398 294.363C1001.04 290.881 1008.59 286.794 1013.76 282.686M1013.76 263.554C1019.97 259.371 1018.76 253.319 1018.76 248.439L1022.16 262.195C1023 265.565 1023.65 269.141 1022.29 272.337C1020.93 275.549 1018.24 279.125 1013.76 282.686M1013.76 263.554V282.686" stroke="#05548B" stroke-width="5.59245"/>
<path d="M445.365 630.083C445.557 653.904 445.558 679.184 445.494 711.468C445.238 786.958 444.278 858.967 443.639 868.181C442.295 887.293 434.939 900.67 428.287 905.448C422.913 909.271 385.173 912.342 361.121 913.434H343.658C319.607 912.342 281.866 909.271 276.493 905.448C269.776 900.67 262.42 887.293 261.141 868.181C260.501 858.967 259.542 786.958 259.286 711.468C259.03 678.911 259.094 654.04 259.286 630.083C259.286 630.083 270.8 635.364 348.776 635.364C426.751 635.364 445.365 630.083 445.365 630.083Z" fill="#EFEDE4"/>
<path d="M259.154 629.969C261.78 619.117 323.394 618.898 352.023 618.898C380.652 618.898 445.532 618.898 445.532 630.515C445.468 642.185 256.08 642.731 259.154 629.969Z" fill="#E7E4D6"/>
<path d="M266.743 1149.98C266.743 1149.98 262.83 1166.23 271.031 1194.42C279.232 1222.61 292.549 1264.48 301.502 1281.84C310.38 1299.19 320.838 1347.58 309.703 1375.03C298.568 1402.49 277.05 1428.48 245.827 1444.37C214.603 1460.25 142.601 1453.01 114.387 1440.05C86.1735 1427.02 68.3423 1407.54 56.4548 1378.62C44.5674 1349.7 47.5768 1325.18 54.9501 1303.51C62.3986 1281.84 76.4679 1255.84 84.6688 1231.98C92.8696 1208.11 96.5562 1187.17 98.8134 1172.75C101.07 1158.33 102.5 1140.83 102.5 1140.83L266.743 1149.98Z" fill="#EFEDE4"/>
<path d="M268.372 1147.59C269.497 1138.47 256.747 1124.08 183.393 1124.08C110.039 1124.08 100.664 1139.6 100.664 1143.8C100.664 1148 103.439 1166.49 180.618 1166.95C250.671 1167.31 267.622 1154.04 268.372 1147.59Z" fill="#E7E4D6"/>
<defs>
<linearGradient id="paint0_linear_84_1050" x1="584.851" y1="433.992" x2="665.172" y2="433.992" gradientUnits="userSpaceOnUse">
<stop stop-color="white"/>
<stop offset="1" stop-color="white"/>
</linearGradient>
<linearGradient id="paint1_linear_84_1050" x1="1181.85" y1="258.992" x2="1262.17" y2="258.992" gradientUnits="userSpaceOnUse">
<stop stop-color="white"/>
<stop offset="1" stop-color="white"/>
</linearGradient>
</defs>
</svg>
