<svg width="193" height="112" viewBox="0 0 193 112" fill="none" xmlns="http://www.w3.org/2000/svg">
<path d="M61.7818 104.113C42.8064 117.568 46.0252 107.936 51.5466 98.8309C52.114 97.8952 50.7644 96.4139 49.6738 96.5037C47.5989 96.6746 46.5364 95.4375 46.0754 94.025C45.8231 93.2518 44.8584 92.7681 44.1866 93.2266C30.0931 102.847 27.2332 98.5079 27.6099 94.2384C27.663 93.6369 27.2407 93.0708 26.6423 92.9904C13.907 91.2804 15.7596 79.2534 18.7336 72.3101C18.9945 71.7011 18.6226 70.9956 18.0357 70.688C15.3071 69.2582 14.6539 65.0941 14.6952 62.1219C14.7052 61.4047 14.0079 60.8518 13.3075 61.0068C7.10096 62.3801 8.69645 57.7982 11.6146 53.3489C12.2206 52.425 11.0437 51.0274 10.0306 51.4684C1.44636 55.2046 0.207815 52.245 1.36935 48.2844C2.43523 44.6499 5.24746 41.8528 8.20445 39.4861C11.409 36.9212 14.588 34.5123 17.7393 32.2516C29.4869 23.8241 43.3776 19.1485 57.5905 16.4994L58.9159 16.2523C66.9506 14.7548 74.8098 12.4338 82.369 9.32628C95.6794 3.85449 109.969 0.23264 124.206 2.32804C145.322 5.43571 160.597 13.2124 167.781 17.1125C176.871 22.0467 177.741 24.2973 176.001 25.1779C175.057 25.6556 174.541 27.2963 175.423 27.88C184.617 33.9636 184.795 37.3408 182.936 38.8351C182.318 39.332 182.056 40.3359 182.63 40.8835C188.944 46.9114 191.291 50.2741 191.408 51.9622C191.475 52.9293 186.019 58.0379 185.081 58.2823C184.321 58.4802 184.393 59.5863 185.044 60.0244C191.865 64.6132 190.343 67.2185 188.431 68.0514C188.333 68.0941 188.227 68.1151 188.12 68.1201C177.671 68.6132 167.995 69.3865 159 70.4203L113.5 71.1123L106.967 76.0475C97.6903 83.0553 87.4416 88.6336 77.2904 94.3011C71.8029 97.3648 66.6737 100.644 61.7818 104.113Z" fill="#85CC1B" stroke="#637F17" stroke-width="2"/>
<path d="M32 40.9089C71.6 3.7089 130.5 18.0756 155 29.9089L144.5 33.4092L160.5 45.4092H146.5L158 52.4092C128.4 45.6092 81 70.2425 61 83.4092L69.5 69.9092L53 68.4092L58 54.4092L42.5 56.4092L44.5 42.4092L32 40.9089Z" fill="#AAE82E"/>
<path d="M69.5 86.5C72.5 83.1667 79.5 76.5 83.5 76.5M97.5 70.5C111.5 59.6667 143.8 40 161 48M128.5 62.5003C134.833 59.167 149.7 53.5003 158.5 57.5003M47.5 90.5003C57.8333 82.0003 80.4 65.0003 88 65.0003M57 78.0003C67.6667 66.5003 96.9 43.1003 128.5 41.5003M106.5 39.5003C114.333 33.8337 137.2 24.6003 166 33.0003M52 65.0003C58 58.3336 75.5 45 97.5 45M65.5 48C76.3333 38 114 18 161 25M34 86.5C39 81.1667 49.6 70.5 52 70.5M30.5 78.0003C33 73.667 39.4 65.0003 45 65.0003M42.5 49C53.8333 38.8333 81.7 19.5 102.5 23.5M26 51C36 41.3333 59.7 22 74.5 22" stroke="#637F17" stroke-width="2"/>
<path d="M114.5 72C121.3 61.2 90.8333 33.5 71 13L67 14.5C101.4 46.9 109.5 68.5 109 75L114.5 72Z" fill="#FCC534" stroke="#AF830D"/>
<g clip-path="url(#clip0_85_2200)">
<path fill-rule="evenodd" clip-rule="evenodd" d="M91.0875 37.8034C91.0875 37.8034 91.0711 35.9225 91.9302 35.0377C92.7747 34.1553 94.967 34.1063 94.967 34.1063C94.967 34.1063 97.9744 29.3372 101.117 26.1445C104.241 22.9246 110.677 18.3092 114.954 18.9812C119.228 19.6385 120.513 21.6417 121.701 24.1872C122.887 26.718 122.768 29.584 122.381 31.195C121.992 32.7913 121.403 34.7498 119.247 35.7273C117.094 36.7196 115.945 37.0911 112.721 38.2771C109.495 39.4485 99.1743 41.0267 99.1743 41.0267L98.49 37.6357L104.294 34.6991C104.294 34.6991 105.272 34.7906 107.269 34.3496C109.268 33.9234 115.792 31.856 117.171 30.726C118.551 29.596 119.055 27.3792 119.055 27.3792C119.055 27.3792 117.628 26.814 115.029 28.1456C112.43 29.4772 109.754 30.3988 108.097 31.7821C106.423 33.1531 98.49 37.6357 98.49 37.6357C98.49 37.6357 99.4783 40.4529 98.8848 41.7942C98.2914 43.1355 97.4982 43.6636 96.6588 43.9878C95.8342 44.3098 95.3591 42.484 95.3591 42.484C95.3591 42.484 94.0837 42.8146 92.1107 43.3122C90.1376 43.8098 85.8709 44.9745 84.537 44.9223C83.2031 44.8702 77.0444 45.7818 75.8026 46.5292C74.5609 47.2765 71.2845 50.1883 70.81 51.421C70.3356 52.6538 69.4008 53.3391 70.3098 53.6672C71.2188 53.9953 76.8542 53.2089 79.2294 52.4841C81.6194 51.757 84.6588 50.4485 86.2733 49.4783C87.8878 48.5082 89.123 47.5208 89.7955 46.4989C90.4679 45.4769 91.0097 43.6011 91.0097 43.6011L95.3444 42.4862C95.3444 42.4862 96.2513 42.6037 95.7907 43.533C95.3301 44.4622 93.8179 47.4809 92.0303 49.487C90.2427 51.4931 88.0505 52.6268 86.7849 53.5135C85.5169 54.3854 79.75 57.8588 74.5013 57.9231C69.2402 58.0044 68.8959 56.8366 67.6255 55.5241C66.355 54.2117 65.0146 52.6387 64.9644 50.537C64.9289 48.433 65.5673 45.0206 69.4211 42.141C73.2727 39.2468 76.6294 38.9294 79.8695 38.5394C83.139 38.1449 91.0875 37.8034 91.0875 37.8034Z" fill="#FCC534"/>
<path fill-rule="evenodd" clip-rule="evenodd" d="M88.8595 73.4013C88.3441 73.676 88.2801 74.2432 86.9901 73.2954C85.7 72.3475 84.7895 71.2211 83.6255 71.0978C82.4615 70.9744 80.5446 70.7552 79.5937 70.4486C78.6428 70.142 77.9479 69.736 79.0177 68.8492C80.0897 67.9771 84.4705 63.4199 85.463 61.5354C86.4533 59.6361 89.0881 54.8939 89.6567 53.5865C90.2082 52.2666 90.3792 51.02 90.3792 51.02C90.3792 51.02 92.3509 49.5282 93.3003 47.7558C94.2497 45.9833 95.8033 43.5309 95.8033 43.5309C95.8033 43.5309 95.2564 45.965 95.48 47.9197C95.7035 49.8744 94.9847 52.1691 94.9106 55.1336C94.8219 58.1003 94.183 59.539 93.713 62.0819C93.2578 64.6225 92.6539 66.1915 91.6529 68.7101C90.6393 71.2457 89.375 73.1266 88.8595 73.4013Z" fill="#FCC534"/>
<path fill-rule="evenodd" clip-rule="evenodd" d="M99.3803 40.8904C99.3803 40.8904 102.642 40.5423 104.612 40.1206C106.583 39.7136 111.771 38.5587 111.771 38.5587C111.771 38.5587 114.023 39.2991 116.448 38.7023C118.859 38.1077 121.695 36.9507 122.554 36.4578C123.413 35.9649 124.352 34.2241 125.329 34.9939C126.32 35.7614 127.591 38.264 127.457 40.0474C127.308 41.833 127.4 42.5272 125.01 43.5555C122.621 44.5838 120.304 45.1943 117.356 45.5246C114.41 45.8695 112.075 46.1663 108.676 45.6163C105.277 45.0663 102.556 44.2168 101.733 43.6646C100.91 43.1123 98.8248 41.5931 98.8248 41.5931L99.3803 40.8904Z" fill="#FCC534"/>
<path fill-rule="evenodd" clip-rule="evenodd" d="M91.1445 37.6889C91.2541 37.9132 91.4793 38.1048 91.7339 38.2919C92.0202 38.4891 92.3801 38.6752 92.5634 38.8882C94.0646 40.527 94.8538 41.7473 95.5007 43.9085C95.5594 44.0954 95.7541 44.1861 95.9286 44.1444C96.1154 44.0857 96.2062 43.891 96.1645 43.7166C95.4701 41.4421 94.6571 40.1652 93.0813 38.4324C92.8833 38.2216 92.5823 38.0265 92.2812 37.8315C92.0651 37.6988 91.8489 37.5661 91.7608 37.3837C91.6748 37.216 91.4677 37.1422 91.3 37.2282C91.1176 37.3163 91.0586 37.5212 91.1445 37.6889Z" fill="#AF830D"/>
<path fill-rule="evenodd" clip-rule="evenodd" d="M91.5736 36.9305C91.46 36.0891 92.011 35.3569 92.7542 34.8967C93.5122 34.4343 94.4602 34.229 95.1608 34.5739C96.6425 35.2966 98.2597 37.5957 98.6325 39.7385C98.8691 41.0885 98.6165 42.3927 97.4189 43.1334C97.2388 43.2362 97.0677 43.398 96.8773 43.5326C96.7561 43.6265 96.6201 43.7226 96.4729 43.7451C96.2815 43.7744 96.1567 43.9441 96.186 44.1355C96.2153 44.3269 96.385 44.4516 96.5764 44.4224C96.7825 44.3909 96.9797 44.3004 97.17 44.1659C97.3898 44.0268 97.5859 43.8311 97.7785 43.7112C99.2231 42.8123 99.6016 41.2477 99.3053 39.6055C98.8862 37.2588 97.0857 34.7467 95.4558 33.9412C94.5605 33.5055 93.3385 33.6924 92.3755 34.2917C91.3977 34.8932 90.7083 35.9027 90.8771 37.0069C90.9064 37.1983 91.0761 37.323 91.2675 37.2937C91.4781 37.2917 91.6029 37.1219 91.5736 36.9305Z" fill="#AF830D"/>
<path fill-rule="evenodd" clip-rule="evenodd" d="M95.0798 34.1491C98.8092 28.682 103.808 22.7495 110.113 20.2334C113.55 18.8641 116.348 19.1294 118.42 20.5603C120.495 22.006 121.814 24.6219 122.311 27.8756C122.341 28.067 122.51 28.1918 122.702 28.1625C122.893 28.1332 123.018 27.9635 122.989 27.7721C122.459 24.3122 121.027 21.5479 118.802 20.0047C116.575 18.4468 113.558 18.1247 109.85 19.5957C103.432 22.1592 98.3114 28.1856 94.5072 33.7546C94.3949 33.9073 94.4434 34.1259 94.5962 34.2382C94.7637 34.3482 94.9676 34.3019 95.0798 34.1491Z" fill="#AF830D"/>
<path fill-rule="evenodd" clip-rule="evenodd" d="M98.9146 37.7514C104.034 35.4618 108.236 31.8058 113.127 29.2047C115.677 27.8504 118.966 26.8954 121.639 28.5058C121.804 28.6011 122.008 28.5548 122.118 28.3873C122.213 28.2221 122.167 28.0182 121.999 27.9082C119.111 26.1651 115.552 27.1312 112.807 28.5906C107.916 31.1918 103.741 34.8286 98.6366 37.1159C98.4667 37.187 98.3782 37.3964 98.4663 37.5788C98.5375 37.7488 98.7469 37.8373 98.9146 37.7514Z" fill="#AF830D"/>
<path fill-rule="evenodd" clip-rule="evenodd" d="M118.565 28.4039C118.572 28.2521 118.701 28.1118 118.863 28.0871C119.054 28.0578 119.224 28.1825 119.253 28.3739C119.265 28.4475 119.241 28.5868 119.175 28.7475C119.105 28.8788 118.947 29.1289 118.934 29.1459C118.513 30.4308 117.323 31.0197 116.028 31.7149C113.591 33.0217 107.157 34.8945 104.574 35.2443C104.382 35.2736 104.21 35.1341 104.181 34.9427C104.152 34.7513 104.291 34.5793 104.483 34.5501C107.024 34.2217 113.327 32.384 115.708 31.1009C116.292 30.7855 116.867 30.5018 117.339 30.1432C117.772 29.8209 118.108 29.4532 118.281 28.9143C118.299 28.8362 118.527 28.4548 118.565 28.4039Z" fill="#AF830D"/>
<path fill-rule="evenodd" clip-rule="evenodd" d="M99.4919 41.2194C100.569 41.2657 101.816 40.849 102.891 40.6846C105.835 40.2344 108.544 39.8201 111.402 38.901C113.225 38.3059 114.971 37.7073 116.714 36.8834C117.64 36.4403 118.873 36.2218 119.688 35.645C121.891 34.0877 123.084 30.9521 123.061 28.334C123.061 28.1381 122.903 27.9964 122.708 27.9962C122.512 27.9961 122.37 28.1533 122.37 28.3492C122.391 30.7567 121.314 33.6637 119.287 35.0886C118.498 35.6462 117.308 35.8433 116.409 36.2671C114.693 37.0718 112.976 37.6658 111.183 38.2564C108.355 39.1711 105.688 39.5639 102.772 40.0096C101.742 40.1672 100.554 40.5749 99.5084 40.5389C99.3125 40.5387 99.1539 40.6835 99.1514 40.8647C99.149 41.0459 99.2938 41.2045 99.4919 41.2194Z" fill="#AF830D"/>
<path fill-rule="evenodd" clip-rule="evenodd" d="M69.6188 56.8313C69.5501 56.4802 69.4666 56.1314 69.4576 56.0725C69.2908 55.1789 69.2903 54.4859 69.4542 53.5869C69.899 51.2739 71.5986 48.8895 73.483 47.5165C76.1788 45.5373 79.2933 45.0158 82.5526 44.653C84.2423 44.47 85.9242 44.1375 87.6306 44.1628C88.3406 44.1748 89.154 43.7792 89.811 43.5431C91.1295 43.1004 93.2805 42.4852 94.6644 42.2736C94.8558 42.2443 95.0256 42.3691 95.0548 42.5605C95.0841 42.7519 94.9594 42.9216 94.768 42.9509C93.4135 43.158 91.3192 43.7495 90.0301 44.1876C89.3142 44.4327 88.3978 44.8441 87.6142 44.8434C85.9394 44.8282 84.2994 45.1393 82.6267 45.3348C79.5022 45.6921 76.484 46.1536 73.8993 48.0706C72.1531 49.3622 70.5612 51.5644 70.1505 53.7064C70.0025 54.5126 69.9918 55.132 70.1575 55.9203C70.1688 55.9939 70.3098 56.6202 70.3773 57.0619C70.4156 57.3122 70.4176 57.5228 70.387 57.6179C70.3586 57.7277 70.294 57.7979 70.2396 57.8363C70.158 57.894 70.0719 57.9222 69.9621 57.8938C69.9009 57.8881 69.721 57.7951 69.4981 57.6182C68.9119 57.1353 67.7376 55.9588 67.5124 55.7672C66.7747 55.0815 65.8084 54.28 65.3654 53.3533C63.8124 50.0952 65.1551 45.4752 67.6757 43.0406C72.8382 38.0775 78.7026 38.2958 85.3229 37.8409C87.0069 37.719 89.6832 37.1892 91.1278 37.571C91.3157 37.6176 91.4208 37.8125 91.3742 38.0004C91.3276 38.1884 91.1328 38.2935 90.9448 38.2469C89.5467 37.8731 86.9802 38.4313 85.3551 38.5441C78.899 38.989 73.1604 38.7063 68.1294 43.5438C65.8048 45.7826 64.5429 50.0438 65.9669 53.0504C66.3693 53.908 67.2779 54.6279 67.9624 55.2615C68.1537 55.4281 69.0067 56.277 69.6188 56.8313Z" fill="#AF830D"/>
<path fill-rule="evenodd" clip-rule="evenodd" d="M94.6725 44.2915C92.647 48.8803 89.8555 51.6125 85.309 54.1007C83.1405 55.2911 80.844 56.5312 78.4123 57.0839C77.3194 57.3264 75.3373 57.765 73.5323 57.7849C72.4055 57.8065 71.3446 57.6674 70.6804 57.1663C70.5276 57.0541 70.3068 57.0878 70.1945 57.2406C70.0823 57.3934 70.116 57.6142 70.2688 57.7265C71.0326 58.2877 72.2396 58.4949 73.5475 58.4757C75.3967 58.4491 77.4399 58.0161 78.5601 57.7544C81.0507 57.1927 83.4162 55.9119 85.6413 54.6978C90.3408 52.1259 93.2241 49.3043 95.3177 44.5695C95.396 44.3918 95.3203 44.1924 95.1426 44.1141C94.9501 44.0381 94.7508 44.1138 94.6725 44.2915Z" fill="#AF830D"/>
<path fill-rule="evenodd" clip-rule="evenodd" d="M70.686 54.1373C70.6054 54.3003 70.4061 54.376 70.2453 54.3102C70.0676 54.2319 69.9772 54.0348 70.0555 53.8571C70.1542 53.616 70.3865 53.4599 70.6957 53.4126C71.1374 53.3451 71.7793 53.5031 72.0364 53.509C73.924 53.5367 75.811 53.0674 77.6198 52.5798C80.5987 51.7627 83.1079 50.7311 85.7761 49.1629C86.5363 48.7152 87.5501 48.3492 88.1927 47.7236C89.3046 46.6194 90.0318 45.1673 90.7453 43.8226C90.8405 43.6574 91.0422 43.5964 91.2052 43.677C91.3704 43.7722 91.4314 43.9739 91.3508 44.1369C90.6022 45.5471 89.8376 47.0502 88.6736 48.2076C87.9935 48.8841 86.9378 49.2716 86.1232 49.7578C83.4006 51.3644 80.8348 52.4197 77.797 53.2458C75.9315 53.7571 73.9857 54.2355 72.0221 54.2042C71.8115 54.2063 71.3258 54.0847 70.9363 54.0991C70.8604 54.0956 70.7868 54.1069 70.7279 54.1159C70.7154 54.1328 70.7007 54.1351 70.686 54.1373Z" fill="#AF830D"/>
<path fill-rule="evenodd" clip-rule="evenodd" d="M87.8102 73.9081C86.9135 73.7589 86.1349 73.1999 85.3541 72.6263C84.6559 72.1002 83.9407 71.5617 83.1278 71.3696C82.4882 71.2263 81.7974 71.2415 81.1169 71.225C80.3605 71.2051 79.6222 71.107 78.9635 70.7407C78.8809 70.6931 78.3138 70.4332 78.1011 70.2247C77.9586 70.0807 77.9168 69.9063 77.9452 69.7965C77.9555 69.7648 77.9612 69.7037 78.0111 69.6358C78.0485 69.5848 78.1256 69.4977 78.2423 69.3744C78.724 68.8788 79.9118 67.7781 80.041 67.6378C81.2753 66.3492 82.4939 64.9574 83.5902 63.5543C86.3904 59.9921 88.2503 55.6998 90.0613 51.5807C90.1396 51.403 90.3389 51.3274 90.5167 51.4056C90.6944 51.4839 90.7701 51.6833 90.6918 51.861C88.8411 56.0163 86.946 60.3742 84.1209 63.9704C83.0121 65.3905 81.7663 66.8014 80.5343 68.1048C80.405 68.2451 79.2423 69.3119 78.7628 69.8221L79.3219 70.1284C79.8833 70.4494 80.5094 70.5043 81.1605 70.5253C81.8875 70.5497 82.6224 70.5277 83.296 70.6959C84.2165 70.9017 84.9996 71.4902 85.7804 72.0638C86.4763 72.5752 87.1575 73.0888 87.9467 73.2242C88.1324 73.2561 88.2647 73.4318 88.2328 73.6174" fill="#AF830D"/>
<path fill-rule="evenodd" clip-rule="evenodd" d="M89.4079 73.4989C89.6482 73.2964 89.9373 72.9208 90.2253 72.4398C91.1314 70.9753 92.1777 68.5552 92.3762 68.1783C93.2712 66.4443 93.4746 64.4243 93.9112 62.5495C94.3796 60.489 94.9533 58.4275 95.1874 56.3124C95.3403 54.948 95.2952 53.5688 95.4651 52.2168C95.7527 49.7621 96.3744 47.2261 95.6678 44.7728C95.6091 44.5859 95.4269 44.4781 95.24 44.5368C95.0531 44.5956 94.9453 44.7778 95.0041 44.9647C95.6802 47.3172 95.0597 49.7626 94.788 52.1245C94.6203 53.4911 94.6655 54.8704 94.5125 56.2348C94.2887 58.3182 93.7252 60.348 93.2545 62.3938C92.8407 64.2199 92.6577 66.1765 91.7854 67.8618C91.5869 68.2387 90.5678 70.6396 89.6572 72.0746C89.4395 72.4243 89.2422 72.7106 89.0438 72.8916C88.9792 72.9618 88.9271 73.015 88.8682 73.024C88.6768 73.0532 88.5521 73.223 88.5814 73.4144" fill="#AF830D"/>
<path fill-rule="evenodd" clip-rule="evenodd" d="M99.2992 42.1233C101.137 43.8915 103.979 45.0389 107.117 45.6589C111.763 46.5758 117.026 46.3134 120.403 45.2395C121.409 44.92 122.519 44.69 123.564 44.3342C124.666 43.9548 125.702 43.4348 126.473 42.5636C126.602 42.4233 126.583 42.2002 126.442 42.071C126.302 41.9418 126.079 41.9608 125.95 42.1011C125.256 42.8852 124.317 43.3452 123.328 43.6773C122.283 44.033 121.173 44.263 120.181 44.5803C116.893 45.6406 111.777 45.8805 107.241 44.992C104.259 44.4084 101.516 43.3211 99.7685 41.6447C99.6282 41.5155 99.4175 41.5176 99.2736 41.6601C99.1546 41.7687 99.1589 41.9941 99.2992 42.1233Z" fill="#AF830D"/>
<path fill-rule="evenodd" clip-rule="evenodd" d="M127.003 41.3214C127.025 41.2727 127.066 41.1459 127.082 41.0531C127.141 40.6523 127.109 40.145 127.086 39.9977C126.987 39.3499 126.455 37.2466 125.817 36.0332C125.691 35.7965 125.569 35.5891 125.441 35.4429C125.368 35.3636 125.313 35.2967 125.252 35.291C124.721 35.2668 124.216 35.6151 123.714 35.9781C123.118 36.4158 122.548 36.9248 122.014 37.1724C119.353 38.3929 115.668 39.6193 112.71 39.1976C112.525 39.1658 112.392 38.9901 112.41 38.8067C112.442 38.621 112.617 38.4887 112.801 38.5058C115.633 38.9013 119.171 37.6975 121.719 36.5244C122.325 36.2509 122.98 35.6083 123.662 35.1424C124.196 34.7895 124.745 34.5398 125.291 34.5618C125.472 34.5642 125.667 34.655 125.858 34.8216C126.051 35.003 126.263 35.3021 126.439 35.6669C127.103 36.9516 127.668 39.1705 127.772 39.8477C127.805 40.0686 127.868 40.8726 127.717 41.3628C127.619 41.7092 127.411 41.9219 127.161 41.9602C126.969 41.9895 126.799 41.8648 126.77 41.6734C126.733 41.5284 126.843 41.3609 127.003 41.3214Z" fill="#AF830D"/>
</g>
<defs>
<clipPath id="clip0_85_2200">
<rect width="64" height="50.7442" fill="white" transform="translate(61 26.6738) rotate(-8.69402)"/>
</clipPath>
</defs>
</svg>
